<?xml version="1.0" encoding="UTF-8"?>
<svg id="Calque_1" data-name="Calque 1" xmlns="http://www.w3.org/2000/svg" xmlns:xlink="http://www.w3.org/1999/xlink" viewBox="0 0 316.81 439.69">
  <defs>
    <style>
      .cls-1 {
        fill: none;
      }

      .cls-2 {
        fill: #1d66a5;
        stroke: #1d66a5;
      }

      .cls-2, .cls-3, .cls-4 {
        stroke-miterlimit: 10;
        stroke-width: 1.81px;
      }

      .cls-3 {
        fill: #ad151e;
        stroke: #ad151e;
      }

      .cls-4 {
        stroke: #fff;
      }

      .cls-4, .cls-5 {
        fill: #fff;
      }

      .cls-6 {
        clip-path: url(#clippath);
      }

      .cls-7 {
        fill: #1d70b7;
      }

      .cls-8 {
        fill: #5c9ed0;
      }

      .cls-9 {
        clip-path: url(#clippath-1);
      }

      .cls-10 {
        isolation: isolate;
      }
    </style>
    <clipPath id="clippath">
      <rect id="SVGID" class="cls-1" x="10.1" y="10.1" width="296.62" height="297.2" rx="25.64" ry="25.64"/>
    </clipPath>
    <clipPath id="clippath-1">
      <rect id="SVGID-2" data-name="SVGID" class="cls-1" x="-7.59" y="115.12" width="332.94" height="170.77"/>
    </clipPath>
  </defs>
  <g>
    <path class="cls-5" d="M32.13,.68h252.56c17.36,0,31.45,14.09,31.45,31.45V407.57c0,17.36-14.09,31.45-31.45,31.45H32.13c-17.36,0-31.45-14.09-31.45-31.45V32.13C.68,14.77,14.77,.68,32.13,.68Z"/>
    <path class="cls-7" d="M284.69,1.36c16.99,0,30.77,13.78,30.77,30.77V407.57c0,16.99-13.78,30.77-30.77,30.77H32.13c-16.99,0-30.77-13.78-30.77-30.77V32.13C1.36,15.13,15.13,1.36,32.13,1.36h252.56m0-1.36H32.13C14.41,0,0,14.41,0,32.13V407.57c0,17.71,14.41,32.13,32.13,32.13h252.56c17.71,0,32.13-14.41,32.13-32.13V32.13c0-17.71-14.41-32.13-32.13-32.13h0Z"/>
  </g>
  <g>
    <path class="cls-7" d="M67.8,385.39h10.47c3.15,0,5.61,.96,7.38,2.89s2.65,4.61,2.65,8.06c0,1.41-.18,2.71-.55,3.89-.37,1.18-.93,2.26-1.68,3.24-.89,1.17-1.96,2.02-3.2,2.52-1.25,.51-2.9,.76-4.96,.76h-4.67v7.74h-5.44v-29.1Zm5.44,4.61v12.17h3.32c2.2,0,3.76-.48,4.67-1.45,.92-.96,1.37-2.57,1.37-4.81s-.42-3.69-1.26-4.58-2.3-1.34-4.37-1.34h-3.74Z"/>
    <path class="cls-7" d="M90.88,385.39h11.14c2.81,0,4.93,.67,6.35,2.01s2.14,3.33,2.14,5.97v13.38h-14.61c-2.05,0-3.62-.53-4.72-1.6s-1.65-2.59-1.65-4.55c0-2.43,.63-4.17,1.9-5.23,1.27-1.06,3.37-1.58,6.3-1.58h7.15v-.54c0-1.27-.36-2.16-1.08-2.67-.72-.51-2-.77-3.84-.77h-9.08v-4.42Zm7.23,17.07h6.81v-4.42h-6.41c-1.27,0-2.15,.18-2.63,.54-.48,.36-.72,.98-.72,1.86,0,.75,.19,1.28,.58,1.57,.39,.3,1.18,.45,2.38,.45Z"/>
    <path class="cls-7" d="M114.08,385.39h9.14c2.14,0,3.63,.4,4.49,1.2,.86,.8,1.29,2.19,1.29,4.19v3.56h-5.19v-2.75c0-.83-.14-1.39-.43-1.67-.29-.28-.94-.42-1.96-.42h-1.91v17.26h-5.44v-21.36Z"/>
    <path class="cls-7" d="M131.7,385.39h11.14c2.81,0,4.93,.67,6.35,2.01s2.14,3.33,2.14,5.97v13.38h-14.61c-2.05,0-3.62-.53-4.72-1.6s-1.65-2.59-1.65-4.55c0-2.43,.63-4.17,1.9-5.23,1.27-1.06,3.37-1.58,6.3-1.58h7.15v-.54c0-1.27-.36-2.16-1.08-2.67-.72-.51-2-.77-3.84-.77h-9.08v-4.42Zm7.23,17.07h6.81v-4.42h-6.41c-1.27,0-2.15,.18-2.63,.54-.48,.36-.72,.98-.72,1.86,0,.75,.19,1.28,.58,1.57,.39,.3,1.18,.45,2.38,.45Z"/>
    <path class="cls-7" d="M154.95,385.39h10.47c3.15,0,5.61,.96,7.38,2.89s2.65,4.61,2.65,8.06c0,1.41-.18,2.71-.55,3.89-.37,1.18-.93,2.26-1.68,3.24-.89,1.17-1.96,2.02-3.21,2.52-1.25,.51-2.9,.76-4.96,.76h-4.67v7.74h-5.44v-29.1Zm5.44,4.61v12.17h3.32c2.2,0,3.76-.48,4.67-1.45,.92-.96,1.37-2.57,1.37-4.81s-.42-3.69-1.26-4.58-2.3-1.34-4.37-1.34h-3.74Z"/>
    <path class="cls-7" d="M186.77,406.76c-3.41,0-5.99-.9-7.74-2.7-1.75-1.8-2.62-4.46-2.62-7.97s.88-6.17,2.63-7.98c1.75-1.81,4.33-2.71,7.73-2.71h7.94v4.45h-7.19c-1.97,0-3.3,.29-3.98,.87-.68,.58-1.05,1.63-1.1,3.15h12.27v4.45h-12.27c.05,1.53,.39,2.58,1.02,3.14,.63,.56,1.97,.84,4.02,.84h7.23v4.45h-7.94Z"/>
    <path class="cls-7" d="M197.01,385.39h10.22c3.09,0,5.3,.6,6.62,1.81,1.32,1.21,1.98,3.21,1.98,6.01v13.54h-5.44v-12.85c0-1.6-.24-2.63-.71-3.11-.48-.47-1.43-.71-2.87-.71h-4.37v16.67h-5.44v-21.36Z"/>
    <path class="cls-7" d="M217.24,385.39h3.83v-7.74h5.44v7.74h5.74v4.26h-5.74v8.63c0,1.58,.26,2.68,.78,3.3,.52,.61,1.43,.92,2.73,.92h2.23v4.26h-4.96c-2.01,0-3.55-.58-4.62-1.73-1.07-1.15-1.6-2.81-1.6-4.96v-10.41h-3.83v-4.26Z"/>
    <path class="cls-7" d="M243.46,406.76c-3.41,0-5.99-.9-7.74-2.7-1.75-1.8-2.62-4.46-2.62-7.97s.88-6.17,2.63-7.98c1.75-1.81,4.33-2.71,7.73-2.71h7.94v4.45h-7.19c-1.97,0-3.3,.29-3.98,.87-.68,.58-1.05,1.63-1.1,3.15h12.27v4.45h-12.27c.05,1.53,.39,2.58,1.02,3.14,.63,.56,1.97,.84,4.02,.84h7.23v4.45h-7.94Z"/>
  </g>
  <g>
    <path class="cls-7" d="M36.11,315.13v12.71h12.09v-12.71h6.59v31.34h-6.59v-13.09h-12.09v13.09h-6.59v-31.34h6.59Z"/>
    <path class="cls-7" d="M65.72,320.84h-6.38v-5.71h6.38v5.71Zm0,25.63h-6.38v-23.01h6.38v23.01Z"/>
    <path class="cls-7" d="M91.23,345.64c0,3.16-.7,5.47-2.11,6.95s-3.6,2.22-6.59,2.22h-11.92v-4.67h10.87c1.17,0,2.06-.28,2.69-.84,.62-.56,.94-1.38,.94-2.44v-.38h-4.95c-2.56,0-4.4-.19-5.52-.58-1.12-.38-2.16-1.04-3.11-1.96-1.09-1.04-1.94-2.33-2.53-3.88-.59-1.55-.88-3.23-.88-5.03s.29-3.44,.88-4.98c.59-1.54,1.43-2.83,2.53-3.87,.98-.97,2.13-1.66,3.45-2.08,1.32-.42,3.05-.63,5.18-.63h11.07v22.17Zm-9.27-3.92h3.16v-13.33h-3.16c-1.52,0-2.59,.06-3.2,.17-.61,.11-1.14,.31-1.6,.58-.94,.57-1.62,1.32-2.06,2.25-.43,.93-.65,2.14-.65,3.64,0,2.46,.55,4.19,1.64,5.19,1.09,1,3.05,1.5,5.86,1.5Z"/>
    <path class="cls-7" d="M94.97,315.13h6.03v8.34h5.39c3.38,0,5.83,.67,7.35,1.99s2.27,3.47,2.27,6.43v14.58h-6.12v-13.88c0-1.58-.29-2.65-.86-3.22s-1.64-.85-3.19-.85h-4.84v17.95h-6.03v-31.34Z"/>
    <path class="cls-7" d="M149.09,320.48c-2.73,0-4.69,.87-5.9,2.6s-1.8,4.58-1.8,8.55c0,3.44,.58,5.86,1.73,7.27s3.14,2.11,5.97,2.11h10.83v5.46h-11.15c-2.46,0-4.39-.21-5.8-.63s-2.73-1.13-3.97-2.12c-1.61-1.28-2.81-2.95-3.61-5s-1.2-4.51-1.2-7.37c0-5.54,1.2-9.63,3.6-12.27,2.4-2.64,6.13-3.96,11.17-3.96h10.96v5.35h-10.83Z"/>
    <path class="cls-7" d="M163.3,323.46h12.45c3.14,0,5.51,.72,7.1,2.16,1.59,1.44,2.39,3.59,2.39,6.43v14.41h-16.33c-2.29,0-4.05-.58-5.28-1.73s-1.84-2.79-1.84-4.9c0-2.62,.71-4.49,2.12-5.63,1.41-1.14,3.76-1.71,7.05-1.71h8v-.58c0-1.36-.4-2.32-1.21-2.88-.8-.55-2.23-.83-4.3-.83h-10.15v-4.75Zm8.08,18.38h7.61v-4.75h-7.16c-1.42,0-2.4,.19-2.94,.58-.54,.38-.81,1.05-.81,2,0,.81,.22,1.38,.65,1.7,.43,.32,1.32,.48,2.66,.48Z"/>
    <path class="cls-7" d="M189.24,323.46h11.43c3.45,0,5.92,.65,7.4,1.95s2.22,3.46,2.22,6.47v14.58h-6.08v-13.84c0-1.72-.27-2.83-.8-3.35-.53-.51-1.6-.77-3.21-.77h-4.88v17.95h-6.08v-23.01Z"/>
    <path class="cls-7" d="M230.11,332.06c0-3.99,.24-6.93,.73-8.79,.48-1.87,1.31-3.39,2.47-4.57,1.19-1.21,2.79-2.1,4.78-2.69s4.47-.88,7.44-.88h10.04v5.46h-10.6c-2.86,0-4.94,.6-6.24,1.8s-1.97,3.14-2.01,5.81l18.85,.02v5.42h-18.85v12.83h-6.61v-14.41Z"/>
    <path class="cls-7" d="M264.28,346.47h-6.33v-31.34h6.33v31.34Z"/>
    <path class="cls-7" d="M278.05,341.39h4.88v-17.93h6.08v22.39c0,3.04-.71,5.29-2.13,6.76-1.42,1.46-3.6,2.2-6.52,2.2h-11.92v-4.67h10.87c1.17,0,2.06-.28,2.69-.84,.63-.56,.94-1.38,.94-2.44v-.38h-5.37c-3.44,0-5.89-.68-7.36-2.04-1.46-1.36-2.2-3.62-2.2-6.79v-14.18h6.01v13.71c0,1.73,.26,2.87,.78,3.41,.52,.54,1.6,.81,3.25,.81Z"/>
  </g>
  <g>
    <g>
      <rect class="cls-8" x="8.81" y="8.82" width="299.19" height="299.77" rx="26.92" ry="26.92"/>
      <path class="cls-5" d="M281.08,10.1c14.1,0,25.64,11.54,25.64,25.64v245.92c0,14.1-11.54,25.64-25.64,25.64H35.74c-14.1,0-25.64-11.54-25.64-25.64V35.74c0-14.1,11.54-25.64,25.64-25.64h245.34m0-2.56H35.74c-15.55,0-28.21,12.65-28.21,28.21v245.92c0,15.55,12.65,28.21,28.21,28.21h245.34c15.55,0,28.21-12.65,28.21-28.21V35.74c0-15.55-12.65-28.21-28.21-28.21h0Z"/>
    </g>
    <path class="cls-5" d="M35.76,253.92c1.33-1.35,3.49-1.95,6.64-1.95h5.46v2.97h-5.76c-3.06,0-4.44,1.21-4.48,4.15h10.25v2.94h-10.25v6.97h-3.58v-7.83c0-3.39,.19-5.69,1.73-7.26"/>
    <path class="cls-5" d="M49.19,262.77c0-4.08,2.13-6.26,6.29-6.26h4.82v2.61h-4.37c-2.11,0-3.01,.36-3.08,2.35h7.45v2.61h-7.45c.07,2.06,.93,2.33,3.06,2.33h4.39v2.61h-4.82c-4.15,0-6.29-2.13-6.29-6.24m10.44-11.05l-4.06,3.3h-1.66l2.3-3.3h3.42Z"/>
    <path class="cls-5" d="M67.65,269.01c-3.89,0-6.1-2.42-6.1-6.41,0-1.66,.45-3.04,1.35-4.17,1.19-1.49,2.7-1.92,4.96-1.92h2.82v-4.53h3.3v17.03h-6.33Zm3.04-9.8h-1.99c-2.56,0-3.68,.93-3.68,3.63s.97,3.49,3.42,3.49h2.25v-7.12Z"/>
    <path class="cls-5" d="M76.14,262.77c0-4.08,2.13-6.26,6.29-6.26h4.82v2.61h-4.36c-2.11,0-3.01,.36-3.08,2.35h7.45v2.61h-7.45c.07,2.06,.93,2.33,3.06,2.33h4.39v2.61h-4.82c-4.15,0-6.29-2.13-6.29-6.24m10.44-11.05l-4.06,3.3h-1.66l2.3-3.3h3.42Z"/>
    <path class="cls-5" d="M94.91,256.51c2.61,0,3.51,.83,3.51,3.15v2.09h-3.15v-1.61c0-1.11-.38-1.23-1.45-1.23h-1.16v10.11h-3.3v-12.5h5.55Z"/>
    <path class="cls-5" d="M107.53,256.51c3.42,0,5.15,1.59,5.15,4.67v7.83h-8.87c-2.49,0-3.87-1.31-3.87-3.61,0-2.89,1.49-3.99,4.98-3.99h4.34v-.31c0-1.59-.9-2.02-2.99-2.02h-5.5v-2.59h6.76Zm1.75,9.99v-2.59h-3.89c-1.4,0-2.04,.28-2.04,1.4,0,1.04,.59,1.19,1.8,1.19h4.13Z"/>
    <path class="cls-5" d="M116.66,256.51v-4.53h3.3v4.53h3.49v2.49h-3.49v5.05c0,1.73,.45,2.47,2.13,2.47h1.35v2.49h-3.01c-2.4,0-3.77-1.35-3.77-3.91v-6.1h-2.33v-2.49h2.33Z"/>
    <path class="cls-5" d="M125.39,251.97h3.46v3.11h-3.46v-3.11Zm0,4.53h3.46v12.5h-3.46v-12.5Z"/>
    <path class="cls-5" d="M137.52,269.22c-4.08,0-6.64-2.59-6.64-6.45s2.56-6.48,6.64-6.48,6.62,2.59,6.62,6.48-2.51,6.45-6.62,6.45m-.02-2.68c1.94,0,3.18-1.35,3.18-3.77s-1.21-3.77-3.18-3.77-3.16,1.36-3.16,3.77,1.21,3.77,3.16,3.77"/>
    <path class="cls-5" d="M152.37,256.51c3.7,0,5.22,1.26,5.22,4.58v7.92h-3.3v-7.52c0-1.73-.31-2.23-2.18-2.23h-2.66v9.75h-3.3v-12.5h6.21Z"/>
    <path class="cls-5" d="M171.51,253.92c1.33-1.35,3.49-1.95,6.64-1.95h5.45v2.97h-5.76c-3.06,0-4.44,1.21-4.48,4.15h10.25v2.94h-10.25v6.97h-3.58v-7.83c0-3.39,.19-5.69,1.73-7.26"/>
    <path class="cls-5" d="M191.21,256.51c2.61,0,3.51,.83,3.51,3.15v2.09h-3.16v-1.61c0-1.11-.38-1.23-1.45-1.23h-1.16v10.11h-3.3v-12.5h5.55Z"/>
    <path class="cls-5" d="M203.83,256.51c3.42,0,5.15,1.59,5.15,4.67v7.83h-8.87c-2.49,0-3.87-1.31-3.87-3.61,0-2.89,1.49-3.99,4.98-3.99h4.34v-.31c0-1.59-.9-2.02-2.99-2.02h-5.5v-2.59h6.76Zm1.75,9.99v-2.59h-3.89c-1.4,0-2.04,.28-2.04,1.4,0,1.04,.59,1.19,1.8,1.19h4.13Z"/>
    <path class="cls-5" d="M218.09,256.51c3.7,0,5.22,1.26,5.22,4.58v7.92h-3.3v-7.52c0-1.73-.31-2.23-2.18-2.23h-2.66v9.75h-3.3v-12.5h6.21Z"/>
    <path class="cls-5" d="M236.42,266.33v2.68h-4.48c-2.07,0-3.53-.36-4.7-1.49-1.14-1.11-1.85-2.82-1.85-4.7,0-1.97,.69-3.7,1.85-4.82,1.16-1.11,2.63-1.49,4.7-1.49h4.48v2.7h-3.51c-2.82,0-4.08,.71-4.08,3.61,0,1.49,.45,2.49,1.47,3.11,.66,.41,1.49,.41,2.61,.41h3.51Zm-5.12,6.4c.64,0,.92-.24,.92-.76s-.4-.66-1.33-.66c-.17,0-.38,0-.59,.02v-2.44h1.28v1.09h.17c1.66,0,2.56,.71,2.56,2.02,0,1.38-.97,2.21-2.77,2.21-.88,0-1.97-.17-3.23-.5v-1.45c1.33,.33,2.32,.47,2.99,.47"/>
    <path class="cls-5" d="M245.63,256.51c3.42,0,5.15,1.59,5.15,4.67v7.83h-8.87c-2.49,0-3.87-1.31-3.87-3.61,0-2.89,1.49-3.99,4.98-3.99h4.34v-.31c0-1.59-.9-2.02-2.99-2.02h-5.5v-2.59h6.76Zm1.76,9.99v-2.59h-3.89c-1.4,0-2.04,.28-2.04,1.4,0,1.04,.59,1.19,1.8,1.19h4.13Z"/>
    <path class="cls-5" d="M253.67,251.97h3.46v3.11h-3.46v-3.11Zm0,4.53h3.46v12.5h-3.46v-12.5Z"/>
    <path class="cls-5" d="M266.75,266.4c1.19,0,1.78-.33,1.78-1.21s-.59-1.23-1.78-1.23h-2.85c-3.04,0-4.32-.62-4.32-3.53,0-2.68,1.4-3.91,4.41-3.91h7.1v2.61h-5.84c-1.49,0-2.28,.09-2.28,1.14,0,.78,.5,1.12,1.57,1.12h2.99c2.75,0,4.2,1.33,4.2,3.72s-1.45,3.91-3.42,3.91h-8.52v-2.61h6.95Z"/>
    <path class="cls-5" d="M273.36,262.77c0-4.08,2.13-6.26,6.29-6.26h4.81v2.61h-4.36c-2.11,0-3.01,.36-3.08,2.35h7.45v2.61h-7.45c.07,2.06,.92,2.33,3.06,2.33h4.39v2.61h-4.81c-4.15,0-6.29-2.13-6.29-6.24"/>
    <path class="cls-5" d="M100.45,297.48c-3.89,0-6.1-2.42-6.1-6.4,0-1.66,.45-3.04,1.35-4.17,1.19-1.49,2.71-1.92,4.96-1.92h2.82v-4.53h3.3v17.03h-6.33Zm3.04-9.8h-1.99c-2.56,0-3.68,.92-3.68,3.63s.97,3.49,3.42,3.49h2.25v-7.12Z"/>
    <path class="cls-5" d="M108.94,291.24c0-4.08,2.13-6.27,6.29-6.27h4.82v2.61h-4.36c-2.11,0-3.01,.36-3.08,2.35h7.45v2.61h-7.45c.07,2.07,.92,2.33,3.06,2.33h4.39v2.61h-4.82c-4.15,0-6.29-2.13-6.29-6.24"/>
    <polygon class="cls-5" points="129.16 280.44 133.22 280.44 138.34 293.13 143.58 280.44 147.4 280.44 140.28 297.48 136.58 297.48 129.16 280.44"/>
    <path class="cls-5" d="M152.68,297.69c-4.08,0-6.64-2.59-6.64-6.45s2.56-6.48,6.64-6.48,6.62,2.59,6.62,6.48-2.52,6.45-6.62,6.45m-.02-2.68c1.94,0,3.18-1.35,3.18-3.77s-1.21-3.78-3.18-3.78-3.15,1.36-3.15,3.78,1.21,3.77,3.15,3.77"/>
    <rect class="cls-5" x="161.27" y="280.44" width="3.44" height="17.03"/>
    <path class="cls-5" d="M178.19,295.7c-1.3-1.37-1.54-2.87-1.54-5.12v-10.13h3.58v10.01c0,1.4,.02,2.42,.59,3.08,.76,.9,1.78,1.12,3.3,1.12h4.22v2.82h-4.53c-2.47,0-4.11-.16-5.62-1.78"/>
    <path class="cls-5" d="M189.91,280.44h3.46v3.11h-3.46v-3.11Zm0,4.53h3.46v12.5h-3.46v-12.5Z"/>
    <path class="cls-5" d="M199.54,284.97h2.85c2.25,0,3.77,.43,4.96,1.92,.9,1.14,1.35,2.51,1.35,4.17,0,3.99-2.23,6.4-6.1,6.4h-6.36v-17.03h3.3v4.53Zm0,2.71v7.12h2.28c2.44,0,3.42-.88,3.42-3.49s-1.11-3.63-3.68-3.63h-2.01Z"/>
    <path class="cls-5" d="M216.26,284.97c2.61,0,3.51,.83,3.51,3.16v2.09h-3.15v-1.61c0-1.11-.38-1.23-1.45-1.23h-1.16v10.11h-3.3v-12.5h5.55Z"/>
    <path class="cls-5" d="M221.15,291.24c0-4.08,2.13-6.27,6.29-6.27h4.81v2.61h-4.36c-2.11,0-3.02,.36-3.08,2.35h7.45v2.61h-7.45c.07,2.07,.92,2.33,3.06,2.33h4.39v2.61h-4.81c-4.15,0-6.29-2.13-6.29-6.24"/>
    <path class="cls-5" d="M33.16,39.66c-6.96,7.07-7.82,17.46-7.82,32.77v35.34h16.17v-31.48h46.26v-13.28H41.51c.21-13.28,6.42-18.74,20.24-18.74h26.02v-13.39h-24.63c-14.25,0-23.99,2.68-29.99,8.78"/>
    <path class="cls-5" d="M278.04,95.02c-6.86,0-11.46-.96-14.89-5.03-2.57-3-2.68-7.6-2.68-13.92V30.88h-35.65l-23.67,57.29-23.13-57.29h-42.28c-14.25,0-23.99,2.68-29.99,8.78-6.96,7.07-7.82,17.46-7.82,32.77v35.34h16.17v-31.48h46.26v-13.28h-46.26c.21-13.28,6.42-18.74,20.24-18.74h31.21l27.68,63.5h16.7l26.5-63.42h7.87v32.26c0,10.17,1.07,16.92,6.96,23.13,6.85,7.28,14.24,8.03,25.38,8.03h20.45v-12.74h-19.06Z"/>
    <g class="cls-6">
      <g class="cls-10">
        <g class="cls-9">
          <path class="cls-3" d="M323.08,149.63c.97,1.24,.81,2.77-.22,3.69-1.72,1.54-3.47,3.09-4.86,4.42-20.38,18.07-41.36,30.64-63.04,38.54-21.68,7.91-44.05,11.14-67.11,10.56-4.12-.11-8.28-.33-12.46-.68-9.83-.93-19.07-1.48-27.77-1.7-41.79-1.06-71.11,5.67-91.63,15.94-20.51,10.3-32.3,24.11-39.2,37.64-4.58,9.03-6.97,17.96-8.15,25.6-.21,1.31-1.36,2.28-2.66,2.24-1.66-.2-2.6-1.49-2.39-2.89,1.89-12.11,6.63-27.38,17.94-41.58,11.3-14.2,29.15-27.22,56.83-34.9,18.46-5.12,41.29-7.91,69.54-7.2,8.82,.22,18.17,.79,28.1,1.72,4.08,.34,8.11,.56,12.14,.66,22.51,.57,44.18-2.58,65.2-10.24,17.24-6.29,34.06-15.62,50.51-28.5,4.34-2.57,8.68-5.34,13.02-8.3,.52-.33,1.25-.84,2.12-1.46,.85-.6,1.85-1.31,2.83-2.04,.56-.42,.98-.95,1.26-1.54"/>
          <path class="cls-4" d="M319.8,144.18c1.14,.03,2.24,.57,2.95,1.55,.82,1.17,.9,2.66,.32,3.9-.27,.59-.69,1.12-1.26,1.54-.98,.73-1.98,1.44-2.83,2.04-.87,.61-1.61,1.12-2.12,1.46-4.34,2.96-8.68,5.73-13.02,8.29-14.34,8.49-28.64,14.85-42.94,19.25-18.64,5.74-37.28,8.14-55.92,7.67-13.25-.34-26.49-2.11-39.79-5.16-26.18-7.01-48.55-10.23-67.67-10.71-22.33-.55-40.21,2.59-54.43,7.75-14.22,5.16-24.78,12.32-32.51,19.93-.79,.79-1.83,1.17-2.85,1.14-.95-.02-1.88-.4-2.59-1.13-1.46-1.5-1.4-3.96,.13-5.48,8.54-8.41,20.13-16.22,35.38-21.75,15.25-5.53,34.12-8.8,57.27-8.2,19.79,.5,42.7,3.8,69.18,10.89,12.85,2.95,25.58,4.65,38.28,4.98,17.86,.45,35.61-1.84,53.44-7.33,5.74-1.77,11.49-3.86,17.25-6.3,12.14-5.15,24.33-11.84,36.64-20.23,.43-.3,1.13-.78,1.95-1.35,.82-.58,1.77-1.26,2.7-1.95,.74-.54,1.59-.79,2.42-.77"/>
          <path class="cls-2" d="M61.58,123.8c26.31,.67,58.79,8.1,98.5,26.28,21.01,8.68,42.29,13.63,64.28,14.2,29.38,.73,60.12-6.35,93.4-23.36,.83-.42,1.71-.61,2.57-.59,1.87,.05,3.62,1.09,4.5,2.88,1.11,2.31,.39,5.07-1.6,6.61,.43-1.42,.35-2.9-.47-4.07-.71-.99-1.81-1.53-2.95-1.56-.83-.02-1.68,.23-2.42,.77-.93,.69-1.88,1.37-2.7,1.95-.82,.57-1.52,1.05-1.91,1.31-12.35,8.43-24.55,15.13-36.69,20.28-17.9,4.8-35.29,6.85-52.29,6.42-23.47-.59-46.11-5.92-68.16-15.05-38.89-17.79-70.01-24.78-94.55-25.4-21.56-.55-37.98,3.76-50.29,10.02-.82,.42-1.7,.61-2.55,.59-1.87-.05-3.63-1.1-4.5-2.89-1.26-2.62-.15-5.84,2.49-7.18,14.01-7.15,32.32-11.79,55.35-11.21"/>
        </g>
      </g>
    </g>
  </g>
</svg>