<svg id="Calque_5" data-name="Calque 5" xmlns="http://www.w3.org/2000/svg" xmlns:xlink="http://www.w3.org/1999/xlink" viewBox="0 0 740.67 745.66"><defs><style>.cls-1{fill:url(#Dégradé_vert);}.cls-2{fill:url(#Dégradé_vert-2);}.cls-3{fill:url(#Dégradé_vert-3);}.cls-4{fill:url(#Dégradé_vert-4);}.cls-5{fill:url(#Dégradé_vert-5);}.cls-6{fill:url(#Dégradé_vert-6);}.cls-7{fill:url(#Dégradé_vert-7);}.cls-8{fill:url(#Dégradé_vert-8);}.cls-9{fill:url(#Dégradé_vert-9);}.cls-10{fill:url(#Dégradé_vert-10);}.cls-11,.cls-12,.cls-13,.cls-14,.cls-15{stroke-miterlimit:10;}.cls-11{fill:url(#Dégradé_vert-11);stroke:url(#Dégradé_vert_II);}.cls-12,.cls-13,.cls-14{opacity:0.2;}.cls-12{fill:url(#Dégradé_vert-12);stroke:url(#Dégradé_vert_II-2);}.cls-13{fill:url(#Dégradé_vert-13);stroke:url(#Dégradé_vert_II-3);}.cls-14{fill:url(#Dégradé_vert-14);stroke:url(#Dégradé_vert_II-4);}.cls-15{fill:#882647;stroke:#882647;}.cls-16{fill:#39b54a;}</style><linearGradient id="Dégradé_vert" x1="101.29" y1="202.77" x2="252.04" y2="202.77" gradientTransform="matrix(-1, 0, 0, 1, 850.39, 0)" gradientUnits="userSpaceOnUse"><stop offset="0" stop-color="#95be1f"/><stop offset="0.5" stop-color="#3da938"/><stop offset="1" stop-color="#0e6835"/></linearGradient><linearGradient id="Dégradé_vert-2" x1="193.03" y1="97.47" x2="531.75" y2="97.47" xlink:href="#Dégradé_vert"/><linearGradient id="Dégradé_vert-3" x1="122.36" y1="357.77" x2="204.56" y2="357.77" xlink:href="#Dégradé_vert"/><linearGradient id="Dégradé_vert-4" x1="99.43" y1="309.18" x2="206.62" y2="309.18" xlink:href="#Dégradé_vert"/><linearGradient id="Dégradé_vert-5" x1="95.27" y1="255.74" x2="223.71" y2="255.74" xlink:href="#Dégradé_vert"/><linearGradient id="Dégradé_vert-6" x1="310.07" y1="100.72" x2="616.24" y2="100.72" xlink:href="#Dégradé_vert"/><linearGradient id="Dégradé_vert-7" x1="554.58" y1="188.19" x2="738.86" y2="188.19" xlink:href="#Dégradé_vert"/><linearGradient id="Dégradé_vert-8" x1="620.21" y1="233.21" x2="755.12" y2="233.21" xlink:href="#Dégradé_vert"/><linearGradient id="Dégradé_vert-9" x1="404.73" y1="122.94" x2="672.61" y2="122.94" xlink:href="#Dégradé_vert"/><linearGradient id="Dégradé_vert-10" x1="486.56" y1="152.99" x2="711.44" y2="152.99" xlink:href="#Dégradé_vert"/><linearGradient id="Dégradé_vert-11" x1="707.21" y1="384.38" x2="142.81" y2="384.38" gradientTransform="matrix(-1, 0, 0, 1, 794.97, -43.3)" xlink:href="#Dégradé_vert"/><linearGradient id="Dégradé_vert_II" x1="86.89" y1="340.83" x2="653.02" y2="340.83" gradientTransform="matrix(1, 0, 0, 1, 0, 0)" xlink:href="#Dégradé_vert"/><linearGradient id="Dégradé_vert-12" x1="440.63" y1="246.3" x2="491.67" y2="246.3" gradientTransform="matrix(1, 0, 0, 1, 0, 0)" xlink:href="#Dégradé_vert"/><linearGradient id="Dégradé_vert_II-2" x1="440.05" y1="246.3" x2="492.25" y2="246.3" gradientTransform="matrix(1, 0, 0, 1, 0, 0)" xlink:href="#Dégradé_vert"/><linearGradient id="Dégradé_vert-13" x1="178.07" y1="502.16" x2="254.62" y2="502.16" gradientTransform="matrix(1, 0, 0, 1, 0, 0)" xlink:href="#Dégradé_vert"/><linearGradient id="Dégradé_vert_II-3" x1="177.2" y1="502.16" x2="255.49" y2="502.16" gradientTransform="matrix(1, 0, 0, 1, 0, 0)" xlink:href="#Dégradé_vert"/><linearGradient id="Dégradé_vert-14" x1="508.11" y1="443.72" x2="601.11" y2="443.72" gradientTransform="matrix(1, 0, 0, 1, 0, 0)" xlink:href="#Dégradé_vert"/><linearGradient id="Dégradé_vert_II-4" x1="507.68" y1="443.85" x2="601.98" y2="443.85" gradientTransform="matrix(1, 0, 0, 1, 0, 0)" xlink:href="#Dégradé_vert"/></defs><path class="cls-1" d="M658.61,167.31c29.93,9.82,69.75,31.77,90.49,80.63-11.37-5.9-79.69-40.85-128.63-54.61a258.22,258.22,0,0,0-22.11-35.73A196.69,196.69,0,0,1,658.61,167.31Z" transform="translate(-55.03 -43.3)"/><path class="cls-2" d="M318.64,44.67c2.42-.22,4.85-.43,7.33-.61q10.48-.77,20.95-.76c92.47,0,184.52,43.42,301.77,103.7,3,1.54,5.85,3.08,8.67,4.63-29.94-7.06-69.43-7.52-70.15-7.53h0c-.2,0-11-.24-30.25.52-3.17-2.23-51-35.48-122-64.75C391.22,61.82,334.17,48.21,318.64,44.67Z" transform="translate(-55.03 -43.3)"/><path class="cls-3" d="M647.11,324c16.17,4.09,73.69,32.4,80.92,36-20.63,23.89-50.57,36.44-67.25,29.77-16.4-6.56-15.62-22.66-14.34-49.34C646.68,335.32,646.94,329.85,647.11,324Z" transform="translate(-55.03 -43.3)"/><path class="cls-4" d="M742.35,338.16a94.77,94.77,0,0,1-7.78,13.42c-6.75-3.25-69.93-33.57-87.3-38a290.24,290.24,0,0,0-3.5-46.81c25.74,6.37,101.09,44.61,107.19,47.72A138.43,138.43,0,0,1,742.35,338.16Z" transform="translate(-55.03 -43.3)"/><path class="cls-5" d="M753.3,262.69a117.19,117.19,0,0,1-.22,42.32c-8.6-4.55-83.88-44.13-111.35-49.54-1.4-7-3.14-14.3-5.29-21.88a212.86,212.86,0,0,0-9.76-27.13c25.41,5.95,125.58,55.75,126.6,56.26Z" transform="translate(-55.03 -43.3)"/><path class="cls-6" d="M234.16,64.72a269.47,269.47,0,0,1,57.93-16.54c3.71.7,73.56,14,123.18,34.52a952.87,952.87,0,0,1,125.06,62.73c-14.89.86-33,2.23-53.77,4.45-8.63.91-17.11,2.06-25.46,3.38-3.63-2.13-66.56-38.89-112.39-56C284.37,73.33,244.17,66.24,234.16,64.72Z" transform="translate(-55.03 -43.3)"/><path class="cls-7" d="M295.81,205.63c-19.75,9.16-38,18.5-54.85,27.31-4.51-2.86-55.91-34.93-129.42-55.37a240.15,240.15,0,0,1,20.52-34.14c4.46.93,43.2,9.26,79.7,23.72C229.06,174,286.6,201.26,295.81,205.63Z" transform="translate(-55.03 -43.3)"/><path class="cls-8" d="M225.18,241.25c-57.66,30.46-95.75,50.58-117.19,29.14-8.54-8.53-12.81-20.34-12.71-35.1.1-15,4.81-31.87,11.85-48.18,47.79,11.8,113.81,46.56,123.05,51.5Z" transform="translate(-55.03 -43.3)"/><path class="cls-9" d="M177.79,97.77a245.55,245.55,0,0,1,40-25.49A832.07,832.07,0,0,1,319,97.36c46.59,14.92,115.48,52.42,126.65,58.58a562,562,0,0,0-69,17.65c-3.58-2-54.19-30.7-103.23-48.5A748.72,748.72,0,0,0,177.79,97.77Z" transform="translate(-55.03 -43.3)"/><path class="cls-10" d="M168.29,105.49c5.57,1.23,64.76,14.35,93.64,25.27,26.64,10.07,91.67,42.08,101.9,47.14-20,7-38.94,14.65-56.72,22.59-4.33-2.19-62.44-31.56-89.35-42.2A487.76,487.76,0,0,0,139,134.42,139.3,139.3,0,0,1,150,122.17C155.73,116.6,161.79,111,168.29,105.49Z" transform="translate(-55.03 -43.3)"/><polygon class="cls-11" points="318.93 280.27 299.28 246.29 164.31 480.06 254.63 480.06 440.63 157.89 652.16 524.26 332.56 524.26 417.79 376.64 443.31 420.84 409.12 480.06 575.6 480.06 440.63 246.29 280.15 524.26 87.75 524.26 299.28 157.89 344.43 236.1 318.93 280.27"/><polygon class="cls-12" points="491.67 246.29 466.15 290.5 440.63 246.3 466.15 202.09 491.67 246.29"/><polygon class="cls-13" points="203.59 480.06 254.63 480.06 229.11 524.26 178.07 524.26 203.59 480.06"/><polygon class="cls-14" points="550.07 524.26 524.55 480.06 575.6 480.06 508.11 363.18 601.12 524.26 550.07 524.26"/><path class="cls-15" d="M63.3,703.43c-3.5,0-7.77-2.69-7.77-5.78v-71c0-2.69,2.72-6.41,7.77-6.41h1.94c3.36,0,5.82,2.48,5.82,4.14v48.13h38.69V624.42c0-1.66,2.46-4.14,5.69-4.14h1c3.75,0,7.89,3,7.89,5.79v71.58c0,3.2-3.36,5.78-7.63,5.78H113c-2.32,0-3.23-.83-3.23-2.58V683.91H71.06v16.94c0,1.75-1,2.58-3.23,2.58Z" transform="translate(-55.03 -43.3)"/><path class="cls-15" d="M142.22,703.43c-3.49,0-3.49-2.48-3.49-3.82v-3.1c0-3.82,3.62-3.82,5.82-3.82h1.17l.64-59.29h-7.63v-3.2l.13-3.51c0-2.17,3-3.93,5.69-3.93h17.21c3.63,0,5.7,2.17,5.7,4.34v6.3H160.6l-.26,59.39h1.55c1.3,0,5.31,0,5.31,3.72v4.34c0,1.13-.26,2.58-3.11,2.58Z" transform="translate(-55.03 -43.3)"/><path class="cls-15" d="M205.11,704.88c-10.87,0-22-5.17-27.43-12.81a20.39,20.39,0,0,1-4.4-12.29V644.14c0-8.88,6.47-17.25,17.08-21.79a45.76,45.76,0,0,1,18.11-3.41h.26a39.93,39.93,0,0,1,19.15,6.4c1.68,1.14,2.85,2.07,3.62,2.69a4.67,4.67,0,0,1,1.69,3.2c0,1.76-1.3,3.51-3.5,4.65l-.51.31-4.66,1a5.27,5.27,0,0,1-3.76-2,5.06,5.06,0,0,0-.77-.72,19.5,19.5,0,0,0-13.2-4.55c-6.86,0-12.94,2.69-16,7.13a11.65,11.65,0,0,0-2.08,6.82v35.84c0,4.75,3.24,9.19,8.42,11.67a17.71,17.71,0,0,0,9,2.17c7.25,0,12-2.28,15-7.13a10.61,10.61,0,0,0,1.81-5.78V663.35H199.54v-5.68c0-3.2,3.37-5.68,7.77-5.68h25.23c2.33,0,5.69,1.76,5.69,4.13v25.41c0,4.55-3.75,13.74-14,19.21-4.79,2.69-11.13,4.14-18,4.14Z" transform="translate(-55.03 -43.3)"/><path class="cls-15" d="M252.59,703.43c-3.49,0-7.76-2.69-7.76-5.78v-71c0-2.69,2.72-6.41,7.76-6.41h1.94c3.37,0,5.83,2.48,5.83,4.14v48.13H299V624.42c0-1.66,2.46-4.14,5.7-4.14h1c3.76,0,7.9,3,7.9,5.79v71.58c0,3.2-3.37,5.78-7.64,5.78h-3.75c-2.33,0-3.24-.83-3.24-2.58V683.91H260.36v16.94c0,1.75-1,2.58-3.24,2.58Z" transform="translate(-55.03 -43.3)"/><path class="cls-15" d="M349.76,678.85V643.73c0-9.09,5.31-17,14.11-21.28a38.92,38.92,0,0,1,15.65-3.1c7.25,0,13.59,1.14,17.86,3.41A31.18,31.18,0,0,1,404,627l.13.1,1.42,1.34A6.08,6.08,0,0,1,407,632a4.32,4.32,0,0,1-2.33,3.61l-7,4.34-1-2.07c-3.1-5.88-8.15-8.36-17-8.36-5.95,0-10.61,2.06-13.58,6.3a12.88,12.88,0,0,0-2.33,8v35.12c0,6.4,2.71,13.94,15.91,13.94,9.84,0,14.37-3.61,17.47-6,1.68-1.34,3-2.38,4.79-2.38a4.5,4.5,0,0,1,2.85,1c.25.2,3.36,2.79,3.36,4.75,0,1.45-1.29,2.89-2.46,3.82-6.86,5.68-13.71,9.19-26,9.19C361.54,703.22,349.76,693.62,349.76,678.85Z" transform="translate(-55.03 -43.3)"/><path class="cls-15" d="M423.77,703.64c-3.88,0-6.21-.52-7.37-1.66a2.53,2.53,0,0,1-.65-2.27l.39-1,5.69-15,20.58-58.36A8.71,8.71,0,0,1,450,620.8a8.13,8.13,0,0,1,7.76,4.65l18.25,52,2.33,6.2,4.91,15.6a2.49,2.49,0,0,1-.38,2.48c-.78.82-2.2,2-8,2a3.67,3.67,0,0,1-1.16-.1l-.39.1a6,6,0,0,1-5.56-3.2l-.13-.31-4.79-15.29H437l-5.3,15.29c-.65,2-3.24,3.41-6.09,3.41h-1.81Zm17.6-30c6.86,0,14.36,0,18.12-.1L450,648.17Z" transform="translate(-55.03 -43.3)"/><path class="cls-15" d="M556.92,697.75c0,3.2-3,5.68-6.73,5.68h-5.56l-41.15-56.81v56.81h-7.64c-3.88,0-6.72-2.48-6.72-5.68V627c0-3.93,3.1-6.51,7.89-6.51h.26l4.14.31,41.4,57-.51-57.22h7.89c3.36,0,6.73,2.79,6.73,5.68Z" transform="translate(-55.03 -43.3)"/><path class="cls-15" d="M601.81,703.43c-3.75,0-7.76-2.17-7.76-5.78V626c0-3,4.27-5.57,7.76-5.57h50.73c4.27,0,7.63,2.48,7.63,5.57v5.89H609.45v18.49h32.22c4.4,0,7.76,3,7.76,5.68v5.78h-40v39.05c0,1.13-.39,2.58-3.11,2.58Z" transform="translate(-55.03 -43.3)"/><path class="cls-15" d="M673.88,703.43c-4.4,0-7.76-3.1-7.76-5.78V626.58c0-3.2,3.36-5.68,7.76-5.68h7.77v71.17h39.2v4.75c0,3.51-3.62,6.61-7.76,6.61Z" transform="translate(-55.03 -43.3)"/><path class="cls-15" d="M733,620.9h7.51l21,33.78,21.09-33.78h7.64a5.17,5.17,0,0,1,4.14,1.66,3.55,3.55,0,0,1,.51,3.82c-.64,1.55-3.88,6.81-19,31.29l-2.07,3.41-5,8.37v33.88h-7.63c-3.49,0-6.73-2.79-6.73-5.68v-28.2l-5.17-8.37C732.49,634,729,628,728.35,626.38h-.13a3.57,3.57,0,0,1,.52-3.82A5.28,5.28,0,0,1,733,620.9Z" transform="translate(-55.03 -43.3)"/><path class="cls-16" d="M144.75,724.13c10.22,0,19.66,3.8,24.32,9.36a12.81,12.81,0,0,1,3.88,9.27v10.63c0,4.55-2.84,9.27-8.28,13.4-5.17,3.37-12.55,5.4-19.92,5.4H119.9V789h-3.62c-2.33,0-3.88-.92-3.88-1.93V726.16c0-.68,2.07-2,3.88-2ZM119.9,768h24.85c7.76,0,14.75-2.7,19.15-7.33a11.75,11.75,0,0,0,2.71-7.25V742.17c-.77-7-8.92-12.73-18.63-14H119.9Z" transform="translate(-55.03 -43.3)"/><path class="cls-16" d="M213.19,726.16l27.31,62.38-5.7.09c-1.94,0-1.94-.26-2.2-.85v.09l-6.47-15.09H192.62l-.65,1-5.82,14c-.13.51-.78.76-2.07.76H178l6.34-13.23,21.09-49.24v.09a4.66,4.66,0,0,1,3.88-2C211.51,724.13,212.68,725,213.19,726.16Zm11.26,42.74-15.27-34.57L194.82,768.9Z" transform="translate(-55.03 -43.3)"/><path class="cls-16" d="M283.06,724.13c10.23,0,19.67,3.63,24.33,9a12.39,12.39,0,0,1,3.75,9v11.22c0,4-1.81,7.58-5.95,11.13a29.59,29.59,0,0,1-18,6.82c21,11,23.54,13.83,29.89,13.83h1.42c2.07,0,2.2,1.26,2.2,1.6v2H317.1c-6.09,0-11-1.17-13.85-2.95L278.67,772h-21v16.77h-3.23c-1.94,0-3.62-1.51-3.62-2.1V726.16c0-1,1.68-2,3.62-2ZM257.7,767.89h25.36c7.51,0,14.5-2.78,18.9-7.34a11.31,11.31,0,0,0,2.71-7.16V742.17c0-5-4.4-9.94-10.87-12.47a24,24,0,0,0-10.09-2h-26Z" transform="translate(-55.03 -43.3)"/><path class="cls-16" d="M358.37,726.16l27.3,62.38-5.69.09c-1.94,0-1.94-.26-2.2-.85v.09l-6.47-15.09H337.8l-.65,1-5.82,14c-.13.51-.78.76-2.07.76h-6.09l6.35-13.23,21.09-49.24v.09a4.64,4.64,0,0,1,3.88-2C356.69,724.13,357.85,725,358.37,726.16Zm11.26,42.74-15.27-34.57L340,768.9Z" transform="translate(-55.03 -43.3)"/><path class="cls-16" d="M428.37,724.13c10.22,0,19.67,3.8,24.33,9.36a12.85,12.85,0,0,1,3.88,9.27v10.63c0,4.55-2.85,9.27-8.28,13.4-5.18,3.37-12.55,5.4-19.93,5.4H403.53V789H399.9C397.57,789,396,788,396,787V726.16c0-.68,2.07-2,3.88-2ZM403.53,768h24.84c7.76,0,14.75-2.7,19.15-7.33a11.76,11.76,0,0,0,2.72-7.25V742.17c-.78-7-8.93-12.73-18.63-14H403.53Z" transform="translate(-55.03 -43.3)"/><path class="cls-16" d="M527.87,724.22c2.07,0,3.63,1,3.63,1.35v2.1H476v22h44.64c2.33,0,3.88,1,3.88,2.11v2.1H476V785H531.5v2.11c0,.42-1.56,1.43-3.63,1.43H472.23c-.9,0-2.71-1.09-2.71-1.43V725.57a4.38,4.38,0,0,1,2.71-1.35Z" transform="translate(-55.03 -43.3)"/><path class="cls-16" d="M603.31,724.13c1.16,0,2.72,1,2.72,2v60.36c0,1.18-1.17,2-2.72,2h-3.24L550.9,733.07l-.13,55.47h-3.62c-1.55,0-2.72-.84-2.72-2V726.75c0-1.69,1.17-2.7,3.76-2.7l2.19.17,49.69,56-.64-56.07Z" transform="translate(-55.03 -43.3)"/><path class="cls-16" d="M668.39,724.13c2.07,0,3.75,1,3.75,1.44v2H648.72v61H646c-2.07,0-3.62-1-3.62-2.11V727.59H619v-2c0-.51,1.81-1.44,3.75-1.44Z" transform="translate(-55.03 -43.3)"/><path class="cls-16" d="M743.44,724.22c2.07,0,3.62,1,3.62,1.35v2.1H691.55v22h44.64c2.33,0,3.88,1,3.88,2.11v2.1H691.55V785h55.51v2.11c0,.42-1.55,1.43-3.62,1.43H687.8c-.91,0-2.72-1.09-2.72-1.43V725.57a4.38,4.38,0,0,1,2.72-1.35Z" transform="translate(-55.03 -43.3)"/></svg>