<?xml version="1.0" standalone="no"?><!DOCTYPE svg PUBLIC "-//W3C//DTD SVG 1.1//EN" "http://www.w3.org/Graphics/SVG/1.1/DTD/svg11.dtd" ><svg xmlns="http://www.w3.org/2000/svg"><metadata></metadata><defs><font id="Version 769.01171875 (Font Awesome version: 6.1.1);AWSM;FontAwesome6Free-Solid;2022;FL720" horiz-adv-x="640"><font-face font-family="Font Awesome 6 Free Solid" font-weight="900" font-stretch="normal" units-per-em="512" panose-1="2 0 9 3 0 0 0 0 0 0" ascent="448" descent="-64" x-height="0" bbox="-15 -75 648 463" underline-thickness="0" underline-position="0" unicode-range="U+0000-ffff" /><missing-glyph horiz-adv-x="384" d="M336 448 q20 -1 34 -14 q13 -14 14 -34 l0 -416 q-1 -20 -14 -34 q-14 -13 -34 -14 l-288 0 q-20 1 -34 14 q-13 14 -14 34 l0 416 q1 20 14 34 q14 13 34 14 l288 0 ZM103 384 l89 -134 l90 134 l-179 0 ZM64 58 l90 134 l-90 134 l0 -268 ZM282 0 l-90 134 l-89 -134 l179 0 ZM320 326 l-89 -134 l89 -134 l0 268 Z" /><glyph glyph-name=".null" unicode="" d="" /><glyph glyph-name="uni000D" unicode="" d="" /><glyph glyph-name="space" unicode=" " d="" /><glyph glyph-name="exclam" unicode="!&#x2755;&#x2757;&#xf12a;" d="M64 96 q-14 0 -23 9 q-9 10 -9 24 l0 255 q0 14 9 23 q9 9 23 9 q14 0 23 -9 q9 -9 9 -23 l0 -257 q0 -13 -9 -22 l0 0 q-9 -9 -23 -9 ZM64 48 q17 -1 28 -12 q12 -12 12 -28 q0 -16 -12 -28 q-11 -11 -28 -11 q-17 0 -28 11 q-12 11 -12 28 q0 17 12 28 l0 0 q11 12 28 12 Z" /><glyph glyph-name="quotedbl" unicode="&quot;" d="M15 393 q20 23 49 23 q29 0 49 -23 q19 -24 14 -55 l-25 -145 q-3 -15 -13 -24 q-11 -9 -25 -9 q-14 0 -25 9 q-10 9 -13 24 l-25 145 q-5 31 14 55 ZM305 393 q19 -24 13 -55 l-25 -145 q-3 -15 -14 -24 q-10 -9 -24 -9 q-14 0 -24 9 q-10 9 -13 24 l-25 145 q-5 31 14 55 q20 23 49 23 l0 0 q29 0 49 -23 Z" /><glyph glyph-name="numbersign" unicode="#&#xf292;" d="M416 321 q14 0 23 -10 q9 -10 9 -25 q0 -13 -9 -22 q-9 -9 -23 -9 l-69 0 l-21 -128 l58 0 q14 0 23 -9 q9 -9 9 -23 q0 -13 -9 -22 q-9 -9 -23 -9 l-69 0 l-11 -69 q-7 -25 -32 -27 q-3 0 -5 0 q-14 3 -21 13 q-7 11 -6 24 l10 59 l-95 0 l-11 -69 q-7 -25 -32 -27 q-3 0 -5 2 q-14 3 -21 13 q-7 11 -6 24 l10 59 l-58 0 q-14 0 -23 9 q-9 8 -9 22 q0 13 9 23 q9 9 23 9 l69 0 l21 128 l-58 0 q-14 0 -23 9 q-9 9 -9 23 q0 13 9 23 q9 9 23 9 l69 0 l11 69 q3 14 13 21 q11 7 24 5 q14 -2 21 -12 q7 -11 6 -24 l-10 -59 l95 0 l11 69 q3 14 13 21 q11 7 24 5 q14 -2 21 -12 q7 -11 6 -24 l-10 -59 l58 0 ZM282 257 l-95 0 l-21 -128 l95 0 l21 128 Z" /><glyph glyph-name="dollar" unicode="$&#xf155;&#x1f4b2;" d="M160 448 q14 0 23 -9 l0 0 q9 -9 9 -23 l0 -36 q2 0 3 0 q1 0 2 0 q9 -2 26 -5 q18 -3 29 -5 q12 -4 19 -15 q7 -11 4 -24 q-4 -13 -15 -20 q-11 -6 -24 -3 q-7 2 -21 4 q-14 2 -24 4 q-2 0 -4 0 q-49 7 -78 -5 q-26 -10 -28 -28 q-2 -15 1 -20 q3 -6 13 -14 q25 -14 73 -26 l3 -1 q22 -5 46 -14 q23 -8 43 -20 q22 -14 36 -40 q12 -27 6 -58 q-6 -29 -23 -48 q-18 -20 -43 -30 q-20 -8 -44 -11 l0 -33 q0 -14 -9 -23 q-9 -9 -23 -9 q-14 0 -23 9 q-9 9 -9 23 l0 35 q0 0 0 0 q-1 1 -1 0 l0 0 q-20 3 -45 10 q-26 7 -47 16 q-12 6 -17 18 q-4 12 1 25 q6 12 17 17 q12 4 24 -1 q17 -7 39 -13 q21 -6 37 -9 q49 -6 76 6 q25 10 27 28 q2 16 -1 21 q-3 6 -13 13 q-25 15 -73 27 l-3 1 q-22 5 -46 14 q-23 8 -43 20 q-22 14 -36 40 q-12 27 -6 59 q6 29 24 48 q19 19 44 28 q20 8 42 10 l0 35 q0 14 9 23 q9 9 23 9 Z" /><glyph glyph-name="percent" unicode="%&#xf295;&#xf541;" d="M375 375 q9 -10 9 -23 q0 -13 -9 -23 l-320 -320 q-10 -9 -23 -9 q-13 0 -23 9 q-9 10 -9 23 q0 13 9 23 l320 320 q10 9 23 9 l0 0 q13 0 23 -9 ZM64 256 q-27 1 -45 19 q-18 18 -19 45 q1 27 19 45 q18 18 45 19 q27 -1 45 -19 q18 -18 19 -45 q-1 -27 -19 -45 l0 0 q-18 -18 -45 -19 ZM320 128 q27 -1 45 -19 q18 -18 19 -45 q-1 -27 -19 -45 q-18 -18 -45 -19 q-27 1 -45 19 q-18 18 -19 45 q1 27 19 45 l0 0 q18 18 45 19 Z" /><glyph glyph-name="ampersand" unicode="&amp;" d="M375 22 q9 -10 9 -23 q0 -13 -10 -22 q-10 -9 -22 -9 q-13 0 -23 10 l-47 51 l-8 -11 q-34 -48 -93 -50 l-70 0 q-47 1 -78 33 q-32 31 -33 78 q1 53 41 86 l66 51 l-30 32 q-29 32 -29 74 q1 40 28 66 q26 27 66 28 l52 0 q40 -1 66 -28 q27 -26 28 -66 q-1 -45 -35 -73 l-52 -41 l72 -77 l52 79 q8 11 21 13 q12 3 24 -4 q11 -8 13 -21 q3 -12 -4 -24 l-61 -91 l57 -61 ZM142 352 q-13 0 -21 -9 q-9 -8 -9 -21 q0 -17 12 -30 l34 -37 l55 44 q11 8 11 23 q0 13 -9 21 q-8 9 -21 9 l-52 0 ZM237 77 l-86 92 l-70 -54 q-16 -14 -17 -36 q1 -20 14 -33 q13 -13 33 -14 l70 0 q25 1 40 21 l16 24 Z" /><glyph glyph-name="quotesingle" unicode="&#39;" d="M192 320 l0 -96 q-1 -54 -38 -90 q-36 -37 -90 -38 q-14 0 -23 9 q-9 9 -9 23 q0 14 9 23 q9 9 23 9 q27 1 45 19 q18 18 19 45 l0 6 q-15 -6 -32 -6 q-41 1 -68 28 q-27 27 -28 68 q1 41 28 68 q27 27 68 28 q41 -1 68 -28 q27 -27 28 -68 Z" /><glyph glyph-name="parenleft" unicode="(" d="M128 -32 q-9 0 -18 5 q-4 1 -30 26 q-27 25 -52 73 q-26 48 -28 120 q2 72 28 120 q25 48 52 72 q26 25 30 27 q12 7 24 4 q13 -2 21 -13 q7 -12 4 -24 q-2 -13 -13 -21 q-3 -1 -23 -19 q-20 -19 -39 -56 q-19 -36 -21 -90 q2 -54 21 -91 q19 -36 38 -55 q20 -18 23 -20 q11 -7 13 -20 q3 -12 -4 -24 q-9 -14 -26 -14 Z" /><glyph glyph-name="parenright" unicode=")" d="M38 -18 q-8 12 -5 24 l0 0 q2 13 13 21 q3 1 23 19 q19 19 39 55 q19 37 20 91 q-1 54 -20 91 q-19 36 -39 55 q-20 18 -23 20 q-11 7 -13 20 q-3 12 4 24 q8 11 21 13 q12 3 24 -4 q4 -2 30 -27 q27 -24 52 -72 q26 -48 28 -120 q-2 -72 -28 -120 q-25 -48 -52 -72 q-26 -25 -30 -27 q-9 -5 -18 -5 q-16 0 -26 14 Z" /><glyph glyph-name="asterisk" unicode="*&#x2731;&#xf069;" d="M417 80 q-10 -16 -28 -16 q-8 0 -16 4 l-117 69 l0 -137 q0 -14 -9 -23 q-9 -9 -22 -9 q-13 0 -23 9 q-10 9 -10 23 l0 137 l-118 -69 q-8 -4 -16 -4 q-18 0 -28 16 q-6 12 -3 24 q3 13 15 20 l117 68 l-117 68 q-12 7 -15 20 q-4 12 2 24 q13 18 33 16 q6 -1 12 -4 l118 -69 l0 137 q0 14 9 23 q9 9 23 9 q14 0 23 -9 q9 -9 9 -23 l0 -137 l118 69 q6 3 12 4 q21 2 31 -16 q7 -12 3 -24 q-3 -13 -15 -20 l-117 -68 l118 -68 q12 -7 15 -20 q3 -12 -4 -24 Z" /><glyph glyph-name="plus" unicode="+&#x2795;&#xf067;" d="M432 192 q0 -14 -9 -23 l0 0 q-9 -9 -23 -9 l-144 0 l0 -144 q0 -14 -9 -23 q-9 -9 -23 -9 q-14 0 -23 9 q-9 9 -9 23 l0 144 l-144 0 q-14 0 -23 9 q-9 9 -9 23 q0 14 9 23 q9 9 23 9 l144 0 l0 144 q0 14 9 23 q9 9 23 9 q14 0 23 -9 q9 -9 9 -23 l0 -144 l144 0 q14 0 23 -9 q9 -9 9 -23 Z" /><glyph glyph-name="comma" unicode="," d="M152 69 l-68 -114 q-16 -24 -44 -16 q-26 12 -23 40 l22 132 q5 28 30 42 q24 13 51 4 q26 -10 36 -36 q9 -27 -4 -52 Z" /><glyph glyph-name="hyphen" unicode="-" d="M288 160 l-256 0 q-14 0 -23 9 q-9 9 -9 23 q0 14 9 23 q9 9 23 9 l256 0 q14 0 23 -9 q9 -9 9 -23 q0 -14 -9 -23 q-9 -9 -23 -9 Z" /><glyph glyph-name="period" unicode="." d="M64 96 q27 -1 45 -19 q18 -18 19 -45 q-1 -27 -19 -45 q-18 -18 -45 -19 q-27 1 -45 19 q-18 18 -19 45 q1 27 19 45 l0 0 q18 18 45 19 Z" /><glyph glyph-name="slash" unicode="/" d="M32 -64 q-8 0 -16 4 q-12 7 -15 20 q-3 12 3 24 l256 448 q7 12 20 15 q12 3 24 -3 q12 -7 15 -20 q3 -12 -3 -24 l-256 -448 q-10 -16 -28 -16 Z" /><glyph glyph-name="zero" unicode="0" d="M160 416 q68 -2 113 -47 q45 -45 47 -113 l0 -127 q-2 -68 -47 -113 q-45 -45 -113 -47 q-68 2 -113 47 q-45 45 -47 113 l0 127 q2 68 47 113 l0 0 q45 45 113 47 ZM256 256 q-1 41 -28 68 q-27 27 -68 28 q-41 -1 -68 -28 q-27 -27 -28 -68 l0 -128 q1 -41 28 -68 q27 -27 68 -28 q41 1 68 28 l0 0 q27 27 28 68 l0 128 Z" /><glyph glyph-name="one" unicode="1" d="M256 0 q0 -14 -9 -23 l0 0 q-9 -9 -23 -9 l-192 0 q-14 0 -23 9 q-9 9 -9 23 q0 14 9 23 q9 9 23 9 l64 0 l0 292 l-46 -31 q-12 -7 -24 -4 q-13 2 -21 13 q-7 12 -4 24 q2 13 13 21 l96 64 q16 10 33 1 q16 -9 17 -28 l0 -352 l64 0 q14 0 23 -9 q9 -9 9 -23 Z" /><glyph glyph-name="two" unicode="2" d="M320 0 q0 -14 -9 -23 l0 0 q-9 -9 -23 -9 l-256 0 q-21 1 -30 20 q-7 20 8 35 l193 185 q24 24 26 56 q1 31 -20 58 q-23 27 -59 29 q-35 1 -61 -23 l-35 -32 q-11 -9 -24 -8 q-12 1 -22 10 q-9 11 -8 24 q1 12 10 22 l35 31 q45 42 109 40 q63 -5 104 -52 q37 -46 35 -103 q-3 -56 -45 -98 l-136 -130 l176 0 q14 0 23 -9 q9 -9 9 -23 Z" /><glyph glyph-name="three" unicode="3" d="M320 104 q-1 -58 -40 -96 l0 0 q-38 -39 -96 -40 l-80 0 q-36 0 -63 20 q-27 20 -38 53 q-4 13 1 25 q6 11 19 16 q13 4 24 -2 q12 -6 16 -18 q11 -28 41 -30 l80 0 q31 1 51 21 q20 20 21 51 q-1 31 -21 51 q-20 20 -51 21 l-104 0 q-21 1 -30 20 q-7 21 8 36 l132 120 l-158 0 q-14 0 -23 9 q-9 9 -9 23 q0 14 9 23 q9 9 23 9 l240 0 q21 -1 30 -20 q7 -21 -8 -36 l-132 -120 l22 0 q57 -1 96 -40 q38 -38 40 -96 Z" /><glyph glyph-name="four" unicode="4" d="M384 114 q0 -14 -9 -23 l0 0 q-9 -9 -23 -9 l-32 0 l0 -82 q0 -14 -9 -23 q-9 -9 -23 -9 q-14 0 -23 9 q-9 9 -9 23 l0 82 l-224 0 q-17 0 -27 15 q-9 15 -2 30 l128 271 q6 12 18 16 q12 4 25 -1 q12 -6 16 -18 q4 -12 -1 -25 l-106 -224 l173 0 l0 142 q0 14 9 23 q9 9 23 9 q14 0 23 -9 q9 -9 9 -23 l0 -142 l32 0 q14 -1 23 -10 q9 -9 9 -22 Z" /><glyph glyph-name="five" unicode="5" d="M320 103 q-1 -57 -40 -95 l0 0 q-38 -39 -95 -40 l-80 0 q-36 0 -64 20 q-28 20 -39 54 q-4 13 1 25 q6 11 19 16 q13 4 24 -2 q12 -6 16 -19 q12 -28 43 -30 l80 0 q30 1 50 21 q20 20 21 50 q-1 31 -21 51 q-20 20 -50 21 l-153 0 q-15 0 -25 11 q-9 12 -6 26 l32 178 q6 24 31 26 l192 0 q14 0 23 -9 q9 -9 9 -23 q0 -14 -9 -23 q-9 -9 -23 -9 l-165 0 l-21 -113 l115 0 q57 -2 95 -40 q39 -38 40 -96 Z" /><glyph glyph-name="six" unicode="6" d="M168 287 q65 -4 108 -49 q42 -44 44 -110 q-2 -68 -47 -113 q-45 -45 -113 -47 q-68 2 -113 47 q-45 45 -47 113 q0 31 11 57 q11 26 38 61 q28 35 76 90 q26 30 59 69 q10 11 24 11 q11 0 21 -8 q10 -9 11 -21 q1 -13 -8 -24 l-64 -76 ZM160 32 q41 1 68 28 q27 28 28 68 q-1 40 -28 67 q-27 27 -68 28 q-41 -1 -68 -28 q-27 -26 -28 -67 q1 -41 28 -68 l0 0 q27 -27 68 -28 Z" /><glyph glyph-name="seven" unicode="7" d="M316 368 l-224 -384 q-10 -16 -28 -16 q-8 0 -16 4 q-12 7 -15 20 q-3 12 3 24 l196 336 l-200 0 q-14 0 -23 9 q-9 9 -9 23 q0 14 9 23 q9 9 23 9 l256 0 q18 -1 28 -16 q8 -16 0 -32 Z" /><glyph glyph-name="eight" unicode="8" d="M268 199 q24 -18 38 -45 q14 -26 14 -58 q-1 -54 -38 -90 q-36 -37 -90 -38 l-64 0 q-54 1 -90 38 q-37 36 -38 90 q0 32 14 58 q14 27 38 45 q-35 36 -36 89 q1 54 38 90 q36 37 90 38 l32 0 q54 -1 90 -38 q37 -36 38 -90 q-1 -53 -36 -89 ZM144 352 q-27 -1 -45 -19 q-18 -18 -19 -45 q1 -27 19 -45 q18 -18 45 -19 l32 0 q27 1 45 19 q18 18 19 45 q-1 27 -19 45 q-18 18 -45 19 l-32 0 ZM192 32 q27 1 45 19 q18 18 19 45 q-1 27 -19 45 q-18 18 -45 19 l-64 0 q-27 -1 -45 -19 q-18 -18 -19 -45 q1 -27 19 -45 q18 -18 45 -19 l64 0 Z" /><glyph glyph-name="nine" unicode="9" d="M160 416 q68 -2 113 -47 q45 -45 47 -113 q0 -31 -11 -57 q-11 -26 -38 -61 q-27 -35 -76 -90 q-26 -30 -59 -69 q-10 -11 -24 -11 q-11 0 -21 8 q-10 9 -11 21 q-1 13 8 24 l64 76 q-65 4 -108 49 q-42 44 -44 110 q2 68 47 113 l0 0 q45 45 113 47 ZM160 160 q41 1 68 28 q27 26 28 67 q-1 41 -28 68 q-27 27 -68 28 q-41 -1 -68 -28 q-27 -28 -28 -68 q1 -40 28 -67 l0 0 q27 -27 68 -28 Z" /><glyph glyph-name="colon" unicode=":" d="M64 256 q-27 1 -45 19 q-18 18 -19 45 q1 27 19 45 q18 18 45 19 q27 -1 45 -19 q18 -18 19 -45 q-1 -27 -19 -45 l0 0 q-18 -18 -45 -19 ZM64 128 q27 -1 45 -19 q18 -18 19 -45 q-1 -27 -19 -45 q-18 -18 -45 -19 q-27 1 -45 19 q-18 18 -19 45 q1 27 19 45 l0 0 q18 18 45 19 Z" /><glyph glyph-name="semicolon" unicode=";" d="M69 152 q24 14 51 4 q26 -9 36 -35 q9 -27 -4 -52 l-68 -115 q-16 -24 -44 -16 q-26 12 -23 41 l22 131 q5 28 30 42 ZM96 256 q-27 1 -45 19 q-18 18 -18 45 q1 27 18 45 q18 18 45 19 q27 -1 45 -19 q18 -18 19 -45 q-1 -27 -19 -45 l0 0 q-18 -18 -45 -19 Z" /><glyph glyph-name="less" unicode="&lt;&#xf536;" d="M351 0 q-7 0 -14 3 l-320 160 q-16 10 -17 29 q1 19 18 29 l320 160 q12 5 24 1 q12 -4 19 -16 q5 -12 1 -24 q-4 -12 -16 -19 l-262 -131 l262 -131 q12 -7 16 -19 q4 -12 -1 -24 q-10 -18 -30 -18 Z" /><glyph glyph-name="equal" unicode="=&#xf52c;" d="M48 256 q-14 0 -23 10 q-9 9 -9 22 q0 13 9 22 q9 9 23 9 l352 0 q14 0 23 -9 q9 -8 9 -22 q0 -14 -9 -23 q-9 -9 -23 -9 l-352 0 ZM400 128 q14 0 23 -9 q9 -9 9 -22 q0 -14 -9 -23 q-9 -9 -23 -9 l-352 0 q-14 0 -23 10 q-9 9 -9 22 q0 13 9 22 q9 9 23 9 l352 0 Z" /><glyph glyph-name="greater" unicode="&gt;&#xf531;" d="M32 0 q-19 0 -29 18 q-5 12 -1 24 q4 12 16 19 l262 131 l-262 131 q-12 7 -16 19 q-4 12 1 24 q7 12 19 16 q12 4 24 -1 l320 -160 q17 -10 18 -29 q-1 -19 -18 -29 l-320 -160 q-7 -3 -14 -3 Z" /><glyph glyph-name="question" unicode="?&#x2753;&#x2754;&#xf128;" d="M204 416 q49 -1 82 -34 q33 -33 34 -82 q0 -33 -17 -61 q-17 -27 -47 -42 l-80 -47 l0 -22 q0 -14 -9 -23 q-9 -9 -23 -9 q-14 0 -23 9 q-9 9 -9 23 l0 40 q0 18 16 28 l98 57 q29 16 30 47 q-1 22 -15 37 q-15 14 -37 15 l-108 0 q-14 0 -23 -9 q-9 -9 -9 -23 q0 -13 -9 -22 q-9 -9 -23 -9 q-14 0 -23 9 q-9 8 -9 22 q1 41 28 68 q27 27 68 28 l108 0 ZM144 48 q17 -1 28 -12 q12 -12 12 -28 q0 -16 -12 -28 q-11 -11 -28 -11 q-17 0 -28 11 q-12 11 -12 28 q0 17 12 28 l0 0 q11 12 28 12 Z" /><glyph glyph-name="at" unicode="@&#xf1fa;" d="M208 427 q78 14 142 -14 q65 -29 105 -87 q39 -59 40 -134 l0 -21 q0 -36 -20 -65 q-21 -29 -56 -38 q-34 -8 -62 3 q-29 11 -47 34 q-30 -23 -70 -24 q-52 1 -84 38 q-32 36 -27 90 q5 31 25 55 q19 23 49 34 q48 15 86 -5 q3 11 15 12 l32 0 q15 -2 16 -16 l0 -120 q0 -17 12 -29 q11 -11 28 -11 q17 0 28 11 q12 12 12 29 l0 16 q-1 71 -45 123 q-44 51 -114 60 q-80 5 -136 -45 q-55 -51 -57 -130 q1 -68 43 -116 q42 -47 106 -59 q25 -5 27 -31 l0 0 q0 -15 -11 -24 q-10 -10 -25 -8 q-66 10 -116 51 q-50 41 -73 102 q-23 61 -10 132 q15 71 65 122 l0 0 q51 50 122 65 ZM239 144 q21 0 34 14 q14 13 14 34 q0 20 -14 34 q-14 13 -34 14 q-20 -1 -34 -14 q-13 -14 -14 -34 q1 -21 14 -34 l0 0 q14 -14 34 -14 Z" /><glyph glyph-name="A" unicode="Aa" d="M382 12 q4 -12 0 -24 q-5 -12 -18 -18 q-6 -2 -12 -2 q-20 1 -30 20 l-31 76 l-198 0 l-31 -76 q-6 -13 -18 -18 q-12 -4 -24 0 q-13 6 -18 18 q-4 12 1 24 l160 384 q8 19 29 20 q21 -1 30 -20 l160 -384 ZM264 128 l-72 173 l-73 -173 l145 0 Z" /><glyph glyph-name="B" unicode="Bb" d="M257 206 q29 -18 46 -46 q17 -29 17 -64 q-1 -54 -38 -90 q-36 -37 -90 -38 l-160 0 q-14 0 -23 9 q-9 9 -9 23 l0 384 q0 14 9 23 q9 9 23 9 l128 0 q54 -1 90 -38 q37 -36 38 -90 q-1 -48 -31 -82 ZM64 224 l96 0 q27 1 45 19 q18 18 19 45 q-1 27 -19 45 q-18 18 -45 19 l-96 0 l0 -128 ZM192 32 q27 1 45 19 q18 18 19 45 q-1 27 -19 45 q-18 18 -45 19 l-128 0 l0 -128 l128 0 Z" /><glyph glyph-name="C" unicode="Cc" d="M352 88 q17 -1 24 -11 l0 0 q7 -11 7 -21 q0 -12 -21 -33 q-21 -21 -57 -37 q-37 -17 -86 -18 q-69 1 -118 34 q-49 34 -75 85 q-27 51 -27 105 q0 53 26 104 q26 51 75 84 q49 34 119 35 q50 -1 86 -18 q37 -17 58 -37 q20 -21 20 -33 q0 -10 -7 -21 q-8 -10 -25 -11 q-16 1 -33 18 q-14 13 -37 25 q-22 12 -62 13 q-74 -3 -115 -52 q-40 -48 -41 -107 q1 -59 41 -108 q40 -49 115 -52 q40 1 63 13 q23 12 37 25 q17 17 33 18 Z" /><glyph glyph-name="D" unicode="Dd" d="M160 416 q62 -1 113 -31 q50 -30 80 -80 q30 -51 31 -113 q-1 -62 -31 -113 q-30 -50 -80 -80 q-51 -30 -113 -31 l-128 0 q-14 0 -23 9 q-9 9 -9 23 l0 384 q0 14 9 23 q9 9 23 9 l128 0 ZM160 32 q68 2 113 48 q45 46 47 113 q-2 67 -47 112 q-45 45 -113 47 l-96 0 l0 -320 l96 0 Z" /><glyph glyph-name="E" unicode="Ee" d="M320 0 q0 -14 -9 -23 l0 0 q-9 -9 -23 -9 l-256 0 q-14 0 -23 9 q-9 9 -9 23 l0 384 q0 14 9 23 q9 9 23 9 l256 0 q14 0 23 -9 q9 -9 9 -23 q0 -14 -9 -23 q-9 -9 -23 -9 l-224 0 l0 -128 l160 0 q14 0 23 -9 q9 -9 9 -23 q0 -14 -9 -23 q-9 -9 -23 -9 l-160 0 l0 -128 l224 0 q14 0 23 -9 q9 -9 9 -23 Z" /><glyph glyph-name="F" unicode="Ff" d="M320 384 q0 -14 -9 -23 l0 0 q-9 -9 -23 -9 l-224 0 l0 -128 l160 0 q14 0 23 -9 q9 -9 9 -22 q0 -13 -9 -22 q-9 -10 -23 -10 l-160 0 l0 -160 q0 -14 -9 -23 q-9 -9 -23 -9 q-14 0 -23 9 q-9 9 -9 23 l0 384 q0 13 9 22 q9 9 23 9 l256 0 q14 0 23 -9 q9 -9 9 -23 Z" /><glyph glyph-name="G" unicode="Gg" d="M448 192 q-1 -72 -35 -121 l0 0 q-33 -50 -84 -76 l0 0 q-52 -25 -106 -25 q-67 1 -116 32 q-50 30 -78 81 q-28 50 -28 109 q1 63 31 113 q30 51 80 81 q50 29 112 30 q43 -1 81 -16 q38 -14 62 -35 q24 -20 25 -37 q-1 -14 -10 -23 q-9 -9 -22 -9 q-16 1 -33 17 q-14 14 -38 26 q-24 12 -65 13 q-67 -2 -112 -47 q-45 -44 -47 -113 q-1 -19 12 -56 q12 -38 47 -69 q35 -32 100 -34 q61 2 104 37 q43 35 54 90 l-134 0 q-14 0 -23 9 q-9 9 -9 23 q0 14 9 22 q9 9 23 9 l168 0 q14 0 23 -8 q9 -9 9 -23 Z" /><glyph glyph-name="H" unicode="Hh" d="M384 384 l0 -384 q0 -14 -9 -23 q-9 -9 -23 -9 q-14 0 -23 9 q-9 9 -9 23 l0 192 l-256 0 l0 -192 q0 -14 -9 -23 q-9 -9 -23 -9 q-14 0 -23 9 q-9 9 -9 23 l0 384 q0 14 9 23 q9 9 23 9 q14 0 23 -9 q9 -9 9 -23 l0 -128 l256 0 l0 128 q0 14 9 23 q9 9 23 9 q14 0 23 -9 q9 -9 9 -23 Z" /><glyph glyph-name="I" unicode="Ii" d="M320 0 q0 -14 -9 -23 l0 0 q-9 -9 -23 -9 l-256 0 q-14 0 -23 9 q-9 9 -9 23 q0 14 9 23 q9 9 23 9 l96 0 l0 320 l-96 0 q-14 0 -23 9 q-9 9 -9 23 q0 14 9 23 q9 9 23 9 l256 0 q14 0 23 -9 q9 -9 9 -23 q0 -14 -9 -23 q-9 -9 -23 -9 l-96 0 l0 -320 l96 0 q14 0 23 -9 q9 -9 9 -23 Z" /><glyph glyph-name="J" unicode="Jj" d="M320 384 l0 -259 q-2 -67 -47 -111 q-45 -44 -113 -46 q-68 2 -113 46 q-45 44 -47 111 l0 35 q0 14 9 23 q9 9 23 9 q14 0 23 -9 q9 -9 9 -23 l0 -35 q1 -40 28 -66 q27 -26 68 -27 q41 1 68 27 q27 26 28 66 l0 259 q0 14 9 23 q9 9 23 9 q14 0 23 -9 q9 -9 9 -23 Z" /><glyph glyph-name="K" unicode="Kk" d="M314 18 q8 -11 5 -24 l0 0 q-2 -12 -13 -20 q-8 -6 -18 -6 q-16 0 -26 14 l-134 193 l-64 -66 l0 -109 q0 -14 -9 -23 q-9 -9 -23 -9 q-14 0 -23 9 q-9 9 -9 23 l0 384 q0 14 9 23 q9 9 23 9 q14 0 23 -9 q9 -9 9 -23 l0 -183 l201 205 q10 10 23 10 q12 0 22 -9 q10 -10 10 -23 q0 -12 -9 -22 l-137 -141 l140 -203 Z" /><glyph glyph-name="L" unicode="Ll" d="M320 0 q0 -14 -9 -23 l0 0 q-9 -9 -23 -9 l-224 0 q-14 0 -23 9 q-9 9 -9 23 l0 384 q0 14 9 23 q9 9 23 9 q14 0 23 -9 q9 -9 9 -23 l0 -352 l192 0 q14 0 23 -9 q9 -9 9 -23 Z" /><glyph glyph-name="M" unicode="Mm" d="M448 384 l0 -384 q0 -14 -9 -23 q-9 -9 -23 -9 q-14 0 -23 9 q-9 9 -9 23 l0 278 l-133 -200 q-10 -13 -27 -13 q-17 0 -27 13 l-133 200 l0 -278 q0 -14 -9 -23 q-9 -9 -23 -9 q-14 0 -23 9 q-9 9 -9 23 l0 384 q1 23 23 31 q22 5 36 -13 l165 -248 l165 248 q14 18 36 13 q22 -8 23 -31 Z" /><glyph glyph-name="N" unicode="Nn" d="M384 384 l0 -384 q-1 -22 -21 -30 q-5 -2 -11 -2 q-15 0 -25 12 l-263 316 l0 -296 q0 -14 -9 -23 q-9 -9 -23 -9 q-14 0 -23 9 q-9 9 -9 23 l0 384 q1 22 21 30 q21 6 36 -10 l263 -316 l0 296 q0 14 9 23 q9 9 23 9 q14 0 23 -9 q9 -9 9 -23 Z" /><glyph glyph-name="O" unicode="Oo" d="M224 416 q62 -1 113 -31 q50 -30 80 -80 q30 -51 31 -113 q-1 -62 -31 -113 q-30 -50 -80 -80 q-51 -30 -113 -31 q-62 1 -113 31 q-50 30 -80 80 q-30 51 -31 113 q1 62 31 113 l0 0 q30 50 80 80 l0 0 q51 30 113 31 ZM224 32 q68 2 113 47 q45 46 47 113 q-2 67 -47 112 q-45 45 -113 47 q-68 -2 -113 -46 q-45 -45 -47 -113 q2 -68 47 -113 l0 0 q45 -45 113 -47 Z" /><glyph glyph-name="P" unicode="Pp" d="M160 416 q68 -2 113 -48 q45 -46 47 -113 q-2 -67 -47 -112 q-45 -45 -113 -47 l-96 0 l0 -96 q0 -14 -9 -23 q-9 -9 -23 -9 q-14 0 -23 9 q-9 9 -9 23 l0 384 q0 14 9 23 q9 9 23 9 l128 0 ZM160 160 q41 1 68 28 q27 27 28 68 q-1 41 -28 68 q-27 27 -68 28 l-96 0 l0 -192 l96 0 Z" /><glyph glyph-name="Q" unicode="Qq" d="M440 -12 q7 -9 7 -20 q0 -11 -8 -21 q-8 -10 -24 -11 q-14 0 -24 11 l-47 57 q-53 -35 -121 -36 q-62 1 -112 31 q-51 30 -80 80 q-30 51 -31 113 q1 62 31 113 q30 50 81 80 q51 30 113 31 q62 -1 112 -31 q51 -30 80 -80 q30 -51 31 -113 q-2 -86 -55 -147 l47 -57 ZM224 32 q44 1 79 22 l-72 86 q-7 9 -7 20 q0 11 8 21 q8 10 24 11 q14 0 25 -12 l70 -84 q32 41 33 96 q-2 67 -47 112 q-45 45 -113 47 q-68 -2 -113 -46 q-45 -45 -47 -113 q2 -68 47 -113 l0 0 q45 -45 113 -47 Z" /><glyph glyph-name="R" unicode="Rr" d="M314 19 q8 -12 6 -24 q-3 -13 -13 -21 q-9 -6 -19 -6 q-16 0 -26 13 l-105 147 l-93 0 l0 -128 q0 -14 -9 -23 q-9 -9 -23 -9 q-14 0 -23 9 q-9 9 -9 23 l0 384 q0 14 9 23 q9 9 23 9 l144 0 q61 -2 102 -42 q40 -41 42 -102 q-1 -46 -26 -82 l0 0 q-25 -35 -65 -52 l85 -119 ZM64 193 l112 0 q34 1 57 23 q22 22 23 56 q-1 34 -23 57 q-23 22 -57 23 l-112 0 l0 -159 Z" /><glyph glyph-name="S" unicode="Ss" d="M350 69 q-10 -56 -57 -82 q-38 -20 -84 -19 q-47 1 -90 13 q-42 11 -67 22 q-12 6 -17 17 q-5 12 -1 25 q6 12 18 17 q11 5 24 0 q59 -23 109 -29 q50 -5 77 10 q21 11 25 37 q6 30 -17 47 q-24 17 -87 34 q-36 10 -74 26 q-37 15 -60 46 q-23 30 -15 82 q9 49 51 77 q69 44 207 8 q13 -4 19 -15 q7 -11 3 -25 q-3 -13 -14 -19 q-12 -6 -25 -3 q-67 17 -104 14 q-37 -3 -51 -14 q-19 -12 -23 -34 q-6 -31 17 -47 q24 -17 87 -34 q0 0 0 0 q36 -10 74 -26 q37 -16 60 -46 q23 -30 15 -82 Z" /><glyph glyph-name="T" unicode="Tt" d="M384 384 q0 -14 -9 -23 l0 0 q-9 -9 -23 -9 l-128 0 l0 -352 q0 -14 -9 -23 q-9 -9 -23 -9 q-14 0 -23 9 q-9 9 -9 23 l0 352 l-128 0 q-14 0 -23 9 q-9 9 -9 23 q0 14 9 23 q9 9 23 9 l320 0 q14 0 23 -9 q9 -9 9 -23 Z" /><glyph glyph-name="U" unicode="Uu" d="M384 384 l0 -226 q-2 -80 -56 -134 q-55 -54 -136 -56 q-81 2 -136 56 q-54 54 -56 134 l0 226 q0 14 9 23 q9 9 23 9 q14 0 23 -9 q9 -9 9 -23 l0 -226 q1 -53 38 -89 q36 -36 90 -37 q54 1 90 37 q37 36 38 89 l0 226 q0 14 9 23 q9 9 23 9 q14 0 23 -9 q9 -9 9 -23 Z" /><glyph glyph-name="V" unicode="Vv" d="M382 372 l-160 -384 q-9 -19 -30 -20 q-21 1 -30 20 l-160 384 q-4 12 0 24 q5 12 18 18 q12 4 24 0 q12 -5 18 -18 l130 -313 l131 313 q5 13 17 18 q12 4 24 0 q13 -6 18 -18 q4 -12 0 -24 Z" /><glyph glyph-name="W" unicode="Ww" d="M573 373 l-144 -384 q-8 -20 -30 -21 q0 0 -1 0 q-22 2 -30 23 l-80 279 l-81 -279 q-8 -21 -30 -23 q-22 0 -31 21 l-144 384 q-4 13 1 24 q5 12 18 17 q13 4 24 -1 q12 -5 17 -18 l110 -293 l85 292 q8 20 31 22 q23 -1 31 -23 l85 -292 l110 293 q5 13 17 18 q11 5 24 1 q13 -4 18 -16 q5 -11 0 -24 Z" /><glyph glyph-name="X" unicode="Xx" d="M377 20 q8 -10 7 -23 l0 0 q-1 -13 -11 -22 q-10 -7 -21 -7 q-14 0 -25 12 l-135 163 l-135 -163 q-11 -11 -25 -11 q-11 0 -20 7 q-11 9 -12 22 q-1 13 7 23 l143 172 l-143 170 q-8 11 -7 24 q1 13 12 22 q10 8 23 7 q13 -1 22 -12 l135 -162 l135 162 q9 11 22 12 q13 1 23 -7 q11 -9 12 -22 q1 -13 -7 -23 l-143 -172 l143 -172 Z" /><glyph glyph-name="Y" unicode="Yy" d="M378 365 l-154 -215 l0 -150 q0 -14 -9 -22 q-9 -9 -23 -9 q-14 0 -23 9 q-9 8 -9 22 l0 150 l-154 215 q-8 12 -6 24 q3 13 13 21 q12 8 24 6 q13 -3 21 -13 l134 -187 l133 187 q8 11 21 13 q12 2 24 -5 q11 -9 13 -22 q3 -12 -5 -24 Z" /><glyph glyph-name="Z" unicode="Zz" d="M384 0 q0 -14 -9 -23 l0 0 q-9 -9 -23 -9 l-320 0 q-20 1 -29 18 q-8 19 4 34 l277 332 l-252 0 q-14 0 -23 9 q-9 9 -9 23 q0 14 9 23 q9 9 23 9 l320 0 q20 -1 29 -18 q8 -19 -4 -34 l-277 -332 l252 0 q14 0 23 -9 q9 -9 9 -23 Z" /><glyph glyph-name="bracketleft" unicode="[" d="M128 416 q14 0 23 -9 q9 -9 9 -23 q0 -14 -9 -23 q-9 -9 -23 -9 l-64 0 l0 -320 l64 0 q14 0 23 -9 q9 -9 9 -23 q0 -14 -9 -23 q-9 -9 -23 -9 l-96 0 q-14 0 -23 9 q-9 9 -9 23 l0 384 q0 14 9 23 q9 9 23 9 l96 0 Z" /><glyph glyph-name="backslash" unicode="\" d="M288 -64 q-18 0 -28 16 l-256 448 q-6 12 -3 24 q3 13 15 20 q12 6 24 3 q13 -3 20 -15 l256 -448 q6 -12 3 -24 q-3 -13 -15 -20 q-8 -4 -16 -4 Z" /><glyph glyph-name="bracketright" unicode="]" d="M32 385 q0 13 9 22 q9 9 22 9 l97 0 q14 0 23 -9 q9 -9 9 -23 l0 -384 q0 -14 -9 -23 q-9 -9 -23 -9 l-97 0 q-13 0 -22 10 q-9 10 -9 23 q0 13 9 22 q9 9 22 9 l65 0 l0 320 l-65 0 q-13 0 -22 9 l0 0 q-9 10 -9 24 Z" /><glyph glyph-name="grave" unicode="`" d="M36 409 q10 26 36 35 l0 0 q27 10 51 -4 q25 -14 30 -42 l22 -131 q3 -29 -23 -41 q-28 -8 -44 16 l-68 115 q-13 25 -4 52 Z" /><glyph glyph-name="braceleft" unicode="{" d="M192 416 q14 0 23 -9 q9 -9 9 -23 q0 -14 -9 -23 q-9 -9 -23 -9 l-32 0 q-14 0 -23 -9 q-9 -9 -9 -23 l0 -38 q-1 -39 -28 -67 l-23 -23 l23 -23 q27 -28 28 -68 l0 -37 q0 -14 9 -23 q9 -9 23 -9 l32 0 q14 0 23 -9 q9 -9 9 -23 q0 -14 -9 -23 q-9 -9 -23 -9 l-32 0 q-41 1 -68 28 q-27 27 -28 68 l0 37 q0 14 -9 23 l-46 45 q-9 10 -9 23 q0 13 9 23 l46 45 q9 9 9 22 l0 38 q1 41 28 68 q27 27 68 28 l32 0 Z" /><glyph glyph-name="bar" unicode="|" d="M32 -64 q-14 0 -23 9 l0 0 q-9 9 -9 23 l0 448 q0 14 9 23 q9 9 23 9 q14 0 23 -9 q9 -9 9 -23 l0 -448 q0 -14 -9 -23 q-9 -9 -23 -9 Z" /><glyph glyph-name="braceright" unicode="}" d="M32 385 q0 13 9 22 q9 9 22 9 l33 0 q41 -1 68 -28 q27 -27 28 -68 l0 -38 q0 -12 9 -22 l46 -45 q9 -10 9 -23 q0 -13 -9 -23 l-46 -45 q-9 -9 -9 -23 l0 -37 q-1 -41 -28 -68 q-27 -27 -68 -28 l-33 0 q-13 0 -22 10 q-9 10 -9 23 q0 13 9 22 q9 9 22 9 l33 0 q14 0 23 9 q9 9 9 23 l0 37 q1 40 28 68 l23 23 l-23 23 q-27 28 -28 68 l0 37 q0 14 -9 23 q-9 9 -23 9 l-33 0 q-13 0 -22 9 l0 0 q-9 10 -9 24 Z" /><glyph glyph-name="asciitilde" unicode="~&#xf69f;" d="M348 64 q-41 1 -71 29 l-152 152 q-10 11 -25 11 q-15 0 -25 -11 q-11 -10 -11 -25 l0 -92 q0 -14 -9 -23 q-9 -9 -23 -9 q-14 0 -23 9 q-9 9 -9 23 l0 92 q1 42 29 71 q28 28 71 29 q41 -1 71 -29 l152 -152 q10 -11 25 -11 q15 0 25 11 q11 10 11 25 l0 92 q0 14 9 23 q9 9 23 9 q14 0 23 -9 q9 -9 9 -23 l0 -92 q-1 -43 -29 -71 q-28 -28 -71 -29 Z" /><glyph glyph-name="uniE000" unicode="&#xe000;" d="M416 416 q68 -2 113 -47 l0 0 q45 -45 47 -113 l0 -160 l32 0 q14 0 23 -9 q9 -9 9 -23 q0 -14 -9 -23 q-9 -9 -23 -9 l-320 0 q-1 -41 -28 -68 q-27 -27 -68 -28 q-41 1 -68 28 q-27 27 -28 68 l-16 0 q-34 1 -57 23 q-22 23 -23 57 l0 224 q1 34 23 57 q23 22 57 23 l336 0 ZM64 224 q0 -14 9 -23 l0 0 q9 -9 23 -9 l128 0 q14 0 23 9 q9 9 9 23 l0 64 q0 14 -9 23 q-9 9 -23 9 l-128 0 q-14 0 -23 -9 q-9 -9 -9 -23 l0 -64 ZM352 320 q-14 0 -23 -9 l0 0 q-9 -9 -9 -23 l0 -64 q0 -14 9 -23 q9 -9 23 -9 l64 0 q14 0 23 9 q9 9 9 23 l0 64 q0 14 -9 23 q-9 9 -23 9 l-64 0 ZM192 80 q-20 -1 -34 -14 l0 0 q-13 -14 -14 -34 q1 -20 14 -34 q14 -13 34 -14 q20 1 34 14 q13 14 14 34 q-1 20 -14 34 q-14 13 -34 14 Z" /><glyph glyph-name="uniE001" unicode="&#xe001;" d="M544 415 q29 -22 46 -55 q18 -33 18 -72 q-1 -58 -36 -101 q-35 -43 -93 -56 l0 -179 q0 -7 -5 -11 q-4 -5 -11 -5 l-32 0 q-6 0 -11 5 q-5 4 -5 11 l0 144 l-128 -96 l31 0 q14 0 23 -9 q9 -9 9 -23 l0 -16 q0 -7 -4 -11 q-5 -5 -12 -5 l-175 0 q-27 1 -45 19 q-18 18 -19 45 l0 256 q0 14 -9 23 q-9 9 -23 9 q-13 0 -23 9 q-9 9 -9 23 q0 14 9 23 q10 9 23 9 q41 -1 68 -28 q27 -27 28 -68 l0 -86 q31 44 68 63 q36 18 64 21 q-4 17 -4 34 q1 39 18 72 q18 33 47 55 l0 1 l0 0 q41 31 96 32 q55 -1 96 -32 l0 0 l0 -1 ZM448 416 q-40 0 -73 -23 l41 -41 l64 0 l41 41 q-33 23 -73 23 ZM503 288 q0 7 -4 11 q-4 5 -11 5 q-15 -1 -16 -16 q0 -15 15 -16 q15 1 16 16 ZM423 288 q0 7 -4 11 q-4 5 -11 5 q-15 -1 -16 -16 q0 -15 15 -16 q15 1 16 16 ZM448 160 q54 1 90 38 q37 36 38 90 q-1 49 -32 84 l0 -84 q-1 -41 -28 -68 q-27 -27 -68 -28 q-41 1 -68 28 q-27 27 -28 68 l0 83 q-31 -35 -32 -84 q1 -54 38 -90 l0 0 q36 -36 90 -37 ZM162 379 q-2 2 -3 5 q0 3 3 5 l41 16 l15 40 q2 3 5 3 q4 0 6 -3 l16 -40 l40 -16 q3 -2 3 -5 q0 -3 -3 -5 l-40 -16 l-16 -40 q-2 -3 -5 -3 q-3 0 -5 3 l-16 40 l-41 16 Z" /><glyph glyph-name="uniE002" unicode="&#xe002;" d="M432 270 q37 -30 58 -73 q22 -43 22 -94 q0 -38 -13 -66 q-13 -27 -37 -51 q-17 -18 -41 -18 l-266 0 q-24 0 -41 18 q-24 24 -37 52 q-13 27 -13 65 q0 51 22 94 q21 43 59 73 l-28 82 l-13 0 q-17 0 -28 -12 q-12 -11 -12 -28 l0 -72 q-1 -15 -16 -16 l-32 0 q-15 1 -16 16 l0 88 q1 37 26 62 q25 25 62 26 l392 0 l-48 -146 ZM446 128 q-12 60 -59 96 l-196 0 q-49 -36 -60 -96 l315 0 Z" /><glyph glyph-name="uniE003" unicode="&#xe003;" d="M491 447 q9 3 15 -4 q7 -7 4 -16 q-8 -30 -24 -80 q-16 -50 -37 -108 q6 -1 12 -3 q4 -1 8 -2 q7 -2 10 -9 q3 -7 -1 -14 q-11 -22 -33 -61 q-22 -38 -51 -80 q-28 -41 -58 -73 q-1 -1 -2 -2 q-1 -1 -1 -2 q-60 -57 -138 -57 q-78 0 -138 57 q-57 60 -57 138 q0 78 57 138 q1 0 2 1 q1 1 2 2 q31 30 73 58 q42 29 80 51 q39 22 61 33 q7 4 14 1 q7 -3 9 -10 q1 -5 3 -11 q1 -4 3 -8 q57 21 107 36 l0 0 q50 16 80 25 ZM315 148 q6 6 4 15 q-3 9 -12 11 l-70 10 l-31 64 q-5 8 -14 8 q-9 0 -14 -8 l-31 -64 l-70 -10 q-9 -2 -12 -11 q-3 -9 4 -15 l50 -50 l-12 -69 q-1 -10 6 -15 q8 -6 16 -1 l63 32 l63 -32 q8 -4 16 1 q7 5 6 15 l-12 69 l50 50 Z" /><glyph glyph-name="uniE004" unicode="&#xe004;" d="M224 256 q15 -1 16 -16 q-1 -15 -16 -16 q-15 1 -16 16 q1 15 16 16 ZM320 0 q22 0 39 -12 q18 -13 24 -32 q2 -8 -2 -14 q-5 -6 -13 -6 l-288 0 q-8 0 -13 6 q-4 6 -2 14 q6 19 24 32 q17 12 39 12 l64 0 l0 35 q-76 13 -125 70 q-49 56 -51 135 q2 88 61 147 q59 59 147 61 q88 -2 147 -61 q59 -59 61 -147 q-2 -79 -51 -135 q-49 -57 -125 -70 l0 -35 l64 0 ZM120 113 q35 -19 71 -9 q37 10 58 44 q17 30 10 64 l105 -18 q9 -1 15 5 q7 5 7 14 q0 28 -15 51 q-14 23 -40 35 q-25 11 -52 8 q-27 -4 -49 -22 l-37 99 q-2 6 -9 10 q-8 5 -18 0 q-33 -20 -44 -58 q-8 -28 5 -62 q13 -34 55 -51 l-68 -82 q-6 -8 -3 -16 l0 0 q3 -8 9 -12 Z" /><glyph glyph-name="uniE005" unicode="&#xe005;" d="M352 192 q68 -2 113 -47 q45 -45 47 -113 q0 -14 -9 -23 q-9 -9 -23 -9 l-64 0 q-14 0 -23 9 q-9 10 -9 23 q0 14 -9 23 q-9 9 -23 9 l-13 0 q-16 -29 -46 -46 q-30 -18 -69 -18 q-39 0 -69 18 q-30 17 -46 46 l-93 0 q-15 1 -16 16 l0 96 q1 15 16 16 l119 0 q24 20 57 28 l0 47 l32 4 l32 -4 l0 -47 q33 -8 57 -28 l39 0 ZM82 288 q-16 0 -18 17 l0 30 q2 17 18 17 l110 -12 l0 28 q1 15 16 16 l32 0 q15 -1 16 -16 l0 -28 l110 12 q16 0 18 -17 l0 -30 q-2 -17 -18 -17 l-142 15 l-142 -15 Z" /><glyph glyph-name="uniE006" unicode="&#xe006;&#x1f6b0;" d="M416 -32 q2 16 16 39 q14 23 16 25 q2 -2 16 -25 q14 -23 16 -39 q0 -14 -9 -23 q-9 -9 -23 -9 q-14 0 -23 9 l0 0 q-9 9 -9 23 ZM352 256 q68 -2 113 -47 q45 -45 47 -113 q0 -14 -9 -23 q-9 -9 -23 -9 l-64 0 q-14 0 -23 9 q-9 10 -9 23 q0 14 -9 23 q-9 9 -23 9 l-13 0 q-16 -29 -46 -46 q-30 -18 -69 -18 q-39 0 -69 18 q-30 17 -46 46 l-93 0 q-15 1 -16 16 l0 96 q1 15 16 16 l119 0 q24 20 57 28 l0 47 l32 4 l32 -4 l0 -47 q33 -8 57 -28 l39 0 ZM82 352 q-16 0 -18 17 l0 30 q2 17 18 17 l110 -12 l0 28 q1 15 16 16 l32 0 q15 -1 16 -16 l0 -28 l110 12 q16 0 18 -17 l0 -30 q-2 -17 -18 -17 l-142 15 l-142 -15 Z" /><glyph glyph-name="uniE008" unicode="&#xe008;" d="M507 174 q7 -32 4 -65 q-2 -11 -12 -13 q-10 -1 -15 9 q-15 34 -44 57 q-29 22 -67 28 q17 -50 7 -102 q-12 -54 -50 -94 q-38 -39 -92 -53 q-32 -7 -65 -4 q-11 2 -13 12 q-1 10 9 15 q34 15 57 44 q22 29 28 67 q-50 -17 -102 -7 q-54 12 -94 50 q-39 38 -53 92 q-7 32 -4 65 q2 11 12 13 q10 1 15 -9 q15 -34 44 -57 q29 -22 67 -28 q-18 50 -8 102 q12 54 50 94 q38 39 93 53 q32 7 65 4 q11 -2 13 -12 q1 -10 -9 -15 q-34 -15 -57 -44 q-22 -29 -28 -67 q50 17 102 7 q54 -12 94 -50 l0 0 q39 -38 53 -92 ZM255 144 q21 1 35 14 q14 14 14 34 q-1 20 -15 34 q-13 13 -34 14 q-20 -1 -34 -14 q-13 -14 -14 -34 q1 -20 15 -34 l0 0 q13 -13 33 -14 Z" /><glyph glyph-name="uniE009" unicode="&#xe009;" d="M40 336 l268 107 q12 5 24 0 l268 -107 q18 -8 29 -23 q11 -16 11 -36 l0 -317 q-2 -22 -24 -24 l-48 0 q-22 2 -24 24 l0 265 q0 13 -9 22 q-9 9 -23 10 l-384 0 q-14 -1 -23 -10 q-9 -9 -9 -22 l0 -265 q-2 -22 -24 -24 l-48 0 q-22 2 -24 24 l0 317 q0 20 11 36 q11 15 29 23 ZM128 225 l384 0 l0 -96 l-384 0 l0 96 ZM128 96 l384 0 l0 -160 l-384 0 l0 160 ZM272 0 l96 0 q15 1 16 16 q-1 15 -16 16 l-96 0 q-15 -1 -16 -16 q1 -15 16 -16 Z" /><glyph glyph-name="uniE00A" unicode="&#xe00a;" d="M0 -40 l0 317 q0 20 11 36 q11 15 29 23 l268 107 q12 5 24 0 l268 -107 q18 -8 29 -23 q11 -16 11 -36 l0 -317 q-2 -22 -24 -24 l-48 0 q-22 2 -24 24 l0 265 q0 13 -9 22 q-9 9 -23 10 l-384 0 q-14 -1 -23 -10 q-9 -9 -9 -22 l0 -265 q-2 -22 -24 -24 l-48 0 q-22 2 -24 24 ZM189 114 l19 56 q16 36 54 38 l116 0 q18 0 32 -10 q15 -10 21 -28 l20 -56 q27 -17 29 -50 l0 -96 q0 -14 -9 -23 q-9 -9 -23 -9 q-14 0 -23 9 q-9 9 -9 23 l0 16 l-193 0 l0 -16 q0 -14 -9 -23 q-9 -9 -23 -9 q-13 0 -22 9 q-9 9 -10 23 l0 96 q2 33 30 50 ZM242 120 l156 0 l-12 35 q-2 5 -8 6 l-116 0 q-6 -1 -8 -6 l-12 -35 ZM240 24 q22 2 24 24 q-2 22 -24 24 q-22 -2 -24 -24 q2 -22 24 -24 ZM400 72 q-22 -2 -24 -24 q2 -22 24 -24 q22 2 24 24 q-2 22 -24 24 Z" /><glyph glyph-name="uniE00B" unicode="&#xe00b;" d="M40 336 l268 107 q12 5 24 0 l268 -107 q18 -8 29 -23 q11 -16 11 -36 l0 -317 q-2 -22 -24 -24 l-48 0 q-22 2 -24 24 l0 265 q0 13 -9 22 q-9 9 -23 10 l-384 0 q-14 -1 -23 -10 q-9 -9 -9 -22 l0 -265 q-2 -22 -24 -24 l-48 0 q-22 2 -24 24 l0 317 q0 20 11 36 q11 15 29 23 ZM244 129 l-2 -9 l156 0 l-3 9 l51 0 l5 -15 q27 -17 29 -50 l0 -96 q0 -14 -9 -23 q-9 -9 -23 -9 q-14 0 -23 9 q-9 9 -9 23 l0 16 l-192 0 l0 -16 q0 -14 -9 -23 q-9 -9 -23 -9 q-14 0 -23 9 q-9 9 -9 23 l0 96 q2 33 29 50 l5 15 l50 0 ZM240 24 q22 2 24 24 q-2 22 -24 24 q-22 -2 -24 -24 q2 -22 24 -24 ZM400 72 q-22 -2 -24 -24 q2 -22 24 -24 q22 2 24 24 q-2 22 -24 24 ZM512 161 l-384 0 l0 64 l384 0 l0 -64 Z" /><glyph glyph-name="uniE00C" unicode="&#xe00c;" d="M64 296 q1 -60 39 -104 q55 -62 56 -146 l0 -45 q0 -14 -9 -23 q-8 -9 -22 -9 q-14 0 -23 9 q-9 8 -9 22 l0 46 q-1 59 -40 104 q-55 62 -56 147 l0 24 q0 13 9 22 q9 9 23 9 q14 0 23 -9 q9 -9 9 -22 l0 -25 ZM392 192 q55 -63 56 -146 l0 -46 q0 -14 -9 -23 q-10 -9 -24 -9 q-13 0 -22 9 q-9 9 -9 23 l0 46 q-1 59 -40 105 q-55 62 -56 146 l0 24 q0 13 9 22 q9 9 23 9 q14 0 23 -9 q9 -9 9 -23 l0 -24 q1 -59 40 -104 ZM208 296 q1 -60 39 -104 q55 -63 56 -146 l0 -46 q0 -14 -9 -23 q-8 -9 -22 -9 q-14 0 -23 9 q-9 10 -8 24 l0 46 q-1 59 -40 104 q-55 62 -56 146 l0 88 q0 13 8 22 q9 9 23 9 q14 0 23 -9 q9 -9 9 -22 l0 -89 Z" /><glyph glyph-name="uniE00D" unicode="&#xe00d;" d="M576 192 q-1 -13 -10 -22 l0 0 q-9 -9 -22 -10 l-32 0 l1 -160 q-1 -27 -19 -45 q-18 -18 -45 -19 l-321 0 q-27 1 -45 19 q-18 18 -19 45 l0 160 l-32 0 q-14 1 -23 10 q-9 9 -9 22 q0 14 10 24 l256 224 q11 9 22 8 q12 0 22 -7 l106 -94 l0 37 q0 14 9 23 q9 9 23 9 l32 0 q14 0 23 -9 q9 -9 9 -23 l0 -121 l53 -47 q12 -10 11 -24 ZM248 256 q-22 -2 -24 -24 l0 -80 q2 -22 24 -24 l80 0 q22 2 24 24 l0 80 q-2 22 -24 24 l-80 0 Z" /><glyph glyph-name="uniE00E" unicode="&#xe00e;" d="M202 388 l56 17 q9 3 15 -4 q7 -7 4 -16 l-16 -56 l35 -19 l-65 -59 q9 16 9 36 q-1 34 -23 57 q-23 22 -57 23 q-34 -1 -57 -23 q-22 -23 -23 -57 q1 -34 23 -56 q23 -22 57 -23 q16 0 31 5 l-58 -52 l-15 26 l-55 -17 q-9 -2 -16 4 q-7 7 -4 16 l17 56 l-52 28 q-8 5 -8 14 q0 9 8 14 l52 27 l-17 56 q-3 9 4 16 q7 7 16 4 l55 -17 l28 52 q5 8 14 8 q9 0 14 -8 l28 -52 ZM208 288 q-1 -20 -14 -34 l0 0 q-14 -13 -34 -14 q-20 1 -34 14 q-13 14 -14 34 q1 20 14 34 q14 13 34 14 q20 -1 34 -14 q13 -14 14 -34 ZM630 151 q9 -9 10 -23 q0 -13 -9 -22 q-10 -10 -23 -10 l-32 0 l0 -112 q-1 -20 -14 -34 q-14 -13 -34 -14 l-256 0 q-20 1 -34 14 q-13 14 -14 34 l0 112 l-32 0 q-14 0 -23 10 q-9 9 -9 22 q0 14 10 23 l208 192 q10 9 22 9 q12 0 22 -9 l208 -192 ZM352 80 q1 -15 16 -16 l64 0 q15 1 16 16 l0 64 q-1 15 -16 16 l-64 0 q-15 -1 -16 -16 l0 -64 Z" /><glyph glyph-name="uniE00F" unicode="&#xe00f;" d="M323 33 l-214 0 q-19 0 -33 14 q-13 14 -14 34 l0 112 l-31 0 q-20 0 -29 19 q-7 20 8 36 l208 192 q10 8 22 8 q12 0 22 -8 l123 -114 l-3 -2 q-45 -18 -66 -61 l-7 -14 q-11 -24 -3 -49 q8 -24 31 -37 q14 -6 29 -6 q10 0 20 3 q5 2 9 4 q1 -5 1 -9 l-32 -81 q-3 -6 -7 -11 l-34 -30 ZM223 240 q-1 15 -16 16 l-64 0 q-15 -1 -16 -16 l0 -64 q1 -15 16 -16 l64 0 q15 1 16 16 l0 64 ZM414 114 q4 -6 5 -8 q2 -1 25 -27 q7 -8 18 -19 l-14 -34 q-5 -12 -14 -21 l-60 -60 q-9 -9 -22 -8 q-12 0 -22 9 q-9 10 -9 22 q-1 13 8 22 l50 51 q10 9 15 21 l20 52 ZM528 352 q-20 0 -34 14 q-14 14 -14 34 q1 20 14 34 q14 13 34 14 q20 -1 34 -14 q13 -14 14 -34 q-1 -20 -14 -34 l0 0 q-14 -14 -34 -14 ZM622 203 q12 -7 16 -19 q4 -12 -1 -24 q-6 -12 -19 -16 q-12 -4 -24 2 l-23 11 q-23 13 -32 37 l-5 17 l-17 -69 l45 -50 q11 -12 15 -27 l22 -89 q3 -14 -3 -24 q-7 -11 -20 -15 q-13 -3 -24 4 q-11 6 -15 19 l-18 73 q-4 16 -15 28 l-60 66 q-22 25 -15 58 l15 61 l-26 -11 q-12 -4 -17 -15 l-7 -14 q-6 -11 -18 -16 q-12 -4 -24 2 q-12 6 -16 19 q-4 12 2 24 l6 14 q17 32 50 46 q7 3 13 5 q22 9 39 15 q18 5 41 5 q36 -1 63 -21 q28 -21 39 -55 l10 -29 l23 -12 Z" /><glyph glyph-name="uniE010" unicode="&#xe010;" d="M88 360 q1 -37 26 -62 l0 0 q25 -25 62 -26 q5 0 8 0 q7 1 10 -4 q3 -4 0 -9 q-32 -34 -82 -35 q-48 1 -79 33 q-32 31 -33 79 q1 48 33 79 q31 32 79 33 q6 0 11 -1 q6 -1 6 -6 q1 -5 -4 -9 q-35 -26 -37 -72 ZM275 403 l33 -12 q5 -2 5 -7 q0 -5 -5 -8 l-33 -11 l-11 -33 q-3 -5 -8 -5 q-5 0 -7 5 l-12 33 l-33 11 q-5 3 -5 8 q0 5 5 7 l33 12 l12 33 q2 5 7 5 q5 0 8 -5 l11 -33 ZM630 151 q15 -15 8 -35 q-9 -19 -30 -20 l-32 0 l0 -112 q-1 -20 -14 -34 q-14 -13 -34 -14 l-256 0 q-20 1 -34 14 q-13 14 -14 34 l0 112 l-32 0 q-22 1 -30 20 q-7 20 8 35 l208 192 q10 9 22 9 q12 0 22 -9 l208 -192 ZM352 80 q1 -15 16 -16 l64 0 q15 1 16 16 l0 64 q-1 15 -16 16 l-64 0 q-15 -1 -16 -16 l0 -64 ZM89 116 q2 5 7 5 l0 0 q5 0 8 -5 l11 -33 l33 -12 q5 -2 5 -7 q0 -5 -5 -8 l-33 -11 l-11 -33 q-3 -5 -8 -5 q-5 0 -7 5 l-12 33 l-33 11 q-5 3 -5 8 q0 5 5 7 l33 12 l12 33 Z" /><glyph glyph-name="uniE011" unicode="&#xe011;" d="M631 -9 q9 -10 9 -23 q0 -12 -9 -22 q-10 -9 -23 -9 q-12 -1 -22 8 l-60 60 q-9 9 -14 21 l-13 34 q30 33 37 41 q7 7 7 8 q1 1 3 5 l21 -52 q5 -12 14 -21 l50 -50 ZM532 185 q7 -33 -15 -58 l-61 -66 q-10 -12 -14 -27 l-19 -74 q-3 -13 -14 -19 q-11 -7 -25 -4 q-13 4 -19 15 q-7 11 -4 24 l22 89 q4 15 15 27 l46 50 l-17 69 l-6 -17 q-8 -24 -32 -37 l-23 -11 q-12 -5 -24 -2 q-13 4 -19 16 q-5 12 -1 24 q4 12 16 19 l23 12 l10 29 q12 34 39 55 q28 20 63 21 q23 0 41 -5 q18 -6 40 -15 q6 -2 13 -5 q33 -14 49 -46 l7 -14 q6 -12 2 -24 q-4 -12 -16 -19 q-12 -5 -24 -2 q-13 5 -19 16 l-6 14 q-6 11 -17 15 l-27 11 l16 -61 ZM432 352 q-20 1 -34 14 q-13 13 -14 33 q1 20 14 34 q14 14 34 14 q21 0 34 -14 q14 -14 14 -34 q0 -20 -14 -33 l0 0 q-13 -13 -34 -14 ZM373 115 q-16 -18 -22 -42 l-11 -40 l-230 0 q-20 0 -34 14 q-13 14 -14 34 l0 112 l-31 0 q-20 0 -29 19 q-7 20 8 35 l208 193 q10 8 22 8 q12 0 22 -8 l127 -118 q-34 -26 -49 -68 l-5 -17 l-12 -6 q-23 -12 -31 -37 q-8 -24 3 -48 q12 -24 36 -32 q11 -4 21 -4 q12 0 23 5 l-2 0 ZM224 240 q-1 15 -16 16 l-64 0 q-15 -1 -16 -16 l0 -64 q1 -15 16 -16 l64 0 q15 1 16 16 l0 64 Z" /><glyph glyph-name="uniE012" unicode="&#xe012;" d="M314 440 q10 8 22 8 l0 0 q12 0 22 -8 l208 -193 q15 -15 8 -35 q-9 -19 -30 -20 l-32 0 l0 -112 q-1 -20 -14 -34 q-14 -13 -34 -14 l-168 0 q-18 75 -71 128 q-53 54 -128 72 q2 9 9 15 l208 193 ZM304 256 q-15 -1 -17 -16 l0 -64 q2 -15 17 -16 l64 0 q15 1 16 16 l0 64 q-1 15 -16 16 l-64 0 ZM256 -40 q-2 -22 -24 -24 q-22 2 -24 24 q-2 78 -54 130 q-52 52 -130 54 q-22 2 -24 24 q2 22 24 24 q65 -1 117 -32 q52 -31 83 -83 q31 -52 32 -117 ZM0 -32 q0 14 9 23 l0 0 q9 9 23 9 q14 0 23 -9 q9 -9 9 -23 q0 -14 -9 -23 q-9 -9 -23 -9 q-14 0 -23 9 q-9 9 -9 23 ZM0 72 q2 22 24 24 q58 -1 96 -40 q39 -38 40 -96 q-2 -22 -24 -24 q-22 2 -24 24 q-1 37 -26 62 q-25 25 -62 26 q-22 2 -24 24 Z" /><glyph glyph-name="uniE014" unicode="&#xe014;" d="M512 367 q0 -7 -5 -13 l-221 -221 q-6 -5 -12 -5 q-16 1 -18 18 l0 148 l-109 -109 l53 -185 l120 0 q33 -2 49 -21 q15 -18 15 -27 q-1 -14 -16 -16 l-352 0 q-15 2 -16 15 q0 10 15 28 q15 19 49 21 l86 0 l-53 186 q-1 3 -1 6 q0 10 7 17 l119 119 l-11 11 q-18 20 -18 45 q0 28 19 46 q18 17 45 18 q25 0 44 -18 l45 -45 l148 0 q17 -3 18 -18 ZM458 261 q14 -17 14 -37 q0 -22 -16 -39 q-17 -17 -40 -17 q-20 0 -36 14 l78 79 Z" /><glyph glyph-name="uniE015" unicode="&#xe015;" d="M256 0 q22 0 39 -12 q18 -13 24 -32 q3 -18 -15 -20 l-224 0 q-8 0 -13 6 q-5 6 -3 14 q7 19 24 32 q17 12 39 12 l33 0 l-1 192 l65 0 l0 -192 l32 0 ZM381 269 q7 -16 -2 -31 q-10 -14 -27 -14 l-320 0 q-17 0 -27 14 q-9 15 -2 31 l68 160 q9 18 30 19 l182 0 q21 -1 30 -19 l68 -160 Z" /><glyph glyph-name="uniE016" unicode="&#xe016;" d="M288 286 q88 -13 149 -71 q61 -59 75 -146 q1 -15 -8 -25 q-10 -11 -24 -11 l-448 0 q-15 0 -24 10 q-9 11 -8 25 q14 87 75 146 q61 59 149 72 l0 162 l64 0 l0 -162 ZM256 -63 q-27 0 -45 18 q-18 18 -19 46 l128 0 q-1 -27 -19 -45 l0 0 q-18 -18 -45 -19 Z" /><glyph glyph-name="uniE017" unicode="&#xe017;" d="M320 448 q27 -1 45 -19 q18 -18 19 -45 l0 -384 q-1 -27 -19 -45 q-18 -18 -45 -19 l-256 0 q-27 1 -45 19 q-18 18 -19 45 l0 384 q1 27 19 45 q18 18 45 19 l256 0 ZM192 416 q-15 -1 -16 -16 q1 -15 16 -16 q15 1 16 16 q-1 15 -16 16 ZM192 -32 q15 1 16 16 q-1 15 -16 16 q-15 -1 -16 -16 q1 -15 16 -16 ZM288 176 l-192 0 l0 -95 q1 -20 14 -34 q14 -14 34 -14 l96 0 q20 0 34 14 l0 0 q13 14 14 34 l0 95 ZM288 305 q-1 20 -14 33 q-14 13 -34 14 l-96 0 q-20 0 -34 -14 q-13 -13 -14 -33 l0 -97 l192 0 l0 97 Z" /><glyph glyph-name="uniE018" unicode="&#xe018;" d="M320 448 q27 -1 45 -19 q18 -18 19 -45 l0 -384 q-1 -27 -19 -45 q-18 -18 -45 -19 l-256 0 q-27 1 -45 19 q-18 18 -19 45 l0 384 q1 27 19 45 q18 18 45 19 l256 0 ZM192 416 q-15 -1 -16 -16 q1 -15 16 -16 q15 1 16 16 q-1 15 -16 16 ZM192 -32 q15 1 16 16 q-1 15 -16 16 q-15 -1 -16 -16 q1 -15 16 -16 ZM288 305 q-1 20 -14 33 q-14 13 -34 14 l-96 0 q-20 0 -34 -14 q-13 -13 -14 -33 l0 -224 q1 -20 14 -34 q14 -14 34 -14 l96 0 q20 0 34 14 q13 14 14 34 l0 79 l0 145 ZM128 192 l128 0 l0 -96 q0 -14 -9 -23 q-9 -9 -23 -9 l-64 0 q-14 0 -23 9 l0 0 q-9 9 -9 23 l0 96 Z" /><glyph glyph-name="uniE019" unicode="&#xe019;" d="M320 448 q27 -1 45 -19 q18 -18 19 -45 l0 -384 q-1 -27 -19 -45 q-18 -18 -45 -19 l-256 0 q-27 1 -45 19 q-18 18 -19 45 l0 384 q1 27 19 45 q18 18 45 19 l256 0 ZM192 416 q-15 -1 -16 -16 q1 -15 16 -16 q15 1 16 16 q-1 15 -16 16 ZM192 -32 q15 1 16 16 q-1 15 -16 16 q-15 -1 -16 -16 q1 -15 16 -16 ZM288 305 q-1 20 -14 34 q-14 13 -34 14 l-96 0 q-20 -1 -34 -14 q-13 -14 -14 -34 l0 -224 q1 -20 14 -34 q14 -14 34 -14 l96 0 q20 0 34 14 q13 14 14 34 l0 127 l0 97 ZM224 320 q14 0 23 -9 q9 -9 9 -23 l0 -96 l-128 0 l0 96 q0 14 9 23 q9 9 23 9 l64 0 Z" /><glyph glyph-name="uniE01B" unicode="&#xe01b;" d="M0 352 q1 27 19 45 l0 0 q18 18 45 19 l448 0 q27 -1 45 -19 q18 -18 19 -45 l0 -288 q-1 -27 -19 -45 q-18 -18 -45 -19 q0 -14 -9 -23 q-9 -9 -23 -9 q-14 0 -23 9 q-9 9 -9 23 l-320 0 q0 -14 -9 -23 q-9 -9 -23 -9 q-14 0 -23 9 q-9 9 -9 23 q-27 1 -45 19 q-18 18 -19 45 l0 288 ZM96 120 q2 -22 24 -24 l272 0 q22 2 24 24 l0 176 q-2 22 -24 24 l-272 0 q-22 -2 -24 -24 l0 -176 ZM496 336 q-15 -1 -16 -16 l0 -224 q1 -15 16 -16 q15 1 16 16 l0 224 q-1 15 -16 16 Z" /><glyph glyph-name="uniE01C" unicode="&#xe01c;" d="M224 160 q22 -2 24 -24 l0 -24 l-48 0 l0 24 q2 22 24 24 ZM160 256 q15 -1 16 -16 l0 -48 q-1 -15 -16 -16 q-15 1 -16 16 l0 48 q1 15 16 16 ZM288 256 q15 -1 16 -16 l0 -48 q-1 -15 -16 -16 q-15 1 -16 16 l0 48 q1 15 16 16 ZM384 417 q27 -1 45 -19 q18 -18 19 -44 l0 -320 q-1 -27 -19 -45 q-18 -19 -45 -19 l-320 0 q-27 0 -45 19 q-18 18 -19 45 l0 320 q1 26 19 44 q18 18 45 19 l320 0 ZM333 69 q49 49 51 124 q-2 73 -51 122 q-6 5 -14 5 l-190 0 q-8 0 -14 -5 q-49 -48 -51 -122 q2 -75 51 -124 q6 -5 14 -5 l190 0 q8 0 14 5 Z" /><glyph glyph-name="uniE01D" unicode="&#xe01d;" d="M0 256 l448 0 l0 -288 q0 -14 -9 -23 q-9 -9 -23 -9 l-384 0 q-14 0 -23 9 l0 0 q-9 9 -9 23 l0 288 ZM64 0 l320 0 l0 192 l-320 0 l0 -192 ZM384 448 q27 -1 45 -19 q18 -18 19 -45 l0 -96 l-448 0 l0 96 q1 27 19 45 q18 18 45 19 l320 0 ZM80 344 q22 2 24 24 q-2 22 -24 24 q-22 -2 -24 -24 q2 -22 24 -24 ZM176 344 q22 2 24 24 q-2 22 -24 24 q-22 -2 -24 -24 q2 -22 24 -24 ZM272 344 q22 2 24 24 q-2 22 -24 24 q-22 -2 -24 -24 q2 -22 24 -24 ZM368 344 q22 2 24 24 q-2 22 -24 24 q-22 -2 -24 -24 q2 -22 24 -24 ZM336 160 q15 -1 16 -16 q-1 -15 -16 -16 l-224 0 q-15 1 -16 16 q1 15 16 16 l224 0 Z" /><glyph glyph-name="uniE01F" unicode="&#xe01f;" d="M512 448 q27 -1 45 -19 q18 -18 19 -45 q-1 -27 -19 -44 q-18 -18 -45 -19 q-27 1 -45 18 q-18 18 -19 45 q1 27 19 45 l0 0 q18 18 45 19 ZM224 384 q63 -1 113 -31 q51 -29 80 -80 q30 -50 31 -113 q-1 -63 -31 -113 q-29 -51 -80 -80 q-50 -30 -113 -31 q-63 1 -113 31 q-51 29 -80 80 q-30 50 -31 113 q1 63 31 113 l0 0 q29 51 80 80 l0 0 q50 30 113 31 ZM320 128 q0 14 -9 23 q-9 9 -23 9 l-64 0 q-16 0 -27 11 q-9 9 -9 21 q-1 13 8 22 l49 58 q11 16 11 35 q-2 26 -27 29 l-5 0 q-54 -1 -96 -29 q-43 -28 -64 -75 q-6 -15 1 -27 q8 -12 25 -13 l25 0 q13 0 22 -9 l55 -55 l0 -32 q0 -14 9 -23 q9 -9 23 -9 l0 -63 q0 -7 5 -12 q6 -5 13 -4 q5 0 10 1 q14 3 21 16 l40 80 q7 14 7 29 l0 17 Z" /><glyph glyph-name="uniE020" unicode="&#xe020;&#x1fa90;" d="M503 439 q18 -20 0 -68 q-17 -48 -64 -113 q-47 -64 -116 -133 q-69 -69 -133 -116 q-65 -46 -113 -64 q-48 -18 -68 0 q-17 19 -2 63 q15 44 57 104 q-23 58 -12 119 q11 61 57 108 q47 46 108 57 q61 12 119 -12 q60 42 104 57 l0 0 q44 15 63 -2 ZM347 101 q27 27 56 61 q30 34 57 70 q10 -51 -5 -100 q-15 -49 -52 -87 q-37 -37 -86 -52 q-49 -15 -101 -5 q71 54 131 113 Z" /><glyph glyph-name="uniE021" unicode="&#xe021;" d="M192 448 q15 -1 16 -16 l0 -16 l80 0 q14 0 23 -9 q9 -9 9 -23 q14 0 23 -9 q9 -9 9 -23 l0 -368 l8 0 q22 -2 24 -24 q-2 -22 -24 -24 l-336 0 q-22 2 -24 24 q2 22 24 24 l8 0 l0 368 q0 14 9 23 q9 9 23 9 q0 14 9 23 q9 9 23 9 l80 0 l0 16 q1 15 16 16 ZM96 288 l32 0 l0 32 l-24 0 q-7 -1 -8 -8 l0 -24 ZM96 248 q1 -7 8 -8 l24 0 l0 32 l-32 0 l0 -24 ZM168 320 l-24 0 l0 -32 l32 0 l0 24 q-1 7 -8 8 ZM144 240 l24 0 q7 1 8 8 l0 24 l-32 0 l0 -32 ZM216 320 q-7 -1 -8 -8 l0 -24 l32 0 l0 32 l-24 0 ZM240 272 l-32 0 l0 -24 q1 -7 8 -8 l24 0 l0 32 ZM256 288 l32 0 l0 24 q-1 7 -8 8 l-24 0 l0 -32 ZM288 272 l-32 0 l0 -32 l24 0 q7 1 8 8 l0 24 ZM96 144 q1 -15 16 -16 l48 0 q15 1 16 16 l0 48 q-1 15 -16 16 l-48 0 q-15 -1 -16 -16 l0 -48 Z" /><glyph glyph-name="uniE022" unicode="&#xe022;" d="M431 448 q35 -3 57 -74 q23 -72 24 -181 q-1 -109 -23 -181 q-23 -72 -57 -75 q-31 2 -53 65 q-22 62 -26 159 l-23 0 q-29 1 -43 27 l-20 41 l-32 -78 l62 -37 q14 -9 20 -24 q5 -14 1 -30 l-31 -102 q-5 -12 -16 -18 q-11 -6 -25 -3 q-12 5 -18 16 q-6 12 -2 25 l27 87 l-85 51 q-21 13 -28 35 q-8 22 2 45 l37 87 l-15 5 q-12 2 -25 -7 l-40 -30 q-11 -8 -23 -6 q-13 1 -21 12 q-8 11 -7 24 q2 12 12 21 l40 30 q37 27 81 17 l70 -20 q42 -11 62 -51 l26 -53 l13 0 q4 96 26 158 l0 0 q22 63 53 65 ZM272 352 q-20 1 -34 14 q-13 14 -14 34 q1 20 14 34 q14 13 34 14 q20 -1 34 -15 q13 -14 14 -34 q-1 -20 -14 -33 l0 0 q-14 -13 -34 -14 ZM114 130 q12 -27 38 -42 l10 -6 l-8 -21 q-14 -28 -45 -29 l-77 0 q-14 0 -23 9 q-9 9 -9 23 q0 14 9 23 q9 10 23 10 l67 0 l15 33 Z" /><glyph glyph-name="uniE023" unicode="&#xe023;" d="M480 225 q14 0 23 -10 q9 -10 9 -24 q0 -13 -9 -22 q-9 -9 -23 -9 l-54 0 q-29 1 -43 27 l-20 41 l-32 -78 l62 -36 q14 -9 20 -24 q5 -14 1 -30 l-31 -102 q-5 -12 -16 -18 q-11 -6 -25 -3 q-12 5 -18 16 q-6 12 -2 25 l27 87 l-85 50 q-21 14 -28 36 q-8 22 2 45 l37 87 l-15 5 q-12 2 -25 -7 l-40 -29 q-18 -13 -37 0 q2 -29 2 -59 q0 -50 -6 -95 l41 0 l15 34 q12 -27 38 -42 l10 -7 l-8 -20 q-14 -28 -45 -29 l-63 0 q-11 -45 -27 -70 q-16 -26 -35 -26 q-34 3 -57 75 q-22 72 -23 180 q1 108 23 180 q23 72 57 75 q25 -1 44 -42 q19 -41 29 -108 q0 1 1 2 q1 1 3 3 l39 30 q37 27 81 17 l71 -21 q41 -11 62 -51 l26 -53 l44 0 ZM368 352 q-20 1 -34 14 q-13 14 -14 34 q1 20 14 34 q14 13 34 14 q20 -1 34 -15 q13 -14 14 -34 q-1 -20 -14 -33 l0 0 q-14 -13 -34 -14 Z" /><glyph glyph-name="uniE024" unicode="&#xe024;" d="M305 275 q-22 13 -50 13 q-41 -1 -68 -28 q-27 -27 -28 -68 q1 -41 28 -68 q27 -27 68 -28 q42 1 69 28 q27 27 28 68 l64 0 q-1 -56 -33 -98 q-33 -41 -84 -56 q-13 25 -44 26 q-28 -1 -42 -26 q-39 11 -68 38 q-28 28 -41 66 q22 14 23 42 q-1 31 -27 44 q13 54 55 89 q43 34 100 35 q55 -1 96 -31 l23 23 q-50 39 -118 40 q-71 -1 -122 -44 q-51 -42 -66 -110 q-16 -4 -26 -16 q-10 -13 -10 -30 q0 -18 12 -31 q11 -13 28 -16 q15 -49 51 -84 q36 -34 86 -47 q4 -17 17 -27 q12 -11 30 -11 q17 0 30 11 q13 10 17 27 q64 17 104 67 q40 50 41 119 l64 0 q-1 -72 -35 -129 q-34 -58 -92 -92 q-57 -34 -129 -35 q-72 1 -129 35 q-58 34 -92 92 q-34 57 -35 129 q1 72 35 129 q34 58 92 92 q57 34 129 35 q95 -2 163 -59 l44 44 q17 14 33 0 q15 -17 0 -34 l-181 -182 q5 -12 5 -25 q-1 -27 -19 -45 q-18 -18 -45 -19 q-27 1 -45 19 q-18 18 -19 45 q1 27 19 45 q18 18 45 19 q14 0 24 -5 l25 24 Z" /><glyph glyph-name="uniE025" unicode="&#xe025;" d="M320 416 q15 -1 16 -16 l0 -255 q-2 -15 -16 -16 l-16 0 q-15 1 -16 16 l0 15 l-115 -200 q-11 -17 -30 -22 q-19 -5 -36 4 l-55 32 q-17 10 -23 30 q-5 19 5 36 l70 121 q-44 4 -74 35 q-29 31 -30 76 q0 34 18 60 q17 27 46 41 l0 59 q1 10 8 14 q8 4 16 0 l103 -62 l49 0 q26 0 48 -11 l0 27 q1 15 16 16 l16 0 ZM112 249 q22 1 24 24 q-2 22 -24 24 q-22 -2 -24 -24 q2 -22 24 -24 ZM208 249 q22 1 24 24 q-2 22 -24 24 q-22 -2 -24 -24 q2 -22 24 -24 ZM569 329 q7 -5 7 -13 l0 -84 q0 -8 -7 -13 q-6 -5 -14 -2 l-75 25 l-64 0 l0 -66 q-1 -15 -16 -16 l-16 0 q-15 1 -16 16 l0 192 q1 15 16 16 l16 0 q15 -1 16 -16 l0 -62 l64 0 l75 25 q8 2 14 -2 Z" /><glyph glyph-name="uniE026" unicode="&#xe026;" d="M288 288 l0 81 q1 13 16 15 q15 -2 16 -15 l0 -81 l64 0 l0 96 q-1 27 -19 45 q-18 18 -45 19 l-256 0 q-27 -1 -45 -19 q-18 -18 -19 -45 l0 -96 l288 0 ZM384 256 l0 -288 q0 -14 -9 -23 q-9 -9 -23 -9 l-320 0 q-14 0 -23 9 q-9 9 -9 23 l0 288 l288 0 l0 -176 q1 -15 16 -16 q15 1 16 16 l0 176 l64 0 Z" /><glyph glyph-name="uniE027" unicode="&#xe027;&#x1f680;" d="M118 321 l89 0 q41 64 91 93 q50 28 99 32 q49 5 87 -3 q18 -5 23 -23 q8 -38 3 -87 q-4 -49 -33 -99 q-28 -50 -93 -90 l0 -90 q-1 -41 -35 -62 l-89 -53 q-12 -6 -24 0 q-12 7 -12 21 l0 115 q0 35 -25 61 q-25 24 -60 24 l-115 0 q-14 0 -21 12 q-6 12 0 24 l53 89 q21 34 62 36 ZM384 360 q-17 0 -28 -12 l0 0 q-12 -11 -12 -28 q0 -17 12 -28 q11 -12 28 -12 q17 0 28 12 q12 11 12 28 q0 17 -12 28 q-11 12 -28 12 ZM167 -22 q-27 -24 -66 -33 l0 0 q-38 -8 -68 -9 l0 0 q-31 0 -33 0 l0 0 q0 0 0 0 q0 2 0 33 q1 30 9 69 q9 38 33 64 q27 26 62 26 q35 0 63 -26 q25 -27 25 -62 q0 -35 -25 -62 ZM120 56 q-9 8 -21 8 l0 0 q-12 0 -21 -8 q-11 -14 -13 -34 q-1 -19 0 -21 q0 0 0 0 q1 -1 21 0 q20 2 34 13 q8 9 8 21 q0 12 -8 21 Z" /><glyph glyph-name="uniE028" unicode="&#xe028;" d="M384 416 q27 -1 45 -19 q18 -18 19 -45 l0 -320 q-1 -27 -19 -45 q-18 -18 -45 -19 l-320 0 q-27 1 -45 19 q-18 18 -19 45 l0 320 q1 27 19 45 q18 18 45 19 l320 0 ZM96 336 q-1 15 -16 16 q-15 -1 -16 -16 l0 -160 q1 -15 16 -16 q15 1 16 16 l0 160 ZM160 336 q-1 15 -16 16 q-15 -1 -16 -16 l0 -160 q1 -15 16 -16 q15 1 16 16 l0 160 ZM224 336 q-1 15 -16 16 q-15 -1 -16 -16 l0 -160 q1 -15 16 -16 q15 1 16 16 l0 160 Z" /><glyph glyph-name="uniE029" unicode="&#xe029;" d="M633 45 q14 -28 0 -51 q-14 -24 -44 -26 l-282 0 q-30 2 -44 26 q-14 24 0 51 l141 244 q16 25 44 25 q28 0 44 -25 l141 -244 ZM447 16 q22 2 23 24 q-2 22 -23 24 q-10 0 -17 -7 q-7 -7 -7 -17 q2 -22 24 -24 ZM472 192 q-2 22 -24 24 q-22 -2 -24 -24 l0 -80 q2 -22 24 -24 q22 2 24 24 l0 80 ZM235 61 q-22 -42 -1 -84 q3 -3 6 -7 q1 -1 2 -2 l-179 0 q-26 1 -44 19 q-18 18 -19 45 l0 320 q1 27 19 45 q18 18 44 19 l321 0 q27 -1 44 -19 q18 -18 19 -45 l0 -6 q-46 -1 -71 -41 l-141 -244 ZM93 336 q-1 15 -15 16 q-13 -1 -15 -16 l0 -160 q1 -15 16 -16 q15 1 16 16 l-2 160 ZM157 336 q-1 15 -15 16 q-13 -1 -15 -16 l0 -160 q1 -15 16 -16 q15 1 16 16 l-2 160 ZM207 160 q16 1 14 16 l0 160 q-1 15 -15 16 q-13 -1 -15 -16 l0 -160 q2 -15 16 -16 Z" /><glyph glyph-name="uniE02A" unicode="&#xe02a;" d="M289 133 q0 -51 23 -94 q23 -43 65 -71 l-313 0 q-27 1 -45 19 q-18 18 -19 45 l0 320 q1 27 19 45 q18 18 45 19 l321 0 q23 0 40 -15 q17 -14 23 -37 q-1 1 -2 1 q-2 1 -5 1 q-12 0 -21 -9 q-59 -55 -95 -116 l0 0 q-35 -62 -36 -108 ZM96 336 q-1 15 -16 16 q-14 -1 -16 -16 l0 -160 q2 -15 16 -16 q15 1 16 16 l0 160 ZM161 336 q-2 15 -17 16 q-14 -1 -16 -16 l0 -160 q2 -15 16 -16 q15 1 17 16 l0 160 ZM225 336 q-2 15 -16 16 q-15 -1 -16 -16 l0 -160 q1 -15 16 -16 q14 1 16 16 l0 160 ZM551 297 q40 -38 64 -86 q24 -48 25 -78 q-2 -70 -47 -117 q-45 -46 -113 -48 q-68 2 -113 48 q-45 47 -47 117 q1 40 34 95 q32 55 86 106 q39 -37 71 -80 q19 23 40 43 ZM540 50 q28 21 34 53 q6 32 -9 62 q-4 7 -8 15 l-44 -50 q0 0 0 0 q-2 2 -19 24 q-17 21 -34 43 q-18 23 -21 27 q-28 -32 -41 -55 q-14 -22 -14 -43 q1 -44 29 -69 q27 -25 69 -25 q32 0 58 18 Z" /><glyph glyph-name="uniE02B" unicode="&#xe02b;" d="M384 416 q27 -1 45 -19 q18 -18 19 -45 l0 -320 q-1 -27 -19 -45 q-18 -18 -45 -19 l-320 0 q-27 1 -45 19 q-18 18 -19 45 l0 320 q1 27 19 45 q18 18 45 19 l320 0 ZM96 336 q-1 15 -16 16 q-15 -1 -16 -16 l0 -160 q1 -15 16 -16 q15 1 16 16 l0 160 ZM160 336 q-1 15 -16 16 q-15 -1 -16 -16 l0 -160 q1 -15 16 -16 q15 1 16 16 l0 160 ZM224 336 q-1 15 -16 16 q-15 -1 -16 -16 l0 -160 q1 -15 16 -16 q15 1 16 16 l0 160 ZM616 216 q22 -2 24 -24 q-2 -22 -24 -24 l-64 0 q-22 2 -24 24 q2 22 24 24 l64 0 ZM536 304 q-17 1 -23 17 q-4 17 10 27 l48 32 q11 8 24 2 q12 -7 14 -20 q0 -14 -12 -22 l-48 -32 q-6 -4 -13 -4 ZM597 44 q18 -14 7 -33 q-14 -18 -33 -7 l-48 32 q-17 14 -7 33 q14 17 33 7 l48 -32 Z" /><glyph glyph-name="uniE02C" unicode="&#xe02c;" d="M573 127 q31 -6 50 -30 q18 -23 16 -55 q-3 -32 -26 -53 q-22 -20 -54 -21 l-223 0 q-33 1 -56 23 q-22 23 -23 57 q1 34 23 57 q22 22 56 23 q1 0 2 0 q-6 31 9 57 q16 26 46 36 q31 7 58 -5 q27 -13 39 -43 q12 15 29 18 q17 4 33 -5 q15 -9 21 -26 l0 0 q6 -16 0 -33 ZM305 155 q-30 -8 -50 -29 q-20 -21 -27 -51 q-7 -29 1 -58 q8 -28 30 -49 l-194 0 q-27 1 -45 19 q-17 18 -18 45 l0 320 q0 27 18 45 q18 18 45 19 l319 0 q27 -1 44 -19 q18 -18 19 -45 l0 -101 q-14 5 -31 5 q-45 -1 -75 -29 l0 0 q-31 -28 -36 -72 ZM93 336 q-1 15 -15 16 q-13 -1 -15 -16 l0 -160 q1 -15 16 -16 q15 1 16 16 l-2 160 ZM157 336 q-1 15 -15 16 q-13 -1 -15 -16 l0 -160 q2 -15 16 -16 q15 1 16 16 l-2 160 ZM207 160 q16 1 15 16 l0 160 q-1 15 -15 16 q-13 -1 -15 -16 l0 -160 q1 -15 15 -16 Z" /><glyph glyph-name="uniE02D" unicode="&#xe02d;" d="M104 96 l-56 0 l25 200 q4 24 21 39 q18 16 43 16 l175 0 q24 0 42 -16 q17 -15 21 -39 l25 -200 l-264 0 l24 181 q0 4 -2 6 q-2 2 -5 3 l-16 3 q-3 0 -6 -2 q-2 -2 -3 -5 l-24 -186 ZM432 64 q15 -1 16 -16 l0 -64 q-1 -15 -16 -16 l-416 0 q-15 1 -16 16 l0 64 q1 15 16 16 l416 0 Z" /><glyph glyph-name="uniE02E" unicode="&#xe02e;" d="M200 96 l-56 0 l25 200 q4 24 21 40 q18 15 43 16 l175 0 q24 -1 42 -16 q17 -16 21 -40 l25 -200 l-264 0 l24 180 q0 4 -2 7 q-2 2 -5 3 l-16 2 q-3 0 -6 -2 q-2 -2 -3 -5 l-24 -185 ZM536 336 q-17 1 -23 17 q-4 16 10 27 l48 32 q11 7 24 2 q12 -7 13 -21 q1 -14 -11 -21 l-48 -32 q-6 -4 -13 -4 ZM43 372 q-12 7 -11 21 q1 14 13 21 q13 5 24 -2 l48 -32 q12 -8 12 -22 q-2 -14 -14 -20 q-13 -6 -24 2 l-48 32 ZM112 224 q-2 -22 -24 -24 l-64 0 q-22 2 -24 24 q2 22 24 24 l64 0 q22 -2 24 -24 ZM616 248 q22 -2 24 -24 q-2 -22 -24 -24 l-64 0 q-22 2 -24 24 q2 22 24 24 l64 0 ZM528 64 q15 -1 16 -16 l0 -64 q-1 -15 -16 -16 l-416 0 q-15 1 -16 16 l0 64 q1 15 16 16 l416 0 Z" /><glyph glyph-name="uniE02F" unicode="&#xe02f;" d="M392 328 q12 -13 13 -30 q1 -16 -8 -30 q24 -47 17 -98 q-7 -51 -45 -90 q-40 -39 -92 -46 q-52 -7 -101 20 q-48 28 -68 77 q-20 49 -6 102 q15 54 57 86 q42 32 97 33 q39 0 75 -20 q15 10 31 9 l0 0 q17 -1 30 -13 ZM335 113 q27 28 32 64 q4 37 -14 70 q-16 1 -29 13 q-12 13 -13 29 q-40 21 -81 12 q-41 -10 -67 -46 q-25 -37 -19 -79 q5 -41 39 -71 q35 -28 78 -26 l0 0 q42 3 74 34 ZM255 256 q28 -1 46 -19 q18 -18 19 -45 q-1 -27 -19 -45 q-18 -17 -45 -18 q-27 1 -45 19 q-18 18 -19 45 q1 26 18 44 l0 0 q18 18 45 19 ZM337 0 q6 -20 21 -33 q2 -2 4 -4 q1 -1 2 -2 q-75 -34 -152 -20 q-78 13 -137 71 q-65 67 -73 155 q-9 88 40 165 q-9 18 -4 37 q4 18 19 31 q16 12 35 12 q19 0 35 -12 q15 -13 19 -32 q5 -18 -3 -36 q-10 -18 -27 -26 q-17 -9 -37 -4 q-37 -63 -30 -133 q8 -70 60 -124 q46 -45 107 -57 l0 0 q62 -12 121 12 ZM437 373 q66 -68 74 -156 q8 -88 -41 -165 q9 -18 4 -37 q-4 -18 -19 -31 q-16 -12 -35 -12 q-19 0 -35 12 q-16 13 -20 32 q-4 18 4 36 q9 18 27 26 q17 8 37 4 q37 63 30 133 q-8 70 -60 124 q-46 45 -107 57 q-62 12 -121 -12 q-6 19 -21 34 q-2 2 -4 4 q-1 1 -2 2 q75 34 153 20 l0 0 q77 -13 136 -71 Z" /><glyph glyph-name="uniE030" unicode="&#xe030;" d="M256 448 q72 -1 129 -35 q58 -34 92 -92 q34 -57 35 -129 q-1 -72 -35 -129 q-34 -58 -92 -92 q-57 -34 -129 -35 q-72 1 -129 35 q-58 34 -92 92 q-34 57 -35 129 q1 72 35 129 l0 0 q34 58 92 92 l0 0 q57 34 129 35 ZM361 129 q8 9 4 20 q-5 10 -17 11 l-183 0 q-13 -1 -17 -11 q-5 -11 3 -20 l92 -92 q5 -6 13 -5 q8 0 13 5 l92 92 ZM348 224 q12 1 17 11 q4 11 -4 21 l-92 92 q-5 5 -13 5 q-8 -1 -13 -6 l-92 -92 q-8 -9 -3 -20 q4 -10 17 -11 l183 0 Z" /><glyph glyph-name="uniE031" unicode="&#xe031;" d="M256 314 l59 -58 l-118 0 l59 58 ZM256 448 q72 -1 129 -35 q58 -34 92 -92 q34 -57 35 -129 q-1 -72 -35 -129 q-34 -58 -92 -92 q-57 -34 -129 -35 q-72 1 -129 35 q-58 34 -92 92 q-34 57 -35 129 q1 72 35 129 l0 0 q34 58 92 92 l0 0 q57 34 129 35 ZM361 129 q8 9 4 20 q-5 10 -18 11 l-182 0 q-13 -1 -18 -11 q-4 -11 4 -20 l92 -92 q5 -6 13 -5 q8 0 13 5 l92 92 ZM348 225 q12 1 17 11 q4 10 -4 20 l-92 92 q-5 5 -13 5 q-8 -1 -13 -6 l-92 -91 q-8 -9 -4 -20 q5 -10 18 -11 l183 0 Z" /><glyph glyph-name="uniE032" unicode="&#xe032;" d="M197 128 l118 0 l-59 -59 l-59 59 ZM256 448 q72 -1 129 -35 q58 -34 92 -92 q34 -57 35 -129 q-1 -72 -35 -129 q-34 -58 -92 -92 q-57 -34 -129 -35 q-72 1 -129 35 q-58 34 -92 92 q-34 57 -35 129 q1 72 35 129 l0 0 q34 58 92 92 l0 0 q57 34 129 35 ZM361 129 q8 9 4 20 q-5 10 -17 11 l-183 0 q-13 -1 -18 -11 q-4 -11 4 -20 l92 -92 q5 -6 13 -5 q8 0 13 5 l92 92 ZM348 225 q12 1 17 11 q4 10 -4 20 l-92 92 q-5 5 -13 5 q-8 -1 -13 -5 l-92 -92 q-8 -9 -3 -20 q4 -10 17 -11 l183 0 Z" /><glyph glyph-name="uniE033" unicode="&#xe033;" d="M224 288 q0 -14 -9 -23 l0 0 q-9 -9 -23 -9 q-14 0 -23 9 q-9 9 -9 23 q0 14 9 23 q9 9 23 9 q14 0 23 -9 q9 -9 9 -23 ZM512 192 q0 -12 -2 -23 q-109 -40 -254 -41 q-145 1 -255 41 q-1 11 -1 23 q1 72 35 129 q34 58 92 92 q57 34 129 35 q72 -1 129 -35 q58 -34 92 -92 q34 -57 35 -129 ZM192 368 q-34 -1 -57 -23 l0 0 q-22 -23 -23 -57 q1 -34 23 -57 q23 -22 57 -23 q34 1 57 23 q22 23 23 57 q-1 34 -23 57 q-23 22 -57 23 ZM256 -64 q-93 2 -160 56 l0 0 q-68 55 -89 141 q110 -36 249 -37 q139 1 249 37 q-21 -86 -89 -141 q-67 -54 -160 -56 Z" /><glyph glyph-name="uniE034" unicode="&#xe034;" d="M160 288 q0 14 9 23 l0 0 q9 9 23 9 q14 0 23 -9 q9 -9 9 -23 q0 -14 -9 -23 q-9 -9 -23 -9 q-14 0 -23 9 q-9 9 -9 23 ZM256 128 q-145 1 -255 41 q-1 11 -1 23 q1 72 35 129 q34 58 92 92 q57 34 129 35 q93 -2 160 -56 l0 -40 l-64 0 l0 -64 l96 0 l0 -64 l62 0 q2 -16 2 -32 q0 -12 -2 -23 q-109 -40 -254 -41 ZM192 208 q34 1 57 23 l0 0 q22 23 23 57 q-1 34 -23 57 q-23 22 -57 23 q-34 -1 -57 -23 q-22 -23 -23 -57 q1 -34 23 -57 q23 -22 57 -23 ZM256 96 q67 0 128 9 l0 -41 l64 0 l0 -41 q-36 -41 -85 -64 q-49 -23 -107 -23 q-93 2 -160 56 q-68 55 -89 141 q110 -36 249 -37 Z" /><glyph glyph-name="uniE035" unicode="&#xe035;" d="M398 192 q11 0 16 -10 q5 -10 -2 -18 l-67 -79 l-25 -25 l0 -124 l-128 0 l0 124 l-25 25 l-67 78 q-7 9 -2 19 q5 10 16 10 l110 1 l0 160 q0 13 9 22 q9 9 23 9 q14 0 23 -9 q9 -9 9 -22 l0 -160 l110 -1 ZM152 296 q-22 2 -24 24 q2 22 24 24 q22 -2 24 -24 q-2 -22 -24 -24 ZM88 352 q-22 2 -24 24 q2 22 24 24 q22 -2 24 -24 q-2 -22 -24 -24 ZM112 264 q-2 -22 -24 -24 q-22 2 -24 24 q2 22 24 24 q22 -2 24 -24 ZM24 344 q22 -2 24 -24 q-2 -22 -24 -24 q-22 2 -24 24 q2 22 24 24 ZM24 448 q22 -2 24 -24 q-2 -22 -24 -24 q-22 2 -24 24 q2 22 24 24 ZM24 240 q22 -2 24 -24 q-2 -22 -24 -24 q-22 2 -24 24 q2 22 24 24 ZM360 296 q-22 2 -24 24 q2 22 24 24 q22 -2 24 -24 q-2 -22 -24 -24 ZM424 288 q22 -2 24 -24 q-2 -22 -24 -24 q-22 2 -24 24 q2 22 24 24 ZM424 400 q22 -2 24 -24 q-2 -22 -24 -24 q-22 2 -24 24 q2 22 24 24 ZM488 344 q22 -2 24 -24 q-2 -22 -24 -24 q-22 2 -24 24 q2 22 24 24 ZM488 240 q22 -2 24 -24 q-2 -22 -24 -24 q-22 2 -24 24 q2 22 24 24 ZM488 400 q-22 2 -24 24 q2 22 24 24 q22 -2 24 -24 q-2 -22 -24 -24 Z" /><glyph glyph-name="uniE036" unicode="&#xe036;&#x1f320;" d="M364 181 q15 -3 19 -16 q4 -13 -5 -24 l-76 -74 l18 -104 q2 -14 -9 -23 q-12 -7 -24 -1 l-94 49 l-94 -49 q-13 -6 -24 1 q-11 8 -9 23 l17 104 l-76 74 q-10 12 -6 24 q4 13 19 16 l105 15 l46 95 q8 13 21 13 q13 0 21 -13 l46 -95 l105 -15 ZM311 248 q-14 16 0 33 l160 160 q17 14 34 0 q14 -17 0 -34 l-160 -160 q-7 -7 -17 -7 q-10 0 -17 8 ZM248 352 q-10 0 -17 7 q-14 17 0 34 l48 48 q17 14 34 0 q14 -17 0 -34 l-48 -48 q-7 -7 -17 -7 ZM471 249 q17 14 34 0 q14 -17 0 -34 l-48 -48 q-7 -7 -17 -7 q-10 0 -17 7 q-14 17 0 34 l48 48 Z" /><glyph glyph-name="uniE037" unicode="&#xe037;" d="M384 192 l0 -208 q-1 -15 -16 -16 l-96 0 q-15 1 -16 16 l0 208 l30 242 q3 13 16 14 l36 0 q13 -1 16 -14 l30 -242 ZM288 144 q1 -15 16 -16 l32 0 q15 1 16 16 l0 48 q0 14 -9 23 q-9 9 -23 9 q-14 0 -23 -9 q-9 -9 -9 -23 l0 -48 ZM48 376 q22 -2 24 -24 l0 -24 q22 -2 24 -24 q-2 -22 -24 -24 l0 -184 l56 0 l0 32 q0 14 9 23 q9 9 23 9 l32 0 q14 0 23 -9 q9 -9 9 -23 l0 -160 q0 -14 -9 -23 q-9 -9 -23 -9 q-14 0 -23 9 q-9 9 -9 23 l0 10 l-88 26 l0 -4 q-2 -22 -24 -24 q-22 2 -24 24 l0 280 q-22 2 -24 24 q2 22 24 24 l0 24 q2 22 24 24 ZM592 376 q22 -2 24 -24 l0 -24 q22 -2 24 -24 q-2 -22 -24 -24 l0 -280 q-2 -22 -24 -24 q-22 2 -24 24 l0 4 l-88 -26 l0 -10 q0 -14 -9 -23 q-9 -9 -23 -9 q-14 0 -23 9 q-9 9 -9 23 l0 160 q0 14 9 23 q9 9 23 9 l32 0 q14 0 23 -9 q9 -9 9 -23 l0 -32 l56 0 l0 184 q-22 2 -24 24 q2 22 24 24 l0 24 q2 22 24 24 Z" /><glyph glyph-name="uniE038" unicode="&#xe038;" d="M32 416 q14 0 23 -9 l0 0 q9 -9 9 -23 l0 -147 l76 15 q18 45 57 72 q40 27 91 28 q51 -1 91 -28 q39 -27 57 -72 l76 -15 l0 147 q0 14 9 23 q9 9 23 9 q14 0 23 -9 q9 -9 9 -23 l0 -384 q0 -14 -9 -23 q-9 -9 -23 -9 q-14 0 -23 9 q-9 9 -9 23 l0 147 l-76 -15 q-18 -45 -57 -72 q-40 -27 -91 -28 q-51 1 -91 28 q-39 27 -57 72 l-76 15 l0 -147 q0 -14 -9 -23 q-9 -9 -23 -9 q-14 0 -23 9 q-9 9 -9 23 l0 384 q0 14 9 23 q9 9 23 9 ZM272 97 l0 34 q-9 1 -16 6 l-24 -23 q18 -13 39 -17 l1 0 ZM210 136 l23 23 q-5 8 -7 17 l-33 0 q4 -22 17 -40 ZM193 208 l33 0 q2 9 7 16 l-23 24 q-13 -18 -17 -40 ZM232 270 l24 -23 q7 5 15 7 l0 33 q-21 -4 -39 -17 ZM321 137 q-8 -5 -17 -6 l0 -34 q22 4 40 17 l-23 23 ZM366 136 q13 18 17 40 l-34 0 q-1 -9 -6 -17 l23 -23 ZM349 208 l34 0 q-4 22 -17 40 l-23 -24 q5 -7 6 -16 ZM304 287 l0 -33 q9 -2 17 -7 l23 23 q-18 13 -40 17 ZM311 169 q9 9 9 23 q0 14 -9 23 q-9 9 -23 9 q-14 0 -23 -9 q-9 -9 -9 -23 q0 -14 9 -23 q9 -9 23 -9 q14 0 23 9 Z" /><glyph glyph-name="uniE039" unicode="&#xe039;" d="M480 192 q0 -14 -9 -23 l0 0 q-9 -9 -23 -9 q-14 0 -23 9 q-9 9 -9 23 q0 14 9 23 q9 9 23 9 q14 0 23 -9 q9 -9 9 -23 ZM256 192 q2 82 56 136 l0 0 q54 54 136 56 q82 -2 136 -56 q54 -54 56 -136 q-2 -82 -56 -136 q-54 -54 -136 -56 q-82 2 -136 56 q-54 54 -56 136 ZM448 128 q27 1 45 19 l0 0 q18 18 19 45 q-1 27 -19 45 q-18 18 -45 19 q-27 -1 -45 -19 q-18 -18 -19 -45 q1 -27 19 -45 q18 -18 45 -19 ZM189 243 l43 8 q-8 -28 -8 -59 q0 -31 8 -59 l-43 8 l-52 -45 l71 0 q14 0 23 -9 q9 -9 9 -23 q0 -14 -9 -23 q-9 -9 -23 -9 l-176 0 q-14 0 -23 9 q-9 9 -9 23 q0 14 9 23 q9 9 23 9 l32 0 l66 57 l-3 1 q-29 8 -31 38 q2 30 31 38 l3 1 l-66 58 l-32 0 q-14 0 -23 9 q-9 9 -9 23 q0 13 9 22 q9 9 23 10 l176 0 q14 -1 23 -10 q9 -9 9 -22 q0 -14 -9 -23 q-9 -9 -23 -9 l-71 0 l52 -46 Z" /><glyph glyph-name="uniE03A" unicode="&#xe03a;" d="M176 192 q1 20 14 34 l0 0 q14 13 34 14 q20 -1 34 -14 q13 -14 14 -34 q-1 -20 -14 -34 q-14 -13 -34 -14 q-20 1 -34 14 q-13 14 -14 34 ZM224 -32 q-63 1 -113 31 l0 0 q-51 29 -80 80 l0 0 q-30 50 -31 113 q1 63 31 113 q29 51 80 80 q50 30 113 31 q64 0 124 -23 l208 -81 q19 -9 20 -30 l0 -41 q-1 -15 -16 -16 l-128 0 q-15 -2 -16 -16 l0 -32 q1 -15 16 -16 l128 0 q15 -2 16 -16 l0 -43 q-1 -21 -20 -30 l-82 -32 q6 -10 6 -24 q-1 -20 -14 -34 q-14 -13 -34 -14 l-80 0 q-18 1 -27 15 q-49 -15 -101 -15 ZM224 112 q34 1 57 23 l0 0 q22 23 23 57 q-1 34 -23 57 q-23 22 -57 23 q-34 -1 -57 -23 q-22 -23 -23 -57 q1 -34 23 -57 q23 -22 57 -23 ZM80 176 q15 1 16 16 q-1 15 -16 16 q-15 -1 -16 -16 q1 -15 16 -16 ZM112 304 q-15 -1 -16 -16 q1 -15 16 -16 q15 1 16 16 q-1 15 -16 16 ZM112 80 q15 1 16 16 q-1 15 -16 16 q-15 -1 -16 -16 q1 -15 16 -16 Z" /><glyph glyph-name="uniE03B" unicode="&#xe03b;" d="M88 115 l91 -90 l-79 -80 q-10 -9 -23 -9 q-13 0 -22 9 l-46 46 q-9 10 -9 22 l0 0 q0 13 9 23 l79 79 ZM128 143 l79 -79 l-22 -23 l-79 80 l22 22 ZM275 132 q5 -6 0 -11 l-11 -12 q-6 -4 -11 0 l-80 80 q-4 5 0 11 l11 11 q5 5 11 0 l80 -79 ZM162 177 l79 -79 l-22 -23 l-79 80 l22 22 ZM504 441 q15 -17 0 -32 l-225 -247 l-53 54 l245 226 q17 13 33 -1 Z" /><glyph glyph-name="uniE03C" unicode="&#xe03c;" d="M151 64 l-108 -107 l-22 22 l107 108 l23 -23 ZM117 98 l-108 -107 q-9 9 -9 22 q0 13 9 23 l85 85 l23 -23 ZM309 192 q11 -1 15 -10 q4 -9 -4 -17 l-124 -124 l-90 91 l54 55 q5 5 11 5 l138 0 ZM504 441 q15 -16 1 -33 l-176 -192 l-104 0 l246 226 q17 13 33 -1 ZM162 53 l23 -23 l-85 -85 q-10 -9 -23 -9 l0 0 q-13 0 -22 9 l107 108 Z" /><glyph glyph-name="uniE03D" unicode="&#xe03d;" d="M135 441 q16 14 33 1 l192 -177 l0 -103 l-226 246 q-13 17 1 33 ZM534 132 l-90 -91 l-55 56 q-5 4 -5 11 l0 137 q1 11 10 15 l0 0 q9 4 17 -4 l123 -124 ZM512 87 l107 -108 l-22 -22 l-108 107 l23 23 ZM631 36 q9 -10 9 -23 q0 -13 -9 -22 l-108 107 l23 23 l85 -85 ZM478 53 l107 -108 q-9 -9 -22 -9 q-13 0 -23 9 l-85 85 l23 23 ZM256 228 l43 -47 l-43 -46 l0 93 ZM401 293 q0 0 -1 0 q0 0 0 0 q-9 0 -18 -4 l-38 35 l128 118 q17 13 33 -1 q14 -16 1 -33 l-105 -115 ZM197 223 q8 8 17 4 q9 -4 10 -15 l0 -137 q0 -7 -5 -11 l-119 -119 q-10 -9 -23 -9 q-12 0 -22 9 l-46 46 q-9 10 -9 22 q0 13 9 23 l114 113 q-10 10 -10 23 q0 12 10 22 q9 10 22 10 q13 0 23 -10 l29 29 ZM169 87 q14 2 16 16 q-2 13 -16 15 q-15 -1 -16 -15 q1 -14 16 -16 Z" /><glyph glyph-name="uniE03E" unicode="&#xe03e;&#x1f52d;" d="M639 231 q1 -3 1 -5 q-1 -11 -10 -16 l-117 -48 q-3 -1 -6 -2 q-10 1 -15 10 l-86 207 q-1 3 -1 6 q1 11 10 15 l117 49 q3 1 6 1 q10 -1 15 -11 l86 -206 ZM458 167 l-67 -23 q0 0 0 0 q0 0 0 0 q0 -26 -16 -44 l47 -132 q5 -21 -15 -31 q-4 -1 -8 -1 q-15 1 -23 16 l-42 122 q-7 -2 -15 -2 q-7 0 -14 2 l-43 -122 q-7 -15 -23 -16 q-3 0 -7 2 q-20 10 -15 31 l47 131 q0 0 -1 0 q0 0 0 0 l-127 -43 q-15 -4 -21 8 l-9 21 l-64 -26 q-3 -2 -6 -2 q-10 1 -15 10 l-20 49 q-1 3 -1 6 q1 10 10 15 l64 26 l-9 21 q-4 14 9 21 l306 150 l78 -189 ZM319 121 q23 1 24 24 q-2 22 -24 24 q-22 -2 -24 -24 q2 -22 24 -24 Z" /><glyph glyph-name="uniE03F" unicode="&#xe03f;" d="M159 125 q17 -6 26 -21 q9 -15 6 -32 q-3 -18 -16 -29 q-13 -11 -31 -11 q-18 0 -31 11 q-13 11 -16 29 q-3 17 6 32 q8 15 25 21 l1 20 q1 15 15 16 q14 -2 15 -17 l0 -19 ZM255 169 q31 -37 32 -89 q-1 -61 -42 -102 q-40 -40 -101 -42 q-61 2 -102 42 q-40 41 -42 102 q1 52 32 89 l0 167 q1 48 33 79 q31 32 79 33 q48 -1 79 -33 l0 0 q31 -31 32 -79 l0 -167 ZM220 55 q8 25 0 49 q-7 24 -29 40 l0 192 q0 20 -14 34 q-13 13 -33 14 q-20 -1 -34 -14 q-13 -14 -14 -34 l0 -192 q-21 -16 -28 -40 q-8 -24 0 -49 q9 -24 29 -39 q21 -15 47 -15 q26 0 46 14 l0 0 q21 15 30 40 ZM499 105 q11 -9 13 -21 q1 -13 -7 -24 l-64 -80 q-10 -12 -25 -12 q-15 0 -26 12 l-64 80 q-8 11 -7 24 q2 12 12 21 q11 8 24 7 q12 -2 21 -12 l8 -9 l0 293 q0 14 9 23 q9 9 23 9 q14 0 23 -9 q9 -9 9 -23 l0 -293 l6 9 q9 10 22 12 l0 0 q12 1 23 -7 Z" /><glyph glyph-name="uniE040" unicode="&#xe040;" d="M159 125 q17 -6 26 -21 q9 -15 6 -32 q-3 -18 -16 -29 q-13 -11 -31 -11 q-18 0 -31 11 q-13 11 -16 29 q-3 17 6 32 q8 15 25 21 l0 211 q1 15 16 16 q14 -1 15 -16 l0 -211 ZM255 169 q31 -37 32 -89 q-1 -61 -42 -102 q-40 -40 -101 -42 q-61 2 -102 42 q-40 41 -42 102 q1 52 32 89 l0 167 q1 48 33 79 q31 32 79 33 q48 -1 79 -33 l0 0 q31 -31 32 -79 l0 -167 ZM220 55 q8 25 0 49 q-7 24 -29 40 l0 192 q0 20 -14 34 q-13 13 -33 14 q-20 -1 -34 -14 q-13 -14 -14 -34 l0 -192 q-21 -16 -28 -40 q-8 -24 0 -49 q9 -24 29 -39 q21 -15 47 -15 q26 0 46 14 l0 0 q21 15 30 40 ZM504 324 q9 -11 8 -24 q-2 -12 -12 -21 q-9 -7 -20 -7 q-15 0 -25 12 l-7 9 l0 -293 q0 -14 -9 -23 q-9 -9 -23 -9 q-14 0 -23 9 q-9 9 -9 23 l0 293 l-8 -9 q-9 -10 -21 -12 q-13 -1 -24 7 q-10 9 -12 21 q-1 13 7 24 l64 80 q10 11 25 11 q15 0 25 -11 l64 -80 Z" /><glyph glyph-name="uniE041" unicode="&#xe041;" d="M496 416 q20 -1 34 -14 l0 0 q13 -14 14 -34 l0 -240 l64 0 q14 0 23 -9 q9 -9 9 -23 q0 -14 -9 -23 q-9 -9 -23 -9 l-321 0 q-7 42 -37 68 q-31 27 -74 28 q-43 -1 -74 -28 q-30 -26 -37 -68 l-17 0 q-20 1 -34 14 q-13 14 -14 34 l0 256 q1 20 14 34 q14 13 34 14 l448 0 ZM64 336 l0 -152 q15 12 32 21 l0 131 q-1 15 -16 16 q-15 -1 -16 -16 ZM176 224 q8 0 16 -1 l0 113 q-1 15 -16 16 q-15 -1 -16 -16 l0 -113 q8 1 16 1 ZM256 205 q17 -9 32 -21 l0 152 q-1 15 -16 16 q-15 -1 -16 -16 l0 -131 ZM352 336 l0 -192 q1 -15 16 -16 q15 1 16 16 l0 192 q-1 15 -16 16 q-15 -1 -16 -16 ZM480 336 q-1 15 -16 16 q-15 -1 -16 -16 l0 -192 q1 -15 16 -16 q15 1 16 16 l0 192 ZM96 48 q1 34 23 57 l0 0 q23 22 57 23 q34 -1 57 -23 q22 -23 23 -57 q-1 -34 -23 -57 q-23 -22 -57 -23 q-34 1 -57 23 q-22 23 -23 57 ZM176 16 q14 0 23 9 l0 0 q9 9 9 23 q0 14 -9 23 q-9 9 -23 9 q-14 0 -23 -9 q-9 -9 -9 -23 q0 -14 9 -23 q9 -9 23 -9 Z" /><glyph glyph-name="uniE042" unicode="&#xe042;" d="M153 171 q-9 -10 -22 -11 q-13 -1 -23 7 q-11 9 -12 22 q-1 13 7 23 l71 85 q19 22 49 23 l66 0 q30 -1 49 -23 l71 -84 q8 -11 7 -24 q-1 -13 -11 -22 q-11 -8 -24 -7 q-13 1 -22 12 l-31 37 l0 -177 l-64 0 l0 96 l-16 0 l0 -96 l-64 0 l0 177 l-31 -38 ZM94 340 q2 -2 2 -4 q0 -2 -2 -4 l-30 -12 l-12 -30 q-2 -2 -4 -2 q-2 0 -4 2 l-12 30 l-30 12 q-2 2 -2 4 q0 2 2 4 l30 12 l12 30 q2 2 4 2 q2 0 4 -2 l12 -30 l30 -12 ZM256 352 q-20 1 -34 14 q-13 14 -14 34 q1 20 14 34 q14 13 34 14 q20 -1 34 -14 q13 -14 14 -34 q-1 -20 -14 -34 l0 0 q-14 -13 -34 -14 ZM384 0 q14 0 23 -9 q9 -9 9 -23 l0 -32 l-320 0 l0 32 q0 14 9 23 q9 9 23 9 l256 0 ZM510 404 q2 -2 2 -4 q0 -2 -2 -4 l-30 -12 l-12 -30 q-2 -2 -4 -2 q-2 0 -4 2 l-12 30 l-30 12 q-2 2 -2 4 q0 2 2 4 l30 12 l12 30 q2 2 4 2 q2 0 4 -2 l12 -30 l30 -12 Z" /><glyph glyph-name="uniE043" unicode="&#xe043;" d="M336 128 q15 -1 16 -16 q-1 -15 -16 -16 l-160 0 q-15 1 -16 16 q1 15 16 16 l160 0 ZM336 64 q15 -1 16 -16 q-1 -15 -16 -16 l-160 0 q-15 1 -16 16 q1 15 16 16 l160 0 ZM256 352 q-20 1 -34 14 q-13 14 -14 34 q1 20 14 34 q14 13 34 14 q20 -1 34 -14 q13 -14 14 -34 q-1 -20 -14 -34 l0 0 q-14 -13 -34 -14 ZM153 171 q-9 -10 -22 -11 q-13 -1 -23 7 q-11 9 -12 22 q-1 13 7 23 l71 85 q19 22 49 23 l66 0 q30 -1 49 -23 l71 -84 q8 -11 7 -24 q-1 -13 -11 -22 q-11 -8 -24 -7 q-13 1 -22 11 l-31 38 l0 -49 l-144 0 l0 49 l-31 -38 ZM510 276 q2 -2 2 -4 q0 -2 -2 -4 l-30 -12 l-12 -30 q-2 -2 -4 -2 q-2 0 -4 2 l-12 30 l-30 12 q-2 2 -2 4 q0 2 2 4 l30 12 l12 30 q2 2 4 2 q2 0 4 -2 l12 -30 l30 -12 ZM384 0 q14 0 23 -9 q9 -9 9 -23 l0 -32 l-320 0 l0 32 q0 14 9 23 q9 9 23 9 l256 0 ZM94 84 q2 -2 2 -4 q0 -2 -2 -4 l-30 -12 l-12 -30 q-2 -2 -4 -2 q-2 0 -4 2 l-12 30 l-30 12 q-2 2 -2 4 q0 2 2 4 l30 12 l12 30 q2 2 4 2 q2 0 4 -2 l12 -30 l30 -12 Z" /><glyph glyph-name="uniE044" unicode="&#xe044;" d="M399 224 l-286 0 l61 73 q19 22 49 23 l66 0 q29 -1 49 -23 l61 -73 ZM112 160 q-15 1 -16 16 q1 15 16 16 l288 0 q15 -1 16 -16 q-1 -15 -16 -16 l-288 0 ZM256 352 q-20 1 -34 14 q-13 14 -14 34 q1 20 14 34 q14 13 34 14 q20 -1 34 -14 q13 -14 14 -34 q-1 -20 -14 -34 l0 0 q-14 -13 -34 -14 ZM336 128 q15 -1 16 -16 q-1 -15 -16 -16 l-160 0 q-15 1 -16 16 q1 15 16 16 l160 0 ZM336 64 q15 -1 16 -16 q-1 -15 -16 -16 l-160 0 q-15 1 -16 16 q1 15 16 16 l160 0 ZM384 0 q14 0 23 -9 q9 -9 9 -23 l0 -32 l-320 0 l0 32 q0 14 9 23 q9 9 23 9 l256 0 ZM510 84 q2 -2 2 -4 q0 -2 -2 -4 l-30 -12 l-12 -30 q-2 -2 -4 -2 q-2 0 -4 2 l-12 30 l-30 12 q-2 2 -2 4 q0 2 2 4 l30 12 l12 30 q2 2 4 2 q2 0 4 -2 l12 -30 l30 -12 ZM94 404 q2 -2 2 -4 q0 -2 -2 -4 l-30 -12 l-12 -30 q-2 -2 -4 -2 q-2 0 -4 2 l-12 30 l-30 12 q-2 2 -2 4 q0 2 2 4 l30 12 l12 30 q2 2 4 2 q2 0 4 -2 l12 -30 l30 -12 Z" /><glyph glyph-name="uniE045" unicode="&#xe045;" d="M94 308 q2 -2 2 -4 q0 -2 -2 -4 l-30 -12 l-12 -30 q-2 -2 -4 -2 q-2 0 -4 2 l-12 30 l-30 12 q-2 2 -2 4 q0 2 2 4 l30 12 l12 30 q2 2 4 2 q2 0 4 -2 l12 -30 l30 -12 ZM144 224 q-15 1 -16 16 q1 15 16 16 l224 0 q15 -1 16 -16 q-1 -15 -16 -16 l-224 0 ZM256 352 q-20 1 -34 14 q-13 14 -14 34 q1 20 14 34 q14 13 34 14 q20 -1 34 -14 q13 -14 14 -34 q-1 -20 -14 -34 l0 0 q-14 -13 -34 -14 ZM176 288 q-15 1 -16 16 q1 15 16 16 l160 0 q15 -1 16 -16 q-1 -15 -16 -16 l-160 0 ZM176 96 q-15 1 -16 16 q1 15 16 16 l160 0 q15 -1 16 -16 q-1 -15 -16 -16 l-160 0 ZM400 192 q15 -1 16 -16 q-1 -15 -16 -16 l-288 0 q-15 1 -16 16 q1 15 16 16 l288 0 ZM510 404 q2 -2 2 -4 q0 -2 -2 -4 l-30 -12 l-12 -30 q-2 -2 -4 -2 q-2 0 -4 2 l-12 30 l-30 12 q-2 2 -2 4 q0 2 2 4 l30 12 l12 30 q2 2 4 2 q2 0 4 -2 l12 -30 l30 -12 ZM384 0 q14 0 23 -9 q9 -9 9 -23 l0 -32 l-320 0 l0 32 q0 14 9 23 q9 9 23 9 l256 0 ZM176 32 q-15 1 -16 16 q1 15 16 16 l160 0 q15 -1 16 -16 q-1 -15 -16 -16 l-160 0 Z" /><glyph glyph-name="uniE046" unicode="&#xe046;" d="M288 0 q14 0 23 -9 q9 -9 9 -23 l0 -32 l-320 0 l0 32 q0 14 9 23 q9 9 23 9 l256 0 Z" /><glyph glyph-name="uniE047" unicode="&#xe047;&#x1f6f8;" d="M501 234 q64 -18 101 -45 l0 0 q37 -28 38 -61 q-1 -36 -44 -65 q-42 -28 -115 -46 q-72 -17 -161 -17 q-89 0 -161 17 q-73 18 -115 46 q-43 29 -44 65 q1 33 38 61 q37 27 101 45 q13 65 63 107 q49 42 118 43 q69 -1 118 -43 q50 -42 63 -107 ZM320 336 q-45 -1 -79 -26 l0 0 q-35 -24 -49 -65 q-8 -21 -8 -45 q0 -3 32 -20 q33 -18 104 -20 q72 2 104 20 q33 17 32 20 q0 24 -8 45 q-14 41 -49 65 q-34 25 -79 26 ZM320 48 q22 2 24 24 q-2 22 -24 24 q-22 -2 -24 -24 q2 -22 24 -24 ZM128 144 q-22 -2 -24 -24 q2 -22 24 -24 q22 2 24 24 q-2 22 -24 24 ZM512 96 q22 2 24 24 q-2 22 -24 24 q-22 -2 -24 -24 q2 -22 24 -24 Z" /><glyph glyph-name="uniE048" unicode="&#xe048;" d="M141 336 q15 50 54 80 l0 0 q40 31 93 32 q53 -1 93 -32 q39 -30 54 -80 q64 -14 102 -39 q38 -25 39 -57 q-1 -31 -39 -57 q-39 -25 -104 -40 q-65 -15 -145 -15 q-80 0 -145 15 q-65 15 -104 40 q-38 26 -39 57 q1 32 39 57 q38 25 102 39 ZM288 256 q59 2 82 20 l0 0 q23 17 22 20 q0 38 -25 70 q-26 32 -79 34 q-53 -2 -79 -34 q-25 -32 -25 -70 q-1 -3 22 -20 q23 -18 82 -20 ZM96 264 q-22 -2 -24 -24 q2 -22 24 -24 q22 2 24 24 q-2 22 -24 24 ZM480 216 q22 2 24 24 q-2 22 -24 24 q-22 -2 -24 -24 q2 -22 24 -24 ZM288 216 q-22 -2 -24 -24 q2 -22 24 -24 q22 2 24 24 q-2 22 -24 24 ZM79 131 q21 -8 46 -15 l-79 -166 q-12 -19 -32 -12 q-19 12 -12 32 l77 161 ZM452 116 q24 7 46 15 l76 -161 q7 -20 -12 -32 q-9 -4 -18 -1 q-10 4 -14 13 l-78 166 Z" /><glyph glyph-name="uniE04A" unicode="&#xe04a;" d="M207 70 q-22 16 -56 48 q-33 32 -59 72 q-27 41 -28 84 q2 82 47 128 q45 45 113 46 q68 -1 113 -46 q45 -46 47 -128 q-1 -43 -28 -84 q-26 -40 -59 -72 q-34 -32 -56 -48 q-17 -12 -34 0 ZM240 204 q1 -11 12 -12 l24 0 q25 1 42 18 q17 17 18 42 l0 8 q-1 11 -12 12 l-24 0 q-25 -1 -42 -18 l0 0 q-17 -17 -18 -42 l0 -8 ZM112 252 q1 -25 18 -42 q17 -17 42 -18 l24 0 q11 1 12 12 l0 8 q-1 25 -18 42 q-17 17 -42 18 l-24 0 q-11 -1 -12 -12 l0 -8 ZM320 95 q54 -3 91 -40 q36 -37 37 -92 q-2 -25 -27 -27 l-394 0 q-25 2 -27 27 q1 55 37 92 q37 37 91 40 q32 -30 59 -50 q17 -13 37 -13 q20 0 37 12 q27 21 59 51 Z" /><glyph glyph-name="uniE04B" unicode="&#xe04b;" d="M224 448 q15 -1 16 -16 l0 -48 l64 0 q27 -1 45 -19 q18 -18 19 -45 l0 -128 q-1 -27 -19 -45 q-18 -18 -45 -19 l-160 0 q-27 1 -45 19 q-18 18 -19 45 l0 128 q1 27 19 45 q18 18 45 19 l64 0 l0 48 q1 15 16 16 ZM160 256 q14 0 23 9 l0 0 q9 9 9 23 q0 14 -9 23 q-9 9 -23 9 q-14 0 -23 -9 q-9 -9 -9 -23 q0 -14 9 -23 q9 -9 23 -9 ZM288 320 q-14 0 -23 -9 l0 0 q-9 -9 -9 -23 q0 -14 9 -23 q9 -9 23 -9 q14 0 23 9 q9 9 9 23 q0 14 -9 23 q-9 9 -23 9 ZM160 208 q-15 -1 -16 -16 q1 -15 16 -16 q15 1 16 16 q-1 15 -16 16 ZM224 176 q15 1 16 16 q-1 15 -16 16 q-15 -1 -16 -16 q1 -15 16 -16 ZM288 208 q-15 -1 -16 -16 q1 -15 16 -16 q15 1 16 16 q-1 15 -16 16 ZM16 304 q1 15 16 16 q15 -1 16 -16 l0 -96 q-1 -15 -16 -16 q-15 1 -16 16 l0 96 ZM416 320 q15 -1 16 -16 l0 -96 q-1 -15 -16 -16 q-15 1 -16 16 l0 96 q1 15 16 16 ZM352 96 q41 -1 68 -28 l0 0 q27 -27 28 -68 l0 -32 q0 -14 -9 -23 q-9 -9 -23 -9 l-64 0 l0 64 q0 14 -9 23 q-9 9 -23 9 l-192 0 q-14 0 -23 -9 q-9 -9 -9 -23 l0 -64 l-64 0 q-14 0 -23 9 q-9 9 -9 23 l0 32 q1 41 28 68 q27 27 68 28 l256 0 ZM176 -64 l-32 0 l0 48 q1 15 16 16 q15 -1 16 -16 l0 -48 ZM224 0 q15 -1 16 -16 l0 -48 l-32 0 l0 48 q1 15 16 16 ZM304 -64 l-32 0 l0 48 q1 15 16 16 q15 -1 16 -16 l0 -48 Z" /><glyph glyph-name="uniE04C" unicode="&#xe04c;" d="M105 273 q-23 7 -25 31 l0 64 q0 14 9 23 q9 9 23 9 l13 0 q37 46 99 48 q62 -2 99 -48 l13 0 q14 0 23 -9 q9 -9 9 -23 l0 -64 q-2 -24 -26 -31 q-14 -36 -45 -58 q-32 -22 -73 -23 q-41 1 -73 23 l0 0 q-31 22 -46 58 ZM128 320 l192 0 l0 32 l-192 0 l0 -32 ZM275 144 q73 -2 122 -51 q49 -49 51 -122 q0 -15 -10 -25 q-10 -10 -25 -10 l-378 0 q-15 0 -25 10 q-10 10 -10 25 q2 73 51 122 q49 49 122 51 l102 0 ZM353 -16 q3 1 3 4 q-2 53 -30 90 q-1 2 -3 2 q-2 0 -3 -2 q-30 -34 -36 -89 q0 -2 2 -4 q2 -1 4 0 q19 15 27 20 q8 5 10 5 q1 1 2 1 q2 -1 20 -25 q1 -2 3 -2 q1 0 1 0 Z" /><glyph glyph-name="uniE04D" unicode="&#xe04d;" d="M209 192 l-41 -192 l8 0 q15 -1 16 -16 l0 -32 q-1 -15 -16 -16 l-160 0 q-15 1 -16 16 q1 20 14 34 q14 13 34 14 l54 0 l41 192 l66 0 ZM640 320 q-1 -40 -22 -71 q-22 -31 -57 -46 q15 -36 15 -75 l0 -128 q-1 -27 -19 -45 q-18 -18 -45 -19 l-128 0 q-41 1 -68 28 q-27 27 -28 68 q0 30 16 54 q11 15 26 26 q10 6 22 10 l0 166 q0 14 9 23 q9 9 23 9 q41 0 77 -16 q37 -16 64 -47 q25 6 39 26 q14 19 11 44 q-3 25 -20 41 q-18 15 -43 16 l-210 0 q-23 0 -41 -14 q-17 -14 -22 -37 l-23 -109 l-66 0 l27 123 q10 45 44 72 q35 28 81 29 l210 0 q54 -1 90 -38 l0 0 q37 -36 38 -90 ZM384 0 q14 0 23 9 q9 9 9 23 q0 14 -9 23 q-9 9 -23 9 q-14 0 -23 -9 q-9 -9 -9 -23 q0 -14 9 -23 l0 0 q9 -9 23 -9 Z" /><glyph glyph-name="uniE04E" unicode="&#xe04e;" d="M437 373 q50 -51 66 -116 q17 -65 0 -130 q-16 -65 -66 -116 q-51 -50 -116 -67 q-65 -16 -130 0 q-65 17 -116 67 q-50 51 -66 116 q-17 65 0 130 q16 65 66 116 q51 50 116 66 l0 0 q65 17 130 0 l0 0 q65 -16 116 -66 ZM203 53 q10 11 0 22 l-64 64 q-11 10 -22 0 q-10 -11 0 -22 l64 -64 q5 -5 11 -5 q6 0 11 5 ZM283 69 q10 11 0 22 l-128 128 q-11 10 -22 0 q-10 -11 0 -22 l128 -127 q5 -5 11 -5 q6 -1 11 4 ZM299 149 q10 11 0 22 l-64 64 q-11 10 -22 0 q-10 -11 0 -21 l64 -64 q5 -5 11 -5 q6 -1 11 4 ZM379 69 q51 52 53 123 q0 72 -51 125 q-54 51 -125 51 q-71 -2 -123 -53 q-10 -11 0 -22 q11 -10 22 0 q43 42 101 43 q60 0 102 -42 q42 -43 42 -102 q-1 -58 -43 -101 q-10 -11 0 -22 q5 -5 11 -5 q6 0 11 5 Z" /><glyph glyph-name="uniE04F" unicode="&#xe04f;&#x1fa9f;" d="M496 0 q15 -1 16 -16 l0 -32 q-1 -15 -16 -16 l-480 0 q-15 1 -16 16 l0 32 q1 15 16 16 l16 0 l0 416 q0 14 9 23 q9 9 23 9 l384 0 q14 0 23 -9 q9 -9 9 -23 l0 -416 l16 0 ZM416 384 l-144 0 l0 -160 l144 0 l0 160 ZM96 224 l144 0 l0 160 l-144 0 l0 -160 ZM96 0 l144 0 l0 160 l-144 0 l0 -160 ZM416 0 l0 160 l-144 0 l0 -160 l144 0 Z" /><glyph glyph-name="uniE050" unicode="&#xe050;" d="M480 160 l-448 0 l0 256 q0 14 9 23 q9 9 23 9 l384 0 q14 0 23 -9 l0 0 q9 -9 9 -23 l0 -256 ZM240 384 l-144 0 l0 -160 l144 0 l0 160 ZM416 384 l-144 0 l0 -160 l144 0 l0 160 ZM496 0 q15 -1 16 -16 l0 -32 q-1 -15 -16 -16 l-480 0 q-15 1 -16 16 l0 32 q1 15 16 16 l16 0 l0 128 l64 0 l0 -128 l320 0 l0 128 l64 0 l0 -128 l16 0 Z" /><glyph glyph-name="uniE051" unicode="&#xe051;" d="M375 333 q12 -13 8 -31 l-87 -342 q-7 -23 -32 -24 l-144 0 q-25 1 -32 24 l-87 342 q-4 18 8 31 l108 106 q10 9 23 9 l104 0 q13 0 23 -9 l108 -106 ZM288 272 q-1 15 -16 16 l-48 0 l0 48 q-1 15 -16 16 l-32 0 q-15 -1 -16 -16 l0 -48 l-48 0 q-15 -1 -16 -16 l0 -32 q1 -15 16 -16 l48 0 l0 -112 q1 -15 16 -16 l32 0 q15 1 16 16 l0 112 l47 0 q16 1 17 16 l0 32 Z" /><glyph glyph-name="uniE053" unicode="&#xe053;" d="M464 352 q20 -1 34 -14 q13 -14 14 -34 l0 -288 q-1 -20 -14 -34 q-14 -13 -34 -14 l-416 0 q-20 1 -34 14 q-13 14 -14 34 l0 352 q1 20 14 34 q14 13 34 14 l160 0 l64 -64 l192 0 ZM159 177 q-14 -17 0 -34 l80 -80 q17 -14 34 0 l80 80 q14 17 0 34 q-17 14 -34 0 l-39 -39 l0 110 q-2 22 -24 24 q-22 -2 -24 -24 l0 -110 l-39 39 q-7 7 -17 7 q-10 0 -17 -7 Z" /><glyph glyph-name="uniE054" unicode="&#xe054;" d="M464 352 q20 -1 34 -14 q13 -14 14 -34 l0 -288 q-1 -20 -14 -34 q-14 -13 -34 -14 l-416 0 q-20 1 -34 14 q-13 14 -14 34 l0 352 q1 20 14 34 q14 13 34 14 l160 0 l64 -64 l192 0 ZM352 144 q15 16 0 34 l-80 80 q-17 14 -34 0 l-80 -80 q-14 -17 0 -34 q17 -14 34 0 l40 38 l0 -110 q2 -22 24 -24 q22 2 24 24 l0 110 l39 -39 q7 -7 17 -7 q10 0 16 8 Z" /><glyph glyph-name="uniE058" unicode="&#xe058;" d="M592 160 q20 -1 34 -14 q13 -14 14 -34 l0 -128 q-1 -20 -14 -34 q-14 -13 -34 -14 l-192 0 q-20 1 -34 14 q-13 14 -14 34 l0 128 q1 20 14 34 q14 13 34 14 l16 0 l0 80 q1 36 26 59 q25 23 62 21 q32 -5 52 -28 q19 -24 20 -57 l0 -11 l-48 0 l0 16 q0 14 -9 23 q-9 9 -23 9 q-14 0 -23 -9 q-9 -9 -9 -23 l0 -80 l128 0 ZM496 16 q14 0 23 9 q9 9 9 23 q0 14 -9 23 q-9 9 -23 9 q-14 0 -23 -9 q-9 -9 -9 -23 q0 -14 9 -23 l0 0 q9 -9 23 -9 ZM224 192 q-54 1 -91 37 q-36 37 -37 91 q1 54 37 91 q37 36 91 37 q54 -1 91 -37 q36 -37 37 -91 q-1 -54 -37 -91 l0 0 q-37 -36 -91 -37 ZM320 -16 q1 -28 16 -48 l-301 0 q-15 0 -25 10 q-10 10 -10 25 q2 73 51 122 q49 49 122 51 l102 0 q26 0 49 -7 q-4 -12 -4 -25 l0 -128 Z" /><glyph glyph-name="uniE059" unicode="&#xe059;" d="M616 217 q1 -21 -7 -45 q-1 -2 -2 -4 l11 -4 q15 -6 11 -22 q-7 -15 -23 -11 l-10 3 q-10 -23 -23 -43 l9 -7 q12 -11 3 -25 q-10 -12 -24 -4 l-9 7 q-16 -19 -35 -35 l6 -9 q9 -14 -3 -25 q-14 -8 -25 4 l-7 8 q-20 -13 -44 -23 l4 -10 q4 -16 -11 -23 q-16 -4 -23 11 l-3 9 q0 0 0 0 q-16 -5 -33 -8 q-9 -1 -17 -1 l-3 -11 q-5 -15 -21 -12 q-16 5 -13 21 l3 11 q-24 12 -37 36 l-11 -4 q-16 -3 -22 12 q-3 16 12 22 l12 4 q-2 26 11 48 l-9 9 q-11 12 -2 25 q13 11 25 1 l10 -9 q20 12 35 14 q6 1 12 3 l-4 9 q-6 15 9 23 q15 5 23 -9 l4 -9 q0 0 0 0 q2 1 13 10 q10 8 22 24 l-9 4 q-14 9 -8 24 q5 10 16 10 q5 0 12 -4 q2 -1 4 -2 q3 9 4 16 q2 13 12 31 l-9 9 q-10 13 0 25 q8 7 15 5 q7 -2 11 -5 l8 -9 q17 10 30 12 q13 2 19 2 l3 11 q4 12 17 13 q11 -1 15 -8 q4 -8 2 -14 l-3 -11 q24 -12 37 -36 l11 4 q15 3 22 -12 q3 -16 -12 -22 l-11 -4 ZM416 32 q14 0 23 9 q9 9 9 23 q0 14 -9 23 q-9 9 -23 9 q-14 0 -23 -9 q-9 -9 -9 -23 q0 -14 9 -23 l0 0 q9 -9 23 -9 ZM272 222 q-15 -5 -23 9 l-4 8 q-1 0 -12 -8 q-11 -9 -23 -25 l9 -4 q14 -9 8 -24 q-5 -10 -16 -10 q-5 0 -12 4 q-2 1 -4 2 q-3 -9 -4 -16 q-2 -13 -12 -31 l9 -9 q10 -13 0 -25 q-8 -7 -15 -5 q-8 2 -11 5 l-8 9 q-17 -10 -30 -12 q-13 -2 -19 -2 l-3 -11 q-4 -12 -17 -13 q-11 1 -15 8 q-4 8 -2 14 l3 11 q-24 13 -37 36 l-11 -4 q-15 -3 -22 12 q-3 16 12 22 l11 4 q-1 21 7 44 q1 3 2 5 l-11 4 q-15 6 -11 22 q7 15 23 11 l10 -4 q10 24 23 44 l-8 7 q-13 11 -4 25 q10 12 25 3 l8 -6 q16 19 35 35 l-6 9 q-9 14 4 25 q13 8 24 -4 l7 -8 q21 13 44 23 l-4 10 q-4 16 10 23 q17 4 24 -11 l3 -9 q16 5 33 8 q9 1 17 1 l3 11 q5 15 22 12 q15 -5 12 -21 l-3 -11 q24 -12 37 -36 l11 4 q16 3 22 -12 q3 -16 -12 -22 l-12 -4 q2 -26 -11 -48 l9 -9 q12 -12 2 -25 q-13 -11 -25 -1 l-10 9 q-20 -12 -35 -14 q-6 -1 -12 -3 l4 -9 q6 -15 -9 -23 ZM128 192 q14 0 23 9 q9 10 9 24 q0 13 -9 23 q-9 9 -23 9 q-14 0 -23 -9 q-9 -10 -9 -23 q0 -14 9 -24 l0 0 q9 -9 23 -9 ZM208 288 q15 1 16 16 q-1 15 -16 16 q-15 -1 -16 -16 q1 -15 16 -16 Z" /><glyph glyph-name="uniE05A" unicode="&#xe05a;" d="M543 345 q4 -21 -16 -29 l-16 -5 q2 -35 -15 -64 l13 -12 q14 -16 1 -33 q-16 -15 -33 -2 l-14 12 q-19 -14 -45 -18 q-7 -2 -15 -4 q0 0 -1 -1 l5 -12 q6 -20 -12 -31 q-21 -7 -31 12 l-5 12 q0 0 -1 0 q-2 -1 -16 -12 q-14 -11 -30 -33 l12 -6 q19 -11 11 -31 q-7 -13 -21 -14 q-8 1 -17 6 q-3 1 -5 2 q-4 -10 -6 -20 q-4 -23 -16 -42 l13 -12 q13 -17 -1 -34 q-10 -8 -20 -6 q-9 2 -14 7 l-11 12 q-22 -14 -40 -17 q-17 -3 -25 -2 l-4 -14 q-5 -17 -23 -18 q-15 1 -20 12 q-5 10 -3 18 l4 14 q-32 17 -48 48 l-15 -5 q-21 -5 -30 16 q-4 21 16 29 l15 5 q0 0 0 0 q0 7 1 21 q1 14 10 45 l-13 4 q-20 9 -15 30 q9 20 30 15 l13 -4 q13 31 31 58 l-11 8 q-16 15 -5 33 q14 17 33 6 l11 -8 q21 25 47 47 l-8 11 q-12 18 5 33 q18 11 33 -5 l8 -11 q28 19 59 32 l-5 12 q-5 21 15 30 q21 6 30 -14 l4 -12 q30 9 45 11 q15 2 22 1 l4 14 q7 21 29 17 q20 -7 17 -29 l-4 -14 q31 -16 48 -47 l15 4 q22 4 30 -16 ZM192 80 q20 1 34 14 q14 14 14 34 q0 20 -14 34 q-14 13 -34 14 q-20 -1 -34 -14 q-13 -14 -14 -34 q1 -20 14 -34 l0 0 q14 -13 34 -14 ZM272 216 q22 2 23 24 q-2 21 -23 23 q-22 -2 -24 -23 q2 -22 24 -24 Z" /><glyph glyph-name="uniE05B" unicode="&#xe05b;" d="M128 160 l-64 288 l141 0 q23 0 41 -13 q18 -13 26 -35 q8 -22 26 -35 q18 -13 41 -13 l109 0 l-64 -192 l-256 0 ZM0 32 l512 0 l0 -64 q0 -14 -9 -23 q-9 -9 -23 -9 l-448 0 q-14 0 -23 9 l0 0 q-9 9 -9 23 l0 64 ZM480 224 q14 0 23 -9 q9 -9 9 -23 l0 -128 l-512 0 l0 128 q0 14 9 23 q9 9 23 9 l49 0 l14 -64 l-15 0 q-15 -1 -16 -16 q1 -15 16 -16 l352 0 q15 1 16 16 q-1 15 -16 16 l-14 0 l21 64 l41 0 Z" /><glyph glyph-name="uniE05C" unicode="&#xe05c;" d="M568 112 q10 -14 7 -30 q-2 -16 -17 -26 l-135 -100 q-28 -20 -62 -20 l-346 0 q-13 1 -15 16 l0 96 q2 15 15 17 l55 -1 l47 38 q33 26 74 26 l161 0 q15 0 24 -11 q10 -11 8 -26 q-3 -12 -12 -20 q-10 -7 -22 -7 l-78 0 q-13 -1 -15 -16 q1 -15 15 -16 l121 0 l119 88 q14 10 30 8 l0 0 q16 -3 26 -16 ZM160 272 q-15 1 -16 16 l0 64 q1 15 16 16 l64 0 l0 64 q1 15 16 16 l64 0 q15 -1 16 -16 l0 -64 l64 0 q15 -1 16 -16 l0 -64 q-1 -15 -16 -16 l-64 0 l0 -64 q-1 -15 -16 -16 l-64 0 q-15 1 -16 16 l0 64 l-64 0 Z" /><glyph glyph-name="uniE05D" unicode="&#xe05d;" d="M448 16 q1 -23 23 -35 l9 -4 q-47 -40 -112 -41 l-38 0 q-82 1 -141 59 l-113 113 q-12 12 -12 28 q1 17 12 29 q12 11 28 11 q16 0 28 -12 l60 -59 l0 279 q0 14 9 23 q9 9 23 9 q14 0 23 -9 q9 -9 9 -23 l0 -176 q1 -15 16 -16 q15 1 16 16 l0 208 q0 14 9 23 q9 9 23 9 q14 0 23 -9 q9 -9 9 -23 l0 -208 q1 -15 16 -16 q15 1 16 16 l0 176 q0 14 9 23 q9 9 23 9 q14 0 23 -9 q9 -9 9 -23 l0 -176 q1 -15 16 -16 q15 1 16 16 l0 112 q0 14 9 23 q9 9 23 9 q14 0 23 -9 q9 -9 9 -23 l0 -196 q-12 -6 -20 -19 l-15 -38 l-40 -16 q-20 -12 -21 -35 ZM350 76 q0 1 0 1 q2 1 2 4 q0 1 -2 3 l-30 12 l-12 30 q-2 2 -4 2 q-2 0 -4 -2 l-12 -30 l-30 -12 q-2 -1 -2 -3 q0 -3 2 -4 l30 -12 l12 -31 q2 -2 4 -2 q2 0 4 3 l12 30 l30 11 ZM80 224 q-4 0 -6 5 l-21 49 l-49 21 q-4 2 -4 6 q0 3 4 5 l49 21 l21 49 q2 4 6 4 q4 0 6 -4 l21 -49 l49 -21 q3 -2 4 -5 q0 -1 0 -1 q0 -4 -4 -6 l-49 -21 l-21 -49 q-2 -4 -6 -4 ZM639 16 q0 -4 -3 -6 l-49 -21 l-21 -49 q-2 -4 -6 -4 q-4 0 -6 4 l-21 49 l-49 21 q-4 2 -4 6 q0 4 4 6 l49 21 l21 49 q2 4 6 4 q4 0 5 -4 l21 -49 l49 -21 q4 -2 4 -6 Z" /><glyph glyph-name="uniE05E" unicode="&#xe05e;" d="M416 384 q-14 0 -23 9 q-9 9 -9 22 q0 14 9 23 q9 9 23 9 q14 0 23 -9 q9 -9 9 -23 q0 -13 -9 -22 l0 0 q-9 -9 -23 -9 ZM519 112 q19 -1 25 -19 q1 -12 -6 -20 q-7 -9 -18 -9 l-160 0 q-7 -1 -8 -8 q1 -7 8 -8 l127 0 q19 -1 25 -19 q1 -12 -6 -20 q-7 -9 -18 -9 l-128 0 q-7 -1 -8 -8 q1 -7 8 -8 l95 0 q19 -1 25 -19 q1 -12 -6 -20 q-7 -9 -18 -9 l-208 0 q-35 0 -62 19 q6 14 6 30 q-1 29 -18 51 q-18 21 -46 27 l0 26 q1 40 23 72 q23 31 62 45 l108 33 q22 4 30 -16 q4 -22 -16 -30 l-47 -17 l199 0 q19 -1 25 -19 q1 -12 -6 -20 q-7 -9 -18 -9 l-128 0 q-7 -1 -8 -8 q1 -7 8 -8 l159 0 ZM295 265 l21 66 q7 18 26 17 q12 -1 18 -11 q5 -9 2 -20 l-15 -48 q-10 3 -19 3 q-8 0 -16 -2 l-17 -5 ZM496 224 q-20 1 -34 14 q-13 14 -14 34 q1 20 14 33 q14 14 34 14 q20 0 34 -14 q13 -14 14 -34 q-1 -20 -14 -33 l0 0 q-14 -13 -34 -14 ZM94 62 q-28 16 -45 44 q-16 27 -17 61 l0 113 q3 22 25 23 q22 -2 24 -24 l2 -50 l60 190 q7 18 26 18 q11 -2 17 -11 q6 -9 3 -21 l-39 -122 q-2 -7 6 -10 q7 -1 10 6 l48 151 q6 18 25 18 q12 -2 18 -11 q6 -9 3 -20 l-44 -138 q-1 -7 5 -10 q8 -2 10 5 l34 107 q7 18 26 17 q11 -2 17 -11 q6 -9 3 -20 l-34 -108 l-74 -23 q-49 -17 -77 -57 q-29 -40 -30 -91 l0 -26 q-1 0 -1 0 l0 0 q-1 0 -1 0 ZM112 32 q20 -1 34 -14 q13 -14 14 -34 q-1 -20 -14 -33 q-14 -14 -34 -14 q-20 0 -34 14 q-13 14 -14 34 q1 20 14 33 l0 0 q14 13 34 14 Z" /><glyph glyph-name="uniE05F" unicode="&#xe05f;" d="M386 278 q8 11 0 23 q-11 8 -23 0 l-65 -60 l25 -21 l12 10 l149 -121 q11 -10 11 -24 l136 -106 q16 -15 4 -34 q-15 -16 -34 -4 l-592 464 q-16 15 -4 34 q8 9 19 9 q8 0 15 -5 l123 -96 q54 36 121 37 l6 0 l-81 -74 l27 -19 l93 85 q10 9 22 9 l8 0 q44 0 84 -17 q40 -16 71 -47 l95 0 q13 0 22 -9 q9 -10 9 -23 l0 -161 q0 -13 -9 -22 q-9 -9 -22 -10 l-82 0 q-4 23 -22 38 l-145 118 l27 26 ZM40 321 l369 -290 l-13 -16 q-10 -12 -25 -14 q-15 -1 -27 8 l-18 16 q-17 -21 -42 -24 q-26 -2 -47 14 l-91 82 l-114 0 q-13 0 -22 9 q-9 10 -9 23 l0 160 q0 13 9 23 l0 0 q9 9 22 9 l8 0 Z" /><glyph glyph-name="uniE060" unicode="&#xe060;" d="M638 320 l0 -256 l-64 0 q-13 0 -22 9 q-9 9 -9 23 l0 224 l95 0 ZM591 96 q16 1 15 16 q-1 14 -15 15 q-14 -1 -16 -15 q2 -15 16 -16 ZM40 320 l56 -44 l-1 -180 q0 -14 -9 -23 q-9 -9 -23 -9 l-63 0 l0 256 l40 0 ZM64 112 q-2 14 -15 15 q-14 -1 -15 -15 q1 -15 15 -16 q13 1 15 16 ZM128 252 l281 -222 l-13 -16 q-10 -12 -25 -13 q-15 -2 -27 7 l-18 16 q-17 -21 -42 -24 q-26 -2 -47 14 l-91 82 l-18 0 l0 156 ZM630 -20 q16 -15 4 -34 q-15 -16 -34 -4 l-591 463 q-16 15 -4 34 q8 9 19 9 q8 0 15 -5 l123 -96 q54 36 121 37 l6 0 l-81 -74 l26 -20 l93 87 q9 8 22 8 l8 0 q44 0 84 -17 q40 -16 71 -47 l0 -194 q-4 4 -8 7 l-146 118 l26 24 q10 11 1 23 q-10 10 -22 1 l-65 -60 l25 -20 l12 11 l149 -122 q11 -9 11 -24 l135 -105 Z" /><glyph glyph-name="uniE061" unicode="&#xe061;" d="M608 89 q22 -2 24 -24 q-2 -22 -24 -24 q-22 2 -24 24 q2 22 24 24 ZM477 173 q7 -17 -2 -30 q-9 -14 -27 -15 l-32 0 l0 -32 l-96 0 q-14 0 -23 -9 q-9 -9 -9 -23 q0 -14 9 -23 q9 -9 23 -9 l95 -1 q-1 -26 -19 -44 q-18 -18 -45 -19 l-64 0 l0 -32 l-223 0 l0 177 q-30 27 -47 64 q-17 36 -17 79 q2 82 56 136 q54 54 136 56 l42 0 q52 0 96 -24 q45 -23 74 -64 q12 -17 23 -49 l0 0 q12 -31 24 -65 l0 0 q14 -44 26 -73 ZM336 224 q14 0 23 9 q9 9 9 23 q0 14 -9 23 q-9 9 -23 9 q-14 0 -23 -9 q-9 -9 -9 -23 q0 -14 9 -23 l0 0 q9 -9 23 -9 ZM480 89 q22 -2 24 -24 q0 -10 -7 -17 q-7 -7 -17 -7 q-21 2 -23 24 q2 22 23 24 ZM608 137 q-22 2 -24 24 q2 22 24 24 q22 -2 24 -24 q-2 -22 -24 -24 ZM544 137 q22 -2 24 -24 q0 -10 -7 -17 q-7 -7 -17 -7 q-21 2 -23 24 q2 22 23 24 ZM544 41 q22 -2 24 -24 q0 -10 -7 -17 q-7 -7 -17 -7 q-21 2 -23 24 q2 22 23 24 ZM608 -7 q22 -2 24 -24 q-2 -22 -24 -24 q-22 2 -24 24 q2 22 24 24 Z" /><glyph glyph-name="uniE062" unicode="&#xe062;" d="M607 137 q-21 2 -23 23 q2 21 23 23 q22 -2 24 -23 q-2 -21 -24 -23 ZM607 41 q-21 2 -24 23 q2 22 24 24 q22 -2 24 -23 q-2 -22 -24 -24 ZM631 -21 q16 -16 3 -33 q-15 -16 -34 -4 l-591 463 q-16 15 -4 34 q8 9 19 9 q8 0 15 -5 l41 -32 q48 36 112 37 l42 0 q52 0 96 -24 q45 -23 74 -65 q12 -18 24 -51 q13 -33 25 -68 q13 -41 24 -68 q7 -16 -2 -30 q-9 -13 -27 -14 l-7 0 l190 -149 ZM320 32 l87 0 l7 -6 q-2 -25 -20 -41 q-17 -16 -43 -17 l-64 0 l0 -31 l-223 0 l0 177 q-30 27 -47 63 q-17 37 -17 80 q0 43 18 80 l308 -240 l-6 0 q-14 -1 -22 -10 q-9 -10 -9 -23 q0 -13 9 -22 l0 0 q8 -9 22 -9 l0 -1 ZM543 89 q-21 2 -24 23 q2 22 24 24 q22 -2 24 -23 q-2 -22 -24 -24 Z" /><glyph glyph-name="uniE063" unicode="&#xe063;" d="M0 264 q1 14 4 28 l220 -161 l0 -195 l-160 0 l0 177 q-31 28 -48 67 l0 0 q-17 38 -16 84 ZM336 80 q-15 -1 -15 -16 q1 -15 16 -16 l149 0 l-10 -32 l-139 0 q-15 -1 -16 -16 q1 -15 16 -16 l127 0 l0 -4 q-7 -20 -24 -32 q-16 -12 -37 -12 l-146 0 l0 192 l255 0 l-16 -48 l-160 0 ZM509 173 q3 -7 3 -13 l-273 0 l-226 164 q23 56 73 90 q51 33 114 34 l66 0 q52 0 96 -24 q45 -23 74 -64 q12 -18 24 -51 l0 0 q13 -33 25 -68 l0 0 q13 -41 24 -68 ZM352 224 q13 0 22 9 q9 9 9 23 q0 14 -9 23 q-8 9 -22 9 q-14 0 -23 -9 q-9 -9 -9 -23 q0 -14 9 -23 l0 0 q9 -9 23 -9 Z" /><glyph glyph-name="uniE064" unicode="&#xe064;" d="M208 273 q15 -2 15 -15 q-2 -15 -16 -16 q-13 1 -15 15 q1 15 16 16 ZM272 209 q14 -2 17 -16 q-1 -15 -16 -16 q-15 1 -16 16 q1 15 15 16 ZM509 173 q7 -17 -2 -30 q-9 -14 -28 -15 l-32 0 l0 -65 q-1 -26 -18 -44 q-18 -18 -45 -19 l-64 0 l0 -64 l-256 0 l0 177 q-30 27 -47 63 q-17 37 -17 80 q2 82 56 136 q54 54 136 56 l74 0 q52 0 96 -24 q45 -23 74 -64 q12 -17 23 -49 l0 0 q12 -31 24 -65 l0 0 q14 -44 26 -73 ZM368 208 q14 1 15 16 q-1 15 -15 16 l-12 0 q-22 2 -30 20 q-7 18 7 35 l9 8 q9 12 0 23 q-11 9 -23 0 l-8 -9 q-17 -14 -35 -7 q-18 8 -20 30 l0 12 q-1 15 -16 16 q-15 -1 -16 -16 l0 -12 q-1 -22 -20 -30 q-18 -7 -35 7 l-8 9 q-11 9 -23 0 q-9 -11 0 -23 l9 -8 q14 -17 7 -35 q-8 -18 -30 -20 l-12 0 q-15 -1 -16 -16 q1 -15 16 -16 l12 0 q22 -2 30 -20 q7 -18 -7 -35 l-9 -8 q-9 -12 0 -23 q5 -5 11 -5 q7 0 12 5 l8 9 q17 14 35 7 q18 -8 20 -30 l0 -12 q1 -15 16 -16 q15 1 16 16 l0 12 q2 22 20 30 q18 7 35 -7 l8 -9 q5 -5 12 -5 q6 0 11 5 q9 11 0 23 l-9 8 q-14 17 -7 35 q8 18 30 20 l12 0 Z" /><glyph glyph-name="uniE065" unicode="&#xe065;" d="M512 160 l1 -160 q-1 -27 -19 -45 q-18 -18 -45 -19 l-321 0 q-27 1 -45 19 q-18 18 -19 45 l0 160 l-32 0 q-14 1 -23 10 q-9 9 -9 22 q0 14 10 24 l256 224 q11 9 22 8 q12 0 22 -7 l106 -94 l0 37 q0 14 9 23 q9 9 23 9 l32 0 q14 0 23 -9 q9 -9 9 -23 l0 -121 l53 -47 q12 -10 11 -24 q-1 -13 -10 -22 q-9 -9 -22 -10 l-32 0 ZM288 160 q27 1 45 19 l0 0 q18 18 19 45 q-1 27 -19 45 q-18 18 -45 19 q-27 -1 -45 -19 q-18 -18 -19 -45 q1 -27 19 -45 q18 -18 45 -19 ZM192 32 l192 0 q15 1 16 16 q-1 34 -23 57 q-23 22 -57 23 l-64 0 q-34 -1 -57 -23 q-22 -23 -23 -57 q1 -15 16 -16 Z" /><glyph glyph-name="uniE066" unicode="&#xe066;" d="M218 440 q10 8 22 8 l0 0 q12 0 22 -8 l208 -193 q10 -9 10 -23 l-144 0 q-30 -1 -48 -22 l0 38 q-1 15 -16 16 l-64 0 q-15 -1 -16 -16 l0 -64 q1 -15 16 -16 l63 0 l0 -128 l-159 0 q-20 1 -34 14 q-13 14 -14 34 l0 112 l-32 0 q-21 1 -30 20 q-7 20 8 35 l208 193 ZM336 192 l224 0 q14 0 23 -9 q9 -9 9 -23 l0 -160 l32 0 q15 -1 16 -16 q-1 -20 -14 -34 q-14 -13 -34 -14 l-289 0 q-20 1 -33 14 q-14 14 -15 34 q2 15 16 16 l32 0 l0 160 q0 14 10 23 q9 9 23 9 ZM352 144 l0 -144 l192 0 l0 144 l-192 0 Z" /><glyph glyph-name="uniE067" unicode="&#xe067;" d="M196 3 q14 -13 34 -14 q3 1 7 1 q-19 -25 -52 -35 l-60 -15 q-49 -12 -86 15 q-37 26 -39 73 q0 15 4 30 q33 122 102 231 q3 4 5 8 q14 24 30 39 q16 15 45 16 q30 -1 50 -19 q19 -19 20 -47 l0 -27 q-12 7 -26 7 q-20 0 -34 -14 q-15 -14 -15 -33 q0 -20 15 -34 l8 -9 l-12 0 q-20 -1 -34 -14 q-13 -14 -14 -34 q1 -20 14 -34 q14 -14 34 -14 l12 0 l-8 -9 q-15 -14 -15 -34 l0 0 q0 -19 15 -34 ZM343 297 q-11 7 -25 7 q-12 0 -23 -7 l1 135 q1 15 16 16 l16 0 q15 -1 16 -16 l-1 -135 ZM422 26 q-5 -4 -11 -5 q-7 0 -12 5 l-8 9 q-17 14 -35 7 q-18 -8 -20 -30 l0 -12 q-1 -15 -16 -16 q-15 1 -16 16 l0 12 q-2 22 -20 30 q-18 7 -35 -7 l-8 -9 q-5 -5 -12 -5 q-6 0 -11 5 q-9 11 0 23 l9 8 q14 17 7 35 q-8 18 -30 20 l-12 0 q-15 1 -16 16 q1 15 16 16 l12 0 q22 1 30 20 q7 18 -7 35 l-9 8 q-9 11 0 23 q11 9 23 0 l8 -9 q17 -14 35 -7 q18 8 20 30 l0 12 q1 14 16 15 q15 -1 16 -15 l0 -12 q2 -22 20 -30 q18 -7 35 7 l8 9 q12 9 23 0 q9 -11 0 -23 l-9 -8 q-14 -17 -7 -35 q8 -18 30 -20 l12 0 q15 -1 16 -16 q-1 -15 -16 -16 l-12 0 q-22 -1 -30 -20 q-7 -18 7 -35 l9 -8 q9 -11 0 -23 ZM288 145 q15 2 16 16 q-1 14 -16 16 q-15 -3 -16 -17 q1 -14 16 -15 ZM352 81 q15 1 16 15 q-1 15 -16 16 q-15 -1 -16 -15 q1 -15 16 -16 ZM636 58 q4 -15 4 -30 q-2 -47 -39 -73 q-37 -27 -86 -15 l-60 16 q-33 9 -52 34 q4 0 8 -1 q19 1 33 15 q14 14 14 33 q0 20 -14 34 l-8 9 l12 0 q20 1 34 14 q13 14 14 34 q-1 20 -14 34 q-14 13 -34 14 l-12 0 l8 9 q15 14 15 34 q0 19 -15 33 q-14 14 -33 15 q-15 -1 -27 -8 l0 27 q1 28 21 47 q19 18 49 19 q29 -1 45 -16 q16 -15 30 -39 q2 -4 5 -8 q69 -109 102 -231 Z" /><glyph glyph-name="uniE068" unicode="&#xe068;" d="M96 144 q0 -19 14 -32 l50 -48 l0 -96 q0 -14 -9 -23 q-9 -9 -23 -9 l-64 0 q-14 0 -23 9 q-9 9 -9 23 l-1 128 q-13 0 -22 9 q-9 9 -9 23 l0 96 q1 27 19 45 q18 18 45 19 l64 0 q42 -2 59 -40 q-1 -1 -2 -2 q-2 -1 -3 -2 l-72 -68 q-14 -13 -14 -32 ZM480 320 q-27 1 -45 19 q-18 18 -19 45 q1 27 19 45 q18 18 45 19 q27 -1 45 -19 q18 -18 19 -45 q-1 -27 -19 -45 l0 0 q-18 -18 -45 -19 ZM96 320 q-27 1 -45 19 q-18 18 -19 45 q1 27 19 45 q18 18 45 19 q27 -1 45 -19 q18 -18 19 -45 q-1 -27 -19 -45 l0 0 q-18 -18 -45 -19 ZM444 153 q8 -9 0 -18 l-72 -68 q-6 -5 -13 -2 q-7 3 -7 11 l0 36 l-128 0 l0 -36 q0 -8 -7 -11 q-7 -3 -13 2 l-72 68 q-8 9 0 18 l72 68 q6 5 13 2 q7 -3 7 -11 l0 -36 l128 0 l0 36 q0 8 7 11 q7 3 13 -2 l72 -68 ZM512 288 q27 -1 45 -19 q18 -18 19 -45 l0 -96 q0 -14 -9 -23 q-9 -9 -23 -9 l0 -128 q0 -14 -9 -23 q-9 -9 -23 -9 l-64 0 q-14 0 -23 9 q-9 9 -9 23 l0 96 l50 48 q14 13 14 32 q0 19 -14 32 l-72 68 q-1 1 -3 2 q-1 1 -2 2 q7 18 23 29 q16 11 36 11 l64 0 Z" /><glyph glyph-name="uniE069" unicode="&#xe069;" d="M238 287 l-40 141 q-3 17 15 20 l56 0 q19 -1 28 -16 l101 -176 l116 0 q29 -1 60 -19 q31 -18 34 -45 q-3 -28 -34 -46 q-31 -17 -60 -18 l-73 0 l190 -149 q16 -15 4 -34 q-15 -16 -34 -4 l-592 464 q-16 15 -4 34 q15 16 34 4 l199 -156 ZM42 319 l321 -253 l-66 -114 q-9 -15 -28 -16 l-56 0 q-18 3 -15 20 l49 173 l-103 0 l-43 -59 q-5 -6 -13 -6 l-42 0 q-13 1 -14 15 q0 1 1 3 l31 111 l-31 109 q-1 2 -1 4 q0 10 10 13 Z" /><glyph glyph-name="uniE06A" unicode="&#xe06a;" d="M379 354 q10 -11 0 -23 l-22 -22 q-12 -10 -23 0 l-43 43 l-67 0 l0 -32 l-128 0 l-1 96 q0 14 9 23 q10 9 23 9 l65 0 q14 0 23 -9 q9 -9 9 -23 l67 0 q25 0 45 -19 l43 -43 ZM236 288 q25 -1 43 -17 q17 -16 19 -41 l21 -224 q2 -29 -17 -49 q-18 -20 -47 -21 l-191 0 q-29 1 -47 21 q-19 20 -17 49 l21 224 q2 25 20 41 q18 16 43 17 l152 0 ZM240 115 l0 26 q-1 13 -13 14 l-40 0 l0 40 q-1 12 -14 13 l-26 0 q-13 0 -14 -13 l0 -40 l-40 0 q-12 -2 -13 -14 l0 -26 q1 -12 13 -14 l39 0 l0 -40 q2 -12 14 -13 l26 0 q13 1 14 13 l0 40 l40 0 q12 2 13 14 l1 0 Z" /><glyph glyph-name="uniE06B" unicode="&#xe06b;" d="M236 288 q25 -1 43 -17 q17 -16 19 -41 l21 -224 q2 -29 -17 -49 q-18 -20 -47 -21 l-191 0 q-29 1 -47 21 q-19 20 -17 49 l21 224 q2 25 20 41 q18 16 43 17 l152 0 ZM159 32 q28 1 46 17 q18 17 19 42 q-2 20 -21 50 q-20 29 -34 47 q-9 8 -17 0 q-15 -18 -35 -47 q-19 -30 -21 -50 q1 -25 19 -42 l0 0 q18 -16 44 -17 ZM379 354 q10 -11 0 -23 l-22 -22 q-12 -10 -23 0 l-43 43 l-67 0 l0 -32 l-128 0 l-1 96 q0 14 9 23 q10 9 23 9 l65 0 q14 0 23 -9 q9 -9 9 -23 l67 0 q25 0 45 -19 l43 -43 Z" /><glyph glyph-name="uniE06C" unicode="&#xe06c;" d="M288 193 q15 -2 16 -16 q-1 -14 -16 -15 q-15 1 -16 15 q1 15 16 16 ZM224 257 q15 -2 15 -16 q-2 -15 -16 -16 q-13 1 -15 16 q1 15 16 16 ZM467 364 q28 -13 29 -44 q-3 -128 -51 -213 q-47 -86 -104 -128 q-56 -43 -85 -43 q-28 0 -85 42 q-56 43 -104 128 q-48 86 -51 215 q1 30 30 43 l192 80 q8 4 18 4 q10 0 19 -4 l192 -80 ZM384 193 q15 2 16 17 q-1 14 -16 16 l-12 0 q-15 0 -23 10 q-9 9 -9 22 q0 12 9 22 l9 9 q5 5 5 11 q-2 14 -16 15 q-7 0 -12 -4 l-8 -9 q-11 -9 -23 -9 q-13 0 -22 9 q-9 8 -10 23 l0 12 q-1 15 -16 16 q-15 -1 -16 -16 l0 -13 q0 -15 -10 -23 q-9 -9 -22 -9 q-12 0 -23 9 l-8 8 q-5 5 -11 5 q-15 -2 -16 -16 q-1 -6 4 -11 l9 -7 q9 -11 9 -23 q0 -13 -9 -22 q-8 -10 -23 -10 l-12 0 q-15 -1 -16 -16 q1 -15 16 -16 l12 0 q15 -1 23 -10 q9 -10 9 -22 q0 -13 -9 -23 l-9 -8 q-5 -5 -5 -12 q2 -13 16 -15 q7 0 12 5 l8 9 q11 9 23 9 q13 0 22 -9 q10 -8 10 -23 l0 -12 q1 -15 16 -16 q15 1 16 16 l0 12 q0 15 10 23 q9 9 22 9 q12 0 23 -9 l8 -9 q5 -5 12 -5 q14 1 16 15 q0 7 -5 12 l-9 8 q-9 10 -9 23 q0 12 9 22 q8 9 23 10 l12 0 Z" /><glyph glyph-name="uniE06D" unicode="&#xe06d;" d="M496 160 q15 -1 16 -16 l0 -32 q-1 -15 -16 -16 l-480 0 q-15 1 -16 16 l0 32 q1 15 16 16 l96 0 l0 32 l-64 0 q-15 1 -16 17 l0 15 q1 15 16 16 l80 0 q14 0 23 -9 q9 -9 9 -23 l0 -48 l64 0 l0 188 q1 36 21 63 q21 28 56 36 q47 7 80 -20 q34 -28 35 -74 l0 -16 q-1 -15 -16 -16 l-32 0 q-15 1 -16 16 l0 16 q0 13 -9 23 q-9 9 -23 9 q-14 0 -23 -9 q-9 -10 -9 -23 l0 -192 l64 0 l0 47 q0 14 9 23 q9 9 23 9 l80 -2 q15 -1 16 -16 l0 -15 q-1 -13 -16 -15 l-64 0 l0 -32 l96 0 ZM32 64 l448 0 l0 -32 q-1 -41 -28 -68 q-27 -27 -68 -28 l-256 0 q-41 1 -68 28 l0 0 q-27 27 -28 68 l0 32 Z" /><glyph glyph-name="uniE06E" unicode="&#xe06e;&#x1f9fc;" d="M320 192 q-27 1 -45 19 q-18 18 -19 45 q1 27 19 45 q18 18 45 19 q27 -1 45 -19 q18 -18 19 -45 q-1 -27 -19 -45 l0 0 q-18 -18 -45 -19 ZM352 160 q27 -1 45 -19 q18 -18 19 -45 q-1 -27 -19 -45 q-18 -18 -45 -19 l-192 0 q-27 1 -45 19 q-18 18 -19 45 q1 27 19 45 l0 0 q18 18 45 19 l192 0 ZM384 384 q-14 0 -23 9 q-9 9 -9 23 q0 14 9 23 q9 9 23 9 q14 0 23 -9 q9 -9 9 -23 q0 -14 -9 -23 l0 0 q-9 -9 -23 -9 ZM208 352 q-20 1 -34 14 q-13 14 -14 34 q1 20 14 34 q14 13 34 14 q20 -1 34 -14 q13 -14 14 -34 q-1 -20 -14 -34 l0 0 q-14 -13 -34 -14 ZM416 256 q41 -1 68 -28 q27 -27 28 -68 l0 -128 q-1 -41 -28 -68 q-27 -27 -68 -28 l-320 0 q-41 1 -68 28 q-27 27 -28 68 l0 128 q1 41 28 68 q27 27 68 28 l128 0 q1 -37 25 -64 l-89 0 q-41 -1 -68 -28 q-27 -27 -28 -68 q1 -41 28 -68 q27 -27 68 -28 l192 0 q41 1 68 28 q27 27 28 68 q0 31 -18 55 q-17 24 -45 35 q30 27 31 70 Z" /><glyph glyph-name="uniE06F" unicode="&#xe06f;" d="M276 192 q1 11 12 12 q11 -1 12 -12 l0 -96 q-1 -11 -12 -12 q-11 1 -12 12 l0 96 ZM272 448 q14 0 23 -9 l0 0 q9 -9 9 -23 q0 -14 -9 -23 q-9 -9 -23 -9 l-16 0 l0 -34 q57 -10 100 -45 l21 22 q10 9 23 9 q13 0 23 -9 q9 -10 9 -23 q0 -13 -9 -23 l-24 -24 q32 -49 33 -113 q-2 -88 -61 -147 q-59 -59 -147 -61 q-88 2 -147 61 q-59 59 -61 147 q2 80 51 136 q49 56 125 70 l0 34 l-16 0 q-14 0 -23 9 q-9 9 -9 23 q0 14 9 23 q9 9 23 9 l96 0 ZM288 244 q-22 -1 -37 -15 l0 0 q-14 -15 -15 -37 l0 -96 q1 -22 15 -37 q15 -14 37 -15 q22 1 37 15 q14 15 15 37 l0 96 q-1 22 -15 37 q-15 14 -37 15 ZM172 191 l0 -2 q0 -5 -4 -10 l-39 -44 q-21 -24 -21 -55 l0 -16 q1 -18 20 -20 l64 0 q18 2 20 20 q-2 19 -20 20 l-44 0 q2 14 11 25 l39 44 q13 16 13 36 l0 2 q0 23 -15 38 q-14 14 -36 15 q-37 -2 -50 -36 l-1 -2 q-4 -18 13 -24 q18 -5 24 12 l2 1 q3 9 12 9 q10 -1 11 -13 l1 0 Z" /><glyph glyph-name="uniE070" unicode="&#xe070;" d="M74 415 l8 12 q14 20 40 21 l396 0 q26 -1 40 -21 l76 -114 q6 -9 6 -20 q0 -16 -11 -26 q-10 -11 -26 -11 l-326 0 l43 -34 l0 2 l64 0 l0 -52 l128 -99 l0 151 l64 0 l0 -202 l55 -43 q16 -15 4 -34 q-15 -16 -34 -4 l-592 464 q-16 15 -4 34 q15 16 34 4 l35 -28 ZM0 293 q0 11 6 20 l15 22 l101 -79 l-85 0 q-16 0 -26 11 q-11 10 -11 26 ZM320 64 l0 36 l64 -51 l0 -65 q-1 -20 -14 -34 q-14 -13 -34 -14 l-224 0 q-20 1 -34 14 q-13 14 -14 34 l0 240 l64 0 l0 -160 l192 0 Z" /><glyph glyph-name="uniE071" unicode="&#xe071;" d="M95 399 l23 36 q8 13 24 13 l356 0 q16 0 24 -13 l58 -91 q21 -37 6 -74 q-16 -37 -58 -45 q-6 -1 -13 -1 q-40 1 -65 29 q-25 -28 -65 -29 q-40 1 -65 29 q-8 -9 -19 -16 l179 -140 l0 100 q17 -5 35 -5 q9 0 17 1 l0 0 q5 1 12 2 l0 -148 l87 -68 q16 -15 4 -34 q-15 -16 -34 -4 l-592 464 q-16 15 -4 34 q15 16 34 4 l56 -44 ZM112 225 q-33 5 -50 31 l0 0 q-17 26 -13 57 l106 -83 q-14 -6 -31 -6 q-6 0 -12 1 ZM160 64 l206 0 l149 -118 q-15 -10 -35 -10 l-320 0 q-27 1 -45 19 q-18 18 -19 45 l0 195 q6 -1 11 -2 l1 0 q8 -1 16 -1 q19 0 36 5 l0 -133 Z" /><glyph glyph-name="uniE072" unicode="&#xe072;" d="M64 257 q0 21 3 42 l315 -246 q-6 -50 -22 -91 q0 -1 -1 -2 q-8 -21 -30 -22 l-281 0 q-18 2 -15 20 q5 14 9 26 q11 32 17 54 q5 22 5 47 l0 172 ZM631 -21 q16 -16 3 -33 q-15 -16 -34 -4 l-591 463 q-16 15 -4 34 q8 9 19 9 q8 0 15 -5 l57 -45 q26 48 63 50 l285 0 q-28 -29 -44 -78 q-17 -50 -17 -113 l0 -84 l57 -44 q-24 52 -25 128 q1 81 28 135 q27 54 68 56 q41 -2 68 -56 q27 -54 29 -136 q-1 -77 -25 -130 q-25 -53 -62 -61 l110 -86 ZM479 257 q1 -28 10 -46 q9 -18 22 -18 q14 1 23 19 q9 18 9 45 q0 27 -9 45 q-9 18 -23 19 q-13 -1 -23 -19 l0 0 q-9 -18 -9 -45 Z" /><glyph glyph-name="uniE073" unicode="&#xe073;" d="M512 288 q-34 1 -57 23 q-22 23 -23 57 q1 34 23 57 q23 22 57 23 q34 -1 57 -23 q22 -23 23 -57 q-1 -34 -23 -57 l0 0 q-23 -22 -57 -23 ZM552 256 q37 -1 62 -27 q25 -27 26 -66 q-2 -17 -18 -19 l-199 0 q32 37 33 88 q0 6 -1 11 q0 2 -1 5 q17 8 36 8 l62 0 ZM630 -20 q16 -15 4 -34 q-15 -16 -34 -4 l-591 463 q-16 15 -4 34 q8 9 19 9 q8 0 15 -5 l29 -23 q23 27 60 28 q34 -1 57 -23 q22 -23 23 -57 q0 -26 -15 -46 l42 -32 q30 44 86 46 q43 -1 72 -30 q30 -30 31 -74 q-1 -41 -27 -70 l233 -182 ZM326 96 l184 -144 q-8 -15 -26 -16 l-328 0 q-12 0 -20 8 q-8 7 -8 19 q2 56 42 94 l0 0 q40 38 100 39 l56 0 ZM186 205 q9 -35 31 -61 l-199 0 q-16 2 -18 19 q1 39 26 66 q25 26 62 27 l34 0 l64 -51 Z" /></font>
</defs>
</svg>
