<?xml version="1.0" standalone="no"?><!DOCTYPE svg PUBLIC "-//W3C//DTD SVG 1.1//EN" "http://www.w3.org/Graphics/SVG/1.1/DTD/svg11.dtd" ><svg xmlns="http://www.w3.org/2000/svg"><metadata></metadata><defs><font id="Version 769.01171875 (Font Awesome version: 6.1.1);AWSM;FontAwesome6Free-Regular;2022;FL720" horiz-adv-x="640"><font-face font-family="Font Awesome 6 Free Regular" font-weight="400" font-stretch="normal" units-per-em="512" panose-1="2 0 5 3 0 0 0 0 0 0" ascent="448" descent="-64" x-height="0" bbox="-15 -77 650 464" underline-thickness="0" underline-position="0" unicode-range="U+0000-ffff" /><missing-glyph horiz-adv-x="384" d="M336 448 q20 -1 34 -14 q13 -14 14 -34 l0 -416 q-1 -20 -14 -34 q-14 -13 -34 -14 l-288 0 q-20 1 -34 14 q-13 14 -14 34 l0 416 q1 20 14 34 q14 13 34 14 l288 0 ZM221 192 l115 -166 l0 332 l-115 -166 ZM307 400 l-230 0 l115 -166 l115 166 ZM48 358 l0 -332 l115 166 l-115 166 ZM77 -16 l230 0 l-115 166 l-115 -166 Z" /><glyph glyph-name=".null" unicode="" d="" /><glyph glyph-name="uni000D" unicode="" d="" /><glyph glyph-name="space" unicode=" " d="" /><glyph glyph-name="exclam" unicode="!&#x2755;&#x2757;&#xf12a;" d="M64 80 q-22 2 -24 24 l0 288 q2 22 24 24 q22 -2 24 -24 l0 -288 q-2 -22 -24 -24 ZM64 32 q14 0 23 -9 q9 -9 9 -23 q0 -14 -9 -23 q-9 -9 -23 -9 q-14 0 -23 9 q-9 9 -9 23 q0 14 9 23 l0 0 q9 9 23 9 Z" /><glyph glyph-name="quotedbl" unicode="&quot;" d="M64 416 q29 0 49 -23 q19 -24 14 -55 l-25 -145 q-3 -15 -13 -24 q-11 -9 -25 -9 q-14 0 -25 9 q-10 9 -13 24 l-25 145 q-5 31 14 55 q20 23 49 23 ZM80 346 q1 10 -4 17 q-8 6 -12 5 q-4 1 -12 -5 q-5 -7 -4 -17 l15 -90 l17 90 ZM305 393 q19 -24 13 -55 l-25 -145 q-3 -15 -14 -24 q-10 -9 -24 -9 q-13 0 -24 9 q-10 9 -14 24 l-25 145 q-5 31 14 55 q19 23 49 23 q31 0 50 -23 ZM271 346 q1 10 -4 17 q-8 6 -12 5 q-3 1 -11 -5 q-6 -7 -5 -17 l16 -90 l16 90 Z" /><glyph glyph-name="numbersign" unicode="#&#xf292;" d="M424 312 q22 -2 24 -25 q-2 -21 -24 -23 l-83 -1 l-26 -144 l77 0 q22 -2 24 -24 q-2 -21 -24 -23 l-85 0 l-15 -84 q-5 -19 -24 -20 q-2 0 -4 0 q-22 6 -20 28 l14 76 l-111 0 l-15 -84 q-5 -19 -24 -20 q-2 0 -4 0 q-21 6 -20 28 l14 76 l-74 0 q-22 2 -24 24 q2 22 24 24 l83 0 l26 144 l-77 0 q-22 2 -24 24 q2 22 24 24 l85 0 l15 84 q6 21 28 20 q21 -6 20 -28 l-14 -76 l111 0 l15 84 q6 21 28 20 q21 -6 20 -28 l-14 -76 l74 0 ZM293 265 l-112 0 l-25 -144 l111 0 l26 144 Z" /><glyph glyph-name="dollar" unicode="$&#xf155;&#x1f4b2;" d="M184 375 q42 -6 72 -13 q20 -6 17 -29 q-7 -21 -28 -18 q-24 6 -55 10 q-30 5 -59 3 q-29 -2 -46 -13 q-15 -9 -20 -30 q-3 -17 2 -25 q4 -8 17 -17 q29 -16 82 -28 l2 0 q24 -6 48 -14 q25 -8 45 -20 q22 -12 35 -36 q11 -24 6 -55 q-13 -53 -64 -70 q-25 -10 -54 -11 l0 -49 q-2 -22 -24 -24 q-22 2 -24 24 l0 50 q-5 0 -10 1 l-1 0 q-19 3 -46 10 q-28 7 -49 16 q-19 11 -12 31 q11 20 32 13 q17 -8 41 -14 q24 -6 42 -9 q54 -6 87 6 q31 13 35 35 q3 18 -2 25 q-4 8 -17 17 q-30 16 -82 28 l-2 0 q0 0 0 0 q-24 6 -48 14 q-25 8 -45 19 q-22 13 -35 37 q-12 24 -6 55 q9 43 42 62 q31 18 67 20 q4 0 9 0 l0 48 q2 22 24 24 q22 -2 24 -24 l0 -49 Z" /><glyph glyph-name="percent" unicode="%&#xf295;&#xf541;" d="M376 377 q15 -17 1 -34 l-336 -336 q-7 -7 -17 -7 q-9 0 -18 7 q-14 17 0 34 l336 336 q17 14 34 0 ZM64 272 q-20 1 -34 14 q-13 14 -14 34 q1 20 14 34 q14 13 34 14 q20 -1 34 -14 q13 -14 14 -34 q-1 -20 -14 -34 l0 0 q-14 -13 -34 -14 ZM320 112 q20 -1 34 -14 q13 -14 14 -34 q-1 -20 -14 -34 q-14 -13 -34 -14 q-20 1 -34 14 q-13 14 -14 34 q1 20 14 34 l0 0 q14 13 34 14 Z" /><glyph glyph-name="ampersand" unicode="&amp;" d="M360 -32 q-10 0 -17 7 l-61 62 l-14 -22 q-32 -46 -87 -47 l-77 0 q-44 1 -74 30 q-29 30 -30 74 q1 51 42 83 l74 54 l-37 37 q-30 32 -31 77 q1 39 27 66 q27 26 66 27 l54 0 q39 -1 66 -27 q26 -27 27 -66 q-1 -47 -38 -75 l-62 -45 l87 -89 l65 99 q14 17 33 7 q17 -14 7 -33 l-71 -108 l68 -70 q14 -17 0 -34 q-8 -7 -17 -7 ZM149 174 l-78 -58 q-22 -16 -23 -44 q1 -24 16 -40 q16 -15 40 -16 l77 0 q30 1 47 25 l20 32 l-99 101 ZM141 368 q-19 0 -32 -13 l0 0 q-13 -13 -13 -32 q0 -25 18 -43 l41 -42 l67 49 q17 13 18 36 q0 19 -13 32 q-13 13 -33 13 l-53 0 Z" /><glyph glyph-name="quotesingle" unicode="&#39;" d="M96 416 q41 -1 68 -28 q27 -27 28 -68 l0 -104 q-1 -51 -35 -85 q-34 -34 -85 -35 l-16 0 q-22 2 -24 24 q2 22 24 24 l16 0 q31 1 51 21 q20 20 21 51 l0 21 q-21 -13 -48 -13 q-41 1 -68 28 q-27 27 -28 68 q1 41 28 68 l0 0 q27 27 68 28 ZM96 272 q20 1 34 14 q13 14 14 34 q-1 20 -14 34 q-14 13 -34 14 q-20 -1 -34 -14 q-13 -14 -14 -34 q1 -20 14 -34 l0 0 q14 -13 34 -14 Z" /><glyph glyph-name="parenleft" unicode="(" d="M157 -20 q-8 -12 -21 -12 q-6 0 -12 3 q-5 2 -35 27 q-29 24 -58 73 q-29 48 -31 121 q2 73 31 121 q29 49 58 73 q30 25 35 27 q20 9 33 -9 q9 -20 -9 -33 q-4 -1 -28 -21 q-24 -21 -47 -60 q-23 -40 -25 -98 q2 -59 25 -98 q23 -40 48 -60 q24 -20 27 -21 q0 0 0 0 q18 -13 9 -33 Z" /><glyph glyph-name="parenright" unicode=")" d="M44 13 q3 1 27 21 l0 0 q25 20 48 60 l0 0 q23 39 25 98 q-2 59 -25 98 q-23 39 -47 60 q-24 20 -28 21 q-18 13 -9 33 q13 18 33 9 q5 -2 35 -27 q29 -24 58 -73 q29 -48 31 -121 q-2 -73 -31 -121 q-29 -49 -58 -73 q-30 -25 -35 -27 q-6 -3 -12 -3 q-13 0 -21 12 q-9 20 9 33 Z" /><glyph glyph-name="asterisk" unicode="*&#x2731;&#xf069;" d="M417 80 q-7 -12 -21 -12 q-6 0 -12 3 l-136 79 l0 -158 q-2 -22 -23 -24 q-10 0 -17 7 q-8 7 -8 17 l0 158 l-137 -79 q-1 0 -3 -1 q-4 -2 -9 -2 q-13 0 -21 12 q-9 20 9 33 l137 79 l-137 79 q-18 13 -10 33 q14 18 34 9 l137 -79 l0 158 q2 22 24 24 q22 -2 24 -24 l0 -158 l137 79 q21 9 32 -9 q9 -20 -9 -33 l-137 -79 l137 -79 q20 -13 9 -33 Z" /><glyph glyph-name="plus" unicode="+&#x2795;&#xf067;" d="M432 192 q-2 -22 -24 -24 l-160 0 l0 -160 q-2 -22 -24 -24 q-22 2 -24 24 l0 160 l-160 0 q-22 2 -24 24 q2 22 24 24 l160 0 l0 160 q2 22 24 24 q22 -2 24 -24 l0 -160 l160 0 q22 -2 24 -24 Z" /><glyph glyph-name="comma" unicode="," d="M156 121 q9 -27 -4 -51 l-68 -115 q-11 -18 -31 -18 q-1 0 -2 0 q-6 0 -10 1 q-26 12 -24 40 l23 132 q5 28 30 42 q13 8 28 8 q19 0 35 -11 l0 0 q16 -10 23 -28 ZM110 94 q3 4 1 11 q-3 7 -14 8 q-1 -1 -2 -1 q-1 0 -2 -1 q-6 -3 -7 -9 l-11 -69 l35 61 Z" /><glyph glyph-name="hyphen" unicode="-" d="M320 192 q-2 -22 -24 -24 l-272 0 q-22 2 -24 24 q2 22 24 24 l272 0 q22 -2 24 -24 Z" /><glyph glyph-name="period" unicode="." d="M64 96 q27 -1 45 -19 q18 -18 19 -45 q-1 -27 -19 -45 q-18 -18 -45 -19 q-27 1 -45 19 q-18 18 -19 45 q1 27 19 45 l0 0 q18 18 45 19 ZM64 16 q15 1 16 16 q-1 15 -16 16 q-15 -1 -16 -16 q1 -15 16 -16 Z" /><glyph glyph-name="slash" unicode="/" d="M24 -64 q-6 0 -12 3 q-18 13 -9 33 l272 464 q13 18 33 9 q18 -13 9 -33 l-272 -464 q-8 -12 -21 -12 Z" /><glyph glyph-name="zero" unicode="0" d="M160 368 q-48 -1 -79 -33 q-32 -31 -33 -79 l0 -128 q1 -48 33 -79 q31 -32 79 -33 q48 1 79 33 q32 31 33 79 l0 128 q-1 48 -33 79 l0 0 q-31 32 -79 33 ZM160 416 q68 -2 113 -47 q45 -45 47 -113 l0 -127 q-2 -68 -47 -113 q-45 -45 -113 -47 q-68 2 -113 47 q-45 45 -47 113 l0 127 q2 68 47 113 l0 0 q45 45 113 47 Z" /><glyph glyph-name="one" unicode="1" d="M256 -8 q-2 -22 -24 -24 l-208 0 q-22 2 -24 24 q2 22 24 24 l80 0 l0 333 l-67 -41 q-20 -10 -33 7 q-10 20 7 33 l104 64 q12 7 25 1 q12 -7 12 -21 l0 -376 l80 0 q22 -2 24 -24 Z" /><glyph glyph-name="two" unicode="2" d="M296 -32 l-272 0 q-16 1 -22 15 q-5 16 6 27 l206 186 q31 29 34 67 q3 38 -23 70 q-27 31 -69 35 q-42 3 -74 -24 l-39 -35 q-17 -13 -34 2 q-13 18 2 34 l40 35 q47 40 109 36 q61 -6 102 -52 q38 -48 33 -105 q-4 -57 -50 -98 l-159 -145 l210 0 q22 -2 24 -24 q-2 -22 -24 -24 Z" /><glyph glyph-name="three" unicode="3" d="M188 -32 l-90 0 q-34 0 -60 19 q-26 19 -37 51 q-5 21 15 30 q22 5 31 -15 q6 -17 19 -27 q14 -10 32 -10 l90 0 q36 1 59 25 q24 23 25 59 q-1 35 -25 59 q-23 23 -59 24 l-100 0 q-16 1 -22 15 q-5 15 5 27 l149 143 l-196 0 q-22 2 -24 24 q2 22 24 24 l256 0 q16 -1 22 -15 q5 -15 -5 -26 l-149 -144 l40 0 q56 -1 93 -38 q38 -37 39 -93 q-1 -56 -39 -93 q-37 -38 -93 -39 Z" /><glyph glyph-name="four" unicode="4" d="M384 120 q-2 -22 -24 -24 l-39 0 l-1 -104 q-2 -22 -24 -24 q-22 2 -24 24 l0 104 l-248 0 q-13 0 -21 12 q-6 11 0 23 l144 272 q12 19 32 10 q19 -12 10 -32 l-125 -237 l208 0 l0 152 q2 22 24 24 q22 -2 24 -24 l0 -152 l40 0 q22 -2 24 -24 Z" /><glyph glyph-name="five" unicode="5" d="M188 -32 l-82 0 q-37 0 -65 21 q-28 20 -40 54 q-5 22 15 31 q22 5 31 -16 q6 -19 22 -30 q16 -12 37 -12 l82 0 q35 1 59 25 q24 24 25 59 q-1 36 -25 60 q-24 24 -59 25 l-164 0 q-11 0 -18 8 q-7 9 -6 20 l32 183 q5 19 24 20 l208 0 q22 -2 24 -24 q-2 -22 -24 -24 l-188 0 l-23 -135 l135 0 q56 -2 93 -39 q38 -38 39 -94 q-1 -56 -39 -93 q-37 -38 -93 -39 Z" /><glyph glyph-name="six" unicode="6" d="M0 128 q0 30 10 56 q11 26 37 60 q25 33 71 87 q27 33 64 76 q7 9 18 9 q8 0 15 -5 q16 -16 4 -34 l-75 -91 q3 1 5 1 q6 1 11 1 q68 -2 113 -47 q45 -45 47 -113 q-2 -68 -47 -113 q-45 -45 -113 -47 q-68 2 -113 47 l0 0 q-45 45 -47 113 ZM272 128 q-1 47 -33 79 q-31 32 -79 33 q-48 -1 -79 -33 q-32 -31 -33 -79 q1 -48 33 -79 q31 -32 79 -33 q48 1 79 33 l0 0 q32 31 33 79 Z" /><glyph glyph-name="seven" unicode="7" d="M56 -32 q-6 0 -12 3 q-18 13 -9 33 l219 364 l-230 0 q-22 2 -24 24 q2 22 24 24 l272 0 q14 0 21 -12 q6 -12 0 -24 l-240 -400 q-8 -12 -21 -12 Z" /><glyph glyph-name="eight" unicode="8" d="M260 198 q27 -17 43 -44 q17 -28 17 -62 q-1 -53 -36 -88 q-35 -35 -88 -36 l-72 0 q-53 1 -88 36 q-35 35 -36 88 q0 34 17 62 q16 27 43 44 q-42 36 -44 94 q1 53 36 88 q35 35 88 36 l40 0 q53 -1 88 -36 q35 -35 36 -88 q-2 -58 -44 -94 ZM140 368 q-32 -1 -54 -22 q-21 -22 -22 -54 q1 -32 22 -54 q22 -21 54 -22 l40 0 q32 1 54 22 q21 22 22 54 q-1 32 -22 54 q-22 21 -54 22 l-40 0 ZM196 16 q32 1 54 22 q21 22 22 54 q-1 32 -22 54 q-22 21 -54 22 l-72 0 q-32 -1 -54 -22 q-21 -22 -22 -54 q1 -32 22 -54 q22 -21 54 -22 l72 0 Z" /><glyph glyph-name="nine" unicode="9" d="M320 256 q0 -30 -10 -56 q-11 -26 -37 -60 q-25 -34 -71 -87 q-27 -33 -63 -76 q-8 -9 -19 -9 q-8 0 -15 6 q-16 15 -3 33 l74 91 q-3 -1 -5 -1 q-5 -1 -11 -1 q-68 2 -113 47 q-45 45 -47 113 q2 68 47 113 q45 45 113 47 q68 -2 113 -47 l0 0 q45 -45 47 -113 ZM48 256 q1 -48 33 -79 q31 -32 79 -33 q48 1 79 33 q32 31 33 79 q-1 48 -33 79 q-31 32 -79 33 q-48 -1 -79 -33 l0 0 q-32 -31 -33 -79 Z" /><glyph glyph-name="colon" unicode=":" d="M64 256 q-27 1 -45 19 q-18 18 -19 45 q1 27 19 45 q18 18 45 19 q27 -1 45 -19 q18 -18 19 -45 q-1 -27 -19 -45 l0 0 q-18 -18 -45 -19 ZM64 336 q-15 -1 -16 -16 q1 -15 16 -16 q15 1 16 16 q-1 15 -16 16 ZM64 128 q27 -1 45 -19 q18 -18 19 -45 q-1 -27 -19 -45 q-18 -18 -45 -19 q-27 1 -45 19 q-18 18 -19 45 q1 27 19 45 l0 0 q18 18 45 19 ZM64 48 q15 1 16 16 q-1 15 -16 16 q-15 -1 -16 -16 q1 -15 16 -16 Z" /><glyph glyph-name="semicolon" unicode=";" d="M97 161 q20 0 36 -11 q16 -11 23 -28 q9 -27 -4 -52 l-68 -115 q-11 -18 -31 -18 q-1 0 -1 0 q-6 -1 -12 2 q-26 12 -23 40 l22 132 q5 28 30 42 q13 8 28 8 ZM110 94 q3 5 1 10 q-3 7 -14 8 q-2 0 -4 -1 q-6 -3 -7 -9 l-11 -69 l35 61 ZM96 256 q-27 1 -45 19 q-18 18 -18 45 q1 27 18 45 q18 18 45 19 q27 -1 45 -19 q18 -18 19 -45 q-1 -27 -19 -45 l0 0 q-18 -18 -45 -19 ZM96 336 q-15 -1 -16 -16 q1 -15 16 -16 q15 1 16 16 q-1 15 -16 16 Z" /><glyph glyph-name="less" unicode="&lt;&#xf536;" d="M370 330 l-290 -138 l290 -138 q19 -12 12 -32 q-7 -13 -23 -14 q-5 0 -10 2 l-336 160 q-13 7 -14 22 q1 15 14 22 l336 160 q22 7 33 -12 q7 -20 -12 -32 Z" /><glyph glyph-name="equal" unicode="=&#xf52c;" d="M408 120 q22 -2 24 -24 q-2 -22 -24 -24 l-368 0 q-22 2 -24 24 q2 22 24 24 l368 0 ZM40 264 q-22 2 -24 24 q2 22 24 24 l368 0 q22 -2 24 -24 q-2 -22 -24 -24 l-368 0 Z" /><glyph glyph-name="greater" unicode="&gt;&#xf531;" d="M384 192 q-1 -15 -14 -22 l-336 -160 q-5 -2 -10 -2 q-14 0 -22 14 q-7 20 12 32 l290 138 l-290 138 q-19 12 -12 32 q12 19 32 12 l336 -160 q13 -7 14 -22 Z" /><glyph glyph-name="question" unicode="?&#x2753;&#x2754;&#xf128;" d="M144 32 q14 0 23 -9 q9 -9 9 -23 q0 -14 -9 -23 q-9 -9 -23 -9 q-14 0 -23 9 q-9 9 -9 23 q0 14 9 23 l0 0 q9 9 23 9 ZM211 416 q46 -1 77 -32 q31 -31 32 -77 q0 -31 -16 -56 q-15 -25 -42 -40 l-73 -38 q-20 -12 -21 -36 l0 -17 q-2 -22 -24 -24 q-22 2 -24 24 l0 17 q1 52 47 78 l73 38 q31 18 32 54 q-1 26 -18 43 q-17 17 -43 18 l-107 0 q-24 -1 -40 -16 q-15 -16 -16 -40 l0 -16 q-2 -22 -24 -24 q-22 2 -24 24 l0 16 q1 44 30 74 q30 29 74 30 l107 0 Z" /><glyph glyph-name="at" unicode="@&#xf1fa;" d="M263 432 q65 -2 118 -37 q52 -34 83 -90 q31 -55 32 -123 l0 -18 q-1 -39 -27 -65 q-26 -26 -65 -27 q-51 2 -77 42 q-32 -31 -79 -32 q-48 1 -79 33 q-32 31 -33 78 q1 47 33 78 q31 32 79 33 q37 0 65 -22 q4 19 23 20 q22 -1 24 -23 l0 -116 q0 -19 13 -32 q12 -12 31 -13 q19 1 31 13 q13 13 13 32 l0 19 q-2 83 -55 140 q-52 57 -131 62 q-81 2 -139 -54 q-58 -58 -59 -139 q1 -73 47 -126 q45 -53 117 -65 q21 -6 20 -28 q-5 -19 -24 -20 q-2 0 -3 0 q-90 16 -146 82 q-57 66 -59 157 q1 102 73 173 q74 70 174 68 ZM248 128 q27 1 45 19 q18 18 19 44 q-1 27 -19 45 q-18 17 -45 18 q-27 0 -45 -18 q-18 -18 -19 -45 q1 -26 19 -44 l0 0 q18 -18 45 -19 Z" /><glyph glyph-name="A" unicode="Aa" d="M382 1 q7 -21 -13 -31 q-4 -2 -9 -2 q-15 0 -22 15 l-34 80 l-224 0 l-34 -80 q-10 -20 -31 -13 q-20 10 -13 31 l168 400 q7 14 22 14 q15 0 22 -14 l168 -400 ZM100 112 l184 0 l-92 219 l-92 -220 l0 1 Z" /><glyph glyph-name="B" unicode="Bb" d="M250 203 q32 -16 51 -45 q18 -29 19 -66 q-1 -53 -36 -88 q-35 -35 -88 -36 l-172 0 q-22 2 -24 24 l0 400 q2 22 24 24 l140 0 q53 -1 88 -36 q35 -35 36 -88 q-1 -54 -38 -89 ZM48 216 l116 0 q32 1 54 22 q21 22 22 54 q-1 32 -22 54 q-22 21 -54 22 l-116 0 l0 -152 ZM196 16 q32 1 54 22 q21 22 22 54 q-1 32 -22 54 q-22 21 -54 22 l-148 0 l0 -152 l148 0 Z" /><glyph glyph-name="C" unicode="Cc" d="M221 -32 q-70 1 -119 34 l0 0 q-49 33 -75 84 l0 0 q-27 50 -27 105 q0 55 27 106 q26 51 75 85 q50 33 119 34 q0 0 0 0 q0 0 0 0 q48 -1 84 -17 q37 -16 58 -35 q21 -20 21 -31 q0 -7 -6 -15 q-5 -8 -18 -9 q-12 2 -27 16 q-15 14 -41 28 q-27 14 -71 15 q-82 -3 -127 -56 q-45 -53 -46 -120 q1 -66 46 -119 q45 -54 127 -57 q44 1 71 15 q26 14 41 28 q15 14 27 16 q8 0 15 -6 q8 -6 9 -18 q0 -11 -21 -31 q-21 -19 -57 -35 q-37 -16 -85 -17 Z" /><glyph glyph-name="D" unicode="Dd" d="M155 -32 l-131 0 q-22 2 -24 24 l0 400 q2 22 24 24 l131 0 q64 -1 115 -31 q52 -30 83 -80 q30 -51 31 -113 q-1 -62 -31 -113 q-31 -50 -83 -80 q-51 -30 -115 -31 ZM48 16 l107 0 q77 2 128 52 q51 49 53 124 q-2 75 -53 124 q-51 50 -128 52 l-107 0 l0 -352 Z" /><glyph glyph-name="E" unicode="Ee" d="M320 -8 q-2 -22 -24 -24 l-272 0 q-22 2 -24 24 l0 400 q2 22 24 24 l272 0 q22 -2 24 -24 q-2 -22 -24 -24 l-248 0 l0 -152 l184 0 q22 -2 24 -24 q-2 -22 -24 -24 l-184 0 l0 -152 l248 0 q22 -2 24 -24 Z" /><glyph glyph-name="F" unicode="Ff" d="M320 392 q-2 -22 -24 -24 l-248 0 l0 -152 l184 0 q22 -2 24 -24 q-2 -22 -24 -24 l-184 0 l0 -176 q-2 -22 -24 -24 q-22 2 -24 24 l0 400 q2 22 24 24 l272 0 q22 -2 24 -24 Z" /><glyph glyph-name="G" unicode="Gg" d="M222 -32 q-66 1 -116 32 l0 0 q-50 31 -78 82 l0 0 q-28 50 -28 109 q1 63 31 114 q29 50 80 80 q50 30 112 31 q49 -1 86 -17 q37 -16 58 -35 q21 -20 22 -31 q-1 -14 -10 -19 q-9 -5 -15 -5 q-11 1 -27 16 q-15 14 -42 28 q-26 14 -72 15 q-74 -2 -124 -51 q-49 -50 -51 -126 q-1 -21 13 -62 q14 -41 52 -76 q38 -35 110 -37 q28 -1 66 13 q38 14 70 47 q31 33 39 91 l-150 0 q-22 2 -24 24 q2 22 23 24 l175 0 q22 -2 23 -24 q0 -71 -33 -121 q-33 -49 -84 -75 q-51 -26 -106 -27 Z" /><glyph glyph-name="H" unicode="Hh" d="M384 392 l0 -400 q-2 -22 -24 -24 q-22 2 -24 24 l0 200 l-288 0 l0 -200 q-2 -22 -24 -24 q-22 2 -24 24 l0 400 q2 22 24 24 q22 -2 24 -24 l0 -152 l288 0 l0 152 q2 22 24 24 q22 -2 24 -24 Z" /><glyph glyph-name="I" unicode="Ii" d="M320 -8 q-2 -22 -24 -24 l-272 0 q-22 2 -24 24 q2 22 24 24 l112 0 l0 352 l-112 0 q-22 2 -24 24 q2 22 24 24 l272 0 q22 -2 24 -24 q-2 -22 -24 -24 l-112 0 l0 -352 l112 0 q22 -2 24 -24 Z" /><glyph glyph-name="J" unicode="Jj" d="M160 -32 q-68 2 -113 45 l0 0 q-45 44 -47 109 l0 46 q2 22 24 24 q22 -2 24 -24 l0 -46 q1 -45 33 -75 q31 -30 79 -31 q48 1 79 31 q32 30 33 75 l0 270 q2 22 24 24 q22 -2 24 -24 l0 -270 q-2 -65 -47 -109 q-45 -43 -113 -45 Z" /><glyph glyph-name="K" unicode="Kk" d="M316 6 q11 -19 -6 -34 q-7 -4 -14 -4 q-12 0 -20 10 l-148 212 l-80 -81 l0 -117 q-2 -22 -24 -24 q-22 2 -24 24 l0 400 q2 22 24 24 q22 -2 24 -24 l0 -215 l231 232 q17 14 34 0 q14 -17 0 -34 l-151 -152 q0 0 0 0 q0 0 1 -1 l153 -216 Z" /><glyph glyph-name="L" unicode="Ll" d="M296 -32 l-240 0 q-22 2 -24 24 l0 400 q2 22 24 24 q22 -2 24 -24 l0 -376 l216 0 q22 -2 24 -24 q-2 -22 -24 -24 Z" /><glyph glyph-name="M" unicode="Mm" d="M424 -32 q-22 2 -24 24 l0 320 l-156 -237 q-7 -10 -20 -10 q-13 0 -20 10 l-156 237 l0 -320 q-2 -22 -24 -24 q-22 2 -24 24 l0 400 q1 17 17 23 q17 4 27 -10 l180 -273 l180 273 q10 14 27 10 q16 -6 17 -23 l0 -400 q-2 -22 -24 -24 Z" /><glyph glyph-name="N" unicode="Nn" d="M360 -32 q-11 0 -18 9 l-294 349 l0 -334 q-2 -22 -24 -24 q-22 2 -24 24 l0 400 q1 16 16 23 q15 4 26 -8 l294 -349 l0 334 q2 22 24 24 q22 -2 24 -24 l0 -400 q-1 -16 -16 -23 q-4 -1 -8 -1 Z" /><glyph glyph-name="O" unicode="Oo" d="M224 -32 q-62 1 -113 31 l0 0 q-50 30 -80 80 l0 0 q-30 51 -31 113 q1 62 31 113 q30 50 80 80 q51 30 113 31 q62 -1 113 -31 q50 -30 80 -80 q30 -51 31 -113 q-1 -62 -31 -113 q-30 -50 -80 -80 q-51 -30 -113 -31 ZM224 368 q-75 -2 -125 -51 l0 0 q-49 -50 -51 -125 q2 -75 52 -125 q49 -49 124 -51 q75 2 124 52 q50 49 52 124 q-2 75 -52 124 q-49 50 -124 52 Z" /><glyph glyph-name="P" unicode="Pp" d="M24 -32 q-22 2 -24 24 l0 400 q2 22 24 24 l144 0 q64 -2 107 -45 q43 -43 45 -107 q-2 -64 -45 -107 q-42 -43 -107 -45 l-120 0 l0 -120 q-2 -22 -24 -24 ZM48 160 l120 0 q44 1 74 30 q29 30 30 74 q-1 44 -31 74 q-29 29 -73 30 l-120 0 l0 -208 Z" /><glyph glyph-name="Q" unicode="Qq" d="M442 -25 q6 -7 6 -15 q0 -8 -6 -16 q-6 -7 -18 -8 q-10 0 -19 9 l-54 63 q-56 -39 -128 -40 q-62 1 -112 31 q-51 30 -80 80 q-30 51 -31 113 q1 62 31 113 q30 50 81 80 q51 30 113 31 q62 -1 112 -31 q51 -30 80 -80 q30 -51 31 -113 q-2 -90 -60 -152 l54 -65 ZM224 16 q54 1 97 29 l-90 108 q-6 7 -6 15 q0 8 5 16 q6 7 18 8 q11 0 18 -9 l91 -106 q42 47 43 115 q-2 75 -51 124 q-50 50 -125 52 q-75 -2 -125 -52 q-49 -49 -51 -124 q2 -75 52 -124 l0 0 q49 -50 124 -52 Z" /><glyph glyph-name="R" unicode="Rr" d="M315 6 q12 -19 -5 -33 q-6 -5 -14 -5 q-12 0 -19 10 l-133 182 l-96 0 l0 -168 q-2 -22 -24 -24 q-22 2 -24 24 l0 400 q2 22 24 24 l168 0 q54 -1 90 -38 q36 -36 38 -90 q-1 -51 -34 -87 l0 0 q-33 -35 -83 -40 l112 -155 ZM48 208 l144 0 q34 1 57 23 q22 23 23 57 q-1 34 -23 57 q-23 22 -57 23 l-144 0 l0 -160 Z" /><glyph glyph-name="S" unicode="Ss" d="M350 65 q-10 -53 -54 -78 q-39 -20 -85 -19 q-52 1 -97 14 q-46 13 -67 22 q-20 10 -13 31 q10 20 31 13 q66 -26 121 -31 q55 -5 86 12 q25 14 31 45 q7 38 -22 58 q-29 19 -96 37 q-38 10 -76 25 q-38 16 -60 45 q-23 29 -15 79 q9 47 49 74 q70 44 211 7 q22 -7 18 -29 q-7 -21 -29 -17 q-75 18 -116 15 q-41 -4 -58 -17 q-27 -20 -28 -41 q-7 -39 22 -58 q29 -20 95 -37 q39 -10 77 -26 q38 -15 60 -44 q23 -29 15 -80 Z" /><glyph glyph-name="T" unicode="Tt" d="M384 392 q-2 -22 -24 -24 l-144 0 l0 -376 q-2 -22 -24 -24 q-22 2 -24 24 l0 376 l-144 0 q-22 2 -24 24 q2 22 24 24 l336 0 q22 -2 24 -24 Z" /><glyph glyph-name="U" unicode="Uu" d="M192 -32 q-81 2 -136 55 l0 0 q-54 54 -56 134 l0 235 q2 22 24 24 q22 -2 24 -24 l0 -235 q2 -60 42 -100 q41 -39 102 -41 q61 2 102 41 q40 40 42 100 l0 235 q2 22 24 24 q22 -2 24 -24 l0 -235 q-2 -80 -56 -134 q-55 -53 -136 -55 Z" /><glyph glyph-name="V" unicode="Vv" d="M192 -32 q-16 1 -22 15 l-168 400 q-7 21 13 31 q21 7 31 -13 l146 -347 l146 347 q10 20 31 13 q20 -10 13 -31 l-168 -400 q-6 -14 -22 -15 Z" /><glyph glyph-name="W" unicode="Ww" d="M408 -32 q0 0 -1 0 q-16 1 -22 17 l-97 323 l-98 -323 q-6 -16 -22 -17 q-17 1 -23 16 l-144 400 q-6 21 14 31 q22 5 32 -15 l119 -331 l99 330 q6 16 23 17 q17 -1 23 -17 l99 -330 l119 331 q10 20 31 15 q20 -10 15 -31 l-144 -400 q-7 -15 -23 -16 Z" /><glyph glyph-name="X" unicode="Xx" d="M378 7 q13 -18 -3 -33 q-7 -6 -15 -6 q-11 0 -18 9 l-150 178 l-150 -178 q-7 -9 -18 -9 q-8 0 -15 6 q-16 15 -3 33 l155 185 l-155 185 q-13 18 3 33 q18 13 33 -3 l150 -178 l150 178 q15 16 33 3 q16 -15 3 -33 l-155 -185 l155 -185 Z" /><glyph glyph-name="Y" unicode="Yy" d="M379 378 l-163 -226 l0 -160 q-2 -22 -24 -24 q-22 2 -24 24 l0 160 l-163 226 q-12 19 5 33 q19 12 33 -5 l149 -205 l149 205 q14 17 33 5 q17 -14 5 -33 Z" /><glyph glyph-name="Z" unicode="Zz" d="M360 -32 l-336 0 q-15 1 -22 14 q-6 14 4 25 l303 361 l-285 0 q-22 2 -24 24 q2 22 24 24 l336 0 q15 -1 22 -14 q6 -14 -4 -25 l-302 -361 l284 0 q22 -2 24 -24 q-2 -22 -24 -24 Z" /><glyph glyph-name="bracketleft" unicode="[" d="M120 416 q22 -2 24 -24 q-2 -22 -24 -24 l-72 0 l0 -352 l72 0 q10 0 17 -8 q7 -7 7 -17 q-2 -21 -24 -23 l-88 0 q-14 0 -23 9 q-9 9 -9 23 l0 384 q0 14 9 23 q9 9 23 9 l88 0 Z" /><glyph glyph-name="backslash" unicode="\" d="M296 -64 q-13 0 -21 12 l-272 464 q-9 20 9 33 q20 9 33 -9 l272 -464 q9 -20 -9 -33 q-6 -3 -12 -3 Z" /><glyph glyph-name="bracketright" unicode="]" d="M48 393 q2 21 24 23 l88 0 q14 0 23 -9 q9 -9 9 -23 l0 -384 q0 -14 -9 -23 q-9 -9 -23 -9 l-88 0 q-10 0 -17 8 q-7 7 -7 17 q2 21 23 23 l73 0 l0 352 l-73 0 q-21 2 -23 25 Z" /><glyph glyph-name="grave" unicode="`" d="M40 357 q-14 25 -3 52 q6 18 22 28 q16 11 36 11 q15 0 28 -8 q25 -14 30 -42 l22 -132 q3 -28 -23 -40 q-6 -2 -12 -2 q-21 0 -32 18 l-68 115 ZM81 392 q-2 -5 1 -10 l35 -61 l-11 69 q-1 6 -7 9 q-2 1 -4 1 q-11 -1 -14 -8 Z" /><glyph glyph-name="braceleft" unicode="{" d="M200 416 q22 -2 24 -24 q-2 -22 -24 -24 l-80 0 q-7 -1 -8 -8 l0 -78 q0 -36 -26 -62 l-28 -28 l28 -28 q25 -26 26 -63 l0 -77 q1 -7 8 -8 l80 0 q22 -2 24 -24 q-2 -22 -24 -24 l-80 0 q-24 1 -40 16 q-15 16 -16 40 l0 77 q0 17 -12 29 l-45 45 q-7 7 -7 17 q0 10 7 17 l45 45 q12 12 12 28 l0 78 q1 24 16 40 q16 15 40 16 l80 0 Z" /><glyph glyph-name="bar" unicode="|" d="M32 -64 q-22 2 -24 24 l0 464 q2 22 24 24 q22 -2 24 -24 l0 -464 q-2 -22 -24 -24 Z" /><glyph glyph-name="braceright" unicode="}" d="M32 393 q2 21 23 23 l81 0 q24 -1 40 -16 q15 -16 16 -40 l0 -78 q0 -16 12 -28 l45 -45 q7 -7 7 -17 q0 -10 -7 -17 l-45 -45 q-12 -12 -12 -29 l0 -77 q-1 -24 -16 -40 q-16 -15 -40 -16 l-81 0 q-9 0 -16 8 q-7 7 -7 17 q2 21 23 23 l81 0 q7 1 8 8 l0 77 q0 37 26 63 l28 28 l-28 28 q-25 26 -26 62 l0 78 q-1 7 -8 8 l-81 0 q-21 2 -23 25 Z" /><glyph glyph-name="asciitilde" unicode="~&#xf69f;" d="M448 264 l0 -89 q-1 -47 -33 -78 q-31 -32 -78 -33 q-29 0 -54 14 q-25 14 -41 39 l-77 125 q-19 29 -54 30 q-27 -1 -44 -19 q-18 -17 -19 -44 l0 -89 q-2 -22 -24 -24 q-22 2 -24 24 l0 89 q1 47 33 78 q31 32 78 33 q29 0 55 -14 q25 -14 40 -39 l77 -125 q19 -29 54 -30 q27 1 44 19 q18 17 19 44 l0 89 q2 22 24 24 q22 -2 24 -24 Z" /><glyph glyph-name="uniE000" unicode="&#xe000;" d="M96 288 q0 14 9 23 l0 0 q9 9 23 9 l128 0 q14 0 23 -9 q9 -9 9 -23 l0 -64 q0 -14 -9 -23 q-9 -9 -23 -9 l-128 0 q-14 0 -23 9 q-9 9 -9 23 l0 64 ZM416 320 q14 0 23 -9 l0 0 q9 -9 9 -23 l0 -64 q0 -14 -9 -23 q-9 -9 -23 -9 l-64 0 q-14 0 -23 9 q-9 9 -9 23 l0 64 q0 14 9 23 q9 9 23 9 l64 0 ZM96 32 l-16 0 q-34 1 -57 23 q-22 23 -23 57 l0 224 q1 34 23 57 q23 22 57 23 l336 0 q68 -2 113 -47 q45 -45 47 -113 l0 -176 l40 0 q22 -2 24 -24 q-2 -22 -24 -24 l-328 0 q-1 -41 -28 -68 q-27 -27 -68 -28 q-41 1 -68 28 q-27 27 -28 68 ZM48 336 l0 -224 q0 -14 9 -23 q9 -9 23 -9 l29 0 q13 22 34 35 q22 13 49 13 q27 0 49 -13 q21 -13 34 -35 l253 0 l0 176 q-1 48 -33 79 q-31 32 -79 33 l-336 0 q-14 0 -23 -9 q-9 -9 -9 -23 ZM192 80 q-20 -1 -34 -14 l0 0 q-13 -14 -14 -34 q1 -20 14 -34 q14 -13 34 -14 q20 1 34 14 q13 14 14 34 q-1 20 -14 34 q-14 13 -34 14 Z" /><glyph glyph-name="uniE001" unicode="&#xe001;" d="M162 379 q-2 2 -3 5 q0 3 3 5 l41 16 l16 40 q1 3 4 3 q4 0 6 -3 l16 -40 l40 -16 q3 -2 3 -5 q0 -3 -3 -5 l-40 -16 l-16 -40 q-2 -3 -5 -3 q-3 0 -5 3 l-16 40 l-41 16 ZM463 448 q75 -2 125 -52 q50 -49 52 -124 q-1 -57 -32 -100 q-30 -44 -80 -64 l0 -124 q-1 -20 -14 -34 q-14 -13 -34 -14 l-32 0 q-20 1 -34 14 q-14 14 -14 34 l0 70 l-82 -48 q2 -11 2 -22 l15 0 q14 0 23 -9 q9 -9 9 -23 q0 -7 -4 -11 q-4 -5 -11 -5 l-184 0 q-37 0 -62 29 q-25 28 -26 84 l0 212 q0 18 -11 30 q-11 13 -28 13 q-14 0 -22 12 q-6 12 0 24 q7 12 20 12 q38 -1 62 -26 q25 -25 26 -62 l0 -93 q29 38 70 64 q41 25 90 33 q0 2 0 4 q2 75 52 124 l0 0 q49 50 124 52 ZM463 400 q-39 0 -73 -23 l41 -41 l64 0 l41 41 q-33 23 -73 23 ZM519 272 q0 6 -5 10 q-4 5 -11 5 q-15 -1 -16 -15 q1 -15 16 -16 q15 1 16 16 ZM439 272 q0 6 -5 10 q-4 5 -11 5 q-15 -1 -16 -15 q1 -15 16 -16 q15 1 16 16 ZM398 109 q-38 15 -65 44 q-26 29 -38 68 q-75 -14 -121 -68 q-46 -53 -47 -129 q1 -17 12 -28 q11 -12 28 -12 l105 0 q-3 57 -48 92 q-10 9 -4 21 l7 13 q9 13 23 6 q35 -25 53 -63 l95 56 ZM479 97 q-18 -2 -36 0 q4 -7 4 -15 l0 -98 l32 0 l0 113 ZM463 144 q55 1 91 37 q36 36 37 90 q-1 49 -32 84 l0 -84 q-1 -41 -28 -67 q-27 -27 -68 -28 q-41 1 -68 28 q-27 27 -28 68 l0 84 q-31 -35 -32 -84 q2 -54 38 -90 l0 0 q36 -37 90 -38 Z" /><glyph glyph-name="uniE002" unicode="&#xe002;" d="M428 273 q39 -31 62 -74 q22 -44 22 -96 q0 -38 -13 -66 q-13 -27 -37 -51 q-17 -18 -41 -18 l-266 0 q-24 0 -41 18 q-24 24 -37 52 q-13 27 -13 65 q0 52 23 96 q22 43 61 73 l-34 96 l-26 0 q-17 0 -28 -12 q-12 -11 -12 -28 l0 -80 q0 -10 -8 -17 q-7 -7 -17 -7 q-21 2 -23 24 l0 80 q1 37 26 62 q25 25 62 26 l392 0 l-52 -143 ZM165 368 l29 -80 l188 0 l30 80 l-247 0 ZM462 128 q-12 71 -70 112 l-206 0 q-59 -41 -72 -112 l348 0 Z" /><glyph glyph-name="uniE003" unicode="&#xe003;" d="M308 185 q8 -3 11 -10 q3 -8 -3 -14 l-44 -43 l10 -61 q1 -8 -5 -13 q-7 -5 -14 -1 l-55 29 l-55 -29 q-7 -4 -14 1 q-6 5 -5 13 l10 61 l-44 43 q-6 6 -3 14 q2 7 10 10 l62 9 l27 55 q4 8 12 8 q8 0 12 -8 l27 -55 l61 -9 ZM502 438 q14 -14 9 -32 q-7 -23 -21 -65 q-14 -43 -32 -88 q16 -7 23 -22 q5 -17 -2 -32 q-12 -22 -33 -59 q-21 -37 -48 -76 q-27 -39 -56 -68 q-62 -59 -142 -59 q-80 0 -141 59 q-59 61 -59 141 q0 80 59 142 q29 29 68 56 q40 27 76 48 q37 21 59 32 q15 7 32 2 q15 -7 22 -23 q45 18 88 32 q43 14 65 21 q19 5 33 -9 ZM431 210 q-4 1 -18 5 q-7 2 -20 6 l11 25 q16 37 29 77 q14 39 23 70 q-30 -10 -70 -24 q-39 -13 -76 -29 l-25 -11 q-5 17 -7 25 q-2 7 -4 13 q-33 -17 -87 -51 q-55 -34 -94 -72 q-45 -47 -45 -107 q0 -61 45 -108 q45 -44 107 -45 q63 1 108 45 q37 39 71 92 l0 0 q33 53 52 89 Z" /><glyph glyph-name="uniE004" unicode="&#xe004;" d="M257 198 q6 -32 -10 -60 q-19 -31 -53 -41 q-34 -9 -67 9 q-5 3 -8 11 q-3 7 3 15 l63 77 q-39 15 -51 47 q-12 31 -4 57 q9 35 40 54 q10 4 17 0 q6 -4 9 -9 l33 -92 q21 17 45 20 q25 3 49 -8 q23 -11 37 -32 q13 -21 13 -47 q0 -8 -6 -13 q-6 -6 -14 -4 l-96 16 ZM224 208 q15 1 16 16 q-1 15 -16 16 q-15 -1 -16 -16 q1 -15 16 -16 ZM360 -16 q22 -2 24 -24 q-2 -22 -24 -24 l-272 0 q-22 2 -24 24 q2 22 24 24 l112 0 l0 17 q-86 11 -142 73 q-56 61 -58 150 q1 63 31 113 q29 51 80 80 q50 30 113 31 q63 -1 113 -31 q51 -29 80 -80 q30 -50 31 -113 q-2 -89 -58 -150 q-56 -62 -142 -73 l0 -17 l112 0 ZM48 224 q2 -75 52 -124 q49 -50 124 -52 q75 2 124 52 q50 49 52 124 q-2 75 -52 124 q-49 50 -124 52 q-75 -2 -124 -52 l0 0 q-50 -49 -52 -124 Z" /><glyph glyph-name="uniE005" unicode="&#xe005;" d="M512 80 l0 -32 q-1 -20 -14 -34 q-14 -13 -34 -14 l-64 0 q-20 1 -34 14 q-13 14 -14 34 l0 16 l-29 0 q-37 -46 -99 -48 q-62 2 -99 48 l-101 0 q-22 2 -24 24 q2 22 24 24 l127 0 q10 -22 29 -35 q20 -13 44 -13 q24 0 44 13 q19 13 29 35 l71 0 q14 0 23 -9 q9 -9 9 -23 l0 -32 l64 0 l0 32 q-1 41 -28 68 q-27 27 -68 28 l-71 0 q-10 22 -29 35 q-20 13 -44 13 q-24 0 -44 -13 q-19 -13 -29 -35 l-127 0 q-22 2 -24 24 q2 22 24 24 l101 0 q29 36 75 46 l0 30 q-2 0 -31 -3 q-28 -3 -57 -6 q-29 -3 -32 -3 q-15 1 -16 17 l0 30 q1 16 16 17 q0 0 0 0 q-1 0 5 -1 q6 0 31 -3 q25 -3 84 -9 l0 29 q1 15 16 16 l16 0 q15 -1 16 -16 l0 -29 q52 5 78 8 q32 4 37 5 q6 0 5 0 q15 -1 16 -17 l0 -30 q-1 -16 -16 -17 q-3 0 -32 3 q-29 3 -57 6 q-29 3 -31 3 l0 -30 q46 -10 75 -46 l45 0 q61 -2 102 -42 q40 -41 42 -102 Z" /><glyph glyph-name="uniE006" unicode="&#xe006;&#x1f6b0;" d="M416 -32 q2 16 16 39 q14 23 16 25 q2 -2 16 -25 q14 -23 16 -39 q0 -14 -9 -23 q-9 -9 -23 -9 q-14 0 -23 9 l0 0 q-9 9 -9 23 ZM368 288 q61 -2 102 -42 q40 -41 42 -102 l0 -32 q-1 -20 -14 -34 q-14 -13 -34 -14 l-64 0 q-20 1 -34 14 q-13 14 -14 34 l0 16 l-29 0 q-37 -46 -99 -48 q-62 2 -100 48 l-101 0 q-9 0 -16 8 q-7 7 -7 17 q2 21 23 23 l128 0 q10 -22 29 -35 q20 -13 44 -13 q24 0 44 13 q19 13 29 35 l71 0 q14 0 23 -9 q9 -9 9 -23 l0 -32 l64 0 l0 32 q-1 41 -28 68 q-27 27 -68 28 l-71 0 q-10 22 -29 35 q-20 13 -44 13 q-24 0 -44 -13 q-19 -13 -29 -35 l-128 0 q-9 0 -16 8 q-7 7 -7 17 q2 21 23 23 l102 0 q29 36 75 46 l0 30 q-2 0 -31 -3 q-28 -3 -57 -6 q-29 -3 -32 -3 q-15 1 -16 17 l0 30 q1 16 16 17 q-1 0 5 0 q5 -1 37 -5 q26 -3 78 -8 l0 29 q1 15 16 16 l16 0 q15 -1 16 -16 l0 -29 q59 6 84 9 q25 3 31 4 q6 0 5 0 q0 0 0 0 q15 -1 16 -17 l0 -30 q-1 -16 -16 -17 q-3 0 -32 3 q-29 3 -57 6 q-29 3 -31 3 l0 -30 q46 -10 75 -46 l45 0 Z" /><glyph glyph-name="uniE008" unicode="&#xe008;" d="M507 181 q7 -33 4 -67 q-4 -27 -31 -32 q-27 -3 -39 22 q-15 32 -46 50 q3 -30 -3 -61 q-12 -56 -52 -97 q-39 -41 -95 -55 q-23 -5 -47 -5 q-10 0 -20 1 q-27 4 -32 31 q-3 27 21 39 q33 15 51 46 q-30 -3 -61 3 q-56 12 -97 52 q-41 39 -54 95 q-8 33 -5 67 q4 27 31 32 q27 3 39 -21 q15 -33 46 -51 q-3 30 3 61 q12 56 52 97 q39 41 95 55 q33 7 67 4 q27 -4 32 -31 q3 -27 -22 -39 q-32 -15 -50 -46 q30 3 61 -3 q56 -12 97 -52 l0 0 q41 -39 55 -95 ZM365 214 q59 -9 96 -54 q-9 47 -41 79 q-32 33 -76 42 q-40 8 -79 -5 q-13 -4 -24 4 q-10 9 -8 22 q9 58 54 96 q-47 -9 -80 -41 q-32 -32 -41 -76 q-8 -40 5 -80 q4 -12 -4 -23 q-9 -10 -22 -8 q-58 9 -96 54 q9 -47 41 -79 q32 -33 76 -42 q40 -8 80 5 q12 4 23 -4 q10 -9 8 -22 q-9 -58 -54 -96 q48 9 80 41 q32 32 41 76 q8 40 -5 80 q-4 12 4 23 q9 10 22 8 ZM255 233 q18 -1 29 -12 q11 -12 11 -28 q0 -17 -12 -28 q-11 -12 -28 -12 q-17 0 -28 12 q-11 11 -12 28 q1 17 12 28 l0 0 q11 11 28 12 Z" /><glyph glyph-name="uniE009" unicode="&#xe009;" d="M323 397 q-3 1 -7 0 l-253 -103 q-14 -7 -15 -22 l0 -312 q-2 -22 -24 -24 q-22 2 -24 24 l0 312 q0 22 12 40 q12 18 33 26 l253 103 q22 9 43 0 l254 -103 q21 -8 33 -26 q12 -18 12 -40 l0 -312 q-2 -22 -24 -24 q-22 2 -24 24 l0 312 q-1 15 -15 22 l-254 103 ZM143 80 l0 -120 q-1 -22 -24 -24 q-10 0 -17 7 q-7 7 -7 17 l0 256 q1 17 12 28 q12 12 28 12 l369 0 q17 0 28 -12 q12 -11 12 -28 l0 -256 q-2 -22 -24 -24 q-22 2 -24 24 l0 120 l-353 0 ZM143 128 l353 0 l0 80 l-353 0 l0 -80 ZM360 32 q22 -2 24 -24 q-2 -22 -24 -24 l-81 0 q-10 0 -17 7 q-7 7 -7 17 q0 10 7 17 q7 7 17 7 l81 0 Z" /><glyph glyph-name="uniE00A" unicode="&#xe00a;" d="M323 397 q-3 1 -7 0 l-253 -103 q-14 -7 -15 -22 l0 -312 q-2 -22 -24 -24 q-22 2 -24 24 l0 312 q0 22 12 40 q12 18 33 26 l253 103 q22 9 43 0 l254 -103 q21 -8 33 -26 q12 -18 12 -40 l0 -312 q-2 -22 -24 -24 q-22 2 -24 24 l0 312 q-1 15 -15 22 l-254 103 ZM143 208 l0 -248 q-1 -22 -24 -24 q-10 0 -17 7 q-7 7 -7 17 l0 256 q1 17 12 28 q12 12 28 12 l369 0 q17 0 28 -12 q12 -11 12 -28 l0 -256 q-2 -22 -24 -24 q-22 2 -24 24 l0 248 l-353 0 ZM212 86 l14 49 q5 19 20 30 q14 11 34 11 l80 0 q19 0 34 -11 q14 -11 20 -30 l14 -50 q26 -19 28 -53 l0 -72 q-2 -22 -24 -24 q-22 2 -24 24 l0 8 l-177 0 l0 -8 q-1 -22 -24 -24 q-10 0 -17 7 q-7 7 -7 17 l0 72 q2 34 29 54 ZM265 96 l110 0 l-7 26 q-2 6 -8 6 l-80 0 q-6 0 -8 -6 l-7 -26 ZM392 48 l-145 0 q-14 -1 -16 -16 l0 -16 l177 0 l0 16 q-1 15 -16 16 Z" /><glyph glyph-name="uniE00B" unicode="&#xe00b;" d="M323 397 q-3 1 -7 0 l-253 -103 q-14 -7 -15 -22 l0 -312 q-2 -22 -24 -24 q-22 2 -24 24 l0 312 q0 22 12 40 q12 18 33 26 l253 103 q22 9 43 0 l254 -103 q21 -8 33 -26 q12 -18 12 -40 l0 -312 q-2 -22 -24 -24 q-22 2 -24 24 l0 312 q-1 15 -15 22 l-254 103 ZM143 128 l0 -168 q-1 -22 -24 -24 q-10 0 -17 7 q-7 7 -7 17 l0 256 q1 17 12 28 q12 12 28 12 l369 0 q17 0 28 -12 q12 -11 12 -28 l0 -256 q-2 -22 -24 -24 q-22 2 -24 24 l0 168 l-353 0 ZM496 176 l0 32 l-353 0 l0 -32 l353 0 ZM207 -64 q-10 0 -17 7 l0 0 q-7 7 -7 17 l0 72 q1 27 19 45 q19 18 45 19 l145 0 q27 -1 45 -19 q18 -18 19 -45 l0 -72 q-2 -22 -24 -24 q-22 2 -24 24 l0 8 l-177 0 l0 -8 q-1 -22 -24 -24 ZM247 48 q-14 -1 -16 -16 l0 -16 l177 0 l0 16 q-1 15 -16 16 l-145 0 Z" /><glyph glyph-name="uniE00C" unicode="&#xe00c;" d="M48 292 q1 -58 41 -99 q54 -56 55 -133 l0 -68 q-2 -22 -24 -24 q-22 2 -24 24 l0 68 q-1 58 -41 99 q-54 56 -55 133 l0 36 q2 22 24 24 q22 -2 24 -24 l0 -36 ZM393 193 q54 -56 55 -133 l0 -68 q-2 -22 -24 -24 q-22 2 -24 24 l0 68 q-1 58 -41 99 q-54 56 -55 133 l0 36 q2 22 24 24 q22 -2 24 -24 l0 -36 q1 -58 41 -99 ZM200 292 q1 -58 41 -99 q54 -56 55 -133 l0 -68 q-2 -22 -24 -24 q-22 2 -24 24 l0 68 q-1 58 -41 99 q-54 56 -55 133 l0 100 q2 22 24 24 q22 -2 24 -24 l0 -100 Z" /><glyph glyph-name="uniE00D" unicode="&#xe00d;" d="M208 232 q0 17 12 28 l0 0 q11 12 28 12 l80 0 q17 0 28 -12 q12 -11 12 -28 l0 -80 q0 -17 -12 -28 q-11 -12 -28 -12 l-80 0 q-17 0 -28 12 q-12 11 -12 28 l0 80 ZM320 160 l0 64 l-64 0 l0 -64 l64 0 ZM273 442 q15 12 31 0 l160 -136 l0 86 q2 22 24 25 q22 -3 24 -25 l0 -127 l56 -47 q15 -15 2 -34 q-15 -15 -33 -2 l-25 20 l0 -186 q-1 -34 -23 -57 q-23 -22 -57 -23 l-288 0 q-34 1 -57 23 q-22 23 -23 57 l0 186 l-24 -20 q-19 -13 -34 2 q-13 19 2 34 l265 224 ZM112 243 l0 -227 q0 -14 9 -23 q9 -9 23 -9 l288 0 q14 0 23 9 q9 9 9 23 l0 227 l-176 150 l-176 -150 Z" /><glyph glyph-name="uniE00E" unicode="&#xe00e;" d="M202 388 l55 17 q10 3 16 -4 q7 -7 4 -16 l-16 -55 l31 -18 l-54 -44 q2 9 2 19 q-1 34 -23 57 q-23 22 -57 23 q-34 -1 -57 -23 q-22 -23 -23 -57 q1 -34 23 -56 q23 -23 57 -24 q2 0 3 0 l-38 -31 l-7 11 l-55 -16 q-9 -3 -16 4 q-7 6 -4 16 l17 55 l-52 28 q-8 4 -8 15 q0 8 8 13 l52 28 l-17 55 q-3 9 4 16 q7 7 16 4 l55 -17 l28 52 q5 8 14 8 q9 0 14 -8 l28 -52 ZM208 289 q-1 -21 -14 -34 l0 0 q-14 -14 -34 -14 q-20 0 -34 14 q-13 13 -14 34 q1 20 14 34 q14 13 34 14 q20 -1 34 -15 q13 -13 14 -33 ZM352 137 q0 10 7 17 l0 0 q7 7 17 7 l48 0 q10 0 17 -7 q7 -7 7 -17 l0 -49 q-2 -22 -24 -24 l-48 0 q-22 2 -24 24 l0 49 ZM631 171 q9 -8 9 -19 q0 -8 -5 -15 q-16 -15 -34 -4 l-25 21 l0 -162 q-1 -24 -16 -40 q-16 -15 -40 -16 l-240 0 q-24 1 -40 16 q-15 16 -16 40 l0 162 l-25 -21 q-18 -11 -34 4 q-5 8 -5 17 q0 10 9 17 l216 176 q15 10 30 0 l216 -176 ZM528 193 l-128 105 l-128 -105 l0 -201 q1 -7 8 -8 l240 0 q7 1 8 8 l0 201 Z" /><glyph glyph-name="uniE00F" unicode="&#xe00f;" d="M337 32 l-234 1 q-16 0 -27 11 q-12 11 -12 28 l0 163 l-24 -21 q-18 -13 -34 2 q-13 18 2 34 l216 192 q16 12 32 0 l131 -116 l-6 -2 q-21 -9 -37 -24 l-104 92 l-128 -114 l0 -198 l260 0 l-7 -19 l-2 -3 l-26 -26 ZM239 257 q15 -1 16 -16 l0 -64 q-1 -15 -16 -16 l-64 0 q-15 1 -16 16 l0 64 q1 15 16 16 l64 0 ZM528 352 q-20 0 -34 14 q-13 14 -14 34 q1 20 14 34 q14 13 34 14 q20 -1 34 -14 q13 -14 14 -34 q-1 -20 -14 -34 l0 0 q-14 -14 -34 -14 ZM633 177 q14 -20 -1 -34 q-15 -14 -33 1 l-30 28 q-9 10 -13 23 q-4 11 -7 18 q-5 18 -8 25 q-3 7 -7 12 l-26 -105 l53 -49 q20 -19 26 -45 l20 -85 q3 -22 -18 -29 q-7 -1 -16 3 q-9 3 -13 15 l-19 85 q-3 12 -12 21 l-79 72 q-22 25 -15 54 l20 79 q-13 -4 -36 -14 q-4 -1 -8 -3 q-16 -6 -23 -21 l-14 -30 q-13 -21 -32 -11 q-19 9 -11 31 l14 31 q16 32 48 45 q6 2 11 4 q25 11 44 17 q18 5 41 5 q34 0 61 -19 q27 -19 39 -52 l12 -40 q1 -2 2 -3 l30 -29 ZM422 117 q3 -3 15 -15 q13 -13 21 -21 l-19 -50 q-7 -16 -20 -29 l-58 -59 q-17 -14 -34 0 q-14 17 0 34 l58 59 q6 6 9 13 l28 68 Z" /><glyph glyph-name="uniE010" unicode="&#xe010;" d="M88 360 q1 -37 26 -62 l0 0 q25 -25 62 -26 q5 0 8 0 q7 1 10 -4 q3 -4 0 -9 q-32 -34 -82 -35 q-48 1 -79 33 q-32 31 -33 79 q1 48 33 79 q31 32 79 33 q6 0 11 -1 q6 -1 6 -6 q1 -5 -4 -9 q-35 -26 -37 -72 ZM352 136 q2 22 24 24 l48 0 q22 -2 24 -24 l0 -48 q-2 -22 -24 -24 l-48 0 q-22 2 -24 24 l0 48 ZM631 171 q15 -16 4 -34 q-16 -15 -34 -4 l-25 21 l0 -162 q-1 -24 -16 -40 q-16 -15 -40 -16 l-240 0 q-24 1 -40 16 q-15 16 -16 40 l0 162 l-25 -21 q-18 -11 -34 4 q-12 18 4 34 l216 176 q15 10 30 0 l216 -176 ZM528 193 l-128 105 l-128 -105 l0 -201 q1 -7 8 -8 l240 0 q7 1 8 8 l0 201 ZM249 436 q2 5 7 5 l0 0 q5 0 8 -5 l11 -33 l33 -12 q5 -2 5 -7 q0 -5 -5 -8 l-33 -11 l-11 -33 q-3 -5 -8 -5 q-5 0 -7 5 l-12 33 l-33 11 q-5 3 -5 8 q0 5 5 7 l33 12 l12 33 ZM115 83 l33 -12 q5 -2 5 -7 q0 -5 -5 -8 l-33 -11 l-11 -33 q-3 -5 -8 -5 q-5 0 -7 5 l-12 33 l-33 11 q-5 3 -5 8 q0 5 5 7 l33 12 l12 33 q2 5 7 5 q5 0 8 -5 l11 -33 Z" /><glyph glyph-name="uniE011" unicode="&#xe011;" d="M112 80 l238 0 q-6 -11 -9 -23 l-5 -25 l-232 0 q-17 0 -28 12 q-12 11 -12 28 l0 163 l-24 -21 q-18 -13 -34 2 q-13 18 2 34 l216 192 q16 12 32 0 l133 -118 q-20 -15 -33 -35 l-116 103 l-128 -114 l0 -198 ZM239 257 q15 -1 16 -16 l0 -64 q-1 -15 -16 -16 l-64 0 q-15 1 -16 16 l0 64 q1 15 16 16 l64 0 ZM432 352 q-20 0 -34 14 q-13 14 -14 34 q1 20 14 34 q14 13 34 14 q21 -1 34 -14 q13 -14 14 -34 q-1 -20 -14 -34 l0 0 q-13 -14 -34 -14 ZM525 187 q7 -29 -15 -55 l-79 -72 q-9 -9 -12 -21 l-19 -85 q-4 -11 -13 -15 q-9 -4 -16 -3 q-21 7 -18 29 l20 85 q6 26 25 45 l54 49 l-26 105 q-4 -5 -7 -12 q-3 -6 -8 -24 q-3 -8 -7 -19 q-4 -13 -13 -23 l-30 -28 q-18 -13 -33 1 q-15 14 -1 34 l30 29 q1 1 2 3 l13 39 q11 33 38 52 q27 19 61 19 q23 0 41 -5 q19 -6 44 -17 q5 -2 11 -4 q32 -13 48 -45 l14 -31 q8 -22 -11 -31 q-19 -10 -32 11 l-14 30 q-8 15 -23 21 q-4 2 -8 3 q-23 10 -36 14 l20 -79 ZM632 -22 q15 -18 1 -35 q-17 -14 -34 0 l-59 60 q-13 12 -20 29 l-19 50 q8 8 21 20 q13 13 15 16 l28 -68 q3 -8 9 -13 l58 -59 Z" /><glyph glyph-name="uniE012" unicode="&#xe012;" d="M321 443 q15 10 30 0 l216 -176 q15 -16 4 -34 q-16 -15 -34 -4 l-25 21 l0 -162 q-1 -24 -16 -40 q-16 -15 -40 -16 l-160 0 q-6 25 -16 48 l176 0 q7 1 8 8 l0 201 l-128 104 l-128 -104 l0 -114 q-22 19 -48 33 l0 42 l-25 -21 q-5 -4 -12 -5 q-9 4 -19 6 q-2 2 -3 3 q-12 18 4 34 l216 176 ZM360 256 q22 -2 24 -24 l0 -48 q-2 -22 -24 -24 l-48 0 q-22 2 -24 24 l0 48 q2 22 24 24 l48 0 ZM256 -40 q-2 -22 -24 -24 q-22 2 -24 24 q-2 78 -54 130 q-52 52 -130 54 q-22 2 -24 24 q2 22 24 24 q65 -1 117 -32 q52 -31 83 -83 q31 -52 32 -117 ZM0 -32 q0 14 9 23 l0 0 q9 9 23 9 q14 0 23 -9 q9 -9 9 -23 q0 -14 -9 -23 q-9 -9 -23 -9 q-14 0 -23 9 q-9 9 -9 23 ZM0 72 q2 22 24 24 q58 -1 96 -40 q39 -38 40 -96 q-2 -22 -24 -24 q-22 2 -24 24 q-1 37 -26 62 q-25 25 -62 26 q-22 2 -24 24 Z" /><glyph glyph-name="uniE014" unicode="&#xe014;" d="M470 247 q10 -15 10 -31 q-1 -30 -20 -43 q-18 -13 -36 -13 q-17 0 -31 9 l77 78 ZM512 348 q0 -14 -10 -25 l-186 -185 q-10 -10 -25 -10 q-15 0 -25 10 q-10 10 -10 25 l0 85 l-23 23 l-86 -86 l57 -201 l156 0 q22 -2 24 -24 q-2 -22 -24 -24 l-336 0 q-22 2 -24 24 q2 22 24 24 l131 0 l-58 201 q-1 4 -1 7 q0 10 7 17 l100 99 q-11 22 -11 44 q1 48 40 78 q26 18 56 18 q39 0 68 -29 l36 -35 l85 0 q15 -1 25 -11 l0 0 q10 -10 10 -25 ZM446 336 l-74 0 l-50 49 q-15 14 -34 14 q-11 1 -29 -10 q-17 -10 -19 -38 q0 -19 14 -33 l50 -50 l0 -74 l142 142 Z" /><glyph glyph-name="uniE015" unicode="&#xe015;" d="M381 235 q6 -16 -3 -29 q-9 -13 -26 -14 l-136 0 l0 -208 l80 0 q22 -2 24 -24 q-2 -22 -24 -24 l-208 0 q-22 2 -24 24 q2 22 24 24 l80 0 l0 208 l-136 0 q-17 1 -26 14 q-9 13 -4 29 l71 192 q8 20 30 21 l178 0 q22 -1 29 -21 l71 -192 ZM330 240 l-60 160 l-156 0 l-59 -160 l275 0 Z" /><glyph glyph-name="uniE016" unicode="&#xe016;" d="M320 1 q-1 -28 -20 -46 q-18 -18 -45 -18 q-26 1 -44 19 q-18 18 -19 45 l128 0 ZM0 68 q15 89 78 149 q63 60 154 71 l0 137 q2 22 24 24 q22 -2 24 -24 l0 -137 q91 -10 154 -70 q63 -60 78 -149 q1 -15 -8 -25 q-9 -11 -24 -11 l-448 0 q-15 0 -24 10 l0 0 q-9 11 -8 25 ZM461 80 q-18 71 -74 115 q-56 44 -131 45 q-75 -1 -131 -45 l0 0 q-55 -44 -74 -115 l410 0 Z" /><glyph glyph-name="uniE017" unicode="&#xe017;" d="M320 448 q27 -1 45 -19 q18 -18 19 -45 l0 -384 q-1 -27 -19 -45 q-18 -18 -45 -19 l-256 0 q-27 1 -45 19 q-18 18 -19 45 l0 384 q1 27 19 45 q18 18 45 19 l256 0 ZM336 384 q-1 15 -16 16 l-106 0 q-6 -15 -22 -16 q-16 1 -22 16 l-106 0 q-15 -1 -16 -16 l0 -384 q1 -15 16 -16 l106 0 q6 15 22 16 q16 -1 22 -16 l106 0 q15 1 16 16 l0 384 ZM240 353 q20 -1 34 -14 q13 -14 14 -33 l0 -224 q-1 -21 -14 -34 q-14 -14 -34 -14 l-96 0 q-20 0 -34 14 q-13 13 -14 34 l0 224 q1 19 14 33 q14 13 34 14 l96 0 ZM240 168 l-96 0 l0 -88 l96 0 l0 88 ZM240 304 l-96 0 l0 -88 l96 0 l0 88 Z" /><glyph glyph-name="uniE018" unicode="&#xe018;" d="M320 448 q27 -1 45 -19 q18 -18 19 -45 l0 -384 q-1 -27 -19 -45 q-18 -18 -45 -19 l-256 0 q-27 1 -45 19 q-18 18 -19 45 l0 384 q1 27 19 45 q18 18 45 19 l256 0 ZM336 384 q-1 15 -16 16 l-106 0 q-6 -15 -22 -16 q-16 1 -22 16 l-106 0 q-15 -1 -16 -16 l0 -384 q1 -15 16 -16 l106 0 q6 15 22 16 q16 -1 22 -16 l106 0 q15 1 16 16 l0 384 ZM240 353 q20 -1 34 -14 q13 -14 14 -33 l0 -224 q-1 -21 -14 -34 q-14 -14 -34 -14 l-96 0 q-20 0 -34 14 q-13 13 -14 34 l0 224 q1 19 14 33 q14 13 34 14 l96 0 ZM240 304 l-96 0 l0 -112 l96 0 l0 112 Z" /><glyph glyph-name="uniE019" unicode="&#xe019;" d="M320 448 q27 -1 45 -19 q18 -18 19 -45 l0 -384 q-1 -27 -19 -45 q-18 -18 -45 -19 l-256 0 q-27 1 -45 19 q-18 18 -19 45 l0 384 q1 27 19 45 q18 18 45 19 l256 0 ZM336 384 q-1 15 -16 16 l-106 0 q-6 -15 -22 -16 q-16 1 -22 16 l-106 0 q-15 -1 -16 -16 l0 -384 q1 -15 16 -16 l106 0 q6 15 22 16 q16 -1 22 -16 l106 0 q15 1 16 16 l0 384 ZM240 353 q20 -1 34 -15 q13 -13 14 -33 l0 -223 q-1 -21 -14 -34 q-14 -14 -34 -14 l-96 0 q-20 0 -34 14 q-13 13 -14 34 l0 223 q1 20 14 34 q14 13 34 14 l96 0 ZM240 176 l-96 0 l0 -96 l96 0 l0 96 Z" /><glyph glyph-name="uniE01B" unicode="&#xe01b;" d="M432 312 q2 22 24 24 q22 -2 24 -24 l0 -208 q-2 -22 -24 -24 q-22 2 -24 24 l0 208 ZM360 320 q22 -2 24 -24 l0 -176 q-2 -22 -24 -24 l-240 0 q-22 2 -24 24 l0 176 q2 22 24 24 l240 0 ZM512 416 q27 -1 45 -19 l0 0 q18 -18 19 -45 l0 -288 q-1 -27 -19 -45 q-18 -18 -45 -19 l0 -8 q-2 -22 -24 -24 q-22 2 -24 24 l0 8 l-352 0 l0 -8 q-2 -22 -24 -24 q-22 2 -24 24 l0 8 q-27 1 -45 19 q-18 18 -19 45 l0 288 q1 27 19 45 q18 18 45 19 l448 0 ZM512 368 l-448 0 q-15 -1 -16 -16 l0 -288 q1 -15 16 -16 l448 0 q15 1 16 16 l0 288 q-1 15 -16 16 Z" /><glyph glyph-name="uniE01C" unicode="&#xe01c;" d="M384 417 q27 -1 45 -19 q18 -18 19 -44 l0 -320 q-1 -27 -19 -45 q-18 -19 -45 -19 l-320 0 q-27 0 -45 19 q-18 18 -19 45 l0 320 q1 26 19 44 q18 18 45 19 l320 0 ZM400 352 q-1 15 -16 16 l-320 0 q-15 -1 -16 -16 l0 -320 q1 -15 16 -16 l320 0 q15 1 16 16 l0 320 ZM309 304 q8 0 13 -5 q44 -42 46 -107 q-2 -64 -46 -107 q-5 -5 -13 -5 l-170 0 q-8 0 -13 5 q-44 42 -46 107 q2 65 46 107 q5 5 13 5 l170 0 ZM176 240 q-1 15 -16 16 q-15 -1 -16 -16 l0 -48 q1 -15 16 -16 q15 1 16 16 l0 48 ZM248 136 q-2 22 -24 24 q-22 -2 -24 -24 l0 -24 l48 0 l0 24 ZM304 240 q-1 15 -16 16 q-15 -1 -16 -16 l0 -48 q1 -15 16 -16 q15 1 16 16 l0 48 Z" /><glyph glyph-name="uniE01D" unicode="&#xe01d;" d="M112 16 q-14 0 -23 9 q-9 9 -9 23 l0 128 q0 14 9 23 q9 9 23 9 l224 0 q14 0 23 -9 q9 -9 9 -23 l0 -128 q0 -14 -9 -23 q-9 -9 -23 -9 l-224 0 ZM160 168 q-15 -1 -16 -16 q1 -15 16 -16 l128 0 q15 1 16 16 q-1 15 -16 16 l-128 0 ZM104 368 q22 -2 24 -24 q-2 -22 -24 -24 q-22 2 -24 24 q2 22 24 24 ZM352 448 q41 -1 68 -28 q27 -27 28 -68 l0 -352 q-1 -27 -19 -45 q-18 -18 -45 -19 l-320 0 q-27 1 -45 19 q-18 18 -19 45 l0 352 q1 41 28 68 q27 27 68 28 l256 0 ZM400 240 l-352 0 l0 -240 q1 -15 16 -16 l320 0 q15 1 16 16 l0 240 ZM400 352 q-1 20 -14 34 q-14 13 -34 14 l-256 0 q-20 -1 -34 -14 q-13 -14 -14 -34 l0 -64 l352 0 l0 64 ZM344 368 q22 -2 24 -24 q-2 -22 -24 -24 q-22 2 -24 24 q2 22 24 24 ZM184 368 q22 -2 24 -24 q-2 -22 -24 -24 q-22 2 -24 24 q2 22 24 24 ZM264 368 q22 -2 24 -24 q-2 -22 -24 -24 q-22 2 -24 24 q2 22 24 24 Z" /><glyph glyph-name="uniE01F" unicode="&#xe01f;" d="M512 448 q27 -1 45 -19 q18 -18 19 -45 q-1 -27 -19 -44 q-18 -18 -45 -19 q-27 1 -45 18 q-18 18 -19 45 q1 27 19 45 l0 0 q18 18 45 19 ZM224 384 q63 -1 113 -31 q51 -29 80 -80 q30 -50 31 -113 q-1 -63 -31 -113 q-29 -51 -80 -80 q-50 -30 -113 -31 q-63 1 -113 31 q-51 29 -80 80 q-30 50 -31 113 q1 63 31 113 l0 0 q29 51 80 80 l0 0 q50 30 113 31 ZM224 -16 q75 2 124 52 q50 49 52 124 q-1 66 -42 113 q-40 48 -103 60 q-2 -16 -10 -29 l-49 -58 q-9 -9 -8 -22 q0 -12 9 -21 q11 -11 27 -11 l64 0 q14 0 23 -9 q9 -9 9 -23 l0 -17 q0 -15 -7 -29 l-40 -80 q-7 -13 -21 -16 q-5 -1 -10 -1 q-7 -1 -13 4 q-5 5 -5 12 l0 63 q-14 0 -23 9 q-9 9 -9 23 l0 32 l-55 55 q-9 9 -22 9 l-25 0 q-15 0 -24 13 q-18 -37 -18 -77 q2 -75 52 -124 l0 0 q49 -50 124 -52 Z" /><glyph glyph-name="uniE020" unicode="&#xe020;&#x1fa90;" d="M503 439 q17 -19 2 -63 q-15 -44 -57 -104 q16 -38 16 -80 q-2 -88 -60 -146 q-59 -59 -147 -61 q-42 0 -80 16 q-60 -42 -104 -57 q-45 -15 -63 2 q-17 18 -2 63 q15 44 57 104 q-16 38 -16 80 q2 88 60 146 q59 59 147 61 q41 0 80 -16 q60 42 104 57 l0 0 q44 15 63 -2 ZM64 0 q14 -11 67 26 q-23 18 -41 41 q-37 -53 -26 -67 ZM173 56 q53 42 115 104 q62 62 104 115 q-22 35 -57 56 q-35 20 -79 21 q-68 -2 -113 -47 q-45 -45 -47 -113 q0 -44 21 -79 l0 0 q21 -35 56 -57 ZM256 32 q68 2 113 47 q45 45 47 113 q0 16 -3 32 q-42 -52 -90 -99 q-47 -48 -99 -90 q16 -3 32 -3 ZM381 358 q23 -18 41 -41 q37 53 26 67 q-14 11 -67 -26 Z" /><glyph glyph-name="uniE021" unicode="&#xe021;" d="M104 304 q1 7 8 8 l24 0 l0 -32 l-32 0 l0 24 ZM104 264 l32 0 l0 -32 l-24 0 q-7 1 -8 8 l0 24 ZM184 304 l0 -24 l-32 0 l0 32 l24 0 q7 -1 8 -8 ZM152 264 l32 0 l0 -24 q-1 -7 -8 -8 l-24 0 l0 32 ZM232 312 l0 -32 l-32 0 l0 24 q1 7 8 8 l24 0 ZM232 232 l-24 0 q-7 1 -8 8 l0 24 l32 0 l0 -32 ZM248 312 l24 0 q7 -1 8 -8 l0 -24 l-32 0 l0 32 ZM280 240 q-1 -7 -8 -8 l-24 0 l0 32 l32 0 l0 -24 ZM104 200 q1 15 16 16 l48 0 q15 -1 16 -16 l0 -48 q-1 -15 -16 -16 l-48 0 q-15 1 -16 16 l0 48 ZM192 448 q15 -1 16 -16 l0 -16 l80 0 q14 0 23 -9 q9 -9 9 -23 q14 0 23 -9 q9 -9 9 -23 l0 -368 l8 0 q22 -2 24 -24 q-2 -22 -24 -24 l-336 0 q-22 2 -24 24 q2 22 24 24 l8 0 l0 368 q0 14 9 23 q9 9 23 9 q0 14 9 23 q9 9 23 9 l80 0 l0 16 q1 15 16 16 ZM80 -16 l224 0 l0 352 l-224 0 l0 -352 Z" /><glyph glyph-name="uniE022" unicode="&#xe022;" d="M416 448 q39 -1 60 -40 q21 -39 29 -98 q7 -58 7 -118 q-1 -105 -15 -160 q-15 -56 -37 -77 q-22 -20 -44 -19 q-48 3 -69 59 q-21 57 -25 133 l48 0 q5 -64 18 -103 q12 -40 28 -41 q20 2 34 61 q13 59 14 147 q-1 88 -14 147 q-14 59 -34 61 q-19 -2 -33 -56 q-14 -54 -15 -136 l24 0 q22 -2 24 -24 q-2 -22 -24 -24 l-48 0 q-19 0 -34 11 q-14 10 -20 28 l-14 46 q-2 7 -6 12 l-42 -105 l52 -31 q16 -10 23 -27 q7 -17 1 -36 l-33 -105 q-6 -16 -23 -17 q-3 0 -7 1 q-9 3 -14 11 q-5 9 -2 19 l33 104 q1 1 1 2 q-1 5 -4 7 l-84 51 q-18 11 -24 30 q-7 19 1 39 l35 87 l-15 3 q-18 4 -33 -7 l-48 -37 q-19 -12 -34 4 q-12 19 4 33 l49 38 q33 24 73 16 l78 -18 q49 -12 65 -60 q9 113 36 152 l0 0 q28 40 58 37 ZM272 352 q-20 1 -34 14 q-13 14 -14 34 q1 20 14 34 q14 13 34 14 q20 -1 34 -15 q13 -14 14 -34 q-1 -20 -14 -33 l0 0 q-14 -13 -34 -14 ZM126 131 q11 -17 29 -28 l9 -6 l-13 -32 q-16 -31 -52 -33 l-75 0 q-22 2 -24 24 q2 22 24 24 l75 0 q5 0 7 5 l20 46 Z" /><glyph glyph-name="uniE023" unicode="&#xe023;" d="M368 352 q-20 1 -34 14 q-13 14 -14 34 q1 20 14 34 q14 13 34 14 q20 -1 34 -15 q13 -14 14 -34 q-1 -20 -14 -33 l0 0 q-14 -13 -34 -14 ZM488 208 q22 -2 24 -24 q-2 -22 -24 -24 l-48 0 q-19 0 -34 11 q-14 11 -20 29 l-14 45 q-2 7 -6 12 l-42 -105 l52 -31 q16 -10 23 -27 q7 -17 1 -36 l-33 -105 q-6 -16 -23 -17 q-3 0 -7 1 q-9 3 -14 11 q-5 9 -2 19 l33 104 q1 1 1 2 q-1 5 -4 7 l-84 51 q-18 11 -24 30 q-7 19 1 39 l35 87 l-15 3 q-18 4 -33 -7 l-41 -32 q2 -30 2 -59 q0 -66 -6 -112 l9 0 q5 0 7 5 l20 46 q11 -17 28 -28 l10 -6 l-13 -32 q-16 -31 -52 -33 l-75 0 q-22 2 -24 24 q2 22 24 24 l16 0 q8 49 8 112 q-1 88 -14 147 q-14 59 -34 61 q-20 -2 -34 -61 q-13 -59 -14 -147 q1 -88 14 -147 q14 -59 34 -61 q10 0 19 16 l52 0 q-15 -37 -33 -51 q-19 -14 -38 -13 q-39 1 -60 40 q-21 39 -29 98 q-7 59 -7 119 q1 104 15 160 q15 55 37 76 q22 20 44 19 q40 -2 61 -41 q20 -40 28 -99 l17 13 q33 24 73 16 l78 -18 q49 -12 65 -60 l14 -45 q2 -6 8 -6 l48 0 Z" /><glyph glyph-name="uniE024" unicode="&#xe024;" d="M316 286 q-27 18 -60 18 q-48 -1 -79 -33 q-32 -31 -33 -79 q1 -48 33 -79 q31 -32 79 -33 q48 1 79 33 q32 31 33 79 l48 0 q-1 -60 -37 -103 q-36 -43 -93 -54 q-12 12 -30 13 q-18 -1 -30 -13 q-49 10 -83 44 q-34 34 -44 83 q12 12 13 30 q-1 18 -13 30 q11 57 54 93 q43 36 103 37 q54 -1 95 -31 l34 34 q-54 44 -129 45 q-79 -2 -135 -50 q-56 -48 -70 -124 q-18 -12 -19 -34 q1 -22 19 -34 q12 -67 58 -113 q46 -46 113 -58 q12 -18 34 -19 q22 1 34 19 q76 13 124 70 q48 56 50 135 l48 0 q-1 -72 -35 -129 q-34 -58 -92 -92 q-57 -34 -129 -35 q-72 1 -129 35 q-58 34 -92 92 q-34 57 -35 129 q1 72 35 129 q34 58 92 92 q57 34 129 35 q95 -2 163 -59 l44 44 q17 14 33 0 q15 -17 0 -34 l-181 -182 q5 -12 5 -25 q-1 -27 -19 -45 q-18 -18 -45 -19 q-27 1 -45 19 q-18 18 -19 45 q1 27 19 45 q18 18 45 19 q14 0 24 -5 l36 35 Z" /><glyph glyph-name="uniE025" unicode="&#xe025;" d="M112 297 q10 0 17 -7 q7 -7 7 -17 q-2 -22 -24 -24 q-22 2 -24 24 q2 22 24 24 ZM208 297 q10 0 17 -7 q7 -7 7 -17 q-2 -22 -24 -24 q-22 2 -24 24 q2 22 24 24 ZM311 416 q23 -2 25 -24 l0 -240 q-2 -22 -24 -24 q-22 2 -24 24 l0 20 q-2 -1 -3 -2 q-2 -1 -4 -2 l-120 -208 q-10 -17 -29 -22 q-19 -5 -37 4 l-55 32 q-17 10 -22 30 q-5 18 4 37 l71 122 q-41 7 -66 37 q-26 30 -27 72 q0 34 18 60 q17 27 46 41 l0 59 q0 9 8 14 q7 4 15 0 l105 -62 l48 0 q25 0 48 -11 l0 19 q2 22 23 24 ZM221 160 l-74 0 l-83 -144 l55 -32 l102 176 ZM288 314 q-19 21 -48 22 l-128 0 q-27 -1 -45 -19 q-18 -18 -19 -45 q1 -27 19 -45 q18 -18 45 -19 l128 0 q29 1 48 22 l0 84 ZM555 330 q8 1 14 -3 q7 -5 7 -13 l0 -84 q0 -8 -7 -12 q-6 -4 -14 -2 l-75 25 l-64 0 l0 -57 q-2 -22 -24 -24 q-22 2 -24 24 l0 176 q2 22 24 24 q22 -2 24 -24 l0 -55 l64 0 l75 25 Z" /><glyph glyph-name="uniE026" unicode="&#xe026;" d="M288 448 q41 -1 68 -28 q27 -27 28 -68 l0 -352 q-1 -27 -19 -45 q-18 -18 -45 -19 l-256 0 q-27 1 -45 19 q-18 18 -19 45 l0 352 q1 41 28 68 q27 27 68 28 l192 0 ZM336 240 l-48 0 l0 -136 q-2 -22 -24 -24 q-22 2 -24 24 l0 136 l-192 0 l0 -240 q1 -15 16 -16 l256 0 q15 1 16 16 l0 240 ZM336 352 q-1 20 -14 34 q-14 13 -34 14 l-192 0 q-20 -1 -34 -14 q-13 -14 -14 -34 l0 -64 l192 0 l0 40 q2 22 24 24 q22 -2 24 -24 l0 -40 l48 0 l0 64 Z" /><glyph glyph-name="uniE027" unicode="&#xe027;&#x1f680;" d="M408 305 q0 -18 -12 -29 l0 0 q-11 -11 -28 -11 q-17 0 -28 11 q-12 11 -12 29 q0 16 12 28 q11 11 28 12 q17 -1 28 -12 q12 -12 12 -28 ZM384 136 l0 -82 q-1 -41 -35 -62 l-89 -53 q-12 -6 -24 0 q-12 7 -12 21 l0 115 q0 35 -25 61 q-25 24 -60 24 l-115 0 q-14 0 -21 12 q-6 12 0 24 l53 89 q21 34 62 36 l82 0 q42 64 93 93 q52 28 102 32 q50 5 89 -3 q18 -5 23 -23 q8 -39 3 -89 q-4 -50 -33 -102 q-28 -51 -93 -93 ZM198 194 q20 -9 34 -25 q17 -16 26 -35 q79 23 121 57 q43 33 61 69 q18 35 22 71 q4 36 0 67 q-31 4 -67 0 q-36 -4 -72 -22 q-35 -18 -68 -61 q-34 -42 -57 -121 ZM42 102 q27 26 62 26 l0 0 q35 0 63 -26 q25 -27 25 -62 q0 -35 -25 -62 q-27 -24 -66 -33 q-38 -8 -68 -9 q-31 0 -33 0 q0 2 0 33 q1 30 9 69 q9 38 33 64 ZM65 1 q1 -1 21 0 l0 0 q20 2 34 13 q8 9 8 21 q0 12 -8 21 q-9 8 -21 8 q-12 0 -21 -8 q-11 -14 -13 -34 q-1 -19 0 -21 q0 0 0 0 Z" /><glyph glyph-name="uniE028" unicode="&#xe028;" d="M200 320 q22 -2 24 -24 l0 -112 q-2 -22 -24 -24 q-22 2 -24 24 l0 112 q2 22 24 24 ZM120 320 q22 -2 24 -24 l0 -112 q-2 -22 -24 -24 q-22 2 -24 24 l0 112 q2 22 24 24 ZM384 416 q27 -1 45 -19 q18 -18 19 -45 l0 -320 q-1 -27 -19 -45 q-18 -18 -45 -19 l-320 0 q-27 1 -45 19 q-18 18 -19 45 l0 320 q1 27 19 45 q18 18 45 19 l320 0 ZM400 352 q-1 15 -16 16 l-320 0 q-15 -1 -16 -16 l0 -320 q1 -15 16 -16 l320 0 q15 1 16 16 l0 320 Z" /><glyph glyph-name="uniE029" unicode="&#xe029;" d="M224 16 q1 -21 10 -39 q3 -3 6 -7 q1 -1 2 -2 l-179 0 q-26 1 -44 19 q-18 18 -19 45 l0 320 q1 27 19 45 q18 18 44 19 l321 0 q27 -1 44 -19 q18 -18 19 -45 l1 -6 q-27 0 -48 -16 l0 22 q-1 15 -16 16 l-320 0 q-15 -1 -16 -16 l0 -320 q1 -15 16 -16 l160 0 ZM175 296 q2 22 24 24 q22 -2 24 -24 l0 -112 q-2 -22 -24 -24 q-22 2 -24 24 l0 112 ZM96 296 q2 22 24 24 q22 -2 24 -24 l0 -112 q-2 -22 -24 -24 q-22 2 -24 24 l0 112 ZM633 45 q14 -28 0 -51 q-14 -24 -44 -26 l-282 0 q-30 2 -44 26 q-14 24 0 51 l141 244 q16 25 44 25 q28 0 44 -25 l141 -244 ZM447 16 q22 2 23 24 q-2 22 -23 24 q-10 0 -17 -7 q-7 -7 -7 -17 q2 -22 24 -24 ZM472 192 q-2 22 -24 24 q-22 -2 -24 -24 l0 -80 q2 -22 24 -24 q22 2 24 24 l0 80 Z" /><glyph glyph-name="uniE02A" unicode="&#xe02a;" d="M326 16 q20 -28 49 -48 l-311 0 q-27 1 -45 19 q-18 18 -19 45 l0 320 q1 27 19 45 q18 18 45 19 l320 0 q39 -2 57 -36 l-23 -23 q0 0 -1 -1 q-9 -8 -17 -17 l0 13 q-1 15 -16 16 l-320 0 q-15 -1 -16 -16 l0 -320 q1 -15 16 -16 l262 0 ZM176 296 q2 22 24 24 q22 -2 24 -24 l0 -112 q-2 -22 -24 -24 q-22 2 -24 24 l0 112 ZM96 296 q2 22 24 24 q22 -2 24 -24 l0 -112 q-2 -22 -24 -24 q-22 2 -24 24 l0 112 ZM551 297 q40 -38 64 -86 q24 -48 25 -78 q-2 -70 -47 -117 q-45 -46 -113 -48 q-68 2 -113 48 q-45 47 -47 117 q1 40 34 95 q32 55 86 106 q39 -37 71 -80 q19 23 40 43 ZM530 47 q23 17 28 44 q6 27 -7 52 q-3 6 -7 12 l-37 -41 q-1 1 -15 19 q-14 18 -29 36 q-14 19 -17 23 q-23 -27 -35 -45 q-11 -19 -11 -37 q1 -36 24 -57 q23 -21 58 -21 q26 0 48 15 Z" /><glyph glyph-name="uniE02B" unicode="&#xe02b;" d="M616 216 q22 -2 24 -24 q-2 -22 -24 -24 l-80 0 q-22 2 -24 24 q2 22 24 24 l80 0 ZM536 304 q-17 1 -23 17 q-4 17 10 27 l48 32 q11 8 24 2 q12 -7 14 -20 q0 -14 -12 -22 l-48 -32 q-6 -4 -13 -4 ZM597 44 q18 -14 7 -33 q-14 -18 -33 -7 l-48 32 q-17 14 -7 33 q14 17 33 7 l48 -32 ZM120 320 q22 -2 24 -24 l0 -112 q-2 -22 -24 -24 q-22 2 -24 24 l0 112 q2 22 24 24 ZM200 320 q22 -2 24 -24 l0 -112 q-2 -22 -24 -24 q-22 2 -24 24 l0 112 q2 22 24 24 ZM384 416 q27 -1 45 -19 q18 -18 19 -45 l0 -320 q-1 -27 -19 -45 q-18 -18 -45 -19 l-320 0 q-27 1 -45 19 q-18 18 -19 45 l0 320 q1 27 19 45 q18 18 45 19 l320 0 ZM400 352 q-1 15 -16 16 l-320 0 q-15 -1 -16 -16 l0 -320 q1 -15 16 -16 l320 0 q15 1 16 16 l0 320 Z" /><glyph glyph-name="uniE02C" unicode="&#xe02c;" d="M573 127 q31 -6 50 -30 q18 -23 16 -55 q-3 -32 -26 -53 q-22 -20 -54 -21 l-223 0 q-33 1 -56 23 q-22 23 -23 57 q1 34 23 57 q22 22 56 23 q1 0 2 0 q-6 31 9 57 q16 26 46 36 q31 7 58 -5 q27 -13 39 -43 q12 15 29 18 q17 4 33 -5 q15 -9 21 -26 l0 0 q6 -16 0 -33 ZM175 297 q0 10 7 17 q7 7 16 7 q21 -2 23 -24 l0 -112 q-2 -22 -23 -24 q-21 2 -23 24 l0 112 ZM227 17 q8 -28 28 -48 l-194 0 q-26 1 -44 19 q-18 18 -19 45 l0 320 q1 27 18 45 q18 18 45 19 l319 0 q27 -1 45 -19 q18 -18 19 -45 l0 -101 q-15 5 -32 5 q-7 0 -15 -2 l0 98 q-1 15 -15 16 l-319 0 q-13 -1 -15 -16 l0 -320 q1 -15 15 -16 l164 0 ZM95 297 q0 10 7 17 q7 7 16 7 q21 -2 23 -24 l0 -112 q-2 -22 -23 -24 q-21 2 -23 24 l0 112 Z" /><glyph glyph-name="uniE02D" unicode="&#xe02d;" d="M188 272 q21 -6 20 -28 l-16 -96 q-5 -19 -24 -20 q-2 0 -4 0 q-22 6 -20 28 l16 96 q6 22 28 20 ZM401 112 q20 -1 33 -14 q14 -14 14 -34 l0 -48 q-1 -20 -14 -34 q-14 -13 -34 -14 l-352 0 q-20 1 -34 14 q-13 14 -14 34 l0 48 q0 20 13 34 q13 13 34 14 l37 194 q4 21 19 33 q15 13 36 13 l170 0 q21 0 36 -13 q15 -12 20 -33 l36 -194 ZM96 112 l256 0 l-35 185 q-1 7 -7 7 l-171 0 q-7 0 -8 -7 l-35 -185 ZM400 64 l-352 0 l0 -48 l352 0 l0 48 Z" /><glyph glyph-name="uniE02E" unicode="&#xe02e;" d="M112 224 q-2 -22 -24 -24 l-64 0 q-22 2 -24 24 q2 22 24 24 l64 0 q22 -2 24 -24 ZM43 372 q-12 8 -11 22 q1 13 13 20 q13 6 24 -2 l48 -32 q12 -8 12 -22 q-2 -14 -14 -20 q-13 -6 -24 2 l-48 32 ZM536 336 q-17 1 -23 17 q-4 17 10 27 l48 32 q11 7 24 2 q12 -7 13 -20 q1 -14 -11 -22 l-48 -32 q-6 -4 -13 -4 ZM616 248 q22 -2 24 -24 q-2 -22 -24 -24 l-64 0 q-22 2 -24 24 q2 22 24 24 l64 0 ZM497 112 q20 -1 33 -14 q14 -14 14 -34 l0 -48 q-1 -20 -14 -34 q-14 -13 -34 -14 l-352 0 q-20 1 -34 14 q-13 14 -14 34 l0 48 q0 20 13 34 q13 13 34 14 l37 194 q4 21 19 33 q15 13 36 13 l170 0 q21 0 36 -13 q15 -12 20 -33 l36 -194 ZM192 112 l256 0 l-35 185 q-1 7 -7 7 l-171 0 q-7 0 -8 -7 l-35 -185 ZM496 64 l-352 0 l0 -48 l352 0 l0 48 ZM284 272 q21 -6 20 -28 l-16 -96 q-5 -19 -24 -20 q-2 0 -4 0 q-22 6 -20 28 l16 96 q6 22 28 20 Z" /><glyph glyph-name="uniE02F" unicode="&#xe02f;" d="M255 256 q-27 -1 -45 -19 l0 0 q-17 -18 -18 -44 q1 -27 19 -45 q18 -18 45 -19 q27 1 45 18 q18 18 19 45 q-1 27 -19 45 q-18 18 -46 19 ZM256 176 q-15 1 -16 16 q1 15 16 16 q15 -1 16 -16 q-1 -15 -16 -16 ZM470 53 q9 -18 4 -37 l0 0 q-4 -19 -19 -31 q-16 -12 -35 -12 q-19 0 -35 12 q-16 13 -20 31 q-4 19 4 37 q10 18 27 26 q17 9 37 4 q37 62 30 133 q-8 70 -60 124 q-46 45 -107 57 q-61 12 -121 -13 q-6 19 -21 34 q-2 2 -4 4 q-1 1 -2 2 q75 33 152 20 q78 -13 137 -71 q65 -68 74 -156 q8 -88 -41 -164 ZM358 -34 q2 -2 4 -4 l0 0 q1 -1 2 -2 q-75 -33 -152 -20 q-78 14 -137 71 q-65 68 -74 156 q-8 88 41 165 q-9 18 -4 37 q4 18 19 31 q16 12 35 12 q19 0 35 -12 q16 -13 20 -32 q4 -18 -4 -36 q-9 -18 -27 -26 q-17 -8 -37 -3 q-37 -63 -30 -133 q8 -70 60 -124 q46 -45 107 -57 q61 -12 121 12 q6 -21 21 -35 ZM392 328 q-13 12 -30 13 l0 0 q-16 1 -31 -9 q-36 20 -75 20 q-55 -1 -97 -33 q-42 -32 -57 -86 q-14 -53 6 -102 q20 -49 68 -77 q49 -27 101 -20 q52 7 92 46 q38 39 45 90 q7 51 -17 98 q9 14 8 30 q-1 17 -13 30 ZM335 113 q-32 -31 -74 -34 l0 0 q-43 -2 -78 26 q-34 29 -39 71 q-6 42 19 79 q26 36 67 46 q41 9 81 -12 q1 -16 13 -29 q13 -12 29 -13 q18 -33 14 -70 q-5 -36 -32 -64 Z" /><glyph glyph-name="uniE030" unicode="&#xe030;" d="M348 176 q12 -1 17 -11 q4 -11 -4 -20 l-92 -92 q-5 -5 -13 -5 q-8 0 -13 5 l-92 92 q-8 9 -4 20 q5 10 18 11 l183 0 ZM361 239 q8 -9 4 -20 q-5 -10 -17 -11 l-183 0 q-13 1 -18 11 q-4 11 4 20 l92 92 q5 5 13 5 q8 0 13 -5 l92 -92 ZM256 448 q72 -1 129 -35 q58 -34 92 -92 q34 -57 35 -129 q-1 -72 -35 -129 q-34 -58 -92 -92 q-57 -34 -129 -35 q-72 1 -129 35 q-58 34 -92 92 q-34 57 -35 129 q1 72 35 129 l0 0 q34 58 92 92 l0 0 q57 34 129 35 ZM256 -16 q88 2 147 61 q59 59 61 147 q-2 88 -61 147 q-59 59 -147 61 q-88 -2 -147 -61 q-59 -59 -61 -147 q2 -88 61 -147 l0 0 q59 -59 147 -61 Z" /><glyph glyph-name="uniE031" unicode="&#xe031;" d="M361 239 q8 -9 4 -20 q-5 -10 -17 -11 l-183 0 q-13 1 -18 11 q-4 11 4 20 l92 92 q5 5 13 5 q8 0 13 -5 l92 -92 ZM315 240 l-59 58 l-59 -58 l118 0 ZM348 176 q12 -1 17 -11 q4 -11 -4 -20 l-92 -92 q-5 -5 -13 -5 q-8 0 -13 5 l-92 92 q-8 9 -4 20 q5 10 18 11 l183 0 ZM256 448 q72 -1 129 -35 q58 -34 92 -92 q34 -57 35 -129 q-1 -72 -35 -129 q-34 -58 -92 -92 q-57 -34 -129 -35 q-72 1 -129 35 q-58 34 -92 92 q-34 57 -35 129 q1 72 35 129 l0 0 q34 58 92 92 l0 0 q57 34 129 35 ZM256 -16 q88 2 147 61 q59 59 61 147 q-2 88 -61 147 q-59 59 -147 61 q-88 -2 -147 -61 q-59 -59 -61 -147 q2 -88 61 -147 l0 0 q59 -59 147 -61 Z" /><glyph glyph-name="uniE032" unicode="&#xe032;" d="M361 239 q8 -9 4 -20 q-5 -10 -17 -11 l-183 0 q-13 1 -18 11 q-4 11 4 20 l92 92 q5 5 13 5 q8 0 13 -5 l92 -92 ZM348 176 q12 -1 17 -11 q4 -11 -4 -20 l-92 -92 q-5 -5 -13 -5 q-8 0 -13 5 l-92 92 q-8 9 -4 20 q5 10 18 11 l183 0 ZM315 144 l-118 0 l59 -59 l59 59 ZM256 448 q72 -1 129 -35 q58 -34 92 -92 q34 -57 35 -129 q-1 -72 -35 -129 q-34 -58 -92 -92 q-57 -34 -129 -35 q-72 1 -129 35 q-58 34 -92 92 q-34 57 -35 129 q1 72 35 129 l0 0 q34 58 92 92 l0 0 q57 34 129 35 ZM256 -16 q88 2 147 61 q59 59 61 147 q-2 88 -61 147 q-59 59 -147 61 q-88 -2 -147 -61 q-59 -59 -61 -147 q2 -88 61 -147 l0 0 q59 -59 147 -61 Z" /><glyph glyph-name="uniE033" unicode="&#xe033;" d="M0 192 q1 72 35 129 l0 0 q34 58 92 92 l0 0 q57 34 129 35 q72 -1 129 -35 q58 -34 92 -92 q34 -57 35 -129 q-1 -72 -35 -129 q-34 -58 -92 -92 q-57 -34 -129 -35 q-72 1 -129 35 q-58 34 -92 92 q-34 57 -35 129 ZM256 400 q-25 0 -48 -6 q29 -10 46 -34 q18 -24 18 -56 q-1 -41 -28 -68 q-27 -27 -68 -28 q-41 1 -68 28 q-27 27 -28 67 q-31 -49 -32 -111 q0 -19 3 -37 q1 -1 2 -1 q0 0 0 0 q25 -10 74 -22 q48 -11 129 -12 q81 1 129 12 q49 12 74 22 q1 0 1 0 q0 1 1 1 q3 18 3 37 q-2 88 -61 147 q-59 59 -147 61 ZM441 97 q-29 -9 -74 -17 l0 0 q-46 -8 -111 -8 q-65 0 -111 8 q-45 8 -74 17 q26 -51 75 -82 q49 -30 110 -31 q61 1 110 31 q49 31 75 82 ZM176 256 q20 1 34 14 l0 0 q13 14 14 34 q-1 20 -14 34 q-14 13 -34 14 q-20 -1 -34 -14 q-13 -14 -14 -34 q1 -20 14 -34 q14 -13 34 -14 Z" /><glyph glyph-name="uniE034" unicode="&#xe034;" d="M272 304 q-1 -41 -28 -68 l0 0 q-27 -27 -69 -28 q-40 1 -67 28 q-27 27 -28 67 q-32 -49 -33 -111 q1 -19 4 -37 l2 -1 q25 -10 74 -22 q48 -11 128 -12 q81 1 130 12 q49 12 74 22 l0 0 q5 18 5 37 l0 1 q2 22 24 24 q22 -2 24 -24 l0 -1 q0 -30 -8 -59 l-1 -3 q-4 -12 -15 -16 q-6 -2 -13 -4 q-26 -11 -79 -23 q-53 -13 -141 -14 q-64 0 -110 8 q-45 8 -74 17 q26 -51 75 -82 q48 -30 109 -31 q51 0 93 21 q42 21 71 58 q15 16 34 4 q15 -15 4 -34 q-36 -45 -88 -71 q-51 -25 -113 -26 q-72 1 -129 35 q-58 34 -92 92 q-34 57 -35 129 q1 72 35 129 q34 58 92 92 q57 34 129 35 q68 -1 123 -31 q55 -31 91 -84 q7 -12 1 -24 q-7 -12 -21 -13 l-82 0 q-22 2 -24 24 q2 22 24 24 l29 0 q-57 54 -141 56 q-25 0 -48 -6 q29 -10 46 -34 q18 -24 18 -56 ZM175 352 q-20 -1 -33 -14 l0 0 q-14 -14 -15 -34 q1 -20 15 -34 q13 -13 33 -14 q21 1 34 14 q14 14 14 34 q0 20 -14 34 q-13 13 -34 14 ZM424 264 q22 -2 24 -24 q-2 -22 -24 -24 l-48 0 q-22 2 -24 24 q2 22 24 24 l48 0 Z" /><glyph glyph-name="uniE035" unicode="&#xe035;" d="M24 344 q22 -2 24 -24 q-2 -22 -24 -24 q-22 2 -24 24 q2 22 24 24 ZM24 240 q22 -2 24 -24 q-2 -22 -24 -24 q-22 2 -24 24 q2 22 24 24 ZM88 352 q-22 2 -24 24 q2 22 24 24 q22 -2 24 -24 q-2 -22 -24 -24 ZM360 296 q-22 2 -24 24 q2 22 24 24 q22 -2 24 -24 q-2 -22 -24 -24 ZM24 448 q22 -2 24 -24 q-2 -22 -24 -24 q-22 2 -24 24 q2 22 24 24 ZM152 296 q-22 2 -24 24 q2 22 24 24 q22 -2 24 -24 q-2 -22 -24 -24 ZM488 400 q-22 2 -24 24 q2 22 24 24 q22 -2 24 -24 q-2 -22 -24 -24 ZM488 240 q22 -2 24 -24 q-2 -22 -24 -24 q-22 2 -24 24 q2 22 24 24 ZM488 344 q22 -2 24 -24 q-2 -22 -24 -24 q-22 2 -24 24 q2 22 24 24 ZM424 400 q22 -2 24 -24 q-2 -22 -24 -24 q-22 2 -24 24 q2 22 24 24 ZM424 288 q22 -2 24 -24 q-2 -22 -24 -24 q-22 2 -24 24 q2 22 24 24 ZM112 264 q-2 -22 -24 -24 q-22 2 -24 24 q2 22 24 24 q22 -2 24 -24 ZM398 192 q11 0 16 -10 q5 -10 -2 -18 l-67 -79 l-25 -25 l0 -108 q-1 -15 -16 -16 l-96 0 q-15 1 -16 16 l0 108 l-25 25 l-67 78 q-7 9 -2 19 q5 10 16 10 l118 0 l0 168 q2 22 24 24 q22 -2 24 -24 l0 -168 l118 0 ZM332 144 l-152 0 l60 -64 l0 -96 l32 0 l0 96 l60 64 Z" /><glyph glyph-name="uniE036" unicode="&#xe036;&#x1f320;" d="M364 181 q15 -3 19 -16 q4 -12 -6 -24 l-76 -74 l18 -104 q2 -11 -5 -19 q-7 -8 -18 -8 q-5 0 -10 3 l-94 49 l-94 -49 q-5 -3 -10 -3 q-11 0 -17 8 q-7 8 -5 19 l17 104 l-76 74 q-10 12 -6 24 q4 13 19 16 l104 15 l47 95 q7 13 21 13 q14 0 21 -13 l46 -95 l105 -15 ZM307 140 l-79 12 l-36 72 l-36 -72 l-79 -12 l57 -56 l-13 -79 l71 37 l71 -37 l-13 79 l57 56 ZM311 248 q-14 16 0 33 l160 160 q17 14 34 0 q14 -17 0 -34 l-160 -160 q-7 -7 -17 -7 q-10 0 -17 8 ZM248 352 q-10 0 -17 7 q-14 17 0 34 l48 48 q17 14 34 0 q14 -17 0 -34 l-48 -48 q-7 -7 -17 -7 ZM471 249 q17 14 34 0 q14 -17 0 -34 l-48 -48 q-7 -7 -17 -7 q-10 0 -17 7 q-14 17 0 34 l48 48 Z" /><glyph glyph-name="uniE037" unicode="&#xe037;" d="M352 192 l0 -48 q-1 -15 -16 -16 l-32 0 q-15 1 -16 16 l0 48 q0 14 9 23 q9 9 23 9 q14 0 23 -9 q9 -9 9 -23 ZM254 413 q3 15 13 25 l0 0 q11 10 27 10 l52 0 q15 0 26 -10 q11 -10 14 -25 l25 -206 q6 1 13 1 l32 0 q24 -1 40 -16 q15 -16 16 -40 l0 -56 l56 0 l0 184 q-22 2 -24 24 q2 22 24 24 l0 24 q2 22 24 24 q22 -2 24 -24 l0 -24 q22 -2 24 -24 q-2 -22 -24 -24 l0 -280 q-2 -22 -24 -24 q-22 2 -24 24 l0 3 l-88 -30 l0 -5 q0 -14 -9 -23 q-9 -9 -23 -9 q-14 0 -23 9 q-9 9 -9 23 l0 1 q-13 1 -24 10 q-14 -11 -32 -11 l-80 0 q-18 0 -32 11 q-11 -9 -24 -10 l0 -1 q0 -14 -9 -23 q-9 -9 -23 -9 q-14 0 -23 9 q-9 9 -9 23 l0 5 l-88 30 l0 -3 q-2 -22 -24 -24 q-22 2 -24 24 l0 280 q-22 2 -24 24 q2 22 24 24 l0 24 q2 22 24 24 q22 -2 24 -24 l0 -24 q22 -2 24 -24 q-2 -22 -24 -24 l0 -184 l56 0 l0 56 q1 24 16 40 q16 15 40 16 l32 0 q7 0 13 -1 l25 206 ZM368 24 l0 142 l-29 234 l-38 0 l-30 -234 l0 -142 q1 -7 8 -8 l81 0 q7 1 8 8 ZM416 152 l0 -128 q1 -7 8 -8 l32 0 q7 1 8 8 l0 128 q-1 7 -8 8 l-32 0 q-7 -1 -8 -8 ZM184 160 q-7 -1 -8 -8 l0 -128 q1 -7 8 -8 l32 0 q7 1 8 8 l0 128 q-1 7 -8 8 l-32 0 Z" /><glyph glyph-name="uniE038" unicode="&#xe038;" d="M24 416 q22 -2 24 -24 l0 -138 l106 25 q22 34 57 53 q34 20 77 20 q43 0 77 -20 q35 -19 57 -53 l106 -25 l0 138 q2 22 24 24 q22 -2 24 -24 l0 -400 q-2 -22 -24 -24 q-22 2 -24 24 l0 138 l-106 -25 q-22 -33 -57 -53 q-34 -20 -77 -20 q-43 0 -77 20 q-35 20 -57 53 l-106 25 l0 -138 q-2 -22 -24 -24 q-22 2 -24 24 l0 400 q2 22 24 24 ZM445 159 l83 21 l0 25 l-83 20 q3 -16 3 -33 q0 -17 -3 -33 ZM131 159 q-3 16 -3 33 q0 17 3 33 l-83 -20 l0 -25 l83 -21 ZM272 81 l0 33 q-15 3 -28 11 l-23 -23 q22 -17 51 -21 ZM198 125 l23 23 q-8 13 -11 28 l-33 0 q4 -28 21 -51 ZM177 208 l33 0 q3 15 11 28 l-23 23 q-17 -22 -21 -51 ZM221 282 l23 -23 q13 8 27 11 l0 33 q-28 -4 -50 -21 ZM332 125 q-13 -8 -28 -11 l0 -33 q28 4 51 21 l-23 23 ZM378 125 q17 23 21 51 l-33 0 q-3 -15 -11 -28 l23 -23 ZM355 236 q8 -13 11 -28 l33 0 q-4 29 -21 51 l-23 -23 ZM355 282 q-23 17 -51 21 l0 -33 q15 -3 28 -11 l23 23 ZM311 169 q9 9 9 23 q0 13 -9 22 l0 1 q-9 9 -23 9 l0 0 q-14 0 -22 -9 l-1 -1 q-9 -9 -9 -22 q0 -14 9 -23 q9 -9 23 -9 q14 0 23 9 Z" /><glyph glyph-name="uniE039" unicode="&#xe039;" d="M528 192 q-1 -34 -23 -57 l0 0 q-23 -22 -57 -23 q-34 1 -57 23 q-22 23 -23 57 q1 34 23 57 q23 22 57 23 q34 -1 57 -23 q22 -23 23 -57 ZM448 224 q-14 0 -23 -9 l0 0 q-9 -9 -9 -23 q0 -14 9 -23 q9 -9 23 -9 q14 0 23 9 q9 9 9 23 q0 14 -9 23 q-9 9 -23 9 ZM0 352 q1 27 19 45 l0 0 q18 18 45 19 l128 0 q27 -1 45 -19 q18 -18 19 -45 q-1 -27 -19 -45 q-18 -18 -45 -19 l-27 0 l38 -26 l70 8 q23 51 69 82 q47 31 106 32 q82 -2 136 -56 q54 -54 56 -136 q-2 -82 -56 -136 q-54 -54 -136 -56 q-59 1 -106 32 q-46 31 -69 82 l-70 8 l-38 -26 l27 0 q27 -1 45 -19 q18 -18 19 -45 q-1 -27 -19 -45 q-18 -18 -45 -19 l-128 0 q-27 1 -45 19 q-18 18 -19 45 q1 27 19 45 q18 18 45 19 l17 0 l50 35 l-14 1 q-23 4 -38 20 q-15 17 -15 40 q0 23 15 40 q15 17 38 20 l14 1 l-50 35 l-17 0 q-27 1 -45 19 q-18 18 -19 45 ZM64 368 q-15 -1 -16 -16 q1 -15 16 -16 l128 0 q15 1 16 16 q-1 15 -16 16 l-128 0 ZM112 192 q1 -10 11 -11 l135 -17 q-2 14 -2 28 q0 15 2 28 l-135 -16 q-11 -2 -12 -12 l1 0 ZM64 16 l128 0 q15 1 16 16 q-1 15 -16 16 l-128 0 q-15 -1 -16 -16 q1 -15 16 -16 ZM448 48 q61 2 102 42 l0 0 q40 41 42 102 q-2 61 -42 102 q-41 40 -102 42 q-61 -2 -102 -42 q-40 -41 -42 -102 q2 -61 42 -102 q41 -40 102 -42 Z" /><glyph glyph-name="uniE03A" unicode="&#xe03a;" d="M71 193 q2 14 16 16 q15 -2 16 -16 q-1 -15 -16 -16 q-14 1 -16 16 ZM135 289 q-1 -15 -16 -16 q-14 1 -16 16 q2 14 16 16 q15 -2 16 -16 ZM103 96 q2 15 16 16 q15 -1 16 -16 q-1 -15 -16 -16 q-14 1 -16 16 ZM556 72 l-57 -22 q13 -18 13 -42 q-1 -31 -21 -51 q-20 -20 -51 -21 l-72 0 q-35 1 -57 28 l-10 13 q-38 -9 -77 -9 q-63 1 -113 31 q-51 29 -80 80 q-30 50 -31 113 q1 63 31 113 q29 51 80 80 q50 30 113 31 q64 0 124 -23 l208 -81 q19 -9 20 -30 l0 -180 q-1 -21 -20 -30 ZM223 369 q-74 -2 -124 -52 l0 0 q-50 -50 -52 -124 q2 -76 52 -125 q50 -50 124 -52 q23 0 44 5 l-60 76 q-34 7 -57 33 q-22 26 -23 63 q1 41 28 68 q27 27 68 28 q42 -1 69 -28 q27 -27 28 -68 q0 -1 0 -2 q-1 -2 0 -3 l60 -78 q20 37 20 83 q-2 74 -52 124 q-49 50 -125 52 ZM440 80 q2 0 3 0 l85 33 l0 56 l-81 0 q-6 -49 -29 -89 l22 0 ZM528 217 l0 54 l-118 46 q30 -45 37 -100 l81 0 ZM223 241 q-20 -1 -33 -15 l0 0 q-14 -13 -15 -33 q1 -21 15 -34 q13 -14 33 -14 q21 0 34 14 q14 13 14 34 q0 20 -14 33 q-13 14 -34 15 ZM368 -16 l72 0 q22 2 24 24 q-2 22 -24 24 l-60 0 l-79 102 q-15 -19 -38 -30 l86 -111 q7 -9 19 -9 Z" /><glyph glyph-name="uniE03B" unicode="&#xe03b;" d="M290 111 q4 -5 0 -11 l-12 -11 q-5 -5 -11 0 l-6 5 l-142 -142 q-17 -16 -39 -16 q-21 0 -38 16 l-26 26 q-16 17 -16 38 q0 22 16 39 l142 142 l-4 5 q-5 6 0 11 l11 11 q6 5 12 0 l113 -113 ZM148 50 l-35 35 l-63 -63 q-4 -5 0 -9 l26 -26 q4 -4 9 0 l63 63 ZM171 72 l-35 35 l-12 -11 l36 -36 l11 12 ZM193 94 l-35 36 l-11 -12 l35 -35 l11 11 ZM216 117 l-35 35 l-11 -11 l35 -35 l11 11 ZM503 439 q9 -9 9 -20 q0 -12 -8 -21 l-218 -238 l-62 62 l238 218 q9 8 21 8 l0 0 q11 0 20 -9 Z" /><glyph glyph-name="uniE03C" unicode="&#xe03c;" d="M119 -47 q-17 -17 -39 -17 q-21 0 -38 16 l-26 26 q-16 17 -16 38 q0 22 16 39 l132 132 q5 5 12 5 l159 1 q11 -1 15 -10 q4 -9 -3 -17 l-212 -213 ZM138 110 l35 -35 l70 70 l-70 0 l-35 -35 ZM56 6 l70 70 l-11 10 l-65 -65 q-4 -5 0 -9 l6 -6 ZM76 -13 q4 -5 9 0 l65 65 l-10 11 l-70 -70 l6 -6 ZM503 439 q17 -20 1 -42 l-160 -173 l-117 0 l235 216 q9 8 21 8 l0 0 q11 0 20 -9 Z" /><glyph glyph-name="uniE03D" unicode="&#xe03d;" d="M137 439 q9 9 20 9 q12 0 21 -8 l173 -160 l0 -117 l-215 235 q-8 9 -8 21 l0 0 q0 11 9 20 ZM623 55 q17 -17 17 -39 q0 -21 -17 -38 l-26 -26 q-16 -16 -38 -16 q-22 0 -39 16 l-132 132 q-5 5 -5 12 l0 159 q1 11 10 15 q10 3 17 -4 l213 -211 ZM466 74 l35 35 l-70 70 l0 -70 l35 -35 ZM570 -8 l-70 70 l-10 -11 l65 -65 q2 -2 5 -2 q3 0 4 2 l6 6 ZM590 12 q4 4 0 9 l-65 65 l-11 -10 l70 -70 l6 6 ZM415 301 q-8 2 -15 2 q-11 0 -21 -4 l-35 32 l118 109 q9 8 21 8 q11 0 20 -9 q17 -21 1 -41 l-89 -97 ZM298 174 l-34 -37 l26 -26 q4 -5 0 -11 l-12 -11 q-5 -5 -11 0 l-6 6 l-142 -143 q-17 -16 -39 -16 q-21 0 -38 16 l-26 26 q-16 17 -16 39 q0 21 16 38 l142 142 l-4 5 q-5 6 0 11 l11 11 q6 5 12 0 l24 -24 l40 37 l57 -63 ZM148 50 l-35 35 l-63 -63 q-4 -5 0 -9 l26 -26 q4 -4 9 0 l63 63 ZM171 72 l-35 35 l-12 -11 l36 -36 l11 12 ZM193 94 l-35 35 l-11 -11 l35 -35 l11 11 ZM216 117 l-35 35 l-11 -11 l35 -35 l11 11 Z" /><glyph glyph-name="uniE03E" unicode="&#xe03e;&#x1f52d;" d="M639 231 q4 -13 -10 -21 l-117 -48 q-14 -5 -21 8 l-3 8 l-97 -33 q0 0 0 -1 q0 0 0 0 q0 -26 -16 -44 l47 -132 q5 -21 -15 -31 q-4 -1 -8 -1 q-15 1 -23 16 l-42 122 q-7 -2 -15 -2 q-7 0 -14 2 l-43 -122 q-7 -15 -23 -16 q-3 0 -7 2 q-20 10 -15 31 l47 131 q0 0 -1 0 q0 0 0 0 l-127 -43 q-15 -4 -21 8 l-9 21 l-64 -26 q-3 -2 -6 -2 q-10 1 -15 10 l-20 49 q-1 3 -1 6 q1 10 10 15 l64 26 l-9 21 q-4 14 9 21 l335 163 l-3 7 q-4 15 9 21 l117 49 q14 4 21 -9 l86 -206 ZM319 121 q23 2 24 24 q-2 22 -24 24 q-22 -2 -24 -24 q2 -22 24 -24 ZM470 223 l-42 102 l-307 -149 l27 -65 l100 35 q2 30 22 50 q20 19 50 20 q34 -1 55 -26 l95 33 ZM581 242 l-61 148 l-58 -24 l61 -148 l58 24 Z" /><glyph glyph-name="uniE03F" unicode="&#xe03f;" d="M192 80 q-1 -20 -14 -34 l0 0 q-14 -14 -34 -14 q-20 0 -34 14 q-13 14 -14 34 q2 33 32 45 l0 19 q2 15 15 16 q14 -1 15 -16 l0 -19 q32 -12 34 -45 ZM255 169 q31 -37 32 -89 q-1 -61 -42 -102 q-40 -40 -101 -42 q-61 2 -101 42 q-41 41 -43 102 q1 52 32 89 l0 167 q1 48 33 79 q31 32 79 33 q48 -1 79 -33 q31 -31 32 -79 l0 -167 ZM240 80 q0 20 -7 35 l0 0 q-7 15 -14 25 l-11 13 l0 183 q-1 27 -19 45 q-18 18 -45 19 q-27 -1 -45 -19 q-18 -18 -19 -45 l0 -183 l-10 -14 q-8 -9 -15 -24 q-7 -15 -7 -35 q1 -41 28 -68 q27 -27 68 -28 q41 1 68 28 q27 27 28 68 ZM504 90 q-18 13 -34 -2 l-30 -34 l0 338 q-2 22 -24 24 q-22 -2 -24 -24 l0 -338 l-30 34 q-16 15 -34 2 q-15 -16 -2 -34 l72 -80 q7 -8 18 -8 q11 0 18 8 l72 80 q13 18 -2 34 Z" /><glyph glyph-name="uniE040" unicode="&#xe040;" d="M192 80 q-1 -20 -14 -34 l0 0 q-14 -14 -34 -14 q-20 0 -34 14 q-13 14 -14 34 q2 33 32 45 l0 211 q1 15 16 16 q14 -1 15 -16 l0 -211 q31 -12 33 -45 ZM255 169 q31 -37 32 -89 q-1 -61 -42 -102 q-40 -40 -101 -42 q-61 2 -101 42 q-41 41 -43 102 q1 52 32 89 l0 167 q1 48 33 79 q31 32 79 33 q48 -1 79 -33 q31 -31 32 -79 l0 -167 ZM240 80 q0 20 -7 35 l0 0 q-7 15 -14 25 l-11 13 l0 183 q-1 27 -19 45 q-18 18 -45 19 q-27 -1 -45 -19 q-18 -18 -19 -45 l0 -183 l-10 -14 q-8 -9 -15 -24 q-7 -15 -7 -35 q1 -41 28 -68 q27 -27 68 -28 q41 1 68 28 q27 27 28 68 ZM504 294 q-18 -13 -34 2 l-30 33 l0 -337 q-2 -22 -24 -24 q-22 2 -24 24 l0 337 l-30 -33 q-16 -15 -34 -2 q-15 16 -2 34 l72 80 q7 8 18 8 q11 0 18 -8 l72 -80 q13 -17 -2 -34 Z" /><glyph glyph-name="uniE041" unicode="&#xe041;" d="M136 336 q22 -2 24 -24 l0 -96 q-2 -22 -24 -24 q-22 2 -24 24 l0 96 q2 22 24 24 ZM232 336 q22 -2 24 -24 l0 -96 q-2 -22 -24 -24 q-22 2 -24 24 l0 96 q2 22 24 24 ZM328 336 q22 -2 24 -24 l0 -144 q-2 -22 -24 -24 q-22 2 -24 24 l0 144 q2 22 24 24 ZM424 336 q22 -2 24 -24 l0 -144 q-2 -22 -24 -24 q-22 2 -24 24 l0 144 q2 22 24 24 ZM192 -32 q-41 1 -68 28 l0 0 q-27 27 -28 68 l-32 0 q-27 1 -45 19 q-18 18 -19 45 l0 224 q1 27 19 45 q18 18 45 19 l432 0 q27 -1 45 -19 q18 -18 19 -45 l0 -240 l56 0 q22 -2 24 -24 q-2 -22 -24 -24 l-328 0 q-1 -41 -28 -68 q-27 -27 -68 -28 ZM64 368 q-15 -1 -16 -16 l0 -224 q1 -15 16 -16 l45 0 q13 22 34 35 q22 13 49 13 q27 0 49 -13 q21 -13 34 -35 l237 0 l0 240 q-1 15 -16 16 l-432 0 ZM192 112 q-20 -1 -34 -14 l0 0 q-13 -14 -14 -34 q1 -20 14 -34 q14 -13 34 -14 q20 1 34 14 q13 14 14 34 q-1 20 -14 34 q-14 13 -34 14 Z" /><glyph glyph-name="uniE042" unicode="&#xe042;" d="M256 352 q-20 1 -34 14 q-13 14 -14 34 q1 20 14 34 q14 13 34 14 q20 -1 34 -14 q13 -14 14 -34 q-1 -20 -14 -34 l0 0 q-14 -13 -34 -14 ZM94 340 q2 -2 2 -4 q0 -2 -2 -4 l-30 -12 l-12 -30 q-2 -2 -4 -2 q-2 0 -4 2 l-12 30 l-30 12 q-2 2 -2 4 q0 2 2 4 l30 12 l12 30 q2 2 4 2 q2 0 4 -2 l12 -30 l30 -12 ZM510 404 q2 -2 2 -4 q0 -2 -2 -4 l-30 -12 l-12 -30 q-2 -2 -4 -2 q-2 0 -4 2 l-12 30 l-30 12 q-2 2 -2 4 q0 2 2 4 l30 12 l12 30 q2 2 4 2 q2 0 4 -2 l12 -30 l30 -12 ZM392 -16 q22 -2 24 -24 q-2 -22 -24 -24 l-272 0 q-22 2 -24 24 q2 22 24 24 l72 0 l0 253 l-53 -68 q-15 -16 -34 -4 q-16 15 -4 34 l79 100 q17 20 44 21 l65 0 q26 -1 44 -21 l78 -100 q12 -19 -4 -34 q-19 -12 -34 4 l-53 68 l0 -253 l72 0 ZM264 128 l-16 0 l0 -144 l16 0 l0 144 Z" /><glyph glyph-name="uniE043" unicode="&#xe043;" d="M120 160 q-15 1 -22 13 q-6 14 3 26 l79 100 q17 20 44 21 l64 0 q27 -1 45 -21 l78 -100 q12 -19 -4 -34 q-19 -12 -34 4 l-53 68 l0 -109 l16 0 q15 -1 16 -16 q-1 -15 -16 -16 l-160 0 q-15 1 -16 16 q1 15 16 16 l16 0 l0 109 l-53 -68 q-8 -9 -19 -9 ZM336 64 q15 -1 16 -16 q-1 -15 -16 -16 l-160 0 q-15 1 -16 16 q1 15 16 16 l160 0 ZM256 352 q-20 1 -34 14 q-13 14 -14 34 q1 20 14 34 q14 13 34 14 q20 -1 34 -14 q13 -14 14 -34 q-1 -20 -14 -34 l0 0 q-14 -13 -34 -14 ZM94 84 q2 -2 2 -4 q0 -2 -2 -4 l-30 -12 l-12 -30 q-2 -2 -4 -2 q-2 0 -4 2 l-12 30 l-30 12 q-2 2 -2 4 q0 2 2 4 l30 12 l12 30 q2 2 4 2 q2 0 4 -2 l12 -30 l30 -12 ZM510 276 q2 -2 2 -4 q0 -2 -2 -4 l-30 -12 l-12 -30 q-2 -2 -4 -2 q-2 0 -4 2 l-12 30 l-30 12 q-2 2 -2 4 q0 2 2 4 l30 12 l12 30 q2 2 4 2 q2 0 4 -2 l12 -30 l30 -12 ZM392 -16 q22 -2 24 -24 q-2 -22 -24 -24 l-272 0 q-22 2 -24 24 q2 22 24 24 l40 0 q1 15 16 16 l160 0 q15 -1 16 -16 l40 0 Z" /><glyph glyph-name="uniE044" unicode="&#xe044;" d="M112 160 q-15 1 -16 16 q1 15 16 16 l288 0 q15 -1 16 -16 q-1 -15 -16 -16 l-288 0 ZM391 224 l-270 0 l59 75 q17 20 44 21 l65 0 q26 -1 44 -21 l58 -75 ZM256 352 q-20 1 -34 14 q-13 14 -14 34 q1 20 14 34 q14 13 34 14 q20 -1 34 -14 q13 -14 14 -34 q-1 -20 -14 -34 l0 0 q-14 -13 -34 -14 ZM336 128 q15 -1 16 -16 q-1 -15 -16 -16 l-160 0 q-15 1 -16 16 q1 15 16 16 l160 0 ZM392 -16 q22 -2 24 -24 q-2 -22 -24 -24 l-272 0 q-22 2 -24 24 q2 22 24 24 l40 0 q1 15 16 16 l160 0 q15 -1 16 -16 l40 0 ZM510 84 q2 -2 2 -4 q0 -2 -2 -4 l-30 -12 l-12 -30 q-2 -2 -4 -2 q-2 0 -4 2 l-12 30 l-30 12 q-2 2 -2 4 q0 2 2 4 l30 12 l12 30 q2 2 4 2 q2 0 4 -2 l12 -30 l30 -12 ZM94 404 q2 -2 2 -4 q0 -2 -2 -4 l-30 -12 l-12 -30 q-2 -2 -4 -2 q-2 0 -4 2 l-12 30 l-30 12 q-2 2 -2 4 q0 2 2 4 l30 12 l12 30 q2 2 4 2 q2 0 4 -2 l12 -30 l30 -12 ZM336 64 q15 -1 16 -16 q-1 -15 -16 -16 l-160 0 q-15 1 -16 16 q1 15 16 16 l160 0 Z" /><glyph glyph-name="uniE045" unicode="&#xe045;" d="M144 224 q-15 1 -16 16 q1 15 16 16 l224 0 q15 -1 16 -16 q-1 -15 -16 -16 l-224 0 ZM176 288 q-15 1 -16 16 q1 15 16 16 l160 0 q15 -1 16 -16 q-1 -15 -16 -16 l-160 0 ZM94 308 q2 -2 2 -4 q0 -2 -2 -4 l-30 -12 l-12 -30 q-2 -2 -4 -2 q-2 0 -4 2 l-12 30 l-30 12 q-2 2 -2 4 q0 2 2 4 l30 12 l12 30 q2 2 4 2 q2 0 4 -2 l12 -30 l30 -12 ZM256 352 q-20 1 -34 14 q-13 14 -14 34 q1 20 14 34 q14 13 34 14 q20 -1 34 -14 q13 -14 14 -34 q-1 -20 -14 -34 l0 0 q-14 -13 -34 -14 ZM510 404 q2 -2 2 -4 q0 -2 -2 -4 l-30 -12 l-12 -30 q-2 -2 -4 -2 q-2 0 -4 2 l-12 30 l-30 12 q-2 2 -2 4 q0 2 2 4 l30 12 l12 30 q2 2 4 2 q2 0 4 -2 l12 -30 l30 -12 ZM392 -16 q22 -2 24 -24 q-2 -22 -24 -24 l-272 0 q-22 2 -24 24 q2 22 24 24 l40 0 q1 15 16 16 l160 0 q15 -1 16 -16 l40 0 ZM400 192 q15 -1 16 -16 q-1 -15 -16 -16 l-288 0 q-15 1 -16 16 q1 15 16 16 l288 0 ZM176 96 q-15 1 -16 16 q1 15 16 16 l160 0 q15 -1 16 -16 q-1 -15 -16 -16 l-160 0 ZM176 32 q-15 1 -16 16 q1 15 16 16 l160 0 q15 -1 16 -16 q-1 -15 -16 -16 l-160 0 Z" /><glyph glyph-name="uniE046" unicode="&#xe046;" d="M296 -16 q22 -2 24 -24 q-2 -22 -25 -24 l-272 0 q-21 2 -23 24 q2 22 23 24 l273 0 Z" /><glyph glyph-name="uniE047" unicode="&#xe047;&#x1f6f8;" d="M152 136 q-2 -22 -24 -24 q-22 2 -24 24 q2 22 24 24 q22 -2 24 -24 ZM344 96 q-2 -22 -24 -24 q-22 2 -24 24 q2 22 24 24 q22 -2 24 -24 ZM488 136 q2 22 24 24 q22 -2 24 -24 q-2 -22 -24 -24 q-22 2 -24 24 ZM587 225 q23 -15 38 -35 l0 0 q14 -21 15 -47 q-2 -38 -31 -63 q-27 -26 -71 -43 q-43 -18 -99 -27 q-56 -10 -119 -10 q-130 1 -218 37 q-44 17 -71 43 q-29 25 -31 63 q1 26 15 47 q15 20 38 35 q43 28 108 44 q18 52 61 83 q43 31 98 32 q55 -1 98 -32 q43 -31 61 -83 q65 -16 108 -44 ZM177 202 l-18 -17 q-6 6 -6 15 q-1 8 -1 17 q-46 -13 -72 -31 q-34 -26 -32 -43 q-1 -11 16 -29 q18 -17 56 -33 q38 -15 89 -24 q51 -9 111 -9 q60 0 111 9 q51 9 89 24 q38 16 56 33 q17 18 16 29 q2 17 -31 43 q-27 18 -74 31 q1 -9 0 -17 q0 -9 -6 -15 l-18 17 q13 -12 16 -15 q2 -2 2 -2 l0 0 l0 0 l0 1 l0 -1 q-1 0 -1 0 q0 -1 0 0 q-1 -2 -2 -3 q-3 -2 -8 -6 q-10 -8 -29 -16 q-39 -21 -121 -23 q-82 2 -121 23 q-19 8 -29 16 q-5 4 -8 6 q-1 1 -2 3 q0 0 0 0 q-1 -1 0 0 l-1 1 l0 -1 l0 0 l0 0 q0 0 2 2 q3 3 16 15 ZM439 213 q0 54 -35 88 l0 0 q-34 34 -84 35 q-50 -1 -85 -35 q-34 -34 -35 -88 q6 -4 19 -10 q29 -16 101 -19 q72 3 101 19 q13 6 18 10 Z" /><glyph glyph-name="uniE048" unicode="&#xe048;" d="M49 321 q37 22 92 35 q19 42 59 67 q39 24 88 25 q49 -1 88 -25 q40 -25 59 -67 q55 -13 92 -35 q20 -12 34 -30 q14 -17 15 -41 q-2 -34 -29 -56 q-25 -22 -64 -36 q-81 -29 -196 -29 q-56 0 -106 7 q-49 8 -88 22 q-39 14 -64 36 q-27 22 -29 56 q1 24 15 41 q14 18 34 30 ZM153 285 l-17 -17 q-7 6 -7 14 q-2 9 -1 18 q0 2 0 3 q-33 -10 -54 -23 q-30 -21 -27 -30 q-1 -6 14 -20 q15 -14 49 -27 q69 -26 177 -27 q110 1 179 27 q34 13 49 27 q14 14 13 20 q0 4 -5 12 q-5 8 -21 18 q-21 13 -54 23 q0 -10 -1 -21 q0 -8 -7 -14 l-16 17 q12 -13 14 -15 q3 -3 2 -2 l0 0 l0 -1 l0 0 l0 0 q0 0 -1 0 q0 0 0 -1 q0 1 -1 0 q0 -1 -1 -1 q-3 -3 -7 -6 q-10 -7 -28 -15 q-36 -17 -114 -19 q-78 2 -114 19 q-18 8 -28 15 q-4 3 -7 6 q-1 0 -1 1 q-1 1 -1 0 q-1 1 -1 1 l0 0 l0 0 l0 1 l0 0 q-1 -1 2 2 q2 2 15 15 ZM399 298 q-1 43 -32 72 l0 0 q-32 29 -79 30 q-47 -1 -79 -30 q-31 -29 -33 -72 q6 -5 17 -10 q27 -14 95 -16 q69 2 95 16 q12 5 16 10 ZM45 -51 q-12 -19 -32 -10 q-19 12 -10 32 l72 136 q12 19 32 10 q9 -4 12 -14 q3 -9 -2 -18 l-72 -136 ZM573 -29 q9 -20 -10 -32 q-9 -5 -18 -2 q-10 3 -14 12 l-72 136 q-5 9 -2 18 q3 10 12 14 q20 9 32 -10 l72 -136 Z" /><glyph glyph-name="uniE04A" unicode="&#xe04a;" d="M249 216 q-8 1 -9 10 l0 6 q1 20 15 34 q14 13 34 14 l20 0 q10 -1 11 -10 l0 -6 q-1 -20 -15 -34 q-14 -13 -36 -14 l-20 0 ZM177 216 q-20 1 -34 14 q-14 14 -15 34 l0 6 q1 9 10 10 l20 0 q21 -1 35 -14 q14 -14 15 -34 l0 -6 q-1 -9 -11 -10 l-20 0 ZM330 94 q51 -7 84 -43 q33 -36 34 -88 q-2 -25 -27 -27 l-394 0 q-25 2 -27 27 q1 52 34 88 q33 36 84 43 q26 -26 51 -46 l-36 0 q-30 -1 -52 -18 q-23 -18 -30 -46 l346 0 q-7 28 -30 46 q-22 17 -52 18 l-36 0 q25 20 51 46 ZM209 56 q-24 19 -60 52 q-36 34 -64 76 q-28 42 -29 85 q1 81 47 129 q46 49 121 50 q75 -1 121 -50 q46 -48 47 -129 q-1 -43 -29 -85 q-28 -42 -64 -76 q-36 -33 -60 -52 q-7 -5 -15 -5 q-8 1 -15 5 ZM224 400 q-55 -1 -87 -36 q-32 -34 -33 -95 q1 -31 32 -74 q32 -43 88 -89 q56 46 88 89 q31 43 32 74 q-1 61 -33 95 l0 0 q-32 35 -87 36 Z" /><glyph glyph-name="uniE04B" unicode="&#xe04b;" d="M208 272 q0 -14 -9 -23 l0 0 q-9 -9 -23 -9 q-14 0 -23 9 q-9 9 -9 23 q0 14 9 23 q9 9 23 9 q14 0 23 -9 q9 -9 9 -23 ZM240 272 q0 14 9 23 l0 0 q9 9 23 9 q14 0 23 -9 q9 -9 9 -23 q0 -14 -9 -23 q-9 -9 -23 -9 q-14 0 -23 9 q-9 9 -9 23 ZM240 384 l64 0 q34 -1 57 -23 q22 -23 23 -57 l0 -96 q-1 -34 -23 -57 q-23 -22 -57 -23 l-160 0 q-34 1 -57 23 q-22 23 -23 57 l0 96 q1 34 23 57 q23 22 57 23 l64 0 l0 48 q1 15 16 16 q15 -1 16 -16 l0 -48 ZM336 304 q0 14 -9 23 l0 0 q-9 9 -23 9 l-160 0 q-14 0 -23 -9 q-9 -9 -9 -23 l0 -96 q0 -14 9 -23 q9 -9 23 -9 l0 16 q1 15 16 16 q15 -1 16 -16 l0 -16 l32 0 l0 16 q1 15 16 16 q15 -1 16 -16 l0 -16 l32 0 l0 16 q1 15 16 16 q15 -1 16 -16 l0 -16 q14 0 23 9 q9 9 9 23 l0 96 ZM48 -64 q-20 1 -34 14 l0 0 q-13 14 -14 34 l0 16 q1 41 28 68 q27 27 68 28 l256 0 q41 -1 68 -28 q27 -27 28 -68 l0 -16 q-1 -20 -14 -34 q-14 -13 -34 -14 l-352 0 ZM400 0 q-1 20 -14 34 l0 0 q-14 13 -34 14 l-256 0 q-20 -1 -34 -14 q-13 -14 -14 -34 l0 -16 l96 0 l0 32 q1 15 16 16 q15 -1 16 -16 l0 -32 l32 0 l0 32 q1 15 16 16 q15 -1 16 -16 l0 -32 l32 0 l0 32 q1 15 16 16 q15 -1 16 -16 l0 -32 l96 0 l0 16 ZM32 304 l0 -96 q-1 -15 -16 -16 q-15 1 -16 16 l0 96 q1 15 16 16 q15 -1 16 -16 ZM448 208 q-1 -15 -16 -16 q-15 1 -16 16 l0 96 q1 15 16 16 q15 -1 16 -16 l0 -96 Z" /><glyph glyph-name="uniE04C" unicode="&#xe04c;" d="M275 144 q73 -2 122 -51 q49 -49 51 -122 q0 -15 -10 -25 q-10 -10 -25 -10 l-378 0 q-15 0 -25 10 q-10 10 -10 25 q2 73 51 122 q49 49 122 51 l102 0 ZM399 -16 q-6 48 -41 80 q-34 31 -83 32 l-102 0 q-49 -1 -84 -32 l0 0 q-34 -32 -40 -80 l350 0 ZM105 273 q-23 7 -25 31 l0 48 q0 14 9 23 q9 9 23 9 l2 0 q17 29 45 46 q29 18 65 18 q36 0 65 -18 q28 -17 45 -46 l2 0 q14 0 23 -9 q9 -9 9 -23 l0 -48 q-2 -24 -26 -31 q-14 -36 -45 -58 q-32 -22 -73 -23 q-41 1 -73 23 l0 0 q-31 22 -46 58 ZM224 240 q40 2 64 32 l-128 0 q24 -30 64 -32 ZM224 400 q-27 -1 -47 -16 l95 0 q-21 15 -48 16 ZM128 320 l192 0 l0 16 l-192 0 l0 -16 ZM309 79 q-1 1 -2 1 q-2 0 -3 -1 q-27 -29 -32 -75 q0 -2 2 -3 q2 -1 4 0 q31 22 33 21 q0 0 1 0 q2 -1 18 -21 q1 -1 2 -1 q1 0 2 0 q2 1 2 3 q-2 45 -27 76 Z" /><glyph glyph-name="uniE04D" unicode="&#xe04d;" d="M640 328 q0 -33 -16 -60 q-16 -26 -43 -42 q27 -45 27 -98 l0 -128 q-1 -27 -19 -45 q-18 -18 -45 -19 l-66 0 q21 20 29 48 l37 0 q15 1 16 16 l0 128 q-2 61 -42 102 q-41 40 -102 42 l-16 0 l0 -144 q-25 0 -48 -11 l0 171 q0 14 9 23 q9 9 23 9 l32 0 q79 -1 136 -56 q23 11 33 33 q11 23 5 47 q-6 25 -25 41 q-19 15 -45 15 l-210 0 q-26 -1 -46 -16 q-19 -16 -25 -41 l-60 -279 l45 0 q14 0 23 -9 q9 -9 9 -23 l0 -64 q0 -14 -9 -23 q-9 -9 -23 -9 l-208 0 q-15 1 -16 16 l0 16 q1 41 28 68 q27 27 68 28 l34 0 l62 289 q10 42 42 68 q32 26 76 27 l210 0 q51 -1 85 -35 l0 0 q34 -34 35 -85 ZM96 16 q-33 -2 -45 -32 l157 0 l0 32 l-112 0 ZM400 96 q34 -1 57 -23 q22 -23 23 -57 q-1 -34 -23 -57 q-23 -22 -57 -23 q-34 1 -57 23 q-22 23 -23 57 q1 34 23 57 l0 0 q23 22 57 23 ZM400 0 q15 1 16 16 q-1 15 -16 16 q-15 -1 -16 -16 q1 -15 16 -16 Z" /><glyph glyph-name="uniE04E" unicode="&#xe04e;" d="M203 75 q10 -11 0 -22 q-5 -5 -11 -5 q-6 0 -11 5 l-64 64 q-10 11 0 22 q11 10 22 0 l64 -64 ZM299 172 q10 -11 0 -22 q-5 -5 -11 -5 q-6 -1 -11 4 l-64 64 q-10 11 0 22 q11 10 22 0 l64 -63 ZM283 91 q10 -11 0 -22 q-5 -5 -11 -5 q-6 0 -11 5 l-128 128 q-10 11 0 22 q11 10 22 0 l128 -128 ZM256 352 q68 -2 113 -47 q45 -45 47 -113 q-1 -66 -47 -113 q-7 -7 -17 -7 q-10 0 -17 7 q-14 17 0 34 q32 33 33 79 q-1 48 -33 79 q-31 32 -79 33 q-47 -1 -79 -33 q-17 -14 -34 0 q-14 17 0 34 q47 46 113 47 ZM256 448 q72 -1 129 -35 q58 -34 92 -92 q34 -57 35 -129 q-1 -72 -35 -129 q-34 -58 -92 -92 q-57 -34 -129 -35 q-72 1 -129 35 q-58 34 -92 92 q-34 57 -35 129 q1 72 35 129 l0 0 q34 58 92 92 l0 0 q57 34 129 35 ZM256 -16 q88 2 147 61 q59 59 61 147 q-2 88 -61 147 q-59 59 -147 61 q-88 -2 -147 -61 q-59 -59 -61 -147 q2 -88 61 -147 l0 0 q59 -59 147 -61 Z" /><glyph glyph-name="uniE04F" unicode="&#xe04f;&#x1fa9f;" d="M488 -16 q10 0 17 -8 q7 -7 7 -17 q-2 -21 -24 -23 l-465 0 q-9 0 -16 8 q-7 7 -7 17 q2 21 23 23 l9 0 l0 432 q0 14 9 23 q9 9 23 9 l384 0 q14 0 23 -9 q9 -9 9 -23 l0 -432 l8 0 ZM232 176 l-152 0 l0 -192 l152 0 l0 192 ZM232 400 l-152 0 l0 -176 l152 0 l0 176 ZM432 176 l-152 0 l0 -192 l152 0 l0 192 ZM432 400 l-152 0 l0 -176 l152 0 l0 176 Z" /><glyph glyph-name="uniE050" unicode="&#xe050;" d="M488 -16 q10 0 17 -8 q7 -7 7 -17 q-2 -21 -24 -23 l-465 0 q-9 0 -16 8 q-7 7 -7 17 q2 21 23 23 l9 0 l0 144 l48 0 l0 -144 l352 0 l0 144 l48 0 l0 -144 l8 0 ZM480 176 l-448 0 l0 240 q0 14 9 23 q9 9 23 9 l384 0 q14 0 23 -9 l0 0 q9 -9 9 -23 l0 -240 ZM232 400 l-152 0 l0 -176 l152 0 l0 176 ZM432 400 l-152 0 l0 -176 l152 0 l0 176 Z" /><glyph glyph-name="uniE051" unicode="&#xe051;" d="M375 333 q12 -13 8 -31 l-87 -342 q-7 -23 -32 -24 l-144 0 q-25 1 -32 24 l-87 342 q-4 18 8 31 l108 106 q10 9 23 9 l104 0 q13 0 23 -9 l108 -106 ZM334 305 l-96 95 l-91 0 l-97 -95 l82 -321 l121 0 l81 321 ZM216 288 l48 0 q22 -2 23 -24 q-2 -22 -24 -24 l-48 0 l0 -120 q-2 -22 -24 -24 q-10 0 -17 7 q-7 7 -7 18 l0 119 l-48 0 q-9 0 -16 8 q-7 7 -7 17 q2 21 23 23 l48 0 l0 40 q3 22 25 24 q22 -2 24 -24 l0 -40 Z" /><glyph glyph-name="uniE053" unicode="&#xe053;" d="M448 352 q27 -1 45 -19 q18 -18 19 -45 l0 -256 q-1 -27 -19 -45 q-18 -18 -45 -19 l-384 0 q-27 1 -45 19 q-18 18 -19 45 l0 320 q1 27 19 45 q18 18 45 19 l118 0 q26 0 45 -19 l49 -45 l172 0 ZM464 288 q-1 15 -16 16 l-192 0 l-63 59 q-5 5 -11 5 l-118 0 q-15 -1 -16 -16 l0 -320 q1 -15 16 -16 l384 0 q15 1 16 16 l0 256 ZM319 177 q17 14 34 0 q14 -17 0 -34 l-80 -80 q-7 -7 -17 -7 q-9 0 -18 7 l-80 80 q-14 17 0 34 q17 14 34 0 l40 -39 l0 102 q2 22 24 24 q22 -2 24 -24 l0 -102 l39 39 Z" /><glyph glyph-name="uniE054" unicode="&#xe054;" d="M353 177 q14 -17 0 -34 q-7 -7 -17 -7 q-10 0 -17 7 l-39 39 l0 -102 q-2 -22 -24 -24 q-22 2 -24 24 l0 102 l-40 -39 q-17 -14 -34 0 q-14 17 0 34 l80 80 q17 14 34 0 l81 -80 ZM448 352 q27 -1 45 -19 q18 -18 19 -45 l0 -256 q-1 -27 -19 -45 q-18 -18 -45 -19 l-384 0 q-27 1 -45 19 q-18 18 -19 45 l0 320 q1 27 19 45 q18 18 45 19 l118 0 q26 0 45 -19 l49 -45 l172 0 ZM464 288 q-1 15 -16 16 l-192 0 l-63 59 q-5 5 -11 5 l-118 0 q-15 -1 -16 -16 l0 -320 q1 -15 16 -16 l384 0 q15 1 16 16 l0 256 Z" /><glyph glyph-name="uniE058" unicode="&#xe058;" d="M224 192 q-54 1 -91 37 q-36 37 -37 91 q1 54 37 91 q37 36 91 37 q54 -1 91 -37 q36 -37 37 -91 q-1 -54 -37 -91 l0 0 q-37 -36 -91 -37 ZM224 400 q-34 -1 -57 -23 q-22 -23 -23 -57 q1 -34 23 -57 q23 -22 57 -23 q34 1 57 23 q22 23 23 57 q-1 34 -23 57 l0 0 q-23 22 -57 23 ZM592 160 q20 -1 34 -14 q13 -14 14 -34 l0 -128 q-1 -20 -14 -34 q-14 -13 -34 -14 l-192 0 q-20 1 -34 14 q-13 14 -14 34 l0 128 q1 20 14 34 q14 13 34 14 l16 0 l0 80 q1 34 23 57 q23 23 57 23 q4 0 8 0 q32 -5 52 -28 q19 -24 20 -57 l0 -11 l-48 0 l0 16 q0 14 -9 23 q-9 9 -23 9 q-14 0 -23 -9 q-9 -9 -9 -23 l0 -80 l128 0 ZM496 16 q14 0 23 9 q9 9 9 23 q0 14 -9 23 q-9 9 -23 9 q-14 0 -23 -9 q-9 -9 -9 -23 q0 -14 9 -23 l0 0 q9 -9 23 -9 ZM49 -16 q7 48 42 80 q35 31 85 32 l96 0 q25 0 48 -10 l0 26 q0 13 4 24 q-25 8 -52 8 l-96 0 q-75 -2 -124 -52 q-50 -49 -52 -124 q0 -14 9 -23 q9 -9 23 -9 l304 0 q-15 20 -16 48 l-271 0 Z" /><glyph glyph-name="uniE059" unicode="&#xe059;" d="M191 320 q15 -1 16 -16 q-1 -15 -16 -16 q-15 1 -16 16 q1 15 16 16 ZM111 224 q15 -1 16 -16 q-1 -15 -16 -16 q-13 2 -15 17 q1 13 15 15 ZM399 64 q15 -1 16 -15 q-1 -15 -16 -16 q-13 2 -15 16 q1 13 15 15 ZM614 217 q1 -10 -1 -20 q-2 -15 -6 -29 l11 -4 q15 -6 11 -22 q-7 -15 -23 -11 l-11 4 q-10 -23 -23 -44 l10 -7 q12 -11 3 -25 q-10 -12 -25 -4 l-9 7 q-16 -19 -35 -35 l7 -9 q9 -14 -3 -25 q-14 -8 -25 4 l-7 9 q-21 -13 -44 -23 l4 -11 q4 -16 -11 -23 q-16 -4 -23 11 l-4 11 q-21 -6 -32 -7 q-11 -2 -16 -1 l-4 -14 q-5 -15 -21 -12 q-16 5 -13 21 l3 14 q-22 11 -35 33 l-13 -4 q-16 -3 -22 12 q-3 16 12 22 l13 4 q-1 26 11 47 l-10 10 q-12 12 -2 25 q13 11 25 1 l11 -9 q15 10 34 14 q4 1 8 2 q2 0 4 1 l-4 9 q-6 15 9 23 q15 5 23 -9 l4 -9 q21 13 35 34 l-9 4 q-14 9 -8 24 q8 14 23 8 l9 -4 q1 1 1 3 q2 5 3 11 q3 18 13 32 l-10 10 q-10 13 0 25 q8 7 15 5 q7 -2 11 -5 l9 -10 q18 10 30 11 q13 2 17 1 q0 0 0 0 l4 14 q5 15 22 12 q15 -5 12 -21 l-3 -14 q22 -12 35 -33 l13 4 q15 3 22 -12 q3 -16 -12 -22 l-13 -4 ZM370 8 q77 14 130 68 q54 53 67 130 q3 15 -6 27 q-9 12 -23 15 q-3 0 -6 0 q-29 -2 -36 -30 q-9 -54 -47 -91 q-37 -38 -91 -47 q-15 -4 -23 -15 q-9 -12 -7 -27 q3 -13 13 -21 q10 -9 23 -9 q3 0 6 0 ZM272 222 q-15 -5 -23 9 l-4 9 q-21 -13 -35 -34 l9 -4 q14 -9 8 -23 q-8 -15 -23 -10 l-9 5 q-1 -1 -1 -3 q-2 -5 -3 -11 q-3 -18 -13 -32 l10 -10 q10 -13 0 -25 q-8 -7 -15 -5 q-8 2 -11 5 l-9 10 q-18 -10 -30 -11 q-13 -2 -17 -1 q0 0 0 0 l-4 -14 q-4 -12 -17 -13 q-11 1 -15 8 q-4 8 -2 14 l3 14 q-22 12 -35 33 l-13 -4 q-15 -3 -22 12 q-3 16 12 22 l13 4 q-1 10 1 20 q2 15 7 29 l-12 4 q-15 6 -11 22 q7 15 23 11 l11 -4 q10 23 23 44 l-9 7 q-13 11 -4 25 q10 12 25 3 l9 -6 q16 19 35 35 l-7 9 q-9 14 4 25 q13 8 24 -4 l7 -9 q21 13 44 23 l-4 11 q-4 16 10 23 q17 4 24 -11 l4 -11 q21 6 32 7 q11 2 16 1 l4 14 q5 15 22 12 q15 -5 12 -21 l-3 -14 q22 -11 35 -33 l13 4 q16 3 22 -12 q3 -16 -12 -22 l-13 -4 q1 -26 -11 -47 l10 -10 q12 -12 2 -25 q-13 -11 -25 -1 l-11 9 q-15 -10 -34 -14 q-4 -1 -8 -2 q-2 0 -4 -1 l4 -9 q6 -15 -9 -23 ZM144 166 q9 55 46 92 q37 37 92 46 q15 3 23 15 q9 12 7 27 q-1 7 -10 19 q-10 13 -32 11 q-77 -14 -130 -68 q-54 -53 -68 -130 q-2 -15 7 -27 q8 -12 23 -15 q22 -2 32 11 l0 0 q9 13 10 19 Z" /><glyph glyph-name="uniE05A" unicode="&#xe05a;" d="M543 345 q4 -21 -16 -29 l-18 -6 q2 -34 -14 -62 l14 -13 q14 -16 1 -33 q-7 -8 -17 -8 q-9 0 -16 6 l-14 13 q-20 -15 -46 -20 q-5 -1 -11 -2 q-2 -1 -4 -2 l5 -12 q7 -20 -12 -31 q-5 -2 -9 -2 q-15 1 -22 14 l-6 13 q-28 -18 -46 -46 l12 -6 q19 -11 11 -31 q-7 -13 -21 -14 q-5 0 -10 3 l-13 5 q-3 -9 -4 -18 q-5 -24 -18 -43 l14 -13 q13 -17 -1 -34 q-7 -6 -16 -6 q-10 0 -18 7 l-12 13 q-27 -16 -59 -17 q-1 0 -2 1 q-1 0 -2 0 l-5 -18 q-5 -17 -23 -18 q-3 0 -6 1 q-20 7 -17 29 l5 18 q-30 16 -46 44 l-18 -5 q-4 -1 -7 -1 q-17 1 -23 17 q-4 21 16 29 l18 6 q-1 13 1 26 q3 19 9 38 l-15 5 q-20 9 -15 30 q9 20 30 15 l15 -5 q13 31 31 58 l-13 9 q-16 15 -5 33 q14 17 33 6 l13 -10 q21 26 46 47 l-9 13 q-12 18 5 33 q18 11 33 -5 l9 -13 q28 18 58 32 l-5 14 q-5 21 15 30 q21 6 30 -14 l5 -15 q21 6 43 10 q11 2 22 2 l5 17 q7 21 29 17 q20 -7 17 -29 l-5 -18 q30 -15 46 -44 l18 5 q22 4 30 -16 ZM452 267 q15 21 11 48 q-4 23 -22 38 q-17 15 -41 15 q-5 0 -10 -1 q-109 -20 -183 -94 q-75 -74 -94 -182 q-4 -27 11 -48 q15 -21 41 -26 q6 -1 11 -1 q24 1 41 15 q18 15 22 38 q12 67 58 114 q47 46 114 58 q26 5 41 26 ZM192 160 q14 0 22 -9 q9 -9 9 -22 q0 -13 -9 -22 q-9 -9 -22 -9 q-13 0 -22 9 q-9 9 -9 22 q0 13 9 22 l0 0 q8 9 22 9 ZM272 264 q22 -2 23 -24 q-2 -21 -23 -23 q-22 2 -24 24 q2 21 24 23 Z" /><glyph glyph-name="uniE05B" unicode="&#xe05b;" d="M133 128 q-18 1 -23 19 l-61 272 q-3 11 4 20 q8 9 19 9 l136 0 q42 -1 61 -17 q20 -16 25 -34 q11 -28 41 -29 l105 0 q12 0 19 -10 q7 -10 4 -21 l-62 -192 q-6 -16 -22 -17 l-246 0 ZM102 400 l51 -224 l208 0 l46 144 l-72 0 q-30 0 -53 17 q-23 17 -33 45 q0 0 0 0 l0 0 q-1 4 -9 11 l0 0 q-7 6 -32 7 l-106 0 ZM460 224 q22 -3 37 -18 q14 -15 15 -38 l0 -176 q-1 -24 -16 -40 q-16 -15 -40 -16 l-400 0 q-24 1 -40 16 q-15 16 -16 40 l0 176 q1 24 16 40 q16 15 40 16 l4 0 l11 -48 l-15 0 q-7 -1 -8 -8 l0 -88 l416 0 l0 88 q-1 7 -8 8 l-11 0 l15 48 ZM464 32 l-416 0 l0 -40 q1 -7 8 -8 l400 0 q7 1 8 8 l0 40 Z" /><glyph glyph-name="uniE05C" unicode="&#xe05c;" d="M551 136 q26 -22 25 -54 q-2 -32 -27 -52 l-101 -76 q-24 -18 -55 -18 l-369 0 q-22 2 -24 24 q2 22 24 24 l369 0 q15 0 26 9 l101 75 q8 7 8 15 q1 9 -7 16 q-14 10 -28 0 l-62 -46 q-12 -9 -27 -9 l-134 0 q-13 1 -14 14 q1 12 14 14 l60 0 q22 2 22 20 q0 17 -21 20 l-144 0 q-28 0 -50 -17 l-41 -31 l-72 0 q-22 2 -24 24 q2 22 24 24 l56 0 l28 22 q35 26 79 26 l144 0 q29 -1 49 -20 q19 -19 19 -48 l3 0 l61 46 q15 11 39 14 l0 0 q25 3 49 -16 ZM160 272 q-15 1 -16 16 l0 64 q1 15 16 16 l64 0 l0 64 q1 15 16 16 l64 0 q15 -1 16 -16 l0 -64 l64 0 q15 -1 16 -16 l0 -64 q-1 -15 -16 -16 l-64 0 l0 -64 q-1 -15 -16 -16 l-64 0 q-15 1 -16 16 l0 64 l-64 0 Z" /><glyph glyph-name="uniE05D" unicode="&#xe05d;" d="M80 256 q-4 0 -6 5 l-21 49 l-49 21 q-4 2 -4 6 q0 3 4 5 l49 21 l21 49 q2 4 6 4 q4 0 6 -4 l21 -49 l21 -9 l0 -36 l-21 -9 l-21 -49 q-2 -4 -6 -4 ZM639 16 q0 -4 -3 -6 l-49 -21 l-21 -49 q-2 -4 -6 -4 q-4 0 -6 4 l-21 49 l-49 21 q-4 2 -4 6 q0 4 4 6 l49 21 l21 49 q2 4 6 4 q4 0 5 -4 l21 -49 l49 -21 q4 -2 4 -6 ZM320 96 l30 -12 q2 -1 2 -3 q0 -3 -2 -4 l-30 -12 l-12 -31 q-2 -2 -4 -2 q-2 0 -4 3 l-12 30 l-30 12 q-2 2 -2 4 q0 1 2 3 l30 12 l12 30 q2 2 4 2 q2 0 4 -2 l12 -30 ZM474 53 q21 33 22 75 l0 168 q-2 22 -25 24 q-22 -2 -24 -24 l0 -104 q-1 -15 -16 -16 q-15 1 -16 16 l0 151 q-2 22 -24 24 q-22 -2 -24 -24 l0 -152 q-1 -13 -16 -15 q-13 1 -15 16 l0 184 q-2 22 -24 24 q-22 -2 -24 -24 l-2 -185 q-1 -13 -15 -15 q-14 1 -16 16 l0 152 q0 10 -7 17 q-7 7 -17 7 q-21 -2 -23 -24 l0 -201 q-1 -8 -8 -8 q-3 0 -6 2 l-27 29 q-10 10 -23 10 q-10 0 -20 -7 q-11 -8 -11 -24 q0 -14 9 -24 l80 -86 q48 -50 117 -51 l33 0 q57 1 97 38 q0 -1 0 -1 q-1 -3 -1 -5 q1 -23 23 -35 l3 -1 q-51 -43 -122 -44 l-33 0 q-44 0 -83 17 q-39 17 -69 49 l-82 87 q-21 24 -21 55 q1 34 24 57 q22 22 56 23 q0 0 0 0 q0 0 0 0 q8 0 17 -2 l0 122 q1 31 21 51 q20 20 50 21 q10 0 19 -2 q20 32 61 34 q40 -2 62 -34 q9 2 19 2 q24 0 42 -14 q19 -13 26 -35 q6 1 12 1 q30 -1 50 -21 q20 -20 21 -51 l0 -168 q0 -1 0 -1 q-1 -2 0 -3 q-12 -6 -19 -19 l-16 -38 l-35 -14 Z" /><glyph glyph-name="uniE05E" unicode="&#xe05e;" d="M576 256 q-1 -29 -17 -50 q-17 -21 -44 -27 q0 -1 0 -1 q2 -4 3 -17 q19 -16 25 -41 q5 -31 -14 -55 q-5 -6 -11 -11 q-3 -35 -26 -52 q-1 -23 -15 -41 q-21 -24 -52 -25 l-169 0 q-63 2 -105 44 q-10 -20 -29 -32 q-18 -12 -42 -12 q-34 1 -57 23 q-22 23 -23 57 q0 27 16 48 q16 20 40 28 q-23 36 -24 80 l0 92 q1 28 20 47 q20 19 49 20 q1 0 2 0 q1 -1 2 -1 l19 61 q7 22 25 35 q17 13 40 13 q4 0 7 -1 q6 0 12 -2 q17 12 38 12 q4 0 8 0 q31 -5 49 -31 q4 -6 7 -13 q22 -8 35 -27 q4 -7 6 -13 q22 -8 35 -28 q17 -27 8 -57 l-12 -39 q3 -9 4 -13 l36 0 q-6 14 -6 29 q2 41 33 64 q-1 0 -1 0 q0 0 0 0 q-27 1 -45 19 q-18 18 -19 45 q1 27 19 45 q18 18 45 19 q27 -1 45 -19 q18 -18 19 -45 q-2 -30 -23 -49 q1 0 3 1 q2 0 4 0 q34 -1 57 -23 l0 0 q22 -23 23 -57 ZM448 368 q15 1 16 16 q-1 15 -16 16 q-15 -1 -16 -16 q1 -15 16 -16 ZM301 276 q9 3 19 3 q11 0 22 -4 l6 19 q3 19 -13 24 l0 0 q-16 5 -25 -13 l-9 -29 ZM307 334 q3 19 -13 25 q-16 5 -25 -14 l-27 -86 q0 -1 0 -1 q-1 0 -1 0 l46 14 l20 62 ZM80 172 q2 -42 30 -70 l0 5 q1 49 28 88 q28 38 75 54 l20 6 q-4 3 -3 8 l35 112 q3 19 -13 24 q-16 5 -25 -13 l-38 -124 q-2 -4 -7 -4 q-1 0 -2 0 q-5 2 -4 8 l31 99 q4 20 -12 25 q-17 5 -25 -13 l-49 -155 l-1 41 q-2 18 -20 20 q-18 -2 -20 -20 l0 -91 ZM80 -16 q14 0 23 9 q9 9 9 23 q0 14 -9 23 q-9 9 -23 9 q-14 0 -23 -9 q-9 -9 -9 -23 q0 -14 9 -23 l0 0 q9 -9 23 -9 ZM477 88 q9 0 14 7 q6 7 5 16 q-5 15 -20 16 l-129 0 q-6 1 -7 6 q1 6 7 7 l104 0 q9 0 14 7 q6 7 5 16 q-5 15 -20 16 l-162 0 l38 14 q17 7 13 24 q-5 13 -19 14 q-2 0 -5 -1 l-88 -27 q-31 -11 -50 -37 q-19 -25 -19 -58 l0 -27 q1 -41 29 -68 q27 -28 69 -29 l169 0 q9 0 14 7 q6 7 5 16 q-5 15 -20 16 l-77 0 q-6 1 -7 6 q1 6 7 7 l104 0 q9 0 14 7 q6 7 5 16 q-5 15 -20 16 l-103 0 q-6 1 -7 6 q1 6 7 7 l130 0 ZM496 224 q14 0 23 9 q9 9 9 23 q0 14 -9 23 q-9 9 -23 9 q-14 0 -23 -9 q-9 -9 -9 -23 q0 -14 9 -23 l0 0 q9 -9 23 -9 Z" /><glyph glyph-name="uniE05F" unicode="&#xe05f;" d="M360 69 l60 -47 q-18 -4 -35 2 q-21 -24 -49 -24 q-22 0 -41 16 q-24 -17 -53 -16 q-28 1 -52 20 l-85 76 l-81 0 q-22 2 -24 24 q2 22 24 24 l100 0 l97 -88 q13 -10 29 -8 q15 2 26 15 l16 19 l37 -32 q3 -2 9 -2 q5 1 9 5 l13 16 ZM486 96 q0 -1 0 -2 q-1 0 -1 -1 l146 -114 q16 -15 4 -34 q-15 -16 -34 -4 l-592 464 q-16 15 -4 34 q8 9 19 9 q8 0 15 -5 l114 -89 q35 29 82 30 l167 0 q53 -1 91 -37 l26 -27 l97 0 q22 -2 24 -24 q-2 -22 -24 -24 l-117 0 l-48 47 q-19 17 -45 17 l-58 0 q-15 0 -27 -11 l-61 -56 l38 -29 l46 42 q12 9 23 -1 l11 -12 q9 -11 -1 -22 l-40 -37 l83 -66 l196 0 q22 -2 24 -24 q-2 -22 -24 -24 l-130 0 ZM222 299 q0 1 1 1 q0 0 0 1 l38 36 l-35 0 q-19 -1 -36 -13 l32 -25 ZM24 272 q-22 2 -24 24 q2 22 24 24 l16 1 l61 -49 l-77 0 Z" /><glyph glyph-name="uniE060" unicode="&#xe060;" d="M575 64 q-13 0 -22 9 q-9 9 -9 23 l0 176 l-55 0 q-7 2 -12 8 q-1 4 -28 29 q-27 25 -73 35 q-16 2 -29 -10 l-73 -75 l28 -22 l37 39 q17 14 34 0 q14 -17 0 -34 l-34 -34 l291 -228 q16 -15 4 -34 q-15 -16 -34 -4 l-591 463 q-16 15 -4 34 q8 9 19 9 q8 0 15 -5 l123 -96 q17 14 41 27 q23 12 54 17 q35 5 62 -18 q28 23 64 18 q46 -9 77 -31 q31 -23 45 -40 l134 0 l0 -256 l-64 0 ZM591 128 q-14 -2 -16 -15 q2 -15 16 -16 q14 1 15 16 q-1 13 -15 15 ZM285 339 q-10 6 -21 5 q-38 -8 -63 -28 l35 -27 l49 50 ZM381 53 l59 -46 q-18 -6 -36 1 q-13 -13 -33 -16 q-24 -2 -43 13 l-1 1 q-17 -11 -38 -14 q-4 0 -8 0 q-29 0 -53 19 l-77 69 l-61 0 q-9 -15 -27 -16 l-63 0 l0 256 l40 0 l56 -44 l0 -148 l74 0 l90 -81 q10 -8 25 -7 q14 2 23 13 l3 3 l15 13 l33 -27 q4 -3 7 -2 q2 0 7 4 l8 9 ZM48 96 q15 1 15 16 q-2 14 -15 15 q-13 -1 -15 -15 q1 -15 15 -16 Z" /><glyph glyph-name="uniE061" unicode="&#xe061;" d="M480 89 q22 -2 24 -24 q0 -10 -7 -17 q-7 -7 -17 -7 q-21 2 -23 24 q2 22 23 24 ZM477 173 q7 -17 -2 -30 q-9 -14 -28 -15 l-32 0 l-1 -97 q0 -26 -19 -44 q-18 -18 -45 -19 l-32 0 l0 -9 q-1 -21 -23 -23 q-22 2 -24 24 l0 56 l81 0 q15 1 16 16 l0 21 l-56 8 q-22 4 -24 27 q2 23 24 27 l56 8 l0 53 l56 0 q-4 11 -8 23 q-6 15 -12 31 q-4 13 -9 26 q-8 24 -16 45 q-8 21 -15 31 q-23 32 -57 50 q-35 18 -74 18 l-35 0 q-42 0 -78 -21 q-36 -20 -56 -58 q-23 -46 -13 -93 q9 -46 45 -79 l15 -14 l0 -176 q-2 -21 -23 -23 q-22 2 -24 24 l0 153 q-31 28 -48 67 q-17 38 -16 83 q5 81 62 132 q57 51 137 53 l35 0 q52 0 96 -24 q45 -23 74 -64 q12 -17 23 -49 l0 0 q12 -31 24 -65 l0 0 q14 -44 26 -73 ZM608 89 q22 -2 24 -24 q-2 -22 -24 -24 q-22 2 -24 24 q2 22 24 24 ZM608 137 q-22 2 -24 24 q2 22 24 24 q22 -2 24 -24 q-2 -22 -24 -24 ZM544 41 q22 -2 24 -24 q0 -10 -7 -17 q-7 -7 -17 -7 q-21 2 -23 24 q2 22 23 24 ZM544 137 q22 -2 24 -24 q0 -10 -7 -17 q-7 -7 -17 -7 q-21 2 -23 24 q2 22 23 24 ZM608 -7 q22 -2 24 -24 q-2 -22 -24 -24 q-22 2 -24 24 q2 22 24 24 ZM320 224 q-14 0 -23 9 q-9 9 -9 23 q0 14 10 23 q9 9 23 9 q13 0 22 -9 q9 -9 9 -23 q0 -14 -9 -23 l0 0 q-9 -9 -23 -9 Z" /><glyph glyph-name="uniE062" unicode="&#xe062;" d="M631 -21 q16 -16 3 -33 q-15 -16 -34 -4 l-591 463 q-16 15 -4 34 q8 9 19 9 q8 0 15 -5 l42 -33 q52 37 118 38 l35 0 q52 0 96 -24 q45 -23 74 -65 q12 -17 23 -48 q12 -32 24 -66 q14 -44 26 -73 q7 -16 -2 -30 q-9 -13 -27 -14 l-7 0 l190 -149 ZM424 176 q-4 11 -8 23 q-6 15 -12 31 q-4 13 -9 26 q-8 24 -16 45 q-8 21 -15 31 q-23 32 -57 50 q-35 18 -74 18 l-35 0 q-41 -1 -77 -21 l169 -133 q-2 5 -2 10 q0 14 10 23 q9 9 23 9 q13 0 22 -9 q9 -9 9 -23 q0 -14 -9 -23 q-9 -9 -23 -9 q-1 0 -1 0 q-1 0 -2 0 l62 -48 l45 0 ZM58 306 q-16 -43 -5 -85 q10 -42 43 -72 l15 -14 l0 -176 q-2 -21 -23 -23 q-22 2 -24 24 l0 153 q-31 28 -48 67 q-17 38 -16 83 q2 40 19 74 l39 -31 ZM288 88 q1 18 15 25 l111 -87 q-3 -25 -21 -41 q-17 -16 -43 -17 l-32 0 l0 -9 q-1 -21 -23 -23 q-22 2 -24 24 l0 56 l81 0 q15 1 16 16 l0 21 l-56 8 q-22 4 -24 27 ZM607 137 q-21 2 -23 23 q2 21 23 23 q22 -2 24 -23 q-2 -21 -24 -23 ZM607 41 q-21 2 -24 23 q2 22 24 24 q22 -2 24 -23 q-2 -22 -24 -24 ZM543 89 q-21 2 -24 23 q2 22 24 24 q22 -2 24 -23 q-2 -22 -24 -24 Z" /><glyph glyph-name="uniE063" unicode="&#xe063;" d="M352 288 q14 0 22 -9 q9 -9 9 -23 q0 -14 -9 -23 q-8 -9 -22 -9 q-14 0 -23 9 q-9 9 -9 23 q0 14 9 23 l0 0 q9 9 23 9 ZM509 173 q6 -15 0 -27 l-55 -152 q-10 -26 -32 -42 q-23 -16 -51 -16 l-115 0 q-14 0 -23 9 q-9 9 -9 23 l0 161 l-176 119 q5 -59 48 -99 l16 -14 l0 -175 q-2 -22 -24 -24 q-22 2 -24 24 l0 153 q-31 28 -48 66 q-17 39 -16 84 q5 80 61 132 q57 51 137 53 l68 0 q52 0 96 -24 q45 -23 74 -64 q12 -17 23 -49 l0 0 q12 -31 24 -65 l0 0 q14 -44 26 -73 ZM451 128 l-179 0 l0 -144 l99 0 q20 1 32 16 l-67 0 q-15 1 -16 16 q1 15 16 16 l80 0 l12 32 l-92 0 q-15 1 -16 16 q1 15 16 16 l104 0 l11 32 ZM456 176 q-9 25 -19 54 q-9 29 -20 59 q-11 30 -20 43 q-23 32 -57 50 q-34 18 -74 18 l-68 0 q-43 0 -79 -21 q-36 -21 -56 -59 q-4 -9 -7 -19 l184 -125 l216 0 Z" /><glyph glyph-name="uniE064" unicode="&#xe064;" d="M321 145 q-6 0 -11 4 l-7 8 q-15 13 -31 6 q-16 -6 -18 -26 l0 -11 q-1 -13 -14 -14 q-13 1 -14 14 l0 11 q-2 20 -18 26 q-16 7 -31 -6 l-7 -8 q-5 -4 -10 -4 q-6 0 -10 4 q-9 11 0 21 l6 7 q13 15 6 31 q-6 16 -26 18 l-10 0 q-13 1 -14 14 q1 13 14 14 l11 0 q20 2 26 18 q7 16 -6 31 l-8 7 q-8 10 0 20 q11 9 21 0 l7 -7 q15 -13 31 -6 q16 6 18 26 l0 11 q1 13 14 14 q13 -1 14 -14 l0 -10 q2 -20 18 -27 q16 -7 31 6 l7 7 q10 9 21 0 q8 -10 0 -20 l-8 -7 q-13 -15 -6 -31 q6 -16 26 -18 l11 0 q13 -1 14 -14 q-1 -13 -14 -14 l-11 0 q-20 -2 -26 -18 q-7 -16 6 -31 l8 -7 q8 -10 0 -21 q-5 -4 -10 -4 ZM208 241 q15 1 16 16 q-1 13 -15 15 q-15 -1 -16 -16 q1 -14 15 -15 ZM272 209 q15 1 16 16 q-1 15 -16 16 q-15 -1 -16 -16 q1 -15 16 -16 ZM509 173 q7 -17 -2 -30 q-10 -14 -29 -15 l-32 0 l0 -65 q0 -26 -18 -44 q-18 -18 -45 -19 l-32 0 l0 -41 q-2 -21 -23 -23 q-22 2 -24 24 l0 88 l80 0 q15 1 16 16 l0 112 l56 0 q-4 11 -8 23 q-6 15 -12 31 q-4 13 -9 26 q-8 24 -16 45 q-8 21 -15 31 q-23 32 -57 50 q-35 18 -74 18 l-67 0 q-42 0 -78 -21 q-36 -20 -56 -58 q-23 -46 -13 -93 q9 -46 45 -79 l15 -14 l0 -176 q-2 -21 -23 -23 q-22 2 -24 24 l0 153 q-31 28 -48 67 q-17 38 -16 83 q5 81 62 132 q57 51 138 53 l66 0 q52 0 96 -24 q45 -23 74 -64 q12 -17 23 -48 l0 0 q12 -32 24 -66 l0 0 q14 -44 26 -73 Z" /><glyph glyph-name="uniE065" unicode="&#xe065;" d="M224 224 q1 27 19 45 l0 0 q18 18 45 19 q27 -1 45 -19 q18 -18 19 -45 q-1 -27 -19 -45 q-18 -18 -45 -19 q-27 1 -45 19 q-18 18 -19 45 ZM176 48 q1 34 23 57 l0 0 q23 22 57 23 l64 0 q34 -1 57 -23 q22 -23 23 -57 q-1 -15 -16 -16 l-192 0 q-15 1 -16 16 ZM464 306 l0 86 q2 22 24 25 q22 -3 24 -25 l0 -127 l56 -47 q15 -15 2 -34 q-15 -15 -33 -2 l-25 20 l0 -186 q-1 -34 -23 -57 q-23 -22 -57 -23 l-288 0 q-34 1 -57 23 q-22 23 -23 57 l0 186 l-24 -20 q-19 -13 -34 2 q-13 19 2 34 l265 224 q15 12 31 0 l160 -136 ZM144 -16 l288 0 q14 0 23 9 q9 9 9 23 l0 227 l-176 150 l-176 -150 l0 -227 q0 -14 9 -23 q9 -9 23 -9 Z" /><glyph glyph-name="uniE066" unicode="&#xe066;" d="M225 443 q15 10 30 0 l216 -176 q15 -16 4 -34 q-16 -15 -34 -4 l-25 21 l0 -42 l-48 0 l0 81 l-128 104 l-128 -104 l0 -201 q1 -7 8 -8 l152 0 l0 -48 l-152 0 q-24 1 -40 16 q-15 16 -16 40 l0 162 l-25 -21 q-18 -11 -34 4 q-12 18 4 34 l216 176 ZM288 232 l0 -46 q-10 -10 -13 -24 q-5 -2 -11 -2 l-48 0 q-22 2 -24 24 l0 48 q2 22 24 24 l48 0 q22 -2 24 -24 ZM336 176 l224 0 q14 0 23 -9 q9 -9 9 -23 l0 -160 l36 0 q11 -1 12 -12 q0 -15 -11 -25 q-10 -11 -25 -11 l-312 0 q-15 0 -25 11 q-11 10 -11 25 q1 11 12 12 l36 0 l0 160 q0 14 9 23 q9 9 23 9 ZM352 128 l0 -144 l192 0 l0 144 l-192 0 Z" /></font>
</defs>
</svg>
