<?xml version="1.0" standalone="no"?>
<!DOCTYPE svg PUBLIC "-//W3C//DTD SVG 20010904//EN"
 "http://www.w3.org/TR/2001/REC-SVG-20010904/DTD/svg10.dtd">
<svg version="1.0" xmlns="http://www.w3.org/2000/svg"
 width="746.000000pt" height="746.000000pt" viewBox="0 0 746.000000 746.000000"
 preserveAspectRatio="xMidYMid meet">
<metadata>
Created by potrace 1.14, written by Peter Selinger 2001-2017
</metadata>
<g transform="translate(0.000000,746.000000) scale(0.100000,-0.100000)"
fill="#000000" stroke="none">
<path d="M2704 7449 c-4 -7 39 -22 96 -34 8 -2 69 -18 135 -35 66 -17 127 -33
135 -35 8 -2 40 -11 70 -20 30 -9 60 -17 65 -19 6 -1 30 -8 55 -15 25 -7 74
-22 110 -34 36 -12 67 -22 70 -22 23 -4 317 -110 375 -135 22 -10 92 -39 155
-66 155 -66 647 -311 670 -334 3 -3 25 -16 50 -29 25 -13 63 -36 85 -50 22
-14 42 -26 45 -26 3 0 52 -31 110 -69 104 -68 144 -89 153 -80 6 6 361 5 447
-1 36 -2 94 -7 130 -11 36 -3 79 -7 95 -9 17 -1 50 -5 75 -9 25 -4 59 -8 75
-11 33 -4 78 -13 110 -21 l20 -5 -20 16 c-20 16 -833 424 -950 477 -33 15
-100 45 -148 67 -49 23 -90 41 -93 41 -3 0 -33 14 -67 31 -34 17 -62 29 -62
28 0 -3 -116 44 -190 76 -90 39 -443 162 -550 191 -33 8 -100 27 -150 40 -49
14 -99 26 -110 28 -45 8 -91 17 -115 21 -50 10 -75 15 -114 21 -22 3 -43 7
-46 9 -3 1 -36 6 -75 10 -38 4 -83 10 -100 12 -59 8 -536 10 -541 2z"/>
<path d="M2350 7403 c-14 -2 -61 -13 -105 -24 -44 -11 -90 -22 -102 -25 -12
-2 -76 -22 -141 -43 -121 -39 -189 -69 -162 -71 39 -3 79 -11 188 -35 64 -15
124 -28 132 -31 8 -2 35 -8 60 -14 45 -11 241 -66 270 -76 8 -3 15 -5 15 -4 0
1 353 -120 434 -149 150 -55 342 -141 571 -257 273 -139 414 -214 418 -226 2
-4 11 -8 20 -8 8 0 23 -6 31 -14 37 -32 121 -68 148 -62 34 6 79 13 158 22 33
3 69 8 79 10 37 7 403 36 478 38 20 1 34 4 32 8 -5 7 -79 51 -188 111 -28 16
-69 39 -91 52 -22 13 -44 24 -50 26 -5 1 -32 16 -60 32 -90 54 -487 247 -655
319 -25 11 -58 25 -75 33 -100 44 -124 54 -160 65 -22 7 -42 16 -45 19 -3 3
-66 26 -140 50 -74 24 -142 46 -150 49 -8 3 -17 6 -20 7 -101 30 -288 82 -320
89 -14 3 -63 15 -110 27 -47 12 -94 23 -105 24 -11 2 -47 10 -80 19 -33 8 -71
17 -85 20 -14 3 -36 7 -50 10 -43 10 -114 14 -140 9z"/>
<path d="M1575 7125 c-95 -54 -100 -57 -184 -114 -37 -25 -67 -48 -69 -53 -2
-4 -9 -8 -17 -8 -13 0 -41 -28 -34 -35 3 -2 16 -6 29 -9 64 -12 406 -100 495
-127 201 -61 508 -167 590 -203 17 -8 82 -35 145 -62 116 -49 502 -239 640
-315 83 -46 64 -46 215 0 39 12 77 23 85 25 137 35 358 87 403 96 69 14 71 10
-68 85 -355 191 -781 389 -1031 479 -96 34 -287 94 -328 102 -11 2 -40 10 -65
18 -49 16 -346 91 -396 100 -16 3 -41 8 -55 12 -14 3 -34 7 -45 10 -11 2 -42
8 -70 14 -164 34 -152 35 -240 -15z"/>
<path d="M1108 6791 c-29 -25 -94 -88 -145 -140 l-93 -95 31 -13 c17 -7 42
-13 55 -13 12 0 26 -5 29 -10 4 -6 10 -8 14 -5 5 2 45 -6 90 -19 45 -13 85
-25 89 -25 43 -9 61 -14 82 -21 14 -4 34 -11 45 -15 11 -3 21 -6 22 -6 14 0
333 -119 390 -144 17 -8 33 -15 36 -15 3 0 54 -23 114 -51 59 -28 133 -62 163
-76 30 -14 159 -77 287 -139 127 -63 234 -114 238 -114 4 0 36 14 72 30 35 17
67 30 69 30 3 0 24 8 47 19 36 16 291 114 351 135 10 4 17 8 15 10 -13 12
-143 76 -155 76 -8 0 -14 5 -14 10 0 6 -4 10 -9 10 -5 0 -93 41 -196 90 -103
50 -188 90 -190 90 -1 0 -45 20 -96 44 -233 109 -402 175 -559 220 -109 31
-347 95 -435 116 -211 50 -261 61 -277 64 -9 2 -40 -17 -70 -43z"/>
<path d="M763 6403 c-63 -92 -163 -265 -163 -283 0 -6 6 -10 13 -10 16 0 372
-115 402 -129 11 -6 61 -26 111 -44 49 -19 110 -44 135 -55 24 -11 76 -33 114
-50 111 -48 301 -144 412 -209 l103 -59 267 134 c242 120 297 152 264 152 -6
0 -51 19 -99 41 -154 73 -237 112 -242 114 -5 2 -79 35 -180 83 -182 85 -280
126 -415 176 -71 26 -218 74 -245 81 -8 2 -55 16 -105 30 -49 14 -103 28 -119
31 -16 3 -41 10 -55 15 -14 6 -44 13 -66 16 -22 3 -50 9 -63 14 -13 5 -25 9
-26 9 -2 0 -21 -26 -43 -57z"/>
<path d="M5477 6307 c3 -7 35 -55 70 -108 34 -53 63 -101 63 -107 0 -7 5 -12
10 -12 6 0 10 -4 10 -9 0 -12 63 -121 67 -117 4 4 212 -64 273 -88 19 -8 67
-27 105 -41 39 -15 84 -33 100 -40 17 -8 64 -28 105 -45 152 -64 309 -137 514
-238 93 -45 170 -81 172 -80 4 5 -66 143 -100 198 -46 72 -134 180 -201 245
-67 66 -207 175 -224 175 -6 0 -11 4 -11 9 0 22 -323 165 -446 196 -159 41
-285 61 -446 69 -49 3 -66 1 -61 -7z"/>
<path d="M539 5993 c-48 -125 -79 -227 -95 -318 -12 -70 -11 -218 2 -273 28
-122 105 -226 199 -272 91 -45 264 -33 420 29 17 6 44 17 60 23 55 21 119 50
232 105 62 30 115 54 119 53 4 -1 10 2 13 8 6 8 170 97 181 97 3 0 16 7 30 15
14 9 34 20 44 26 11 6 21 15 23 20 4 11 -356 189 -562 280 -194 84 -479 192
-555 209 -8 2 -15 4 -15 5 0 1 -9 3 -19 5 -11 2 -30 6 -43 10 -19 4 -25 0 -34
-22z"/>
<path d="M2992 5835 c-18 -29 -32 -58 -32 -63 0 -6 -4 -12 -8 -14 -5 -1 -22
-28 -39 -58 -16 -30 -39 -71 -50 -90 -46 -79 -202 -347 -222 -380 -11 -19 -24
-42 -28 -50 -3 -8 -16 -31 -28 -50 -12 -19 -22 -37 -22 -40 0 -3 -16 -31 -37
-62 -20 -31 -36 -60 -36 -63 0 -3 -12 -24 -27 -48 -14 -23 -40 -67 -56 -97
-17 -30 -33 -57 -36 -60 -3 -3 -17 -25 -30 -50 -24 -44 -260 -454 -300 -521
-11 -19 -30 -53 -42 -76 -12 -24 -25 -43 -30 -43 -5 0 -9 -7 -9 -15 0 -8 -16
-39 -35 -70 -20 -30 -39 -63 -42 -73 -4 -9 -11 -21 -16 -27 -6 -8 -383 -658
-491 -850 -13 -22 -56 -96 -96 -165 -40 -69 -84 -145 -98 -169 -14 -25 -38
-68 -55 -95 -30 -51 -39 -68 -104 -181 -19 -33 -43 -76 -54 -95 -12 -19 -32
-54 -45 -77 l-25 -43 969 0 969 0 29 52 c16 28 36 63 44 77 8 14 31 53 50 86
19 33 40 67 45 76 6 9 22 38 36 65 15 27 48 85 74 129 57 96 78 133 118 205
17 30 33 57 36 60 3 3 17 25 30 50 14 25 105 184 203 354 98 170 178 311 178
314 0 3 6 13 14 21 7 9 28 43 46 76 17 33 35 65 40 70 4 6 22 36 39 68 18 32
45 79 61 105 16 26 37 64 47 85 10 20 21 37 25 37 5 0 8 4 8 10 0 5 13 31 29
58 15 26 39 68 53 93 57 99 302 521 337 579 12 19 28 50 37 69 13 29 18 32 29
20 11 -12 104 -171 193 -329 33 -59 190 -331 202 -350 5 -8 31 -53 58 -100 27
-47 59 -103 72 -125 12 -22 34 -60 48 -85 14 -25 36 -62 49 -82 12 -21 23 -42
23 -48 0 -5 5 -10 10 -10 6 0 10 -4 10 -9 0 -6 41 -81 91 -168 51 -87 101
-174 112 -193 21 -39 153 -266 167 -290 17 -28 73 -125 93 -160 10 -19 41 -72
68 -118 27 -45 49 -87 49 -92 0 -6 3 -10 8 -10 4 0 13 -13 20 -30 7 -16 24
-45 37 -64 13 -20 21 -37 17 -39 -12 -7 -1620 -2 -1627 4 -3 4 21 52 54 108
34 56 61 104 61 106 0 3 12 24 27 48 15 23 34 53 41 67 7 14 43 75 78 137 l65
111 -113 196 c-62 108 -118 204 -123 213 -28 50 -29 49 -62 -17 -4 -8 -26 -48
-50 -88 -24 -40 -43 -77 -43 -82 0 -6 -4 -10 -10 -10 -5 0 -10 -4 -10 -9 0 -5
-63 -118 -140 -251 -77 -133 -140 -245 -140 -251 0 -5 -4 -9 -10 -9 -5 0 -10
-6 -10 -14 0 -7 -8 -24 -19 -37 -10 -13 -30 -46 -45 -74 -15 -27 -31 -57 -36
-65 -32 -51 -140 -242 -140 -247 0 -4 -6 -14 -14 -22 -7 -9 -31 -47 -51 -86
-21 -38 -48 -86 -60 -105 -12 -19 -27 -45 -34 -58 l-12 -22 1606 0 1606 0 -28
53 c-15 28 -31 54 -35 55 -5 2 -8 8 -8 12 0 9 -55 107 -88 160 -9 14 -17 27
-17 30 0 3 -12 23 -26 45 -14 22 -39 65 -56 95 -17 30 -62 110 -102 177 -39
68 -71 127 -71 133 0 5 -4 10 -9 10 -5 0 -11 8 -14 18 -4 9 -17 35 -30 57 -79
131 -217 374 -217 383 0 6 -4 12 -8 14 -7 3 -112 180 -158 265 -8 16 -24 42
-34 58 -10 17 -27 46 -38 65 -40 73 -62 110 -86 149 -15 22 -26 45 -26 51 0 5
-5 10 -12 10 -6 0 -8 3 -5 7 4 3 1 13 -7 22 -7 9 -27 41 -43 71 -17 30 -63
111 -103 180 -40 69 -80 139 -90 155 -101 177 -162 283 -170 295 -5 8 -26 44
-46 80 -20 36 -44 73 -52 83 -8 9 -12 17 -9 17 4 0 -4 16 -18 35 -13 20 -30
49 -37 65 -7 17 -17 30 -21 30 -5 0 -6 4 -3 9 3 5 -1 14 -9 21 -8 7 -15 19
-15 26 0 8 -4 14 -10 14 -5 0 -10 4 -10 9 0 5 -23 49 -51 98 -29 48 -63 109
-78 134 -113 201 -277 479 -282 479 -3 0 -45 -66 -92 -147 -47 -82 -94 -164
-106 -183 -67 -116 -121 -214 -121 -221 0 -4 -4 -9 -8 -11 -5 -1 -28 -39 -52
-83 -24 -44 -50 -86 -57 -93 -7 -7 -13 -17 -13 -22 0 -5 -20 -43 -45 -84 -25
-42 -45 -81 -45 -86 0 -6 -4 -10 -9 -10 -5 0 -11 -8 -15 -17 -3 -10 -16 -36
-29 -58 -70 -120 -264 -456 -286 -495 -14 -25 -30 -48 -35 -52 -6 -4 -7 -8 -3
-8 5 0 0 -12 -11 -27 -10 -16 -80 -134 -154 -263 -75 -129 -145 -251 -157
-270 -11 -19 -24 -42 -28 -50 -4 -8 -24 -43 -45 -78 -21 -34 -38 -64 -38 -66
0 -9 -75 -131 -82 -134 -5 -2 -8 -11 -8 -21 0 -9 -9 -27 -20 -39 -11 -12 -20
-24 -20 -27 0 -4 -22 -44 -50 -91 -27 -47 -50 -89 -50 -94 0 -6 -4 -10 -10
-10 -5 0 -10 -4 -10 -9 0 -5 -39 -76 -86 -158 -48 -81 -100 -173 -117 -203
-16 -30 -38 -66 -48 -80 l-17 -25 -441 -1 c-363 -1 -441 2 -441 13 0 7 5 13
10 13 6 0 10 4 10 8 0 7 81 155 111 202 5 8 70 121 143 250 74 129 140 240
145 247 6 7 11 14 11 17 0 3 41 76 91 163 50 87 99 172 109 188 9 17 61 107
115 200 54 94 127 222 164 285 36 63 69 117 73 118 4 2 8 8 8 13 0 10 326 578
340 592 7 8 20 -13 88 -133 41 -73 95 -166 105 -178 8 -10 16 -2 35 30 13 24
38 66 54 93 16 28 32 58 35 68 3 9 9 17 14 17 5 0 9 4 9 9 0 5 27 57 61 115
l60 105 -117 203 c-64 112 -125 215 -135 229 -10 14 -16 28 -13 31 2 3 -2 11
-11 18 -8 7 -15 16 -15 20 0 4 -18 38 -40 74 -22 36 -40 70 -40 76 0 5 -4 10
-10 10 -5 0 -10 4 -10 9 0 6 -15 35 -33 65 l-33 55 -32 -54z"/>
<path d="M5756 5822 c-3 -3 -2 -10 2 -16 5 -6 19 -40 31 -76 12 -36 26 -74 31
-85 5 -11 12 -33 16 -50 4 -16 9 -34 10 -40 2 -5 14 -54 28 -109 14 -54 27
-100 30 -103 3 -3 52 -21 108 -39 57 -18 112 -38 123 -43 11 -5 90 -39 175
-76 85 -37 280 -130 432 -206 153 -75 277 -135 276 -131 -1 4 2 39 7 77 10 80
8 254 -3 304 -7 31 -17 39 -92 79 -47 24 -89 45 -95 46 -5 2 -75 34 -155 73
-80 39 -170 82 -200 96 -105 48 -205 95 -275 127 -162 74 -440 181 -449 172z"/>
<path d="M5926 5183 c11 -66 24 -222 29 -338 4 -101 3 -95 18 -95 13 0 199
-73 287 -112 45 -20 61 -27 155 -69 28 -12 85 -39 128 -60 42 -21 80 -38 82
-39 3 0 43 -19 90 -40 46 -22 89 -40 95 -40 5 0 10 -6 10 -12 2 -54 170 306
170 363 0 8 -265 141 -495 249 -233 109 -491 215 -550 226 -24 4 -25 3 -19
-33z"/>
<path d="M5953 4634 c-3 -8 -6 -117 -7 -242 -1 -204 1 -231 18 -267 11 -22 18
-43 18 -47 -3 -12 62 -61 108 -81 117 -52 320 3 500 136 74 55 171 148 164
158 -7 11 -301 153 -509 246 -93 41 -271 113 -281 113 -3 0 -7 -7 -11 -16z"/>
<path d="M1444 1690 c-109 -30 -188 -90 -221 -168 -17 -41 -20 -430 -4 -490
15 -54 69 -113 138 -149 87 -47 170 -58 272 -37 79 17 140 52 184 107 49 60
56 94 56 249 0 109 -3 141 -15 153 -19 18 -8 17 -179 19 -182 3 -205 -7 -205
-90 l0 -34 118 0 118 0 -1 -98 c-1 -54 -7 -108 -14 -119 -47 -88 -208 -95
-287 -12 l-29 30 0 224 0 223 25 27 c71 77 212 79 292 5 24 -22 70 -17 103 12
39 34 24 65 -55 110 -94 54 -193 66 -296 38z"/>
<path d="M3210 1695 c-79 -13 -143 -47 -182 -96 -50 -63 -55 -89 -53 -337 1
-254 4 -265 74 -332 92 -86 293 -102 419 -33 89 49 111 79 86 118 -27 42 -74
43 -116 2 -45 -44 -188 -63 -247 -33 -63 33 -66 46 -66 292 0 210 1 224 21
251 69 93 244 80 302 -22 9 -18 13 -18 37 -5 15 8 37 24 51 36 33 32 18 70
-44 110 -60 39 -69 42 -145 50 -34 3 -64 7 -67 8 -3 2 -34 -2 -70 -9z"/>
<path d="M85 1684 c-20 -7 -40 -15 -43 -19 -4 -4 -8 -179 -10 -389 -3 -374 -2
-383 18 -401 26 -24 123 -34 136 -14 5 8 10 46 10 84 1 39 2 77 3 85 1 14 27
16 186 16 l185 0 1 -30 c1 -17 1 -56 0 -87 -3 -70 11 -84 76 -76 85 9 82 -5
82 419 l-1 371 -23 23 c-35 34 -89 36 -117 3 -15 -17 -17 -47 -17 -232 0 -117
0 -224 -1 -239 l0 -28 -185 0 c-102 0 -186 3 -186 8 -1 4 -2 113 -3 243 -1
175 -4 240 -14 251 -18 22 -55 27 -97 12z"/>
<path d="M1970 1683 c-15 -6 -31 -17 -36 -25 -13 -20 -12 -753 1 -771 26 -35
117 -51 143 -25 7 7 12 44 12 98 l0 86 187 -1 187 0 1 -88 c1 -99 6 -107 67
-107 24 0 46 8 64 23 l27 24 0 359 c0 197 -2 370 -6 384 -13 49 -102 69 -140
31 -8 -8 -12 -87 -12 -254 l0 -242 -188 -3 -187 -2 0 239 c0 132 -3 246 -6
255 -3 9 -12 16 -20 16 -8 0 -14 3 -14 8 0 11 -49 8 -80 -5z"/>
<path d="M5546 1693 c-1 -1 -21 -3 -44 -4 -42 -3 -81 -27 -83 -52 -4 -77 -1
-727 5 -743 9 -28 47 -44 102 -44 30 0 46 5 50 15 4 8 7 102 8 208 l1 192 191
1 c105 0 195 3 200 6 17 11 8 71 -15 94 -25 26 -31 26 -288 25 l-91 0 0 87 1
88 236 -1 c130 0 244 1 254 3 26 6 23 75 -5 102 -12 11 -28 18 -35 16 -7 -3
-13 -2 -13 2 0 6 -468 11 -474 5z"/>
<path d="M3931 1671 c-11 -9 -27 -34 -36 -56 -9 -22 -20 -49 -24 -60 -5 -11
-28 -76 -51 -145 -24 -69 -48 -136 -53 -150 -6 -14 -12 -32 -13 -40 -2 -8 -30
-85 -62 -171 -70 -188 -70 -195 17 -198 74 -2 84 8 121 111 l25 73 115 1 c63
0 121 -2 127 -4 7 -2 22 -36 34 -76 11 -39 29 -79 39 -90 31 -32 150 -17 150
19 0 19 -88 284 -127 385 -4 8 -7 17 -8 20 -6 24 -18 59 -25 75 -5 11 -19 49
-31 85 -53 160 -80 219 -102 227 -37 12 -74 10 -96 -6z m79 -359 c0 -7 7 -24
16 -37 9 -14 13 -25 9 -25 -4 0 -3 -6 2 -12 6 -7 15 -27 21 -45 l10 -31 -74
-4 c-41 -2 -79 -2 -84 0 -5 2 7 47 26 100 49 138 44 131 60 97 7 -16 13 -36
14 -43z"/>
<path d="M4403 1678 c-13 -6 -26 -20 -29 -32 -4 -11 -7 -187 -7 -390 0 -365 0
-370 21 -387 31 -24 132 -25 133 -1 0 9 1 133 1 276 l1 258 26 -33 c14 -18 63
-85 108 -149 45 -63 89 -122 98 -131 8 -9 15 -21 15 -27 0 -5 4 -12 8 -14 4
-1 37 -43 72 -93 35 -49 69 -93 75 -97 23 -17 86 -8 108 15 l23 22 0 378 -1
379 -24 19 c-16 13 -39 19 -78 19 l-54 0 4 -275 c1 -151 1 -275 -2 -275 -4 0
-82 106 -176 236 -93 129 -177 244 -185 254 -8 10 -22 28 -30 39 -16 23 -68
28 -107 9z"/>
<path d="M6192 1682 c-12 -2 -30 -15 -39 -28 -14 -22 -16 -71 -15 -392 l0
-366 27 -23 c25 -22 31 -23 250 -23 220 0 224 0 251 23 19 17 28 35 29 60 1
20 -3 38 -9 40 -6 2 -93 3 -193 2 -120 -1 -184 3 -186 9 -2 6 -3 165 -3 354 1
188 -1 343 -4 343 -16 4 -88 5 -108 1z"/>
<path d="M6782 1679 c-46 -17 -47 -16 177 -383 l65 -106 -1 -146 c-1 -141 0
-148 22 -170 19 -19 33 -23 76 -21 l54 2 0 170 1 171 121 197 c67 108 127 213
134 232 12 31 11 36 -6 49 -10 7 -40 13 -69 12 l-51 -1 -100 -162 c-55 -89
-102 -162 -105 -162 -3 -1 -27 35 -55 79 -27 44 -73 116 -101 159 -29 44 -49
82 -47 85 8 8 -93 3 -115 -5z"/>
<path d="M882 1650 c-13 -12 -19 -31 -18 -57 1 -36 3 -38 38 -41 l36 -3 -3
-287 -2 -286 -32 -8 c-17 -5 -32 -12 -32 -16 -6 -33 -4 -79 4 -89 14 -19 260
-18 276 1 16 19 10 74 -9 91 -15 13 -19 15 -40 15 -6 0 -10 103 -10 290 l0
290 35 0 c35 0 35 0 35 45 0 64 -19 73 -152 73 -88 -1 -110 -4 -126 -18z"/>
<path d="M612 633 c-7 -14 -10 -589 -3 -625 0 -5 17 -8 37 -8 l35 0 -1 48 c-1
26 -1 63 -1 83 l1 37 148 0 c169 1 196 5 269 38 38 17 95 76 105 107 3 12 6
56 7 97 1 88 -15 129 -71 173 -66 53 -122 64 -330 66 -171 2 -188 0 -196 -16z
m443 -56 c77 -43 89 -66 89 -167 0 -49 -6 -95 -13 -108 -14 -26 -99 -84 -112
-77 -4 3 -10 1 -13 -4 -3 -5 -78 -10 -166 -10 l-160 -2 -1 63 c0 75 0 235 0
296 l1 43 163 -3 c156 -3 164 -4 212 -31z"/>
<path d="M1548 638 c-9 -7 -37 -62 -63 -123 -25 -60 -54 -126 -63 -145 -9 -19
-17 -39 -18 -45 -1 -5 -11 -30 -22 -55 -12 -25 -21 -48 -22 -52 -1 -4 -21 -48
-46 -98 -24 -50 -44 -97 -44 -104 0 -14 53 -17 66 -3 4 4 22 39 39 79 l32 71
166 1 167 1 34 -80 c34 -78 35 -80 70 -80 20 -1 36 2 36 5 0 6 -54 133 -99
234 -10 23 -33 75 -51 116 -18 41 -40 93 -50 115 -10 22 -30 67 -44 100 -34
75 -54 90 -88 63z m101 -264 c39 -89 71 -165 71 -168 0 -8 -275 -8 -283 0 -3
3 -2 14 3 23 5 9 30 68 56 131 72 177 75 182 78 179 2 -2 35 -77 75 -165z"/>
<path d="M2002 641 c-11 -6 -13 -72 -13 -316 1 -326 0 -325 47 -325 19 0 20 5
20 85 l-1 85 110 0 c61 0 115 -4 120 -9 6 -5 37 -23 70 -41 121 -64 140 -75
145 -81 15 -16 60 -29 133 -35 45 -4 57 -2 57 10 0 14 -28 29 -46 25 -17 -4
-167 66 -251 116 l-36 22 44 7 c77 12 159 71 182 130 5 12 9 57 9 102 1 117
-22 152 -131 203 -53 24 -65 26 -251 28 -107 2 -201 -1 -208 -6z m393 -41 c51
-16 101 -53 119 -88 9 -18 14 -56 13 -106 -1 -97 -19 -129 -95 -167 -51 -25
-59 -26 -214 -25 l-160 1 0 194 c0 120 4 196 10 200 19 11 286 5 327 -9z"/>
<path d="M3002 642 c-7 -5 -66 -132 -131 -283 -65 -151 -125 -289 -135 -307
-20 -39 -17 -45 24 -48 31 -2 34 2 76 108 15 39 24 48 44 49 33 1 258 1 291 0
22 -1 30 -11 58 -79 32 -76 35 -79 67 -79 36 0 42 13 24 45 -9 15 -90 199
-197 447 -68 157 -80 172 -121 147z m57 -172 c35 -82 61 -141 82 -182 10 -21
16 -38 14 -38 -3 0 2 -11 11 -25 l16 -25 -151 0 c-84 0 -151 3 -149 8 16 33
34 75 84 195 31 76 60 134 64 130 4 -4 17 -33 29 -63z"/>
<path d="M3459 644 c-14 -4 -21 -62 -19 -169 0 -25 0 -192 0 -205 -2 -89 4
-250 10 -259 4 -7 20 -11 36 -9 l29 3 0 82 0 81 140 0 c227 1 295 21 362 109
23 30 27 45 29 119 4 128 -24 174 -136 224 -51 22 -69 24 -245 26 -104 2 -197
1 -206 -2z m393 -51 c64 -19 127 -77 129 -119 5 -82 -2 -157 -15 -175 -48 -69
-126 -91 -316 -87 l-134 3 -1 185 c0 102 1 191 3 197 6 19 267 16 334 -4z"/>
<path d="M4184 638 c-4 -6 -8 -148 -8 -316 -1 -261 1 -305 14 -311 21 -11 582
-8 598 2 10 7 10 12 1 23 -6 7 -15 11 -20 8 -5 -3 -55 -5 -112 -5 -56 0 -172
0 -258 1 l-157 0 0 155 0 155 86 0 c48 1 158 1 245 1 86 0 157 3 157 7 -1 32
-18 35 -251 36 l-234 1 -2 105 c-1 57 2 107 6 110 5 3 131 5 279 4 259 0 292
3 258 28 -17 11 -595 7 -602 -4z"/>
<path d="M4934 638 c-9 -14 -12 -605 -3 -619 3 -5 18 -12 32 -15 l27 -4 0 277
0 278 53 -56 c51 -55 134 -148 214 -239 22 -25 80 -90 128 -145 48 -55 94
-103 101 -108 7 -4 22 -3 35 1 l22 8 0 308 c0 198 -4 311 -10 317 -6 6 -21 9
-34 7 l-23 -3 2 -205 c2 -113 4 -237 5 -276 1 -54 -1 -70 -10 -67 -7 3 -13 9
-13 13 0 4 -24 33 -52 64 -29 30 -69 74 -88 97 -19 22 -44 51 -55 63 -20 22
-107 120 -187 210 -82 93 -96 106 -116 106 -12 0 -24 -5 -28 -12z"/>
<path d="M5680 641 c-28 -19 3 -26 113 -26 l112 0 0 -297 c1 -164 4 -300 7
-303 3 -3 17 -8 32 -11 l26 -4 2 307 3 308 110 1 c133 1 130 1 116 18 -9 11
-60 14 -259 15 -141 1 -253 -3 -262 -8z"/>
<path d="M6342 636 c-10 -15 -12 -597 -1 -616 6 -13 50 -15 296 -16 271 -1
331 4 318 26 -3 5 -125 9 -277 10 -149 0 -273 2 -276 5 -4 3 -6 181 -3 278 l1
27 239 0 c132 0 242 4 245 9 3 5 -1 15 -10 22 -11 9 -72 13 -239 13 -123 1
-227 4 -231 8 -11 11 -7 200 4 207 6 3 130 6 276 5 245 0 266 1 266 17 0 16
-23 17 -300 17 -213 0 -302 -4 -308 -12z"/>
</g>
</svg>
