<?xml version="1.0" encoding="utf-8"?>
<!-- Generator: Adobe Illustrator 26.2.1, SVG Export Plug-In . SVG Version: 6.00 Build 0)  -->
<svg version="1.1" id="Calque_1" xmlns="http://www.w3.org/2000/svg" xmlns:xlink="http://www.w3.org/1999/xlink" x="0px" y="0px"
	 viewBox="0 0 32 32" style="enable-background:new 0 0 32 32;" xml:space="preserve">
<style type="text/css">
	.st0{fill:url(#SVGID_1_);stroke:#2563EB;}
	.st1{fill:#2563EB;}
	.st2{fill:#FFFFFF;}
	.st3{font-family:'Arial-BoldMT';}
	.st4{font-size:13.5px;}
</style>
<linearGradient id="SVGID_1_" gradientUnits="userSpaceOnUse" x1="-539.8846" y1="27" x2="-539.8846" y2="28" gradientTransform="matrix(26 0 0 30 14053 -808.9998)">
	<stop  offset="0" style="stop-color:#EEEEEE"/>
	<stop  offset="1" style="stop-color:#A1BCF6"/>
</linearGradient>
<path class="st0" d="M7,1h18c2.2,0,4,1.8,4,4v22c0,2.2-1.8,4-4,4H7c-2.2,0-4-1.8-4-4V5C3,2.8,4.8,1,7,1z"/>
<path class="st1" d="M4,7h24c2.2,0,4,1.8,4,4v10c0,2.2-1.8,4-4,4H4c-2.2,0-4-1.8-4-4V11C0,8.8,1.8,7,4,7z"/>
<text transform="matrix(1 0 0 1 1.7452 21)" class="st2 st3 st4">GPX</text>
</svg>
