<?xml version="1.0" encoding="utf-8"?>
<!-- Generator: Adobe Illustrator 25.4.1, SVG Export Plug-In . SVG Version: 6.00 Build 0)  -->
<svg version="1.1" id="Calque_1" xmlns="http://www.w3.org/2000/svg" xmlns:xlink="http://www.w3.org/1999/xlink" x="0px" y="0px"
	 viewBox="0 0 50 50" style="enable-background:new 0 0 50 50;" xml:space="preserve">
<style type="text/css">
	.st0{fill:#020203;}
</style>
<g id="surface1">
	<path class="st0" d="M43.09,23.97c-0.61,0.61-1.43,0.92-2.24,0.92c-0.81,0-1.62-0.3-2.24-0.91L28.19,13.69v29.95
		c0,1.73-1.42,3.04-3.08,3.04s-3.26-1.31-3.26-3.04V13.69L11.43,23.97c-1.24,1.22-3.24,1.22-4.48,0c-1.24-1.22-1.24-3.2,0-4.42
		L22.78,3.93c1.24-1.22,3.24-1.22,4.48,0L43.1,19.55C44.33,20.78,44.33,22.75,43.09,23.97z"/>
</g>
</svg>
